<svg xmlns="http://www.w3.org/2000/svg" width="154" height="154" viewBox="0 0 154 154">
  <g id="Grupo_153671" data-name="Grupo 153671" transform="translate(7165 8620)">
    <g id="globo" transform="translate(-7147 -8603.303)">
      <g id="Grupo_152217" data-name="Grupo 152217" transform="translate(0 71.64)">
        <g id="Grupo_152215" data-name="Grupo 152215" transform="translate(0 18.229)">
          <path id="Trazado_205708" data-name="Trazado 205708" d="M110.192,430.882,23.251,434.9l-8.518-4.191V420.257L30.04,415.4l80.152,3.953a.688.688,0,0,0-.034.114,15.616,15.616,0,0,0,.034,11.417Z" transform="translate(-11.321 -408.823)" fill="#faf7f7"/>
          <path id="Trazado_205709" data-name="Trazado 205709" d="M110.192,419.352a1.243,1.243,0,0,0-.049.153,15.541,15.541,0,0,0-1.047,5.483H14.733v-4.73L30.04,415.4Z" transform="translate(-11.321 -408.824)" fill="#d8ecfe"/>
          <path id="Trazado_205710" data-name="Trazado 205710" d="M6.821,402.826v.954a5.289,5.289,0,0,0,5.289,5.289H98.869a3.41,3.41,0,1,1,0,6.82H10.842A10.842,10.842,0,0,1,0,405.047v-3.489a10.842,10.842,0,0,1,10.842-10.842l15.724-3.707L40.9,390.717H58.234l18.9-3.283,14.531,3.283h7.2a3.41,3.41,0,1,1,0,6.821H12.109a5.289,5.289,0,0,0-5.289,5.289Z" transform="translate(0 -387.01)" fill="#869d69"/>
        </g>
        <g id="Grupo_152216" data-name="Grupo 152216" transform="translate(0)">
          <path id="Trazado_205711" data-name="Trazado 205711" d="M12.823,332.595,49.8,336.1l7.422-3.652v-9.111L43.886,319.1l-31.063,3.444a.578.578,0,0,1,.03.1A13.61,13.61,0,0,1,12.823,332.595Z" transform="translate(-9.853 -316.602)" fill="#faf7f7"/>
          <path id="Trazado_205712" data-name="Trazado 205712" d="M12.823,322.545a1.1,1.1,0,0,1,.042.133,13.544,13.544,0,0,1,.912,4.777H57.225v-4.122L43.887,319.1Z" transform="translate(-9.853 -316.6)" fill="#d8ecfe"/>
          <path id="Trazado_205713" data-name="Trazado 205713" d="M44.4,318.859v.831a4.609,4.609,0,0,1-4.609,4.609H2.972a2.972,2.972,0,0,0,0,5.943H40.9a9.447,9.447,0,0,0,9.447-9.447v-3.04a9.447,9.447,0,0,0-9.447-9.447H2.972a2.972,2.972,0,1,0,0,5.943H39.793a4.609,4.609,0,0,1,4.608,4.609Z" transform="translate(0 -308.307)" fill="#ffc846"/>
        </g>
      </g>
      <g id="Grupo_152218" data-name="Grupo 152218" transform="translate(43.146 0.302)">
        <path id="Trazado_205714" data-name="Trazado 205714" d="M197.267,68.849A1.79,1.79,0,0,1,196,65.794l55.777-55.776a1.79,1.79,0,0,1,2.531,2.531L198.532,68.325A1.784,1.784,0,0,1,197.267,68.849Z" transform="translate(-193.348 -7.365)" fill="#685e68"/>
        <path id="Trazado_205715" data-name="Trazado 205715" d="M305.289,314.991h8.487v15.336h-8.487Z" transform="translate(-277.726 -242.105)" fill="#7a6d79"/>
        <path id="Trazado_205716" data-name="Trazado 205716" d="M305.289,314.991h4.743v15.336h-4.743Z" transform="translate(-277.726 -242.105)" fill="#685e68"/>
        <path id="Trazado_205717" data-name="Trazado 205717" d="M251.795,31.1c0,3.447,7.049,9.575,6.018,12.675a31.272,31.272,0,0,1-50.779,13.2c-6.244-5.717-2.769-14.832-2.769-23.965,0-4.624-6.388-8.116-4.586-12.064A31.281,31.281,0,0,1,244.627,7.341C248.716,17.639,251.795,19.882,251.795,31.1Z" transform="translate(-196.331 -2.101)" fill="#d8ecfe"/>
        <path id="Trazado_205718" data-name="Trazado 205718" d="M235.932,64.192a31.321,31.321,0,0,1-28.9-7.217c-6.245-5.716-2.769-14.832-2.769-23.964,0-4.623-6.388-8.116-4.587-12.064A31.313,31.313,0,0,1,235.932,3.623a31.274,31.274,0,0,0,0,60.568Z" transform="translate(-196.329 -2.101)" fill="#c4e2ff"/>
        <path id="Trazado_205719" data-name="Trazado 205719" d="M364.359,49.494a31.179,31.179,0,0,1-1.589,9.864,4.628,4.628,0,0,0-2.979-1.08h-1.145a5.569,5.569,0,0,1-5.568-5.57,5.569,5.569,0,0,0-5.57-5.568h-2.334a9.22,9.22,0,0,1-9.221-9.222,4.579,4.579,0,0,1,4.581-4.581,4.579,4.579,0,0,0,4.581-4.581,6.035,6.035,0,0,1,4.47-5.829A31.242,31.242,0,0,1,364.359,49.494Z" transform="translate(-301.288 -17.688)" fill="#9be69d"/>
        <path id="Trazado_205720" data-name="Trazado 205720" d="M217.317,102.5a4.581,4.581,0,0,1-4.581,4.581,4.578,4.578,0,0,0-4.582,4.581,6.033,6.033,0,0,1-6.033,6.034h-3.334a31.291,31.291,0,0,1-7.355-36.029,4.631,4.631,0,0,0,2.046.473h1.145a5.571,5.571,0,0,1,5.57,5.57,5.561,5.561,0,0,0,5.568,5.57h2.334a9.221,9.221,0,0,1,9.222,9.221Z" transform="translate(-188.085 -62.822)" fill="#9be69d"/>
        <path id="Trazado_205721" data-name="Trazado 205721" d="M208.382,110.23a4.571,4.571,0,0,0-.229,1.433,6.033,6.033,0,0,1-6.033,6.034h-3.334a31.291,31.291,0,0,1-7.355-36.029,4.631,4.631,0,0,0,2.046.473h1.145a5.571,5.571,0,0,1,5.57,5.57,5.573,5.573,0,0,0,4.065,5.365q-.04.772-.039,1.554A31.132,31.132,0,0,0,208.382,110.23Z" transform="translate(-188.084 -62.823)" fill="#6fd7a3"/>
        <path id="Trazado_205722" data-name="Trazado 205722" d="M218.092,75.762a43.367,43.367,0,0,1-30.868-12.786,3.2,3.2,0,0,1,4.532-4.532A37.244,37.244,0,0,0,244.428,5.773a3.2,3.2,0,1,1,4.532-4.532,43.654,43.654,0,0,1-30.868,74.521Z" transform="translate(-186.286 -0.302)" fill="#afafaf"/>
        <path id="Trazado_205723" data-name="Trazado 205723" d="M272.026,377.3H238.6a3.875,3.875,0,0,1,0-7.75h33.423a3.875,3.875,0,1,1,0,7.75Z" transform="translate(-223.508 -284.029)" fill="#afafaf"/>
        <path id="Trazado_205724" data-name="Trazado 205724" d="M249.686,377.31H238.6a3.874,3.874,0,1,1,0-7.748h11.082a3.874,3.874,0,1,0,0,7.748Z" transform="translate(-223.509 -284.037)" fill="#636363"/>
      </g>
    </g>
    <rect id="Rectángulo_44840" data-name="Rectángulo 44840" width="154" height="154" transform="translate(-7165 -8620)" fill="none"/>
  </g>
</svg>
