<svg xmlns="http://www.w3.org/2000/svg" width="820.001" height="280.459" viewBox="0 0 820.001 280.459">
  <g id="Grupo_153674" data-name="Grupo 153674" transform="translate(7048.001 5822.898)">
    <path id="Trazado_213321" data-name="Trazado 213321" d="M0,0H279.466V60H0Z" transform="translate(-6776.291 -5822.682)" fill="#869d69"/>
    <path id="Trazado_203169" data-name="Trazado 203169" d="M0,0H14l8,29.873-8,30.34H0Z" transform="translate(-6776.291 -5822.898)" fill="#627549"/>
    <path id="Trazado_203170" data-name="Trazado 203170" d="M0,0H14l8,29.873-8,30.34H0Z" transform="translate(-6496.825 -5762.686) rotate(180)" fill="#9ab37b"/>
    <path id="Trazado_213322" data-name="Trazado 213322" d="M0,0H360.258V54H0Z" transform="translate(-6588.258 -5596.439)" fill="#fff7e3"/>
    <path id="Trazado_213323" data-name="Trazado 213323" d="M0,0H360.258V54H0Z" transform="translate(-7028 -5596.439)" fill="#fff7e3"/>
    <path id="Trazado_203058" data-name="Trazado 203058" d="M0,0H24.082L37.843,36.706,24.082,73.986H0Z" transform="translate(-6588.258 -5616.826)" fill="#ffc846"/>
    <path id="Trazado_205829" data-name="Trazado 205829" d="M0,0H24.082L37.843,36.706,24.082,73.986H0Z" transform="translate(-7028 -5616.826)" fill="#ffc846"/>
    <path id="Trazado_213324" data-name="Trazado 213324" d="M0,0H190V43.538H0Z" transform="translate(-6943 -5728.994)" fill="#e5efd4"/>
    <path id="Trazado_203173" data-name="Trazado 203173" d="M0,0H12.9l7.373,21.6L12.9,43.538H0Z" transform="translate(-6943 -5728.995)" fill="#869d69"/>
    <path id="Trazado_203168" data-name="Trazado 203168" d="M-1940-3829v108.631" transform="translate(-4698 -1933.686)" fill="none" stroke="#869d69" stroke-width="2"/>
    <path id="Trazado_203174" data-name="Trazado 203174" d="M-1940-3829v115" transform="translate(-10467.002 -3767.225) rotate(90)" fill="none" stroke="#869d69" stroke-width="2"/>
    <path id="Trazado_203133" data-name="Trazado 203133" d="M-2412.5-3768.33v-57.617h449v57.617" transform="translate(-4450 -1828.109)" fill="none" stroke="#869d69" stroke-width="2"/>
    <path id="Trazado_198306" data-name="Trazado 198306" d="M0,54.55A42.629,42.629,0,1,0,52.366,13.08L42.629,0,32.891,13.08A42.617,42.617,0,0,0,0,54.549" transform="translate(-6523 -5542.84) rotate(180)" fill="#942e19"/>
    <path id="Trazado_198307" data-name="Trazado 198307" d="M0,34.216A34.216,34.216,0,1,1,34.216,68.431h0A34.215,34.215,0,0,1,0,34.216Z" transform="translate(-6531.414 -5563.174) rotate(180)" fill="#dbdbdb"/>
    <path id="Trazado_198308" data-name="Trazado 198308" d="M0,29.286A29.286,29.286,0,1,1,29.287,58.573,29.286,29.286,0,0,1,0,29.286" transform="translate(-6536.345 -5568.104) rotate(180)" fill="#fff"/>
    <path id="Trazado_213325" data-name="Trazado 213325" d="M0,0H85.258V97.177H0Z" transform="translate(-6523 -5542.842) rotate(180)" fill="none"/>
    <path id="Trazado_198306-2" data-name="Trazado 198306" d="M0,54.55A42.629,42.629,0,1,0,52.366,13.08L42.629,0,32.891,13.08A42.617,42.617,0,0,0,0,54.549" transform="translate(-6962.742 -5542.84) rotate(180)" fill="#869d69"/>
    <path id="Trazado_198307-2" data-name="Trazado 198307" d="M0,34.216A34.216,34.216,0,1,1,34.216,68.431h0A34.215,34.215,0,0,1,0,34.216Z" transform="translate(-6971.156 -5563.174) rotate(180)" fill="#dbdbdb"/>
    <path id="Trazado_198308-2" data-name="Trazado 198308" d="M0,29.286A29.286,29.286,0,1,1,29.287,58.573,29.286,29.286,0,0,1,0,29.286" transform="translate(-6976.087 -5568.104) rotate(180)" fill="#fff"/>
    <path id="Trazado_213326" data-name="Trazado 213326" d="M0,0H85.258V97.177H0Z" transform="translate(-6962.742 -5542.842) rotate(180)" fill="none"/>
    <path id="Trazado_205849" data-name="Trazado 205849" d="M42.169,301.4H20.441a5.219,5.219,0,0,1,0-10.438H32.447a2.3,2.3,0,1,0,0-4.594H23.274c-.733,0-.837-.639-.837-1.372s.1-1.282.837-1.282h9.173a4.951,4.951,0,1,1,0,9.9H20.441a2.566,2.566,0,0,0,0,5.131H42.169a1.327,1.327,0,1,1,0,2.654Z" transform="translate(-6597.878 -5881.046)" fill="#475a61"/>
    <path id="Trazado_205850" data-name="Trazado 205850" d="M125.022,453.977H106.1v2.654h18.923a1.327,1.327,0,0,0,0-2.654Z" transform="translate(-6680.732 -6036.281)" fill="#2d2d2d"/>
    <path id="Trazado_205851" data-name="Trazado 205851" d="M115.3,290.957h-9.2v2.654h9.2a4.951,4.951,0,1,0,0-9.9h-9.2v2.651h9.2a2.3,2.3,0,0,1,0,4.594Z" transform="translate(-6680.732 -5881.045)" fill="#2d2d2d"/>
    <path id="Trazado_205852" data-name="Trazado 205852" d="M338.732,192.561l14.592,5.419a.973.973,0,0,1,.079,1.825l-14.625,6.74" transform="translate(-6892.827 -5797.944)" fill="#ffc846"/>
    <path id="Trazado_205853" data-name="Trazado 205853" d="M1.448,22.85l6.946,11.8a1.043,1.043,0,0,0,1.794.006l7.126-11.913a9.9,9.9,0,0,0,1.4-5.083v-.408A9.085,9.085,0,0,0,9.639,8.139H9.358A9.36,9.36,0,0,0,0,17.5v.039A10.47,10.47,0,0,0,1.448,22.85Z" transform="translate(-6584 -5629.804)" fill="#ff0125"/>
    <path id="Trazado_205854" data-name="Trazado 205854" d="M106.214,8.14h-.287V35.158a1.03,1.03,0,0,0,.836-.5l7.126-11.913a9.9,9.9,0,0,0,1.4-5.083v-.408a9.085,9.085,0,0,0-9.079-9.109Z" transform="translate(-6680.575 -5629.805)" fill="#be2342"/>
    <path id="Trazado_213327" data-name="Trazado 213327" d="M3.679,0A3.679,3.679,0,1,1,0,3.679,3.679,3.679,0,0,1,3.679,0Z" transform="translate(-6578.32 -5615.97)" fill="#fff"/>
    <path id="Trazado_205855" data-name="Trazado 205855" d="M105.934,72.648h-.007v7.357h.007a3.679,3.679,0,1,0,0-7.357Z" transform="translate(-6680.575 -5688.618)" fill="#fff5f5"/>
    <path id="Trazado_205856" data-name="Trazado 205856" d="M323.785,215.968a1.322,1.322,0,0,1-.389-.938V193.559a1.327,1.327,0,0,1,2.654,0V215.03a1.327,1.327,0,0,1-2.265.938Z" transform="translate(-6878.844 -5797.644)" fill="#475a61"/>
    <path id="Trazado_213328" data-name="Trazado 213328" d="M3.36,0A3.36,3.36,0,1,1,0,3.36,3.36,3.36,0,0,1,3.36,0Z" transform="translate(-6557.455 -5584.647)" fill="#869d69"/>
    <path id="Trazado_205849-2" data-name="Trazado 205849" d="M16.549,301.4H38.276a5.219,5.219,0,1,0,0-10.438H26.27a2.3,2.3,0,1,1,0-4.594h9.173c.733,0,.837-.639.837-1.372s-.1-1.282-.837-1.282H26.27a4.951,4.951,0,1,0,0,9.9H38.276a2.566,2.566,0,0,1,0,5.131H16.549a1.327,1.327,0,1,0,0,2.654Z" transform="translate(-7031.331 -5881.046)" fill="#475a61"/>
    <path id="Trazado_205850-2" data-name="Trazado 205850" d="M107.426,453.977h18.923v2.654H107.426a1.327,1.327,0,0,1,0-2.654Z" transform="translate(-7122.208 -6036.281)" fill="#2d2d2d"/>
    <path id="Trazado_205851-2" data-name="Trazado 205851" d="M111.049,290.956h9.2v2.654h-9.2a4.951,4.951,0,1,1,0-9.9h9.2v2.651h-9.2a2.3,2.3,0,0,0,0,4.594Z" transform="translate(-7116.109 -5881.045)" fill="#2d2d2d"/>
    <path id="Trazado_205857" data-name="Trazado 205857" d="M283.93,8.921c-.7-4.375,1.284-7.277,5.168-8.436A12.341,12.341,0,0,1,291.89,0a.674.674,0,0,1,.746.8c-.678,3.446-1.4,5.492-2.343,6.634-1.514,1.834-3.269,1.166-5.455,2.006A.674.674,0,0,1,283.93,8.921Z" transform="translate(-7301.128 -5602.644)" fill="#6b0"/>
    <path id="Trazado_205858" data-name="Trazado 205858" d="M38.783,9.444c-2.187-.84-3.941-.172-5.455-2.006C32.385,6.3,31.662,4.25,30.984.8a.674.674,0,0,1,.746-.8c5.445.385,8.841,3.416,7.959,8.916A.674.674,0,0,1,38.783,9.444Z" transform="translate(-7059.665 -5602.645)" fill="#9cdd05"/>
    <path id="Trazado_205859" data-name="Trazado 205859" d="M140.462,108.78c-4.49,4.115-4.618,6.97-4.766,10.275-.01.227-.021.456-.032.686a.674.674,0,0,1-1.346,0c-.012-.23-.022-.459-.032-.686-.148-3.306-.276-6.161-4.766-10.275a.674.674,0,1,1,.91-.993,15.161,15.161,0,0,1,4.561,6.557,15.158,15.158,0,0,1,4.561-6.557.674.674,0,1,1,.91.993Z" transform="translate(-7153.578 -5705.421)" fill="#c3ea21"/>
    <path id="Trazado_205860" data-name="Trazado 205860" d="M261.449,108.78c-4.49,4.115-4.618,6.97-4.766,10.275-.01.227-.021.456-.032.686a.649.649,0,0,1-.673.64v-6.037a15.158,15.158,0,0,1,4.561-6.557.674.674,0,1,1,.91.993Z" transform="translate(-7274.564 -5705.421)" fill="#9cdd05"/>
    <path id="Trazado_205861" data-name="Trazado 205861" d="M104.1,364.675a2.68,2.68,0,0,0-2.964-1.3,3.355,3.355,0,0,0-5.488,0,2.68,2.68,0,0,0-2.964,1.3A2.021,2.021,0,0,0,93,368.692h10.78a2.021,2.021,0,0,0,.318-4.017Z" transform="translate(-7116.976 -5948.342)" fill="#c86e59"/>
    <path id="Trazado_205862" data-name="Trazado 205862" d="M263.389,366.671a2.024,2.024,0,0,1-2.021,2.021h-5.39v-6.737a3.374,3.374,0,0,1,2.744,1.424,2.68,2.68,0,0,1,2.964,1.3A2.024,2.024,0,0,1,263.389,366.671Z" transform="translate(-7274.565 -5948.342)" fill="#a34f3e"/>
    <path id="Trazado_205863" data-name="Trazado 205863" d="M171.726,36.695h8.842v12.94h-8.842Z" transform="translate(-7171.75 -5656.425)" fill="#df0c2a"/>
    <path id="Trazado_205864" data-name="Trazado 205864" d="M255.562,36.695h4.421V49.641h-4.421Z" transform="translate(-7251.165 -5656.425)" fill="#b80d26"/>
    <path id="Trazado_205865" data-name="Trazado 205865" d="M226.448,334.838s-.148,9.285-1.683,9.285-1.76-9.285-1.76-9.285Z" transform="translate(-7220.324 -5938.845)" fill="#eee1dc"/>
    <path id="Trazado_205866" data-name="Trazado 205866" d="M255.878,344.122h.026c1.536,0,1.684-9.285,1.684-9.285h-1.709v9.284Z" transform="translate(-7251.464 -5938.846)" fill="#ccbeb9"/>
    <path id="Trazado_205867" data-name="Trazado 205867" d="M108.686,3.838h14.481a.555.555,0,0,0,.527-.554V.578a.555.555,0,0,0-.555-.555H108.714a.555.555,0,0,0-.555.555V3.284A.555.555,0,0,0,108.686,3.838Z" transform="translate(-7111.535 -5621.687)" fill="#ff4f68"/>
    <path id="Trazado_205868" data-name="Trazado 205868" d="M100.582,256.7,96.1,252.848H87.259L82.781,256.7a.623.623,0,0,0-.217.472v.381a.623.623,0,0,0,.623.623h16.988a.623.623,0,0,0,.623-.623v-.381a.623.623,0,0,0-.217-.472Z" transform="translate(-7087.29 -5861.179)" fill="#ff4f68"/>
    <path id="Trazado_205869" data-name="Trazado 205869" d="M262.772,3.817a.555.555,0,0,0,.552-.555V.557A.555.555,0,0,0,262.769,0h-7.206V3.816Z" transform="translate(-7251.165 -5621.665)" fill="#ff0125"/>
    <path id="Trazado_205870" data-name="Trazado 205870" d="M264.39,256.7l-4.474-3.857h-4.421l0,5.333h8.492a.623.623,0,0,0,.623-.623v-.381A.623.623,0,0,0,264.39,256.7Z" transform="translate(-7251.097 -5861.177)" fill="#ff0125"/>
    <path id="Trazado_209181" data-name="Trazado 209181" d="M266.547,8.725a4.272,4.272,0,0,1-1.44,3.07,5.054,5.054,0,0,1-3.424,1.121,4.549,4.549,0,0,1-3.657-1.564,6.419,6.419,0,0,1-1.332-4.3V6.317a7.25,7.25,0,0,1,.614-3.071,4.608,4.608,0,0,1,1.756-2.038,5.482,5.482,0,0,1,6.022.412,4.592,4.592,0,0,1,1.478,3.145h-2.491a2.521,2.521,0,0,0-.651-1.7,2.411,2.411,0,0,0-1.706-.528,2.118,2.118,0,0,0-1.864.893,5.013,5.013,0,0,0-.635,2.769v.912a5.352,5.352,0,0,0,.594,2.864,2.078,2.078,0,0,0,1.872.905,2.459,2.459,0,0,0,1.722-.527,2.383,2.383,0,0,0,.652-1.631Z" transform="translate(-6945 -5800.436)" fill="#fff"/>
    <path id="Trazado_209182" data-name="Trazado 209182" d="M267.651,8.176a5.315,5.315,0,0,1,.515-2.382,3.765,3.765,0,0,1,1.481-1.618,4.315,4.315,0,0,1,2.246-.573,4.09,4.09,0,0,1,2.967,1.112,4.464,4.464,0,0,1,1.283,3.022l.016.614a4.7,4.7,0,0,1-1.153,3.316,4.473,4.473,0,0,1-6.2,0,4.776,4.776,0,0,1-1.158-3.386Zm2.4.171a3.365,3.365,0,0,0,.481,1.958,1.729,1.729,0,0,0,2.74.008,3.677,3.677,0,0,0,.489-2.141,3.326,3.326,0,0,0-.489-1.945,1.593,1.593,0,0,0-1.378-.69,1.567,1.567,0,0,0-1.362.686,3.742,3.742,0,0,0-.481,2.124" transform="translate(-6945 -5800.436)" fill="#fff"/>
    <path id="Trazado_209183" data-name="Trazado 209183" d="M277.263,8.176a5.315,5.315,0,0,1,.515-2.382,3.765,3.765,0,0,1,1.481-1.618,4.315,4.315,0,0,1,2.246-.573,4.09,4.09,0,0,1,2.967,1.112,4.464,4.464,0,0,1,1.283,3.022l.016.614a4.7,4.7,0,0,1-1.153,3.316,4.473,4.473,0,0,1-6.2,0,4.776,4.776,0,0,1-1.158-3.386Zm2.4.171a3.365,3.365,0,0,0,.481,1.958,1.729,1.729,0,0,0,2.74.008,3.676,3.676,0,0,0,.489-2.141,3.326,3.326,0,0,0-.489-1.945,1.593,1.593,0,0,0-1.378-.69,1.567,1.567,0,0,0-1.362.686,3.742,3.742,0,0,0-.481,2.124" transform="translate(-6945 -5800.436)" fill="#fff"/>
    <path id="Trazado_209184" data-name="Trazado 209184" d="M292.3,6.018a6.559,6.559,0,0,0-.863-.066,1.757,1.757,0,0,0-1.785.921V12.75h-2.4V3.769h2.266l.067,1.071a2.221,2.221,0,0,1,2-1.237,2.508,2.508,0,0,1,.747.108Z" transform="translate(-6945 -5800.436)" fill="#fff"/>
    <path id="Trazado_209185" data-name="Trazado 209185" d="M292.918,8.194a5.416,5.416,0,0,1,.942-3.346A3.057,3.057,0,0,1,296.438,3.6a2.748,2.748,0,0,1,2.166.98V0h2.407v12.75h-2.166l-.116-.955a2.822,2.822,0,0,1-2.308,1.121,3.047,3.047,0,0,1-2.544-1.249,5.584,5.584,0,0,1-.959-3.474m2.4.17a3.556,3.556,0,0,0,.44,1.943,1.43,1.43,0,0,0,1.278.676,1.6,1.6,0,0,0,1.569-.942V6.479a1.581,1.581,0,0,0-1.552-.941q-1.736,0-1.735,2.826" transform="translate(-6945 -5800.436)" fill="#fff"/>
    <path id="Trazado_209186" data-name="Trazado 209186" d="M307.005,12.916a4.407,4.407,0,0,1-3.216-1.212,4.306,4.306,0,0,1-1.242-3.229V8.242a5.434,5.434,0,0,1,.523-2.419,3.837,3.837,0,0,1,1.482-1.643,4.155,4.155,0,0,1,2.187-.578,3.725,3.725,0,0,1,2.9,1.163,4.718,4.718,0,0,1,1.059,3.3v.979H304.98a2.227,2.227,0,0,0,.7,1.412,2.121,2.121,0,0,0,1.482.531,2.588,2.588,0,0,0,2.166-1.005l1.179,1.32a3.6,3.6,0,0,1-1.461,1.191,4.793,4.793,0,0,1-2.042.428m-.274-7.379a1.5,1.5,0,0,0-1.158.483A2.507,2.507,0,0,0,305,7.4h3.337V7.213a1.786,1.786,0,0,0-.431-1.239,1.551,1.551,0,0,0-1.179-.437" transform="translate(-6945 -5800.436)" fill="#fff"/>
    <path id="Trazado_209187" data-name="Trazado 209187" d="M314.268,3.769l.075,1.038a3.134,3.134,0,0,1,2.581-1.2,2.6,2.6,0,0,1,2.125.839,3.906,3.906,0,0,1,.714,2.506v5.8h-2.4V6.993a1.567,1.567,0,0,0-.332-1.111,1.484,1.484,0,0,0-1.1-.344,1.651,1.651,0,0,0-1.519.864V12.75h-2.4V3.769Z" transform="translate(-6945 -5800.436)" fill="#fff"/>
    <path id="Trazado_209188" data-name="Trazado 209188" d="M326.786,12.75a2.659,2.659,0,0,1-.241-.805,2.9,2.9,0,0,1-2.266.971,3.188,3.188,0,0,1-2.187-.764,2.452,2.452,0,0,1-.868-1.925,2.537,2.537,0,0,1,1.059-2.192,5.218,5.218,0,0,1,3.059-.771h1.1V6.748a1.484,1.484,0,0,0-.32-1,1.26,1.26,0,0,0-1.009-.373,1.429,1.429,0,0,0-.95.291.984.984,0,0,0-.344.8h-2.4a2.415,2.415,0,0,1,.481-1.446,3.191,3.191,0,0,1,1.361-1.041,4.959,4.959,0,0,1,1.976-.377,3.928,3.928,0,0,1,2.636.833,2.92,2.92,0,0,1,.975,2.345v3.894a4.278,4.278,0,0,0,.357,1.934v.141ZM324.8,11.082a2.059,2.059,0,0,0,.979-.237,1.556,1.556,0,0,0,.665-.635V8.666h-.9q-1.8,0-1.917,1.245l-.009.142a.956.956,0,0,0,.316.738,1.228,1.228,0,0,0,.863.291" transform="translate(-6945 -5800.436)" fill="#fff"/>
    <path id="Trazado_209189" data-name="Trazado 209189" d="M330.322,8.194a5.415,5.415,0,0,1,.942-3.346A3.057,3.057,0,0,1,333.842,3.6a2.748,2.748,0,0,1,2.166.98V0h2.407v12.75h-2.166l-.116-.955a2.822,2.822,0,0,1-2.308,1.121,3.048,3.048,0,0,1-2.544-1.249,5.584,5.584,0,0,1-.959-3.474m2.4.17a3.556,3.556,0,0,0,.44,1.943,1.43,1.43,0,0,0,1.278.676,1.6,1.6,0,0,0,1.569-.942V6.479a1.581,1.581,0,0,0-1.552-.941q-1.735,0-1.735,2.826" transform="translate(-6945 -5800.436)" fill="#fff"/>
    <path id="Trazado_209190" data-name="Trazado 209190" d="M345.479,12.75a2.66,2.66,0,0,1-.241-.805,2.9,2.9,0,0,1-2.266.971,3.188,3.188,0,0,1-2.187-.764,2.452,2.452,0,0,1-.868-1.925,2.537,2.537,0,0,1,1.059-2.192,5.218,5.218,0,0,1,3.059-.771h1.1V6.748a1.484,1.484,0,0,0-.32-1,1.26,1.26,0,0,0-1.009-.373,1.429,1.429,0,0,0-.95.291.984.984,0,0,0-.344.8h-2.4a2.415,2.415,0,0,1,.481-1.446,3.191,3.191,0,0,1,1.361-1.041,4.959,4.959,0,0,1,1.976-.377,3.928,3.928,0,0,1,2.636.833,2.92,2.92,0,0,1,.975,2.345v3.894a4.278,4.278,0,0,0,.357,1.934v.141Zm-1.984-1.668a2.059,2.059,0,0,0,.979-.237,1.555,1.555,0,0,0,.665-.635V8.666h-.9q-1.8,0-1.917,1.245l-.009.142a.956.956,0,0,0,.316.738,1.228,1.228,0,0,0,.863.291" transform="translate(-6945 -5800.436)" fill="#fff"/>
    <path id="Trazado_209191" data-name="Trazado 209191" d="M354.253,10.268a.771.771,0,0,0-.436-.692,4.933,4.933,0,0,0-1.4-.453q-3.205-.674-3.205-2.722a2.468,2.468,0,0,1,.993-2,4,4,0,0,1,2.593-.8,4.307,4.307,0,0,1,2.736.806A2.536,2.536,0,0,1,356.561,6.5h-2.4a1.162,1.162,0,0,0-.332-.851,1.408,1.408,0,0,0-1.038-.336,1.444,1.444,0,0,0-.938.273.869.869,0,0,0-.332.7.739.739,0,0,0,.378.643,3.878,3.878,0,0,0,1.274.424,10.48,10.48,0,0,1,1.511.4,2.483,2.483,0,0,1,1.9,2.415,2.343,2.343,0,0,1-1.055,1.989,4.54,4.54,0,0,1-2.722.759,4.742,4.742,0,0,1-2.005-.4,3.365,3.365,0,0,1-1.374-1.1,2.567,2.567,0,0,1-.5-1.515h2.275a1.247,1.247,0,0,0,.473.979,1.874,1.874,0,0,0,1.178.341,1.746,1.746,0,0,0,1.042-.261.816.816,0,0,0,.353-.686" transform="translate(-6945 -5800.436)" fill="#fff"/>
    <path id="Trazado_209192" data-name="Trazado 209192" d="M4.047,233.033a7.056,7.056,0,0,1-2.809-1.363,2.6,2.6,0,0,1-.879-2,2.75,2.75,0,0,1,1.075-2.223,4.268,4.268,0,0,1,2.793-.879,4.666,4.666,0,0,1,2.09.453,3.442,3.442,0,0,1,1.421,1.25,3.2,3.2,0,0,1,.5,1.742H6.735a2.081,2.081,0,0,0-.657-1.627,2.669,2.669,0,0,0-1.851-.591,2.734,2.734,0,0,0-1.731.489,1.63,1.63,0,0,0-.621,1.357,1.467,1.467,0,0,0,.59,1.179,5.794,5.794,0,0,0,2.008.88,9.351,9.351,0,0,1,2.219.88,3.372,3.372,0,0,1,1.187,1.121,2.86,2.86,0,0,1,.387,1.508,2.66,2.66,0,0,1-1.078,2.215,4.6,4.6,0,0,1-2.883.832,5.342,5.342,0,0,1-2.188-.45,3.681,3.681,0,0,1-1.566-1.23A3.005,3.005,0,0,1,0,234.806H1.508a1.958,1.958,0,0,0,.762,1.629,3.2,3.2,0,0,0,2.035.6,2.948,2.948,0,0,0,1.82-.484,1.575,1.575,0,0,0,.633-1.321,1.544,1.544,0,0,0-.586-1.293,6.78,6.78,0,0,0-2.125-.9" transform="translate(-6945 -5800.436)" fill="#12263f"/>
    <path id="Trazado_209193" data-name="Trazado 209193" d="M13.469,238.259a3.692,3.692,0,0,1-2.8-1.129,4.189,4.189,0,0,1-1.078-3.019v-.266a5.075,5.075,0,0,1,.48-2.246,3.74,3.74,0,0,1,1.344-1.547,3.379,3.379,0,0,1,1.871-.558,3.17,3.17,0,0,1,2.563,1.085,4.706,4.706,0,0,1,.914,3.11v.6H11.039a3.008,3.008,0,0,0,.73,2.02,2.3,2.3,0,0,0,1.778.769,2.524,2.524,0,0,0,1.3-.312,3.241,3.241,0,0,0,.929-.828l.883.687a3.548,3.548,0,0,1-3.187,1.633m-.18-7.578a1.928,1.928,0,0,0-1.469.637,3.1,3.1,0,0,0-.734,1.785H15.32v-.109a2.752,2.752,0,0,0-.594-1.708,1.816,1.816,0,0,0-1.437-.6" transform="translate(-6945 -5800.436)" fill="#12263f"/>
    <path id="Trazado_209194" data-name="Trazado 209194" d="M18.094,233.806a4.974,4.974,0,0,1,.914-3.145,2.924,2.924,0,0,1,2.422-1.168,2.909,2.909,0,0,1,2.414,1.094l.07-.937h1.32v8.25a3.441,3.441,0,0,1-.972,2.586,3.591,3.591,0,0,1-2.613.945,4.343,4.343,0,0,1-1.79-.391,3.074,3.074,0,0,1-1.335-1.07l.75-.867a2.825,2.825,0,0,0,2.273,1.148,2.216,2.216,0,0,0,1.645-.594,2.268,2.268,0,0,0,.589-1.671v-.727a2.969,2.969,0,0,1-2.367,1,2.886,2.886,0,0,1-2.4-1.2,5.224,5.224,0,0,1-.918-3.258m1.453.164a3.787,3.787,0,0,0,.586,2.246,1.905,1.905,0,0,0,1.641.817,2.117,2.117,0,0,0,2.007-1.243v-3.859a2.14,2.14,0,0,0-1.992-1.211,1.919,1.919,0,0,0-1.648.82,4.128,4.128,0,0,0-.594,2.43" transform="translate(-6945 -5800.436)" fill="#12263f"/>
    <path id="Trazado_209195" data-name="Trazado 209195" d="M32.633,237.266a3.067,3.067,0,0,1-2.477.993,2.625,2.625,0,0,1-2.058-.786,3.391,3.391,0,0,1-.715-2.324v-5.5h1.445v5.461q0,1.922,1.563,1.922a2.163,2.163,0,0,0,2.2-1.233v-6.15h1.445V238.1H32.664Zm-1.172-11.148h1.75l-2.094,2.3-1.164,0Z" transform="translate(-6945 -5800.436)" fill="#12263f"/>
    <path id="Trazado_209196" data-name="Trazado 209196" d="M37.6,229.65l.047,1.062a3.079,3.079,0,0,1,2.531-1.218q2.679,0,2.7,3.023V238.1H41.438v-5.594a1.947,1.947,0,0,0-.418-1.351,1.673,1.673,0,0,0-1.277-.438,2.087,2.087,0,0,0-1.235.375,2.545,2.545,0,0,0-.828.985V238.1H36.235V229.65Z" transform="translate(-6945 -5800.436)" fill="#12263f"/>
    <path id="Trazado_209197" data-name="Trazado 209197" d="M52.532,238.259a3.692,3.692,0,0,1-2.8-1.129,4.189,4.189,0,0,1-1.078-3.019v-.266a5.075,5.075,0,0,1,.48-2.246,3.74,3.74,0,0,1,1.344-1.547,3.379,3.379,0,0,1,1.871-.558,3.17,3.17,0,0,1,2.563,1.085,4.706,4.706,0,0,1,.914,3.11v.6H50.1a3.008,3.008,0,0,0,.73,2.02,2.3,2.3,0,0,0,1.778.769,2.524,2.524,0,0,0,1.3-.312,3.241,3.241,0,0,0,.929-.828l.883.687a3.548,3.548,0,0,1-3.187,1.633m-.18-7.578a1.928,1.928,0,0,0-1.469.637,3.1,3.1,0,0,0-.734,1.785h4.234v-.109a2.752,2.752,0,0,0-.594-1.708,1.816,1.816,0,0,0-1.437-.6" transform="translate(-6945 -5800.436)" fill="#12263f"/>
    <path id="Trazado_213329" data-name="Trazado 213329" d="M0,0H1.445V12H0Z" transform="translate(-6887.375 -5574.333)" fill="#12263f"/>
    <path id="Trazado_209198" data-name="Trazado 209198" d="M70.266,235.861a1.063,1.063,0,0,0-.441-.91,4.275,4.275,0,0,0-1.539-.559,7.266,7.266,0,0,1-1.743-.562,2.49,2.49,0,0,1-.953-.782,1.863,1.863,0,0,1-.308-1.078,2.192,2.192,0,0,1,.879-1.757,3.425,3.425,0,0,1,2.246-.719,3.533,3.533,0,0,1,2.332.742,2.358,2.358,0,0,1,.894,1.9H70.18a1.3,1.3,0,0,0-.5-1.023,1.89,1.89,0,0,0-1.269-.43,1.977,1.977,0,0,0-1.235.344,1.081,1.081,0,0,0-.445.9.878.878,0,0,0,.414.79,5.109,5.109,0,0,0,1.5.507,7.881,7.881,0,0,1,1.754.578,2.558,2.558,0,0,1,1,.809,1.99,1.99,0,0,1,.324,1.152,2.165,2.165,0,0,1-.906,1.817,3.8,3.8,0,0,1-2.351.683,4.26,4.26,0,0,1-1.8-.359,2.914,2.914,0,0,1-1.223-1,2.42,2.42,0,0,1-.441-1.394h1.445a1.5,1.5,0,0,0,.582,1.152,2.258,2.258,0,0,0,1.434.426,2.335,2.335,0,0,0,1.316-.332,1.023,1.023,0,0,0,.5-.887" transform="translate(-6945 -5800.436)" fill="#12263f"/>
    <path id="Trazado_209199" data-name="Trazado 209199" d="M73.6,227.408a.862.862,0,0,1,.214-.594.809.809,0,0,1,.637-.242.822.822,0,0,1,.641.242.856.856,0,0,1,.219.594.856.856,0,1,1-1.711,0M75.164,238.1H73.719V229.65h1.445Z" transform="translate(-6945 -5800.436)" fill="#12263f"/>
    <path id="Trazado_209200" data-name="Trazado 209200" d="M82.4,235.861a1.063,1.063,0,0,0-.441-.91,4.275,4.275,0,0,0-1.539-.559,7.266,7.266,0,0,1-1.743-.562,2.49,2.49,0,0,1-.953-.782,1.863,1.863,0,0,1-.308-1.078,2.192,2.192,0,0,1,.879-1.757,3.425,3.425,0,0,1,2.246-.719,3.533,3.533,0,0,1,2.332.742,2.358,2.358,0,0,1,.894,1.9H82.312a1.3,1.3,0,0,0-.5-1.023,1.89,1.89,0,0,0-1.269-.43,1.977,1.977,0,0,0-1.235.344,1.081,1.081,0,0,0-.445.9.878.878,0,0,0,.414.79,5.109,5.109,0,0,0,1.5.507,7.881,7.881,0,0,1,1.754.578,2.558,2.558,0,0,1,1,.809,1.99,1.99,0,0,1,.324,1.152,2.165,2.165,0,0,1-.906,1.817,3.8,3.8,0,0,1-2.351.683,4.26,4.26,0,0,1-1.8-.359,2.914,2.914,0,0,1-1.223-1,2.42,2.42,0,0,1-.441-1.394H78.57a1.5,1.5,0,0,0,.582,1.152,2.258,2.258,0,0,0,1.434.426,2.335,2.335,0,0,0,1.316-.332,1.023,1.023,0,0,0,.5-.887" transform="translate(-6945 -5800.436)" fill="#12263f"/>
    <path id="Trazado_209201" data-name="Trazado 209201" d="M87.688,227.6v2.047h1.577v1.117H87.688v5.249a1.173,1.173,0,0,0,.21.763.89.89,0,0,0,.719.254,3.547,3.547,0,0,0,.687-.094V238.1a4.234,4.234,0,0,1-1.109.155,1.8,1.8,0,0,1-1.461-.586,2.516,2.516,0,0,1-.492-1.664v-5.242H84.7V229.65h1.539V227.6Z" transform="translate(-6945 -5800.436)" fill="#12263f"/>
    <path id="Trazado_209202" data-name="Trazado 209202" d="M94.461,238.259a3.692,3.692,0,0,1-2.8-1.129,4.189,4.189,0,0,1-1.078-3.019v-.266a5.075,5.075,0,0,1,.48-2.246,3.74,3.74,0,0,1,1.344-1.547,3.379,3.379,0,0,1,1.871-.558,3.17,3.17,0,0,1,2.563,1.085,4.706,4.706,0,0,1,.914,3.11v.6H92.031a3.008,3.008,0,0,0,.73,2.02,2.3,2.3,0,0,0,1.778.769,2.524,2.524,0,0,0,1.3-.312,3.241,3.241,0,0,0,.929-.828l.883.687a3.548,3.548,0,0,1-3.187,1.633m-.18-7.578a1.928,1.928,0,0,0-1.469.637,3.1,3.1,0,0,0-.734,1.785h4.234v-.109a2.752,2.752,0,0,0-.594-1.708,1.816,1.816,0,0,0-1.437-.6" transform="translate(-6945 -5800.436)" fill="#12263f"/>
    <path id="Trazado_209203" data-name="Trazado 209203" d="M100.789,229.65l.039.937a3.122,3.122,0,0,1,2.508-1.093,2.417,2.417,0,0,1,2.414,1.359,3.2,3.2,0,0,1,1.1-.984,3.24,3.24,0,0,1,1.6-.375q2.781,0,2.828,2.945V238.1h-1.445v-5.578a1.939,1.939,0,0,0-.414-1.355,1.822,1.822,0,0,0-1.391-.45,1.914,1.914,0,0,0-1.336.481,1.947,1.947,0,0,0-.617,1.293V238.1h-1.453v-5.539a1.613,1.613,0,0,0-1.805-1.844,1.934,1.934,0,0,0-1.945,1.211V238.1H99.422V229.65Z" transform="translate(-6945 -5800.436)" fill="#12263f"/>
    <path id="Trazado_209204" data-name="Trazado 209204" d="M118.671,238.1a3.052,3.052,0,0,1-.2-.891,3.225,3.225,0,0,1-2.406,1.047,2.987,2.987,0,0,1-2.051-.707,2.29,2.29,0,0,1-.8-1.793,2.391,2.391,0,0,1,1-2.051,4.734,4.734,0,0,1,2.825-.73h1.406v-.664a1.627,1.627,0,0,0-.453-1.208,1.824,1.824,0,0,0-1.336-.449,2.1,2.1,0,0,0-1.3.391,1.15,1.15,0,0,0-.523.945h-1.454a1.99,1.99,0,0,1,.45-1.222,3.052,3.052,0,0,1,1.218-.934,4.088,4.088,0,0,1,1.692-.344,3.338,3.338,0,0,1,2.289.731,2.634,2.634,0,0,1,.859,2.011v3.891a4.756,4.756,0,0,0,.3,1.852v.125Zm-2.4-1.1a2.534,2.534,0,0,0,1.289-.352,2.13,2.13,0,0,0,.883-.914V234h-1.133q-2.656,0-2.656,1.555a1.315,1.315,0,0,0,.453,1.062,1.742,1.742,0,0,0,1.164.383" transform="translate(-6945 -5800.436)" fill="#12263f"/>
    <path id="Trazado_209205" data-name="Trazado 209205" d="M125.766,233.806a4.949,4.949,0,0,1,.922-3.129,3.135,3.135,0,0,1,4.765-.168V226.1H132.9v12H131.57l-.07-.906a2.944,2.944,0,0,1-2.414,1.062,2.889,2.889,0,0,1-2.395-1.2,5.009,5.009,0,0,1-.925-3.141Zm1.445.164a3.75,3.75,0,0,0,.594,2.25,1.917,1.917,0,0,0,1.64.813,2.109,2.109,0,0,0,2.008-1.235v-3.883a2.123,2.123,0,0,0-1.992-1.195,1.927,1.927,0,0,0-1.656.82,4.128,4.128,0,0,0-.594,2.43" transform="translate(-6945 -5800.436)" fill="#12263f"/>
    <path id="Trazado_209206" data-name="Trazado 209206" d="M138.649,238.259a3.692,3.692,0,0,1-2.8-1.129,4.189,4.189,0,0,1-1.078-3.019v-.266a5.075,5.075,0,0,1,.48-2.246,3.74,3.74,0,0,1,1.344-1.547,3.379,3.379,0,0,1,1.871-.558,3.17,3.17,0,0,1,2.563,1.085,4.706,4.706,0,0,1,.914,3.11v.6h-5.727a3.008,3.008,0,0,0,.73,2.02,2.3,2.3,0,0,0,1.778.769,2.524,2.524,0,0,0,1.3-.312,3.241,3.241,0,0,0,.929-.828l.883.687a3.548,3.548,0,0,1-3.187,1.633m-.18-7.578a1.928,1.928,0,0,0-1.469.637,3.1,3.1,0,0,0-.734,1.785H140.5v-.109a2.752,2.752,0,0,0-.594-1.708,1.816,1.816,0,0,0-1.437-.6" transform="translate(-6945 -5800.436)" fill="#12263f"/>
    <path id="Trazado_209207" data-name="Trazado 209207" d="M147.2,233.8a4.984,4.984,0,0,1,.488-2.234,3.64,3.64,0,0,1,1.36-1.532,3.7,3.7,0,0,1,1.988-.539,3.565,3.565,0,0,1,2.793,1.2,4.6,4.6,0,0,1,1.066,3.179v.1a5.05,5.05,0,0,1-.472,2.215,3.6,3.6,0,0,1-1.352,1.527,3.748,3.748,0,0,1-2.02.547,3.555,3.555,0,0,1-2.785-1.2A4.576,4.576,0,0,1,147.2,233.9Zm1.453.172a3.618,3.618,0,0,0,.652,2.258,2.211,2.211,0,0,0,3.5-.012,3.95,3.95,0,0,0,.649-2.418,3.61,3.61,0,0,0-.66-2.254,2.1,2.1,0,0,0-1.754-.863,2.078,2.078,0,0,0-1.727.851,3.929,3.929,0,0,0-.656,2.438" transform="translate(-6945 -5800.436)" fill="#12263f"/>
    <path id="Trazado_209208" data-name="Trazado 209208" d="M160.789,230.947a4.384,4.384,0,0,0-.711-.055,1.906,1.906,0,0,0-1.93,1.211v6H156.7V229.65h1.406l.024.977a2.249,2.249,0,0,1,2.015-1.133,1.476,1.476,0,0,1,.641.109Z" transform="translate(-6945 -5800.436)" fill="#12263f"/>
    <path id="Trazado_209209" data-name="Trazado 209209" d="M162.125,227.408a.858.858,0,0,1,.215-.594.807.807,0,0,1,.637-.242.82.82,0,0,1,.64.242.852.852,0,0,1,.219.594.856.856,0,1,1-1.711,0m1.562,10.695h-1.445V229.65h1.445Z" transform="translate(-6945 -5800.436)" fill="#12263f"/>
    <path id="Trazado_209210" data-name="Trazado 209210" d="M165.656,233.806a4.974,4.974,0,0,1,.914-3.145,3.151,3.151,0,0,1,4.836-.074l.07-.937h1.32v8.25a3.441,3.441,0,0,1-.972,2.586,3.591,3.591,0,0,1-2.613.945,4.343,4.343,0,0,1-1.79-.391,3.074,3.074,0,0,1-1.335-1.07l.75-.867a2.825,2.825,0,0,0,2.273,1.148,2.216,2.216,0,0,0,1.645-.594,2.268,2.268,0,0,0,.589-1.671v-.727a2.969,2.969,0,0,1-2.367,1,2.886,2.886,0,0,1-2.4-1.2,5.224,5.224,0,0,1-.918-3.258m1.453.164a3.787,3.787,0,0,0,.586,2.246,1.905,1.905,0,0,0,1.641.817,2.117,2.117,0,0,0,2.007-1.243v-3.859a2.14,2.14,0,0,0-1.992-1.211,1.919,1.919,0,0,0-1.648.82,4.128,4.128,0,0,0-.594,2.43" transform="translate(-6945 -5800.436)" fill="#12263f"/>
    <path id="Trazado_209211" data-name="Trazado 209211" d="M178.485,238.259a3.692,3.692,0,0,1-2.8-1.129,4.189,4.189,0,0,1-1.078-3.019v-.266a5.075,5.075,0,0,1,.48-2.246,3.74,3.74,0,0,1,1.344-1.547,3.379,3.379,0,0,1,1.871-.558,3.17,3.17,0,0,1,2.563,1.085,4.706,4.706,0,0,1,.914,3.11v.6h-5.727a3.008,3.008,0,0,0,.73,2.02,2.3,2.3,0,0,0,1.778.769,2.524,2.524,0,0,0,1.3-.312,3.241,3.241,0,0,0,.929-.828l.883.687a3.548,3.548,0,0,1-3.187,1.633m-.18-7.578a1.928,1.928,0,0,0-1.469.637,3.1,3.1,0,0,0-.734,1.785h4.234v-.109a2.752,2.752,0,0,0-.594-1.708,1.816,1.816,0,0,0-1.437-.6" transform="translate(-6945 -5800.436)" fill="#12263f"/>
    <path id="Trazado_209212" data-name="Trazado 209212" d="M184.82,229.65l.047,1.062a3.079,3.079,0,0,1,2.531-1.218q2.679,0,2.7,3.023V238.1h-1.445v-5.594a1.947,1.947,0,0,0-.418-1.351,1.673,1.673,0,0,0-1.277-.438,2.087,2.087,0,0,0-1.235.375,2.545,2.545,0,0,0-.828.985V238.1h-1.445V229.65Z" transform="translate(-6945 -5800.436)" fill="#12263f"/>
    <path id="Trazado_209213" data-name="Trazado 209213" d="M439.734,230.529a7.056,7.056,0,0,1-2.809-1.363,2.6,2.6,0,0,1-.879-2,2.75,2.75,0,0,1,1.075-2.223,4.268,4.268,0,0,1,2.793-.879,4.666,4.666,0,0,1,2.09.453,3.442,3.442,0,0,1,1.421,1.25,3.2,3.2,0,0,1,.5,1.742h-1.507a2.081,2.081,0,0,0-.657-1.627,2.669,2.669,0,0,0-1.851-.591,2.734,2.734,0,0,0-1.731.489,1.63,1.63,0,0,0-.621,1.357,1.467,1.467,0,0,0,.59,1.179,5.794,5.794,0,0,0,2.008.88,9.351,9.351,0,0,1,2.219.88,3.372,3.372,0,0,1,1.187,1.121,2.861,2.861,0,0,1,.387,1.508,2.66,2.66,0,0,1-1.078,2.215,4.6,4.6,0,0,1-2.883.832,5.342,5.342,0,0,1-2.188-.45,3.681,3.681,0,0,1-1.566-1.23,3.005,3.005,0,0,1-.551-1.774H437.2a1.958,1.958,0,0,0,.762,1.629,3.2,3.2,0,0,0,2.035.6,2.948,2.948,0,0,0,1.82-.484,1.575,1.575,0,0,0,.633-1.321,1.544,1.544,0,0,0-.586-1.293,6.781,6.781,0,0,0-2.125-.9" transform="translate(-6945 -5800.436)" fill="#12263f"/>
    <path id="Trazado_209214" data-name="Trazado 209214" d="M449.157,235.755a3.693,3.693,0,0,1-2.8-1.129,4.189,4.189,0,0,1-1.078-3.019v-.266a5.075,5.075,0,0,1,.48-2.246,3.74,3.74,0,0,1,1.344-1.547,3.379,3.379,0,0,1,1.871-.558,3.17,3.17,0,0,1,2.563,1.085,4.706,4.706,0,0,1,.914,3.11v.6h-5.727a3.008,3.008,0,0,0,.73,2.02,2.3,2.3,0,0,0,1.778.769,2.524,2.524,0,0,0,1.3-.312,3.241,3.241,0,0,0,.929-.828l.883.687a3.548,3.548,0,0,1-3.187,1.633m-.18-7.578a1.928,1.928,0,0,0-1.469.637,3.1,3.1,0,0,0-.734,1.785h4.234v-.109a2.752,2.752,0,0,0-.594-1.708,1.816,1.816,0,0,0-1.437-.6" transform="translate(-6945 -5800.436)" fill="#12263f"/>
    <path id="Trazado_209215" data-name="Trazado 209215" d="M453.781,231.3a4.974,4.974,0,0,1,.914-3.145,3.151,3.151,0,0,1,4.836-.074l.07-.937h1.32v8.25a3.441,3.441,0,0,1-.972,2.586,3.592,3.592,0,0,1-2.613.945,4.343,4.343,0,0,1-1.79-.391,3.074,3.074,0,0,1-1.335-1.07l.75-.867a2.825,2.825,0,0,0,2.273,1.148,2.216,2.216,0,0,0,1.645-.594,2.268,2.268,0,0,0,.589-1.671v-.727a2.969,2.969,0,0,1-2.367,1,2.886,2.886,0,0,1-2.4-1.2,5.224,5.224,0,0,1-.918-3.258m1.453.164a3.787,3.787,0,0,0,.586,2.246,1.905,1.905,0,0,0,1.641.817,2.117,2.117,0,0,0,2.007-1.243v-3.859a2.14,2.14,0,0,0-1.992-1.211,1.919,1.919,0,0,0-1.648.82,4.128,4.128,0,0,0-.594,2.43" transform="translate(-6945 -5800.436)" fill="#12263f"/>
    <path id="Trazado_209216" data-name="Trazado 209216" d="M468.32,234.763a3.07,3.07,0,0,1-2.477.993,2.624,2.624,0,0,1-2.058-.786,3.391,3.391,0,0,1-.715-2.324v-5.5h1.445v5.461q0,1.922,1.563,1.922a2.163,2.163,0,0,0,2.2-1.234v-6.149h1.445V235.6h-1.375Zm-1.172-11.148h1.75l-2.094,2.3-1.164,0Z" transform="translate(-6945 -5800.436)" fill="#12263f"/>
    <path id="Trazado_209217" data-name="Trazado 209217" d="M473.289,227.146l.047,1.062a3.079,3.079,0,0,1,2.531-1.218q2.679,0,2.7,3.023V235.6h-1.445v-5.594a1.947,1.947,0,0,0-.418-1.351,1.673,1.673,0,0,0-1.277-.438,2.087,2.087,0,0,0-1.235.375,2.545,2.545,0,0,0-.828.985V235.6h-1.445v-8.453Z" transform="translate(-6945 -5800.436)" fill="#12263f"/>
    <path id="Trazado_209218" data-name="Trazado 209218" d="M488.219,235.755a3.692,3.692,0,0,1-2.8-1.129,4.189,4.189,0,0,1-1.078-3.019v-.266a5.075,5.075,0,0,1,.48-2.246,3.74,3.74,0,0,1,1.344-1.547,3.379,3.379,0,0,1,1.871-.558,3.167,3.167,0,0,1,2.562,1.085,4.706,4.706,0,0,1,.914,3.11v.6h-5.726a3.008,3.008,0,0,0,.73,2.02,2.3,2.3,0,0,0,1.778.769,2.524,2.524,0,0,0,1.3-.312,3.254,3.254,0,0,0,.929-.828l.883.687a3.548,3.548,0,0,1-3.187,1.633m-.18-7.578a1.928,1.928,0,0,0-1.469.637,3.1,3.1,0,0,0-.734,1.785h4.234v-.109a2.752,2.752,0,0,0-.594-1.708,1.816,1.816,0,0,0-1.437-.6" transform="translate(-6945 -5800.436)" fill="#12263f"/>
    <path id="Trazado_213330" data-name="Trazado 213330" d="M0,0H1.445V12H0Z" transform="translate(-6451.688 -5576.836)" fill="#12263f"/>
    <path id="Trazado_209219" data-name="Trazado 209219" d="M505.953,233.357a1.063,1.063,0,0,0-.441-.91,4.268,4.268,0,0,0-1.539-.559,7.266,7.266,0,0,1-1.743-.562,2.49,2.49,0,0,1-.953-.782,1.863,1.863,0,0,1-.308-1.078,2.192,2.192,0,0,1,.879-1.757,3.425,3.425,0,0,1,2.246-.719,3.533,3.533,0,0,1,2.332.742,2.358,2.358,0,0,1,.894,1.9h-1.453a1.3,1.3,0,0,0-.5-1.023,1.89,1.89,0,0,0-1.269-.43,1.977,1.977,0,0,0-1.235.344,1.081,1.081,0,0,0-.445.9.878.878,0,0,0,.414.79,5.11,5.11,0,0,0,1.5.507,7.863,7.863,0,0,1,1.754.578,2.558,2.558,0,0,1,1,.809,1.99,1.99,0,0,1,.324,1.152,2.163,2.163,0,0,1-.906,1.817,3.8,3.8,0,0,1-2.351.683,4.264,4.264,0,0,1-1.8-.359,2.914,2.914,0,0,1-1.223-1A2.42,2.42,0,0,1,500.68,233h1.445a1.5,1.5,0,0,0,.582,1.152,2.258,2.258,0,0,0,1.434.426,2.335,2.335,0,0,0,1.316-.332,1.021,1.021,0,0,0,.5-.887" transform="translate(-6945 -5800.436)" fill="#12263f"/>
    <path id="Trazado_209220" data-name="Trazado 209220" d="M509.289,224.9a.862.862,0,0,1,.214-.594.81.81,0,0,1,.637-.242.822.822,0,0,1,.641.242.856.856,0,0,1,.219.594.856.856,0,1,1-1.711,0m1.562,10.695h-1.445v-8.453h1.445Z" transform="translate(-6945 -5800.436)" fill="#12263f"/>
    <path id="Trazado_209221" data-name="Trazado 209221" d="M518.085,233.357a1.063,1.063,0,0,0-.441-.91,4.268,4.268,0,0,0-1.539-.559,7.266,7.266,0,0,1-1.743-.562,2.49,2.49,0,0,1-.953-.782,1.863,1.863,0,0,1-.308-1.078,2.192,2.192,0,0,1,.879-1.757,3.425,3.425,0,0,1,2.246-.719,3.532,3.532,0,0,1,2.332.742,2.358,2.358,0,0,1,.894,1.9H518a1.3,1.3,0,0,0-.5-1.023,1.89,1.89,0,0,0-1.269-.43,1.977,1.977,0,0,0-1.235.344,1.081,1.081,0,0,0-.445.9.878.878,0,0,0,.414.79,5.11,5.11,0,0,0,1.5.507,7.864,7.864,0,0,1,1.754.578,2.558,2.558,0,0,1,1,.809,1.99,1.99,0,0,1,.324,1.152,2.163,2.163,0,0,1-.906,1.817,3.8,3.8,0,0,1-2.351.683,4.264,4.264,0,0,1-1.8-.359,2.914,2.914,0,0,1-1.223-1,2.42,2.42,0,0,1-.441-1.394h1.445a1.5,1.5,0,0,0,.582,1.152,2.258,2.258,0,0,0,1.434.426,2.335,2.335,0,0,0,1.316-.332,1.021,1.021,0,0,0,.5-.887" transform="translate(-6945 -5800.436)" fill="#12263f"/>
    <path id="Trazado_209222" data-name="Trazado 209222" d="M523.375,225.1v2.047h1.577v1.117h-1.577v5.249a1.167,1.167,0,0,0,.211.763.888.888,0,0,0,.719.254,3.54,3.54,0,0,0,.686-.094V235.6a4.227,4.227,0,0,1-1.108.155,1.8,1.8,0,0,1-1.461-.586,2.516,2.516,0,0,1-.492-1.664v-5.242h-1.539v-1.117h1.539V225.1Z" transform="translate(-6945 -5800.436)" fill="#12263f"/>
    <path id="Trazado_209223" data-name="Trazado 209223" d="M530.148,235.755a3.692,3.692,0,0,1-2.8-1.129,4.189,4.189,0,0,1-1.078-3.019v-.266a5.075,5.075,0,0,1,.48-2.246,3.747,3.747,0,0,1,1.344-1.547,3.379,3.379,0,0,1,1.871-.558,3.17,3.17,0,0,1,2.563,1.085,4.706,4.706,0,0,1,.914,3.11v.6h-5.727a3.013,3.013,0,0,0,.73,2.02,2.3,2.3,0,0,0,1.778.769,2.522,2.522,0,0,0,1.3-.312,3.241,3.241,0,0,0,.929-.828l.883.687a3.547,3.547,0,0,1-3.187,1.633m-.18-7.578a1.928,1.928,0,0,0-1.469.637,3.1,3.1,0,0,0-.734,1.785H532v-.109a2.753,2.753,0,0,0-.594-1.708,1.816,1.816,0,0,0-1.437-.6" transform="translate(-6945 -5800.436)" fill="#12263f"/>
    <path id="Trazado_209224" data-name="Trazado 209224" d="M536.476,227.146l.039.937a3.122,3.122,0,0,1,2.508-1.093,2.417,2.417,0,0,1,2.414,1.359,3.2,3.2,0,0,1,1.1-.984,3.24,3.24,0,0,1,1.6-.375q2.782,0,2.828,2.945V235.6h-1.445v-5.578a1.939,1.939,0,0,0-.414-1.355,1.821,1.821,0,0,0-1.391-.45,1.916,1.916,0,0,0-1.336.481,1.951,1.951,0,0,0-.617,1.293V235.6H540.3V230.06a1.613,1.613,0,0,0-1.8-1.844,1.934,1.934,0,0,0-1.945,1.211V235.6h-1.445v-8.453Z" transform="translate(-6945 -5800.436)" fill="#12263f"/>
    <path id="Trazado_209225" data-name="Trazado 209225" d="M554.358,235.6a3.052,3.052,0,0,1-.2-.891,3.223,3.223,0,0,1-2.406,1.047,2.987,2.987,0,0,1-2.051-.707,2.29,2.29,0,0,1-.8-1.793,2.391,2.391,0,0,1,1-2.051,4.734,4.734,0,0,1,2.825-.73h1.406v-.664a1.627,1.627,0,0,0-.453-1.208,1.822,1.822,0,0,0-1.336-.449,2.1,2.1,0,0,0-1.3.391,1.15,1.15,0,0,0-.523.945h-1.454a1.99,1.99,0,0,1,.45-1.222,3.06,3.06,0,0,1,1.218-.934,4.088,4.088,0,0,1,1.692-.344,3.338,3.338,0,0,1,2.289.731,2.631,2.631,0,0,1,.859,2.011v3.891a4.756,4.756,0,0,0,.3,1.852v.125Zm-2.4-1.1a2.534,2.534,0,0,0,1.289-.352,2.131,2.131,0,0,0,.883-.914V231.5H553q-2.655,0-2.656,1.555a1.315,1.315,0,0,0,.453,1.062,1.742,1.742,0,0,0,1.164.383" transform="translate(-6945 -5800.436)" fill="#12263f"/>
    <path id="Trazado_209226" data-name="Trazado 209226" d="M561.453,231.3a4.949,4.949,0,0,1,.922-3.129,3.135,3.135,0,0,1,4.765-.168V223.6h1.445v12h-1.328l-.07-.906a2.944,2.944,0,0,1-2.414,1.062,2.889,2.889,0,0,1-2.4-1.2,5.009,5.009,0,0,1-.925-3.141Zm1.445.164a3.75,3.75,0,0,0,.594,2.25,1.917,1.917,0,0,0,1.64.813,2.109,2.109,0,0,0,2.008-1.235v-3.883a2.123,2.123,0,0,0-1.992-1.195,1.927,1.927,0,0,0-1.656.82,4.128,4.128,0,0,0-.594,2.43" transform="translate(-6945 -5800.436)" fill="#12263f"/>
    <path id="Trazado_209227" data-name="Trazado 209227" d="M574.336,235.755a3.692,3.692,0,0,1-2.8-1.129,4.189,4.189,0,0,1-1.078-3.019v-.266a5.075,5.075,0,0,1,.48-2.246,3.747,3.747,0,0,1,1.344-1.547,3.379,3.379,0,0,1,1.871-.558,3.17,3.17,0,0,1,2.563,1.085,4.706,4.706,0,0,1,.914,3.11v.6h-5.727a3.013,3.013,0,0,0,.73,2.02,2.3,2.3,0,0,0,1.778.769,2.522,2.522,0,0,0,1.3-.312,3.241,3.241,0,0,0,.929-.828l.883.687a3.547,3.547,0,0,1-3.187,1.633m-.18-7.578a1.928,1.928,0,0,0-1.469.637,3.1,3.1,0,0,0-.734,1.785h4.234v-.109a2.752,2.752,0,0,0-.594-1.708,1.816,1.816,0,0,0-1.437-.6" transform="translate(-6945 -5800.436)" fill="#12263f"/>
    <path id="Trazado_209228" data-name="Trazado 209228" d="M582.914,231.3a4.949,4.949,0,0,1,.922-3.129,3.135,3.135,0,0,1,4.765-.168V223.6h1.445v12h-1.328l-.07-.906a2.944,2.944,0,0,1-2.414,1.062,2.889,2.889,0,0,1-2.4-1.2,5.009,5.009,0,0,1-.925-3.141Zm1.445.164a3.75,3.75,0,0,0,.594,2.25,1.917,1.917,0,0,0,1.64.813,2.109,2.109,0,0,0,2.008-1.235v-3.883a2.123,2.123,0,0,0-1.992-1.195,1.927,1.927,0,0,0-1.656.82,4.128,4.128,0,0,0-.594,2.43" transform="translate(-6945 -5800.436)" fill="#12263f"/>
    <path id="Trazado_209229" data-name="Trazado 209229" d="M595.8,235.755a3.692,3.692,0,0,1-2.8-1.129,4.189,4.189,0,0,1-1.078-3.019v-.266a5.075,5.075,0,0,1,.48-2.246,3.747,3.747,0,0,1,1.344-1.547,3.379,3.379,0,0,1,1.871-.558,3.17,3.17,0,0,1,2.563,1.085,4.706,4.706,0,0,1,.914,3.11v.6h-5.727a3.013,3.013,0,0,0,.73,2.02,2.3,2.3,0,0,0,1.778.769,2.522,2.522,0,0,0,1.3-.312,3.241,3.241,0,0,0,.929-.828l.883.687a3.547,3.547,0,0,1-3.187,1.633m-.18-7.578a1.928,1.928,0,0,0-1.469.637,3.1,3.1,0,0,0-.734,1.785h4.234v-.109a2.752,2.752,0,0,0-.594-1.708,1.816,1.816,0,0,0-1.437-.6" transform="translate(-6945 -5800.436)" fill="#12263f"/>
    <path id="Trazado_209230" data-name="Trazado 209230" d="M605.687,233.357a1.063,1.063,0,0,0-.441-.91,4.267,4.267,0,0,0-1.539-.559,7.266,7.266,0,0,1-1.743-.562,2.49,2.49,0,0,1-.953-.782,1.863,1.863,0,0,1-.308-1.078,2.192,2.192,0,0,1,.879-1.757,3.425,3.425,0,0,1,2.246-.719,3.532,3.532,0,0,1,2.332.742,2.358,2.358,0,0,1,.894,1.9H605.6a1.3,1.3,0,0,0-.5-1.023,1.89,1.89,0,0,0-1.269-.43,1.977,1.977,0,0,0-1.235.344,1.081,1.081,0,0,0-.445.9.878.878,0,0,0,.414.79,5.11,5.11,0,0,0,1.5.507,7.863,7.863,0,0,1,1.754.578,2.558,2.558,0,0,1,1,.809,1.99,1.99,0,0,1,.324,1.152,2.163,2.163,0,0,1-.906,1.817,3.8,3.8,0,0,1-2.351.683,4.264,4.264,0,0,1-1.8-.359,2.914,2.914,0,0,1-1.223-1,2.42,2.42,0,0,1-.441-1.394h1.445a1.5,1.5,0,0,0,.582,1.152,2.258,2.258,0,0,0,1.434.426,2.335,2.335,0,0,0,1.316-.332,1.021,1.021,0,0,0,.5-.887" transform="translate(-6945 -5800.436)" fill="#12263f"/>
    <path id="Trazado_209231" data-name="Trazado 209231" d="M610.976,225.1v2.047h1.578v1.117h-1.578v5.249a1.173,1.173,0,0,0,.211.763.89.89,0,0,0,.719.254,3.538,3.538,0,0,0,.687-.094V235.6a4.234,4.234,0,0,1-1.109.155,1.8,1.8,0,0,1-1.461-.586,2.516,2.516,0,0,1-.492-1.664v-5.242h-1.539v-1.117h1.539V225.1Z" transform="translate(-6945 -5800.436)" fill="#12263f"/>
    <path id="Trazado_209232" data-name="Trazado 209232" d="M614.25,224.9a.862.862,0,0,1,.214-.594.81.81,0,0,1,.637-.242.822.822,0,0,1,.641.242.856.856,0,0,1,.218.594.855.855,0,1,1-1.71,0m1.562,10.695h-1.445v-8.453h1.445Z" transform="translate(-6945 -5800.436)" fill="#12263f"/>
    <path id="Trazado_209233" data-name="Trazado 209233" d="M619.492,227.146l.047,1.062a3.079,3.079,0,0,1,2.531-1.218q2.679,0,2.7,3.023V235.6h-1.445v-5.594a1.947,1.947,0,0,0-.418-1.351,1.672,1.672,0,0,0-1.277-.438,2.089,2.089,0,0,0-1.235.375,2.545,2.545,0,0,0-.828.985V235.6h-1.445v-8.453Z" transform="translate(-6945 -5800.436)" fill="#12263f"/>
    <path id="Trazado_209234" data-name="Trazado 209234" d="M626.57,231.294a5,5,0,0,1,.488-2.234,3.64,3.64,0,0,1,1.36-1.532,3.7,3.7,0,0,1,1.988-.539,3.565,3.565,0,0,1,2.793,1.2,4.6,4.6,0,0,1,1.066,3.179v.1a5.037,5.037,0,0,1-.472,2.215,3.6,3.6,0,0,1-1.352,1.527,3.748,3.748,0,0,1-2.02.547,3.556,3.556,0,0,1-2.785-1.2,4.576,4.576,0,0,1-1.066-3.164Zm1.453.172a3.624,3.624,0,0,0,.652,2.258,2.211,2.211,0,0,0,3.5-.012,3.95,3.95,0,0,0,.649-2.418,3.61,3.61,0,0,0-.66-2.254,2.1,2.1,0,0,0-1.754-.863,2.078,2.078,0,0,0-1.727.851,3.929,3.929,0,0,0-.656,2.438" transform="translate(-6945 -5800.436)" fill="#12263f"/>
    <path id="Trazado_213331" data-name="Trazado 213331" d="M0,0H634.265V241.431H0Z" transform="translate(-6945 -5800.436)" fill="none"/>
    <path id="Trazado_209235" data-name="Trazado 209235" d="M84.52,88.495H81.035v9.477H78.691V88.495H75.253V86.6H84.52Z" transform="translate(-6945 -5800.436)" fill="#12263f"/>
    <path id="Trazado_209236" data-name="Trazado 209236" d="M85.691,87.33a1.115,1.115,0,0,1,.34-.836,1.465,1.465,0,0,1,1.848,0,1.193,1.193,0,0,1,0,1.68,1.449,1.449,0,0,1-1.836,0,1.108,1.108,0,0,1-.348-.844m2.4,10.641H85.824V89.518H88.09Z" transform="translate(-6945 -5800.436)" fill="#12263f"/>
    <path id="Trazado_209237" data-name="Trazado 209237" d="M97.559,93.823a5.071,5.071,0,0,1-.887,3.129,2.843,2.843,0,0,1-2.394,1.176,2.633,2.633,0,0,1-2.071-.891v3.984H89.949v-11.7h2.094l.078.828a2.655,2.655,0,0,1,2.141-.984,2.867,2.867,0,0,1,2.43,1.156,5.208,5.208,0,0,1,.867,3.188ZM95.3,93.651a3.352,3.352,0,0,0-.418-1.826,1.36,1.36,0,0,0-1.215-.643A1.479,1.479,0,0,0,92.207,92v3.471a1.5,1.5,0,0,0,1.477.839q1.617,0,1.617-2.656" transform="translate(-6945 -5800.436)" fill="#12263f"/>
    <path id="Trazado_209238" data-name="Trazado 209238" d="M98.605,93.667a5,5,0,0,1,.485-2.243,3.544,3.544,0,0,1,1.394-1.524,4.081,4.081,0,0,1,2.113-.539,3.848,3.848,0,0,1,2.793,1.047,4.2,4.2,0,0,1,1.207,2.845l.016.578a4.415,4.415,0,0,1-1.086,3.12,4.207,4.207,0,0,1-5.832.005,4.5,4.5,0,0,1-1.09-3.188Zm2.258.159a3.158,3.158,0,0,0,.453,1.843,1.628,1.628,0,0,0,2.578.009,3.463,3.463,0,0,0,.461-2.015,3.131,3.131,0,0,0-.461-1.832,1.5,1.5,0,0,0-1.3-.649,1.471,1.471,0,0,0-1.281.645,3.518,3.518,0,0,0-.453,2" transform="translate(-6945 -5800.436)" fill="#12263f"/>
    <path id="Trazado_209239" data-name="Trazado 209239" d="M112.582,95.635a.728.728,0,0,0-.41-.652,4.634,4.634,0,0,0-1.317-.426q-3.015-.633-3.015-2.563a2.324,2.324,0,0,1,.933-1.879,3.769,3.769,0,0,1,2.442-.753,4.055,4.055,0,0,1,2.574.757,2.39,2.39,0,0,1,.965,1.969H112.5a1.094,1.094,0,0,0-.312-.8,1.325,1.325,0,0,0-.977-.316,1.351,1.351,0,0,0-.883.258.814.814,0,0,0-.312.656.694.694,0,0,0,.355.6,3.65,3.65,0,0,0,1.2.4,9.719,9.719,0,0,1,1.422.379,2.335,2.335,0,0,1,1.789,2.273,2.2,2.2,0,0,1-.992,1.871,4.274,4.274,0,0,1-2.562.715,4.462,4.462,0,0,1-1.887-.379,3.155,3.155,0,0,1-1.293-1.039,2.41,2.41,0,0,1-.469-1.426h2.141a1.176,1.176,0,0,0,.445.922,1.765,1.765,0,0,0,1.11.321,1.636,1.636,0,0,0,.98-.246.768.768,0,0,0,.332-.645" transform="translate(-6945 -5800.436)" fill="#12263f"/>
    <path id="Trazado_213332" data-name="Trazado 213332" d="M0,0H634.265V241.431H0Z" transform="translate(-6945 -5800.436)" fill="none"/>
  </g>
</svg>
