<svg xmlns="http://www.w3.org/2000/svg" xmlns:xlink="http://www.w3.org/1999/xlink" width="308" height="284" viewBox="0 0 308 284">
  <defs>
    <linearGradient id="linear-gradient" x1="0.5" x2="0.5" y2="1" gradientUnits="objectBoundingBox">
      <stop offset="0" stop-color="#e5efd4"/>
      <stop offset="1" stop-color="#f6faf0"/>
    </linearGradient>
    <clipPath id="clip-path">
      <rect id="Rectángulo_43968" data-name="Rectángulo 43968" width="288.474" height="262.791" fill="none"/>
    </clipPath>
  </defs>
  <g id="Grupo_153711" data-name="Grupo 153711" transform="translate(-2663 8460)">
    <rect id="Rectángulo_44854" data-name="Rectángulo 44854" width="308" height="284" transform="translate(2663 -8460)" fill="#fff"/>
    <path id="Rectángulo_44853" data-name="Rectángulo 44853" d="M0,0H98a0,0,0,0,1,0,0V284a0,0,0,0,1,0,0H90A90,90,0,0,1,0,194V0A0,0,0,0,1,0,0Z" transform="translate(2761 -8176) rotate(180)" fill="url(#linear-gradient)"/>
    <g id="Grupo_153710" data-name="Grupo 153710" transform="translate(2682.526 -8439.999)">
      <g id="Grupo_152803" data-name="Grupo 152803" transform="translate(0 0)" clip-path="url(#clip-path)">
        <path id="Trazado_207066" data-name="Trazado 207066" d="M0,375.5c0,11.9,63.636,21.543,142.136,21.543s142.135-9.645,142.135-21.543-63.636-21.543-142.135-21.543S0,363.6,0,375.5" transform="translate(4.203 -134.248)" fill="#d6e0ca"/>
        <path id="Trazado_207067" data-name="Trazado 207067" d="M72.759,381.592c0-1.918,22.392-3.473,50.015-3.473s50.014,1.556,50.014,3.473-22.392,3.474-50.014,3.474-50.015-1.555-50.015-3.474" transform="translate(70.523 -143.414)" fill="#5f7153"/>
        <path id="Trazado_207068" data-name="Trazado 207068" d="M179.351,298.887c6.394,5.243,22.379,18.884,24.808,23.764S193.418,333.67,189.2,338.018s-4.679,7.865-9.591,11.509c-7.928,5.883-20.015,6.228-22.421,3.24-5.286-6.564,6.18-12.447,8.482-15.644a140.54,140.54,0,0,0,8.184-15.089c0-.384-14.578-13.016-14.194-13.03s19.693-10.116,19.693-10.116" transform="translate(-12.695 -113.362)" fill="#6b4e4e"/>
        <path id="Trazado_207069" data-name="Trazado 207069" d="M115.591,315.185c.639,6.891,2.941,17.633,4.732,21.853a15.73,15.73,0,0,1,1.023,8.7c-.128.639-2.558,3.965-3.325,5.755s.256,6.71-1.407,7.256-22.634,1.824-26.726,1.7-4.475-5.371-2.174-8.7a99.806,99.806,0,0,0,7.8-15.729c1.151-3.324-.207-17.211-.207-17.211Z" transform="translate(113.341 -119.544)" fill="#6b4e4e"/>
        <path id="Trazado_207070" data-name="Trazado 207070" d="M158.3,364.635c3.58.767,11.168.171,15.686-2.387s6.565-5.115,10.486-10.742c3.517-5.046,13.749-13.928,18.1-17.73a12.846,12.846,0,0,1,1.424,2.107c2.43,4.881-10.742,11.019-14.962,15.366s-4.679,7.864-9.591,11.509c-7.928,5.883-20.015,6.228-22.421,3.24a6.177,6.177,0,0,1-1.209-2.3,9.558,9.558,0,0,0,2.487.933" transform="translate(-12.526 -126.596)" fill="#1a1a1a"/>
        <path id="Trazado_207071" data-name="Trazado 207071" d="M111.563,369.586c3.069-.384,5.115-.511,5.5-2.238.339-1.525,1.428-7.39,4.321-10.853a15.106,15.106,0,0,1-.038,4.906c-.128.639-2.557,3.965-3.325,5.755s.256,6.71-1.407,7.255-22.634,1.824-26.726,1.7c-3.226-.1-4.146-3.379-3.264-6.391,5.334.247,22.27.2,24.939-.13" transform="translate(113.341 -135.212)" fill="#1a1a1a"/>
        <path id="Trazado_207072" data-name="Trazado 207072" d="M118.612,357.928a.751.751,0,0,0,.414-1.379c-9.619-6.324-19.625-.461-19.724-.4a.751.751,0,1,0,.773,1.288c.091-.054,9.31-5.429,18.125.367a.749.749,0,0,0,.412.124" transform="translate(107.697 -134.12)" fill="#1a1a1a"/>
        <path id="Trazado_207073" data-name="Trazado 207073" d="M187.319,336.71a28.418,28.418,0,0,0,9.262-1.318.751.751,0,0,0-.514-1.411c-5.388,1.958-13.558.97-13.64.96a.751.751,0,0,0-.186,1.491,44.511,44.511,0,0,0,5.077.279" transform="translate(-21.314 -126.655)" fill="#1a1a1a"/>
        <path id="Trazado_207074" data-name="Trazado 207074" d="M101.782,83.909c3.2-2.626,6.648-4.663,9.589-4.731s7.289,3.129,8.7,3.129,26.847,2.472,33.244,6.671,43.738,82.459,45.273,86.807-1.535,13.3-1.535,13.3l-10.486-14.066L155.3,163.837S117.509,185.1,117.253,183.82s-36.146-33.994-38.085-36.04S60.731,121.565,60.22,117.729,77.586,96.8,85.655,94.092s16.127-10.183,16.127-10.183" transform="translate(52.088 -30.03)" fill="#e9af54"/>
        <path id="Trazado_207075" data-name="Trazado 207075" d="M187.359,288.323c-8.537-8.86-30.026-33.587-36.969-39.237S132.208,233.036,134.29,223c2.685-12.943,18.542-14.962,30.946-14.578s27.831,6.9,27.831,6.9,14.817,10.841,20,13.627c.577.31,2.115-.145,2.43,0,3.14,1.446,19.176-.58,19.176-.58l12.026,34.91s-17.848-.767-28.553-3.452-19.529-5.883-19.529-5.883l12.532,11.509s1.023,6.138-6.522,13.683-16.075,10.419-17.263,9.186" transform="translate(-41.42 -79.034)" fill="#7496c0"/>
        <path id="Trazado_207076" data-name="Trazado 207076" d="M169.51,125.423c.885,1.806,6.024,15.592,7.506,19.16s5.81,13.227,6.715,14.931,1.892,5.047,5,7.683,5.8,3.505,9.038,6.441,2.21,1,4.474,6.691,4.135,13.637,1.96,15.172-19.181,3.837-19.181,3.837-10.742-14.889-12.915-20.744a161.607,161.607,0,0,0-11.044-21.711,38.642,38.642,0,0,1-5.707-11.778c-1.724-5.605-4.946-19.68-4.946-19.68Z" transform="translate(-10.05 -47.571)" fill="#fff"/>
        <path id="Trazado_207077" data-name="Trazado 207077" d="M168.18,361.73c2.372-2.287,2.1-6.513,4.669-8.572,1.705-1.364,4.336-1.459,5.614-3.23.851-1.177.852-2.8,1.67-4,1.377-2.021,4.289-2,6.735-2.022s5.492-.842,5.892-3.255a5.855,5.855,0,0,1,.349-2.131,2.59,2.59,0,0,1,2.552-.845c2.284.225,4.52,1.2,6.8.909,6.344-.815,8.539-10.4,14.87-11.319a11.559,11.559,0,0,1,4.49.493c2.582.663,5.263,1.555,7.028,3.554a20.33,20.33,0,0,1,2.643,4.705,12.849,12.849,0,0,0,4.9,5.777c2.236,1.254,5.293,1.3,7.185-.426a5.739,5.739,0,0,1,1.224-1.034,3.042,3.042,0,0,1,2.084-.048,9.319,9.319,0,0,1,6.509,6.329c.7,2.452.67,4.667,1.945,6.937a14.941,14.941,0,0,0,5.705,5.484,26.605,26.605,0,0,1,4.321,3.162c.848.787,2.506,1.588,2.514,2.92a2.565,2.565,0,0,1-1.761,2.116,22.353,22.353,0,0,1-4.52.939,35.774,35.774,0,0,0-6.361,2.353c.51-.994-18.558,1.753-18.71,1.75-2.23-.045-4.457-.161-6.675-.408-1.293-.144-.937-.487-1.422-1.284a3.085,3.085,0,0,0-2.164-1.32c-16.217-3.417-32.793-1.261-49.232-1.879q-3.762-.142-7.519-.368c-.675-.04-7.432-.767-7.51-.537.848-2.516,4.269-2.9,6.18-4.748" transform="translate(-79.958 -124.099)" fill="#a6644f"/>
        <path id="Trazado_207078" data-name="Trazado 207078" d="M222.376,395.3c0,2.567,22.542,4.648,50.349,4.648s50.35-2.081,50.35-4.648-22.542-4.648-50.35-4.648-50.349,2.081-50.349,4.648" transform="translate(-172.634 -148.167)" fill="#392929"/>
        <path id="Trazado_207079" data-name="Trazado 207079" d="M186.1,184.746a.5.5,0,0,0,.274-.081c.655-.428.235-1.447-.682-3.68a20.883,20.883,0,0,1-1.392-4.1c-.2-1.407-1.685-2.262-3.93-3.557a41.789,41.789,0,0,1-8.5-6.113c-6.318-5.984-18.322-40.1-18.443-40.443a.5.5,0,1,0-.945.332c.5,1.413,12.207,34.688,18.7,40.838a42.654,42.654,0,0,0,8.686,6.253c1.991,1.148,3.307,1.907,3.439,2.831a21.414,21.414,0,0,0,1.457,4.335,15.146,15.146,0,0,1,.924,2.595.5.5,0,0,0,.412.786m-.413-.731h0Z" transform="translate(7.148 -47.956)" fill="#d29643"/>
        <path id="Trazado_207080" data-name="Trazado 207080" d="M102,180.257c-21.064-6.162-34.193.488-37.859,5.6s6.735,30.52,6.735,30.52,19.227,53.463,20.7,55.632,23.124-5.674,24.828-7.72-2.952-15.477-2.952-15.477,14.759-1.871,19.875-22.332c.422-1.688-11.3-17.093-11.978-17.6S102,180.257,102,180.257" transform="translate(115.816 -67.428)" fill="#7496c0"/>
        <path id="Trazado_207081" data-name="Trazado 207081" d="M273.048,329.141s-18.286,1.151-18.286,1.023.682-2,.682-2l17.988-.981Z" transform="translate(-143.094 -124.093)" fill="#333"/>
        <path id="Trazado_207082" data-name="Trazado 207082" d="M114.8,320.783c26.006-2.859,55.584-3.694,64.28-4.291s20.887-1.875,22.506-1.023,1.449,6.053-.341,6.65-85.933,4.263-86.7,4.263-1.213-5.437.256-5.6" transform="translate(15.109 -119.544)" fill="#9c4b28"/>
        <path id="Trazado_207083" data-name="Trazado 207083" d="M271.034,325.181a44.329,44.329,0,0,0,0,7.161c.171.639,6.287,7.987,6.575,7.907s.287-.527.015-.847-5.4-6.708-5.4-6.772.011-2.547.053-2.59,2.213.778,2.279.81.044,2.43.087,2.686,6.256,7.715,6.554,7.768.5-.288.171-.757-5.233-6.564-5.318-6.714a17.374,17.374,0,0,1-.032-2.568,23.949,23.949,0,0,1,2.536.586c.085.064.245,3.016.33,3.25s6.426,7.161,6.778,7.177.32-.336,0-.831-5.291-6.314-5.4-6.442.16-7.066.16-7.066c.032-.7-9.29-2.963-9.388-2.76" transform="translate(-165.589 -123.33)" fill="#333"/>
        <path id="Trazado_207084" data-name="Trazado 207084" d="M254.8,324.283a2.455,2.455,0,0,1,.517.685c.842,1.565.775,4.212-.6,4.865-.736,0-1.175-4.995.085-5.549" transform="translate(-125.058 -122.995)" fill="#333"/>
        <path id="Trazado_207085" data-name="Trazado 207085" d="M109.05,257.844a.742.742,0,0,0,.133-.012.751.751,0,0,0,.608-.871c-.266-1.495-6.6-36.776-12.887-50.521a.751.751,0,1,0-1.366.625c6.207,13.572,12.709,49.8,12.774,50.16a.751.751,0,0,0,.739.62" transform="translate(119.412 -78.132)" fill="#3a6c88"/>
        <path id="Trazado_207086" data-name="Trazado 207086" d="M159.064,267.1a.5.5,0,0,0,.185-.035.5.5,0,0,0,.281-.651c-6.655-16.717-14.467-36.841-15.83-44.152a.5.5,0,0,0-.985.184c1.371,7.352,8.8,26.54,15.884,44.338a.5.5,0,0,0,.466.316" transform="translate(40.328 -84.146)" fill="#3a6c88"/>
        <path id="Trazado_207087" data-name="Trazado 207087" d="M145.343,231.846c-12.356,18.849-31.159,41.9-32.438,44.288s-5.115,6.394-7.928,8.61-5.009,2.409-5.776,2.92-1.534,2.408-2.429,3.176a3.111,3.111,0,0,1-2.707.49,2.409,2.409,0,0,1-1.534-.81,1.981,1.981,0,0,1-.214-.7,4.068,4.068,0,0,1-1.79,1.961,3.118,3.118,0,0,1-3.644-.852,5.035,5.035,0,0,1-1.492-2.472c0-.533,1.983-5.755,1.983-5.755s-2.323,3.261-2.451,3.623a29.7,29.7,0,0,0-.426,3.091,1.878,1.878,0,0,1,.15,1.769,2.32,2.32,0,0,1-2.835,1.279c-1.066-.341-2.3-.469-2.813-1.407s-.448-5.211.223-7.129,3.453-5.531,3.549-5.787-1.311-.7-1.662-.671a12.118,12.118,0,0,0-4.028,1.182c-1.055.736-3.069,3.293-4.411,4.827s-2.654,2.558-4,2.622-2.813-.863-2.238-2.557a14.042,14.042,0,0,1,2.813-4.508c.7-.64,1.695-1.663,2.27-2.3s2.749-3.613,4.508-4.572,8.5-4.316,9.75-4.667,6.107.223,9.975-1.343,7-4.22,11.509-11.477,15.452-33.611,16.134-34.889,27.792,3.154,21.952,12.063" transform="translate(101.151 -83.277)" fill="#e2906f"/>
        <path id="Trazado_207088" data-name="Trazado 207088" d="M229.385,91.032c1.791-6.156,1.791-8.84.682-11.079s-9.9-1.513-11.81,0-16.067,16.347-17,22.229,13.044,13.64,13.044,13.64Z" transform="translate(-67.248 -29.787)" fill="#d29643"/>
        <path id="Trazado_207089" data-name="Trazado 207089" d="M239.177,160.774a.5.5,0,0,0,.417-.779,93.657,93.657,0,0,1-6.359-11.08c-.9-1.8-1.677-3.346-2.67-4.934-2.012-3.218-3.915-11.648-4.632-14.822a9.706,9.706,0,0,0-.375-1.506l-.134-.262-.311-.022c-.335-.024-.622-.02-4.576,6.436-.695-1.538-2.231-5.041-3.909-9.512a51.324,51.324,0,0,1-2.742-9.274.5.5,0,0,0-.991.143,51,51,0,0,0,2.8,9.483c2.282,6.087,4.31,10.4,4.331,10.439l.4.841.484-.795c1.47-2.415,3.115-5.011,3.952-6.2l.1.451c.8,3.522,2.659,11.77,4.76,15.133.968,1.548,1.735,3.079,2.623,4.852a94.694,94.694,0,0,0,6.421,11.188.5.5,0,0,0,.417.223" transform="translate(-83.348 -43.461)" fill="#d29643"/>
        <path id="Trazado_207090" data-name="Trazado 207090" d="M327.349,280.289c-5.6,11.141-12.724,21.76-14.323,25.66s-.256,6.586.32,8.887-1,10.465-1.364,11.318-.448,4.753-.831,5.434.426,3.091-.767,4.5a2.387,2.387,0,0,1-2.856.554,1.711,1.711,0,0,1,0,1.577,3.709,3.709,0,0,1-1.791.938s-.639,1.407-3.665,2.131-5.627-.9-7.247-2.174a26.582,26.582,0,0,1-4.433-4.817,8.748,8.748,0,0,1-.213-.98,8.251,8.251,0,0,1-.938-2.344c-.213-1.151.256-6.01.3-7.716s0-2.643.341-3.282a7.713,7.713,0,0,0,.767-1.833c.085-.469,1.449-1.96,3.41-4.177s4.561-6.693,5.243-7.545,4.092-20.759,5.115-26.13.6-6.138,2.472-8.611,8.7-2.813,14.152-.426,6.873,7.912,6.308,9.036" transform="translate(-218.494 -102.266)" fill="#e2906f"/>
        <path id="Trazado_207091" data-name="Trazado 207091" d="M323.453,361.118a28.569,28.569,0,0,1-7.161-9.335c-1.407-3.069-1.47-5.755-.575-6.969a1.614,1.614,0,0,1,2.877.448c.256,1.151-.479,4.252-.575,5.658a12.456,12.456,0,0,0,.128,3.2,16.183,16.183,0,0,0,2.718,3.836c1.567,1.759,2.59,3.165,2.59,3.165" transform="translate(-230.582 -130.517)" fill="#c97457"/>
        <path id="Trazado_207092" data-name="Trazado 207092" d="M332.83,367a.25.25,0,0,0,.144-.456c-4.021-2.811-4.825-3.737-6.126-5.405-.984-1.261-2.776-3.531-3.721-4.575-.557-.616-1.338-4.72-1.728-7.328a.248.248,0,0,0-.284-.211.251.251,0,0,0-.211.285c.1.679,1.016,6.666,1.852,7.591.682.753,2.03,2.41,3.7,4.547,1.432,1.835,2.341,2.786,6.234,5.507a.25.25,0,0,0,.143.045" transform="translate(-243.796 -132.378)" fill="#c97457"/>
        <path id="Trazado_207093" data-name="Trazado 207093" d="M337.487,372.35a.25.25,0,0,0,.1-.479,87.761,87.761,0,0,1-12.547-8.169c-.788-.853-1.174-5.161-1.255-6.748a.239.239,0,0,0-.263-.237.251.251,0,0,0-.237.263c.031.6.333,5.92,1.387,7.062,1.088,1.179,10.01,7.085,12.711,8.286a.246.246,0,0,0,.1.022" transform="translate(-249.933 -135.296)" fill="#c97457"/>
        <path id="Trazado_207094" data-name="Trazado 207094" d="M340.68,379.639a.25.25,0,0,0,.095-.482c-1.063-.434-2.1-.842-3.056-1.22a43.238,43.238,0,0,1-4.807-2.069c-1.173-.713-5.822-3.965-5.869-4a.25.25,0,0,0-.287.41c.191.134,4.709,3.295,5.9,4.016a42.389,42.389,0,0,0,4.883,2.106c.957.378,1.989.785,3.05,1.218a.246.246,0,0,0,.095.019" transform="translate(-255.215 -141.026)" fill="#c97457"/>
        <path id="Trazado_207095" data-name="Trazado 207095" d="M192.2,98.355s.872,2.38,2.18,5.747c2.759,7.1,7.05,14.115,13.08,18.96a3.313,3.313,0,0,0,1.8.892c1.96.107,2.008-4.984,2.295-6.364a93.169,93.169,0,0,1,7.414-22.579c.985-2,1.883-4.091,3.043-6.016.2-.326,1.955-3.834,2.235-3.775-.043-.009-9.987-2.111-13.133-6.3-3.594-4.792-5.254-12.609-5.254-12.609L195.269,91.163Z" transform="translate(-55.075 -25.15)" fill="#e2906f"/>
        <path id="Trazado_207096" data-name="Trazado 207096" d="M221.461,111.584s.872,2.38,2.18,5.747a8.839,8.839,0,0,0,6.751-2.07c5.254-4.728,4.949-14.074,4.949-14.074l-10.812,3.2Z" transform="translate(-84.335 -38.379)" fill="#1a1a1a"/>
        <path id="Trazado_207097" data-name="Trazado 207097" d="M220.767,26.806A36.148,36.148,0,0,1,235.593,15.5a15.138,15.138,0,0,1,7.722-1.119,1.289,1.289,0,0,1-.092-.242c-.708-2.906-1.6-6.154,1.453-8.027,2.369-1.454,4.966-.656,6.84,1.067,4-2.542,9.383-2.023,12.16,2.2A7.829,7.829,0,0,1,259.819,21.1a1.1,1.1,0,0,1-.527.052.907.907,0,0,1-.164.024c2.671,3.087,3.591,15.877,3.591,15.877L252.2,48.352s-22.867,6.848-29.012-2.769c-7.157-11.2-4.863-15.879-2.419-18.777" transform="translate(-112.062 -2.031)" fill="#7e2b30"/>
        <path id="Trazado_207098" data-name="Trazado 207098" d="M227.254,18.982c4.255.952,10.023,2.61,12.615,6.41.773,1.134-.887,2.481-1.675,1.343-2.282-3.295-7.462-4.85-11.18-5.8-1.2-.305-1.014-2.236.24-1.955" transform="translate(-92.007 -7.189)" fill="#391715"/>
        <path id="Trazado_207099" data-name="Trazado 207099" d="M224.336,70.394a88.33,88.33,0,0,1,4.6,8.511c2.012,4.673,8.773,15.041,22.425,6.346,10.1-6.429,7.01-25.173,7.01-25.173s7.189-6.172,1.017-13.362-8.084,4.1-8.084,4.1.306,5.714-.141,4.676-3.5-5.264-5.725-6.151-5.048-.289-5.942-2.366.657-7.052-.014-8.609-2.971-1.183-4.233-1.255-4.182,6.385-10.892,11.151a16.652,16.652,0,0,1-6.02,3.106,8.838,8.838,0,0,1-4.638-.356,45.334,45.334,0,0,0,2.163,4.5c.9,1.655,1.824,3.3,2.754,4.935q1.476,2.6,2.973,5.188,1.146,1.986,2.294,3.972.228.4.455.794" transform="translate(-106.06 -14.074)" fill="#e2906f"/>
        <path id="Trazado_207100" data-name="Trazado 207100" d="M247.937,68.314a1.253,1.253,0,0,1,.814-.767c.041-.019.082-.034.123-.048a.264.264,0,0,1,.043-.022c.016,0,.03,0,.045-.007,1.3-.369,2.313,1.206,2.087,2.4a1.116,1.116,0,0,1-.178.727,1.257,1.257,0,0,1-.622.446.275.275,0,0,1-.055.052,1.148,1.148,0,0,1-1.5-.243,2.07,2.07,0,0,1-.764-2.534" transform="translate(-116.405 -25.569)" fill="#1a1a1a"/>
        <path id="Trazado_207101" data-name="Trazado 207101" d="M255.278,90.741a.869.869,0,0,1,.562-1.074l1.312-.4a.857.857,0,0,1,.511,1.636l-1.312.4a.872.872,0,0,1-1.074-.562" transform="translate(-128.222 -33.845)" fill="#c97457"/>
        <path id="Trazado_207102" data-name="Trazado 207102" d="M255.13,61.168c-.074-.024-.148-.048-.223-.071l-.012,0h0c-.283-.084-.569-.159-.86-.217s-.583-.112-.865-.169c-.526-.081-1.15-.168-1.876-.256-1.19-.146-2.387-.038-3.581-.119-1.1-.074-1.289,1.629-.189,1.7,1.194.081,2.39-.022,3.582.119,1.209.143,2.4.448,3.6.641,1,.163,1.235-1.261.425-1.629" transform="translate(-120.334 -22.883)" fill="#7e2b30"/>
        <path id="Trazado_207103" data-name="Trazado 207103" d="M221.774,91.629A16.1,16.1,0,0,1,220.6,88.11c-.493-1.757-1.379-3.858-.477-5.56,3.72-2.083,9.984-5.056,11.4-4.8,2,.368,9.439,7.629,10.477,7.182s1.925-2.675,2.438-7.2-6.266-18.842-6.489-19.361l1.629-1.932s8.586,17.2,7.834,24.629-6.652,16.711-16.57,15.4A15.661,15.661,0,0,1,224.257,94a7.225,7.225,0,0,1-2.41-2.247c-.025-.042-.049-.084-.073-.127" transform="translate(-95.375 -21.406)" fill="#7e2b30"/>
        <path id="Trazado_207104" data-name="Trazado 207104" d="M246.207,98.314s7.77-5.013,7.941-4.474.586,5.667-1.179,5.955c-2.3.376-6.762-1.48-6.762-1.48" transform="translate(-118.667 -35.577)" fill="#fff"/>
        <path id="Trazado_207105" data-name="Trazado 207105" d="M274,82.086a1.481,1.481,0,0,1,1.852-1.141,1.212,1.212,0,0,1,.214.086,1.028,1.028,0,0,1,.525.532c.014.029.025.057.036.086,0,.009.008.017.011.026a2.988,2.988,0,0,1,.181,1.39,1.351,1.351,0,0,1-1.971.885A1.7,1.7,0,0,1,274,82.086" transform="translate(-158.42 -30.68)" fill="#1a1a1a"/>
        <path id="Trazado_207106" data-name="Trazado 207106" d="M278.412,77.6a5.092,5.092,0,0,1,1.3-2.623c.679-.86,2.1.1,1.415.968a3.66,3.66,0,0,0-1,1.762c-.131,1.092-1.842.989-1.711-.107" transform="translate(-165.647 -28.31)" fill="#7e2b30"/>
        <path id="Trazado_207107" data-name="Trazado 207107" d="M67.641,94.795C80.383,96.519,84.35,108,90.829,119.933s21.824,46.376,23.359,47.059,3.261,4.207,1.727,7.353-3.929,8.629-7.175,11.124-22.513-7.735-24.048-9.781-1.449-10.145-.256-10.656.6-1.961-4.348-8.44S67.47,138.177,63.378,131.527s-8.7-18.231-6.82-25.739,8.014-11.408,11.083-10.993" transform="translate(137.122 -35.942)" fill="#e9af54"/>
        <path id="Trazado_207108" data-name="Trazado 207108" d="M248.778,269.953a.751.751,0,0,0,.554-1.259c-9.39-10.255-21.265-18.621-27.672-21.286a22.661,22.661,0,0,0-12.433-1.084.751.751,0,0,0,.33,1.466,21.523,21.523,0,0,1,11.527,1c6.258,2.6,17.9,10.817,27.142,20.913a.747.747,0,0,0,.554.244" transform="translate(-90.563 -93.268)" fill="#3a6c88"/>
        <path id="Trazado_207109" data-name="Trazado 207109" d="M177.761,81.885c1.619,3.58-2.3,22.08-2.813,25.916a16.722,16.722,0,0,0,.767,7.247l19.608-5.006s-9.293-19.376-9.378-19.717-8.184-8.44-8.184-8.44" transform="translate(-15.367 -31.058)" fill="#e9af54"/>
        <path id="Trazado_207110" data-name="Trazado 207110" d="M272.879,141.286c-2.557,4.987-4.344,16.368-5.625,23.53s-6.012,27.238-6.779,28,.9,1.534,0,2.429-2.3,2.686-3.964,6.778-3.452,8.312-3.452,8.312a1.736,1.736,0,0,0-1.791.831,90.708,90.708,0,0,0-4.22,12.6c-.32,1.982,6.01,7.353,6.586,7.417s14.936,3.133,15.908,2.11a12.3,12.3,0,0,0,3.018-5.755c.448-2.493,2.11-3.708,2.43-4.923s-.32-1.664-.32-1.664a16.814,16.814,0,0,0,3.069-5.562,34.07,34.07,0,0,1,3.452-7.161c1.023-1.918,8.248-16.816,8.7-19.373s5.819-16.24,5.819-16.24Z" transform="translate(-160.571 -53.587)" fill="#e9af54"/>
        <path id="Trazado_207111" data-name="Trazado 207111" d="M91.916,212.544a.751.751,0,0,0,.038-1.5,69.293,69.293,0,0,1-23.7-5.948.751.751,0,0,0-.659,1.351,70.921,70.921,0,0,0,24.279,6.1h.04" transform="translate(154.11 -77.76)" fill="#d29643"/>
        <path id="Trazado_207112" data-name="Trazado 207112" d="M302.48,264.455a.751.751,0,0,0,.019-1.5c-9.7-.245-19.369-8.678-19.466-8.763a.751.751,0,0,0-.994,1.127c.41.363,10.169,8.879,20.422,9.138h.019" transform="translate(-189.666 -96.338)" fill="#d29643"/>
        <path id="Trazado_207113" data-name="Trazado 207113" d="M141.061,153.152a.751.751,0,0,0,.626-1.166c-.078-.119-7.89-11.93-10.988-16.83-.157-.248-.335-.525-.528-.826-3.571-5.559-13.056-20.324-4.008-32.933a.751.751,0,1,0-1.221-.876c-9.643,13.439.243,28.828,3.965,34.621.192.3.367.572.523.817,3.107,4.914,10.926,16.737,11,16.856a.752.752,0,0,0,.628.336" transform="translate(71.655 -38.007)" fill="#d29643"/>
        <path id="Trazado_207114" data-name="Trazado 207114" d="M260.2,187.213a.751.751,0,0,0,.49-1.322c-11.665-10-21.788-26.141-21.889-26.3a.752.752,0,0,0-1.276.8c.1.163,10.344,16.5,22.186,26.648a.747.747,0,0,0,.489.181" transform="translate(-119.847 -60.395)" fill="#d29643"/>
        <path id="Trazado_207115" data-name="Trazado 207115" d="M197.808,118.083l.047-.7c.06-.9,1.4-22.155-3.375-31.845a.5.5,0,0,0-.9.443c4.185,8.485,3.506,26.818,3.314,30.633l-13.74-5.755a.5.5,0,0,0-.387.924Z" transform="translate(-22.856 -32.337)" fill="#d29643"/>
        <path id="Trazado_207116" data-name="Trazado 207116" d="M180.962,257.246a.751.751,0,0,0,.6-1.2,176.276,176.276,0,0,1-11.074-16.288.751.751,0,0,0-1.312.732,177.644,177.644,0,0,0,11.179,16.45.749.749,0,0,0,.6.3" transform="translate(1.807 -90.791)" fill="#3a6c88"/>
        <path id="Trazado_207117" data-name="Trazado 207117" d="M370.8,97.619c1.389-2.191,4.663-1.524,6.7-.844,2.51.837,4.7,2.4,5.449,5.044a.715.715,0,0,1-1.226.654.742.742,0,0,1-.829-.128,16.447,16.447,0,0,0-1.752-1.358,41.686,41.686,0,0,1-5.04-1.048c-1.12-.277-2.7-.347-3.3-1.466a.853.853,0,0,1,0-.854" transform="translate(-324.605 -36.456)" fill="#369660"/>
        <path id="Trazado_207118" data-name="Trazado 207118" d="M391.439,35.551c.8-1,1.982-.714,2.983-.2a.769.769,0,0,1,.4.053,10.864,10.864,0,0,1,5.593,4.837.855.855,0,0,1-.266,1.124.762.762,0,0,1-1.124.844,71.2,71.2,0,0,1-7.588-5.463.864.864,0,0,1,0-1.2" transform="translate(-354.877 -13.231)" fill="#369660"/>
        <path id="Trazado_207119" data-name="Trazado 207119" d="M387.777,31.1a.566.566,0,0,0-.093-.456.558.558,0,0,0-.385-.119,9.742,9.742,0,0,0-7.58,3.231c-1.188,1.343-2.68,3.893-2.315,5.785.4,2.073,2.368,2.111,3.932,1.332a12.667,12.667,0,0,0,6.441-9.774" transform="translate(-333.539 -11.573)" fill="#369660"/>
        <path id="Trazado_207120" data-name="Trazado 207120" d="M323.586,26.774a.565.565,0,0,0,.028-.465.558.558,0,0,0-.342-.214,9.741,9.741,0,0,0-8.156,1.166c-1.495.992-3.593,3.071-3.729,4.993-.148,2.105,1.743,2.65,3.456,2.3a12.667,12.667,0,0,0,8.743-7.782" transform="translate(-228.459 -9.738)" fill="#369660"/>
        <path id="Trazado_207121" data-name="Trazado 207121" d="M339.223,102.523a4.319,4.319,0,0,1,1.843-.94,1.923,1.923,0,0,1,1.878.637,2.069,2.069,0,0,1,.353,1.032,4.544,4.544,0,0,1-1.436,3.513,12,12,0,0,1-3.262,2.141c-.606.3-2.365,1.655-3.015,1.308s-.438-1.653-.294-2.209a11.158,11.158,0,0,1,3.934-5.484" transform="translate(-262.861 -38.515)" fill="#369660"/>
        <path id="Trazado_207122" data-name="Trazado 207122" d="M322.466,73.568a.782.782,0,0,1,.088-.4,10.168,10.168,0,0,1,5.922-5.014.8.8,0,0,1,1.01.769c-.219,3.818-4.23,4.478-6.149,7.126-.449.618-1.663.5-1.6-.432a4.009,4.009,0,0,1,.724-2.048" transform="translate(-240.723 -25.837)" fill="#369660"/>
        <path id="Trazado_207123" data-name="Trazado 207123" d="M384.326,207.531a4.331,4.331,0,0,1,1.844-.94,1.923,1.923,0,0,1,1.878.637,2.069,2.069,0,0,1,.353,1.032,4.544,4.544,0,0,1-1.436,3.513,12,12,0,0,1-3.262,2.141c-.607.3-2.365,1.655-3.016,1.308s-.438-1.653-.294-2.209a11.161,11.161,0,0,1,3.933-5.484" transform="translate(-335.962 -78.343)" fill="#369660"/>
        <path id="Trazado_207124" data-name="Trazado 207124" d="M369.217,225.279a.854.854,0,0,1,1.4-.37c3.074,2.441,2.046,7.4,1.061,10.616a.777.777,0,0,1-1.5-.412l.04-.139a.758.758,0,0,1-.722-.752c0-.079,0-.159,0-.238a.736.736,0,0,1-.141-.433c0-.036,0-.072,0-.107a7.956,7.956,0,0,1-.84-3.08,10.4,10.4,0,0,1,.7-5.084" transform="translate(-312.898 -85.217)" fill="#369660"/>
        <path id="Trazado_207125" data-name="Trazado 207125" d="M337.633,289.121a20.948,20.948,0,0,1,.834-5.372c.175-.621,1.214-.88,1.508-.2a13.733,13.733,0,0,1,.606,9.722.71.71,0,0,1-.524.5.792.792,0,0,1-.6.186L339.4,294a.868.868,0,0,1-1.16-.3c-.712-1.152-.624-3.26-.6-4.57" transform="translate(-262.293 -107.393)" fill="#369660"/>
        <path id="Trazado_207126" data-name="Trazado 207126" d="M330.1,249.612c.877-1.166,2.673-1.043,3.868-.526a6.882,6.882,0,0,1,3.314,3.454.816.816,0,0,1-.443,1.113,2.059,2.059,0,0,1,.1.205c.219.515-.014,1.385-.742,1.294a10.774,10.774,0,0,1-4.992-1.825c-1.136-.816-2.107-2.39-1.11-3.714" transform="translate(-253.526 -94.331)" fill="#369660"/>
        <path id="Trazado_207127" data-name="Trazado 207127" d="M320.361,264.686l.079-.411c0-.012.007-.022.01-.034a7.26,7.26,0,0,1,6.621-5.568.853.853,0,0,1,.813,1.068c-.658,3.179-2.3,6.451-5.776,7.123a.825.825,0,0,1-.913-1.109.943.943,0,0,1-.833-1.068" transform="translate(-238.274 -98.109)" fill="#369660"/>
        <path id="Trazado_207128" data-name="Trazado 207128" d="M366.474,319.637c2.161-4.643,7.386-5.4,11.982-5.226a.806.806,0,0,1,.522,1.372.649.649,0,0,1-.519.868c-.1.019-.194.043-.291.063a.648.648,0,0,1-.4.521c-1.985.871-4.01,1.655-6.019,2.469-1.6.647-3.032,1.408-4.779,1.161-.583-.083-.7-.8-.5-1.228" transform="translate(-318.154 -119.242)" fill="#369660"/>
        <path id="Trazado_207129" data-name="Trazado 207129" d="M329.351,325.171l.074-.117a.857.857,0,0,1,.412-.335,15.5,15.5,0,0,1,4.42-4.431c1.2-.792,3.78-2.386,4.924-.631,1.3,1.989-1.617,3.22-2.906,3.883l-4.28,2.2a6.381,6.381,0,0,1-1.454.7.812.812,0,0,1-1.251-.58.8.8,0,0,1,.061-.68" transform="translate(-255.4 -120.939)" fill="#369660"/>
        <path id="Trazado_207130" data-name="Trazado 207130" d="M325.822,335.026a.841.841,0,0,1-.028-.163.784.784,0,0,1,.7-1.33c3.186.581,6.617,1.287,9.039,3.613,1.349,1.295,3.561,4.634,2.159,6.55a1.267,1.267,0,0,1-1.586.51c-.52-.206-.913-.948-1.321-1.307a10.889,10.889,0,0,0-2.224-1.418c-2.724-1.407-5.63-2.391-7.171-5.243a.858.858,0,0,1,.435-1.211" transform="translate(-251.568 -126.498)" fill="#369660"/>
        <path id="Trazado_207131" data-name="Trazado 207131" d="M308.48,75.07c1.875,8.558,3.5,17.219,6.7,25.409a54.93,54.93,0,0,0,6.252,11.791c.412.581.836,1.15,1.263,1.714a133.186,133.186,0,0,1-4.041-17.89c-.29-1.838,2.516-2.637,2.821-.777,2.6,15.876,7.494,31.789,17.26,44.8.669.893,1.363,1.747,2.075,2.578-3.686-9.222-2.231-19.967-3.93-29.7-.209-1.194,1.62-1.7,1.828-.5,2.016,11.628-.647,24.916,6.762,35.023.006.008.009.016.014.024a131.421,131.421,0,0,0,10.688,8.7,42.776,42.776,0,0,1,8.574,8.03c-1.115-6.679-2.78-13.277-4.191-19.915a.9.9,0,0,1-.235-.447c-2.852-12.911-5.273-26.109-4.427-39.384a.832.832,0,0,1,.163-.454q-.21-4.068-.4-8.136c-.277-5.819-.571-11.645-.99-17.458-1.7-7.946-6.083-14.975-8.9-22.558-.441-.965-.863-1.939-1.255-2.927-3.416-8.617-4.207-17.97-4.825-27.133-.076-1.13,1.649-1.108,1.749,0,.776,8.567,1.469,17.276,4.4,25.408a.849.849,0,0,1,.372.477c.423,1.274.891,2.533,1.385,3.781,1.893,4.1,4.179,8.031,6.121,12.106-.606-5.586-.907-12.19-2-17.715-.357-1.8,1.9-1.536,2.269.276,4.821,23.737,3.987,48.029,6.253,72.039.494-1.716,1.161-3.408,1.781-4.969.448-1.13.943-2.236,1.46-3.331.243-.639.5-1.277.773-1.907,1.7-3.869,4.491-7.158,6.963-10.6,2.145-6.269-1.388-13.673-2.554-19.835A90.2,90.2,0,0,1,367.2,60.6c.053-1.14,1.825-1.149,1.78,0a91.42,91.42,0,0,0,2.182,24.115c.989,4.291,2.548,8.8,2.341,13.181a22.416,22.416,0,0,0,2-4.377c2.451-7.629-.092-16.049-.159-23.854-.07-7.952,1.05-15.844,1.925-23.729,1.02-9.182,2.485-19.09.682-28.221-.346-1.751,1.511-1.912,1.9-.143,3.5,15.957-.875,31.982-1.515,47.991A85.1,85.1,0,0,0,378.7,77.31c.213,2.167.458,4.344.581,6.523a33.15,33.15,0,0,1,3.947-3.989,22.348,22.348,0,0,0,7.357-13.2c.187-1.132,1.913-.652,1.724.474a23.105,23.105,0,0,1-4.969,10.99c-2.392,2.9-6.338,5.1-7.986,8.516-.006.864-.038,1.726-.117,2.59-.687,7.472-5.175,12.508-9.292,18.4-5.023,7.191-6.541,15.682-7.706,24.191.394,6.177,2.073,12.176,3.716,18.236.061.226.114.452.174.678.042-.013.087-.017.13-.028a1.4,1.4,0,0,1,2.047,1.16c.007.134.008.268.011.4a6.819,6.819,0,0,1-.032,1.548,21.813,21.813,0,0,1-.634,3.533,92.182,92.182,0,0,1,1.763,17.635c.019,7.648-.462,15.29-.306,22.936a19.8,19.8,0,0,1,1.875-4.221,29.249,29.249,0,0,1,3.033-4.076,32.649,32.649,0,0,0,3.37-9.585c.321-2.984.315-6.047.462-8.944.386-7.581,1.143-15.139,2.161-22.661.141-1.042,2-.805,1.854.251q-.845,6.323-1.414,12.671c2.055-3.917,6.262-6.287,8.736-10.066,3.244-4.955,3.037-11.29,2.867-16.971-.036-1.181,1.8-1.179,1.834,0,.166,5.313.266,10.938-2.028,15.869-1.171,2.516-3.23,4.458-5.251,6.4-2.23,2.739-4.04,5.132-4.95,8.667-.924,3.59-1.114,7.349-1.6,11.012a53.285,53.285,0,0,1-1.68,8.29c-.032.123-.058.248-.092.371a27.922,27.922,0,0,0,4.216-5.876c.814-1.606,3.23-.192,2.415,1.411-2.647,5.208-7.39,8.7-10.738,13.381-2.84,3.973-3.525,8.439-3.715,13.037.792,8.056,3.242,15.791,5.477,23.54,2.131,7.39,4.523,15.575,3.855,23.364a1.188,1.188,0,0,1,.072.409q-.006.75-.012,1.5a1.313,1.313,0,0,1-2.372.711,1.213,1.213,0,0,1-.281-.125,2.5,2.5,0,0,1-.626-.169c-.592.993-2.418.812-2.359-.6a70.585,70.585,0,0,0-.53-11.48,1.67,1.67,0,0,1-.182-.145,10.326,10.326,0,0,1-3.176-7.116,1.4,1.4,0,0,1,1.981-1.258c-1.267-6.495-2.906-12.947-4.151-19.453-4.281-6.991-10.866-11.761-16.512-17.668a34.377,34.377,0,0,1-7.113-10.439c-2.043-4.886-2.845-10.143-3.621-15.347-.175-1.173,1.616-1.682,1.8-.5.821,5.334,1.634,10.825,3.855,15.791a36.632,36.632,0,0,0,8.152,10.969c4.228,4.156,9.146,8.039,12.684,12.871-.246-1.559-.465-3.122-.637-4.691a96.129,96.129,0,0,1-.874-11.987c-.057-5.712.23-11.424.133-17.136-1.982-8.979-7.828-15.7-14.445-21.623l-.269-.2a70.853,70.853,0,0,1-15.971-15.759,85.416,85.416,0,0,1-11.009-21.4c-1.683-2.448-3.708-4.69-5.352-7.157a58.235,58.235,0,0,1-5.565-10.825c-3.244-8.16-5.023-16.839-6.475-25.471-.168-1,1.321-1.448,1.544-.426" transform="translate(-295.999 -6.192)" fill="#802c30"/>
        <path id="Trazado_207132" data-name="Trazado 207132" d="M370.1,59.193a.425.425,0,0,0-.313-.678,9.741,9.741,0,0,0-8.156,1.166c-1.495.992-3.594,3.071-3.729,4.993-.149,2.105,1.744,2.65,3.455,2.3a12.665,12.665,0,0,0,8.743-7.782" transform="translate(-303.844 -22.034)" fill="#45af79"/>
        <path id="Trazado_207133" data-name="Trazado 207133" d="M356.709,184.638a.565.565,0,0,0,.028-.465.558.558,0,0,0-.343-.214,9.74,9.74,0,0,0-8.156,1.166c-1.495.992-3.593,3.071-3.729,4.993-.148,2.105,1.744,2.65,3.456,2.3a12.667,12.667,0,0,0,8.743-7.782" transform="translate(-282.142 -69.613)" fill="#45af79"/>
        <path id="Trazado_207134" data-name="Trazado 207134" d="M438.46,100.773a.565.565,0,0,0,.028-.465.558.558,0,0,0-.342-.214,9.741,9.741,0,0,0-8.156,1.166c-1.495.992-3.593,3.071-3.729,4.993-.148,2.105,1.744,2.65,3.456,2.3a12.667,12.667,0,0,0,8.743-7.782" transform="translate(-414.637 -37.804)" fill="#45af79"/>
        <path id="Trazado_207135" data-name="Trazado 207135" d="M303.853,85.973a.565.565,0,0,0,.028-.465.558.558,0,0,0-.343-.214,9.74,9.74,0,0,0-8.156,1.166c-1.495.992-3.593,3.071-3.729,4.993-.148,2.105,1.743,2.65,3.456,2.3a12.667,12.667,0,0,0,8.743-7.782" transform="translate(-196.477 -32.191)" fill="#45af79"/>
        <path id="Trazado_207136" data-name="Trazado 207136" d="M392.11,10.422a.562.562,0,0,0-.423-.193.553.553,0,0,0-.323.242,9.739,9.739,0,0,0-1.85,8.028c.386,1.752,1.57,4.458,3.314,5.277,1.911.9,3.1-.672,3.392-2.394a12.669,12.669,0,0,0-4.11-10.96" transform="translate(-349.523 -3.878)" fill="#45af79"/>
        <path id="Trazado_207137" data-name="Trazado 207137" d="M309,83.254a.426.426,0,0,0-.581.471,9.743,9.743,0,0,0,3.13,7.622c1.327,1.205,3.857,2.731,5.754,2.392,2.078-.372,2.142-2.34,1.384-3.914A12.666,12.666,0,0,0,309,83.254" transform="translate(-222.095 -31.573)" fill="#45af79"/>
        <path id="Trazado_207138" data-name="Trazado 207138" d="M391.537,75.9a2.674,2.674,0,0,1-2.124.9,7.989,7.989,0,0,1-3.275-.822,24.046,24.046,0,0,1-6.824-4.5,1.8,1.8,0,0,1-.716-1.2c0-.736.829-1.187,1.56-1.274a8.626,8.626,0,0,1,4.473,1.122c1.549.706,8.7,3.4,6.906,5.775" transform="translate(-338.353 -26.159)" fill="#45af79"/>
        <path id="Trazado_207139" data-name="Trazado 207139" d="M404.223,222.485a2.674,2.674,0,0,1-2.124.9,7.982,7.982,0,0,1-3.274-.822,24.04,24.04,0,0,1-6.824-4.5,1.805,1.805,0,0,1-.716-1.2c0-.736.829-1.187,1.561-1.274a8.625,8.625,0,0,1,4.473,1.122c1.549.706,8.7,3.4,6.906,5.775" transform="translate(-358.913 -81.757)" fill="#45af79"/>
        <path id="Trazado_207140" data-name="Trazado 207140" d="M379.557,140.735a2.674,2.674,0,0,1-2.124.9,7.983,7.983,0,0,1-3.274-.822,24.04,24.04,0,0,1-6.824-4.5,1.8,1.8,0,0,1-.716-1.2c0-.736.829-1.187,1.56-1.274a8.624,8.624,0,0,1,4.473,1.122c1.549.706,8.7,3.4,6.906,5.775" transform="translate(-318.937 -50.75)" fill="#45af79"/>
        <path id="Trazado_207141" data-name="Trazado 207141" d="M456.375,118.887a2.674,2.674,0,0,1-2.124.9,7.989,7.989,0,0,1-3.275-.822,24.044,24.044,0,0,1-6.824-4.5,1.8,1.8,0,0,1-.716-1.2c0-.736.829-1.187,1.56-1.274a8.633,8.633,0,0,1,4.473,1.122c1.549.706,8.7,3.4,6.906,5.775" transform="translate(-443.437 -42.464)" fill="#45af79"/>
        <path id="Trazado_207142" data-name="Trazado 207142" d="M319.779,4.346a8.624,8.624,0,0,1,4.473,1.122,44.94,44.94,0,0,1,4.474,2.125,27.407,27.407,0,0,1,.184-4.927c.176-1.236.622-2.364,1.938-2.647a.793.793,0,0,1,.965.547,23.276,23.276,0,0,1-.366,10.707,12.533,12.533,0,0,1,3.2-3.7,4.328,4.328,0,0,1,1.844-.94,1.923,1.923,0,0,1,1.878.637,2.068,2.068,0,0,1,.353,1.032,4.547,4.547,0,0,1-1.437,3.513,11.987,11.987,0,0,1-3.261,2.141c-.607.3-2.366,1.655-3.015,1.308s-.438-1.653-.294-2.209a7.532,7.532,0,0,1,.539-1.421.645.645,0,0,1-.707.126,3.2,3.2,0,0,1-1.514.378,8,8,0,0,1-3.275-.822,24.051,24.051,0,0,1-6.824-4.5,1.806,1.806,0,0,1-.716-1.2c0-.737.829-1.187,1.56-1.274" transform="translate(-247.789 0)" fill="#45af79"/>
        <path id="Trazado_207143" data-name="Trazado 207143" d="M415.448,134.6c1.609-1.852,3.451,1.407,4.415,3.8a12.226,12.226,0,0,1,3.441-4.161,4.328,4.328,0,0,1,1.843-.94,1.922,1.922,0,0,1,1.878.638,2.052,2.052,0,0,1,.353,1.032,4.543,4.543,0,0,1-1.436,3.513,12.007,12.007,0,0,1-3.261,2.141,11.388,11.388,0,0,1-2.609,1.35.708.708,0,0,1-.227.389l.024.061c.32.828-.858,1.387-1.424.829-1.705-1.683-5.125-6.2-3-8.648" transform="translate(-396.376 -50.544)" fill="#45af79"/>
        <path id="Trazado_207144" data-name="Trazado 207144" d="M382.213,259.683a4.323,4.323,0,0,1,1.844-.94,1.922,1.922,0,0,1,1.878.637,2.069,2.069,0,0,1,.353,1.032,4.544,4.544,0,0,1-1.436,3.513,12,12,0,0,1-3.262,2.141c-.607.3-2.365,1.655-3.015,1.309s-.438-1.653-.294-2.209a11.158,11.158,0,0,1,3.934-5.484" transform="translate(-332.536 -98.123)" fill="#45af79"/>
        <path id="Trazado_207145" data-name="Trazado 207145" d="M376.419,54.5a2.339,2.339,0,0,1,.156-2.087,1.831,1.831,0,0,1,1.524-.559,5.2,5.2,0,0,1,3.127,1.587c1.721,1.585,6.407,7.606,2.338,9.129-3.267,1.222-6.5-5.719-7.146-8.07" transform="translate(-330.256 -19.667)" fill="#45af79"/>
        <path id="Trazado_207146" data-name="Trazado 207146" d="M363.733,177.128a2.341,2.341,0,0,1,.156-2.087,1.831,1.831,0,0,1,1.524-.559,5.2,5.2,0,0,1,3.127,1.587c1.721,1.585,6.407,7.606,2.338,9.129-3.267,1.222-6.5-5.719-7.146-8.07" transform="translate(-309.695 -66.177)" fill="#45af79"/>
        <path id="Trazado_207147" data-name="Trazado 207147" d="M345.41,74.939a2.339,2.339,0,0,1,.156-2.087,1.831,1.831,0,0,1,1.525-.559,5.2,5.2,0,0,1,3.127,1.587c1.721,1.585,6.407,7.606,2.338,9.129-3.267,1.222-6.5-5.719-7.146-8.07" transform="translate(-279.999 -27.418)" fill="#45af79"/>
        <path id="Trazado_207148" data-name="Trazado 207148" d="M301.034,200.848a.565.565,0,0,0,.028-.465.558.558,0,0,0-.342-.214,9.741,9.741,0,0,0-8.156,1.166c-1.495.992-3.593,3.071-3.729,4.993-.148,2.105,1.743,2.65,3.456,2.3a12.668,12.668,0,0,0,8.743-7.782" transform="translate(-191.909 -75.761)" fill="#45af79"/>
        <path id="Trazado_207149" data-name="Trazado 207149" d="M378.555,279.78a.425.425,0,0,0-.314-.678,9.739,9.739,0,0,0-8.156,1.166c-1.495.992-3.594,3.071-3.729,4.993-.149,2.105,1.743,2.65,3.455,2.3a12.666,12.666,0,0,0,8.743-7.782" transform="translate(-317.55 -105.698)" fill="#45af79"/>
        <path id="Trazado_207150" data-name="Trazado 207150" d="M308.058,193.338a2.339,2.339,0,0,1,.156-2.087,1.831,1.831,0,0,1,1.525-.559,5.2,5.2,0,0,1,3.127,1.587c1.721,1.585,6.406,7.606,2.338,9.129-3.267,1.222-6.5-5.719-7.146-8.07" transform="translate(-219.462 -72.325)" fill="#45af79"/>
        <path id="Trazado_207151" data-name="Trazado 207151" d="M389.1,254.651a2.339,2.339,0,0,1,.156-2.087,1.831,1.831,0,0,1,1.525-.559,5.2,5.2,0,0,1,3.127,1.587c1.721,1.585,6.407,7.606,2.338,9.129-3.267,1.223-6.5-5.719-7.146-8.07" transform="translate(-350.814 -95.58)" fill="#45af79"/>
        <path id="Trazado_207152" data-name="Trazado 207152" d="M316.609,100.417a6.578,6.578,0,0,1-2.6,4.4,8.1,8.1,0,0,1-4.916,1.558,7.137,7.137,0,0,1,4.242-7.875c1.916-.809,3.53-.315,3.27,1.918" transform="translate(-219.953 -37.221)" fill="#45af79"/>
        <path id="Trazado_207153" data-name="Trazado 207153" d="M395.036,148.945a.564.564,0,0,0-.423-.194.557.557,0,0,0-.323.241,9.742,9.742,0,0,0-1.857,8.027c.385,1.752,1.566,4.46,3.309,5.28,1.91.9,3.1-.669,3.394-2.392a12.668,12.668,0,0,0-4.1-10.964" transform="translate(-354.253 -56.417)" fill="#45af79"/>
        <path id="Trazado_207154" data-name="Trazado 207154" d="M405.384,171.07a6.58,6.58,0,0,1-4.663,2.086,8.108,8.108,0,0,1-4.91-1.574,7.137,7.137,0,0,1,8.016-3.969c2.032.449,3.062,1.785,1.557,3.456" transform="translate(-363.314 -63.51)" fill="#45af79"/>
        <path id="Trazado_207155" data-name="Trazado 207155" d="M428.641,178.822a6.581,6.581,0,0,1-4.663,2.086,8.108,8.108,0,0,1-4.91-1.574,7.137,7.137,0,0,1,8.016-3.969c2.032.449,3.062,1.785,1.557,3.456" transform="translate(-401.007 -66.45)" fill="#45af79"/>
        <path id="Trazado_207156" data-name="Trazado 207156" d="M328.084,208.849a.564.564,0,0,0-.423-.194.555.555,0,0,0-.323.241,9.743,9.743,0,0,0-1.858,8.027c.385,1.752,1.565,4.46,3.309,5.28,1.91.9,3.1-.669,3.394-2.392a12.667,12.667,0,0,0-4.1-10.964" transform="translate(-245.742 -79.138)" fill="#45af79"/>
        <path id="Trazado_207157" data-name="Trazado 207157" d="M338.433,230.973a6.581,6.581,0,0,1-4.663,2.087,8.113,8.113,0,0,1-4.91-1.574,7.139,7.139,0,0,1,8.016-3.969c2.032.449,3.062,1.786,1.557,3.456" transform="translate(-254.805 -86.231)" fill="#45af79"/>
        <path id="Trazado_207158" data-name="Trazado 207158" d="M319.451,293.593a.564.564,0,0,0,.43.18.557.557,0,0,0,.315-.252,9.741,9.741,0,0,0,1.6-8.083c-.441-1.738-1.709-4.406-3.479-5.171-1.938-.837-3.078.768-3.315,2.5a12.666,12.666,0,0,0,4.451,10.826" transform="translate(-229.075 -106.214)" fill="#45af79"/>
        <path id="Trazado_207159" data-name="Trazado 207159" d="M307.279,276.363a6.576,6.576,0,0,1,4.593-2.235,8.1,8.1,0,0,1,4.959,1.414,7.137,7.137,0,0,1-7.884,4.225c-2.045-.383-3.118-1.685-1.668-3.4" transform="translate(-218.676 -103.966)" fill="#45af79"/>
        <path id="Trazado_207160" data-name="Trazado 207160" d="M321.853,134.415c1.141-1.4,3.051-.214,3.964.831a11.024,11.024,0,0,1,2.148,5.079l.21.33c.007.012.012.025.019.037a10.229,10.229,0,0,1,5.544-2.4c1.554-.153,3.855-.073,4.8,1.426.795,1.263-.112,2.3-1.385,2.565a19.259,19.259,0,0,1-3.507.119l-5.065.1a.878.878,0,0,1-.811-.618.664.664,0,0,1-.554.02,11.158,11.158,0,0,1-4.7-3.08c-.919-1.146-1.742-3.089-.667-4.408" transform="translate(-249.825 -50.739)" fill="#45af79"/>
        <path id="Trazado_207161" data-name="Trazado 207161" d="M331.723,40.63c3.775.389,6.1,6.261,5.225,9.463a.794.794,0,0,1-1.551-.237.688.688,0,0,1-.436-.27l-2.827-3.626A13.851,13.851,0,0,1,329.982,43a1.62,1.62,0,0,1,1.742-2.372" transform="translate(-253.379 -15.405)" fill="#45af79"/>
        <path id="Trazado_207162" data-name="Trazado 207162" d="M309.515,229.15c.4-1.154,1.511-3.105,3-2.878,2.374.363,1.251,4.853.191,7.8a16.449,16.449,0,0,1,1.614-.412c.929-.182,2.366-.6,3.246-.041,2.026,1.28-.593,3.344-1.921,3.645a27.131,27.131,0,0,1-3.71.415c-.892.076-1.97.078-2.245-.976a1.5,1.5,0,0,1-.037-.619.777.777,0,0,1-.23-.382,11.442,11.442,0,0,1,.086-6.557m1.364,1.451c-.016.077-.027.154-.04.231q.187-.589.375-1.176a.913.913,0,0,1,.163-.3c.068-.205.145-.408.217-.613l-.1.129a5.665,5.665,0,0,0-.618,1.735" transform="translate(-221.638 -85.814)" fill="#45af79"/>
        <path id="Trazado_207163" data-name="Trazado 207163" d="M403.155,199.013c.77-1.408,3.41-.415,4.482-.024a10.87,10.87,0,0,1,4.948,3.353.6.6,0,0,1,.122.43.748.748,0,0,1-.422,1.369,14.8,14.8,0,0,1-6.095-1.579c-1.032-.518-3.938-1.9-3.035-3.55" transform="translate(-374.689 -75.205)" fill="#45af79"/>
        <path id="Trazado_207164" data-name="Trazado 207164" d="M413.132,155.469c.132-.083.254-.174.383-.259.939-2.067,3.565-6.619,5.674-4.322,2.078,2.264-2.633,6.39-4.109,7.6a.869.869,0,0,1-1.34-.173,1.791,1.791,0,0,1-.268-1.266.871.871,0,0,1-.341-1.58" transform="translate(-387.43 -56.99)" fill="#45af79"/>
        <path id="Trazado_207165" data-name="Trazado 207165" d="M438.4,134.064a10.871,10.871,0,0,1,10.5.079.677.677,0,0,1,.381.645.8.8,0,0,1-.3,1.041c.208.015.415.032.625.047a.807.807,0,0,1,0,1.613,27.153,27.153,0,0,1-11.009-1.877.859.859,0,0,1-.2-1.548" transform="translate(-433.789 -50.35)" fill="#45af79"/>
        <path id="Trazado_207166" data-name="Trazado 207166" d="M346.929,211.064c1.714-.2,2.592,1.537,2.45,3.009-.292,3.036-2.406,5.374-2.528,8.45,0,.272.005.544.011.816a.8.8,0,0,1-.184.554c.029.127.055.253.085.38a.756.756,0,0,1-1.457.4c-.749-2.729-3.335-13.045,1.622-13.611" transform="translate(-274.425 -80.047)" fill="#45af79"/>
        <path id="Trazado_207167" data-name="Trazado 207167" d="M237.561,130.789a.905.905,0,0,1,1.011.746q2.416,14.3,4.823,28.606c.9,5.37,1.917,10.013,5.829,14.028a61.308,61.308,0,0,1,4.621,4.883,30.826,30.826,0,0,0-3.142-9.407c-.865-1.6,1.718-2.749,2.577-1.158,6.265,11.609,2.652,25.206,5.557,37.516.685-4.19,2.67-8.441,3.566-12.322,1.884-8.155,2.145-16.737,2.217-25.074.144-16.75-1.255-33.563,1.407-50.193.174-1.09,1.875-.9,1.713.2-2.364,16.046-1.192,32.269-1.238,48.414-.022,8.066-.249,16.258-1.719,24.209a78.967,78.967,0,0,1-2.844,10.224c-1.116,3.411-2.086,6.9-1.152,10.321,5.213,11.416,17.383,19.871,20.315,32.2a96.869,96.869,0,0,0,2.079-14.743.771.771,0,0,1-.169-.6c.439-3.986-3.763-6-5.591-8.965s-1.646-6.8-1.9-10.149c-.635-8.338-1.269-16.676-1.855-25.017-.078-1.11,1.635-1.392,1.726-.267.7,8.653,1.346,17.311,1.994,25.968a52.651,52.651,0,0,0,.517,5.673,9.936,9.936,0,0,0,2.936,5.2,24.97,24.97,0,0,1,2.462,2.869,61.942,61.942,0,0,0-1.158-11.241c-.36-1.808,2.458-2.236,2.826-.437.382,1.87.665,3.745.866,5.622a55.754,55.754,0,0,1,2.687-5.523c1.585-2.792,4.006-5.173,5.287-8.124,1.325-3.053,1.157-6.849,1.216-10.117.07-3.871-.066-7.733-.38-11.591-.142-1.742,2.552-2.176,2.7-.418.3,3.505.454,7.02.441,10.537,2.806-3.393,3.654-8.095,3.986-12.465a167.483,167.483,0,0,0-.049-20.682c-.169-3.519-.376-7.045-.559-10.572a.927.927,0,0,1,.932-.974h.019a.922.922,0,0,1,.915.878c.242,4.971.529,9.943.7,14.917.228,6.517.463,13.237-.508,19.7-.655,4.361-2.122,8.681-5.446,11.617a32.15,32.15,0,0,1-.874,8.591c-.877,3.057-2.984,5.4-4.748,7.968a60.43,60.43,0,0,0-5.326,10.378,1.2,1.2,0,0,1-.664.664A89.474,89.474,0,0,1,284.031,244,19.436,19.436,0,0,1,290.9,237c3.765-2.15,6.55-4.193,7.895-8.518a36.9,36.9,0,0,0,1.15-10.78c.006-1.175,1.822-.957,1.819.211-.024,6.411-.415,13.965-5.976,18.2-3.356,2.557-7.106,3.6-9.485,7.357a56.383,56.383,0,0,0-4.127,8.247c-.038.142-.074.284-.112.425-.89,3.3-2.124,6.589-2.59,9.984-.514,3.739.814,6.86,2.035,10.31a76.84,76.84,0,0,1,4.264,21.472c.094,1.709-2.552,2.143-2.657.411a75.136,75.136,0,0,0-4.649-22.005c-1.039-2.76-2.058-5.462-2.014-8.457a17.761,17.761,0,0,1,.2-2.348,8.556,8.556,0,0,0-2.294-5.89,30.685,30.685,0,0,1-4.216-5.336c-2.506-4.249-3.809-9.058-5.074-13.787-.3-1.137,1.505-1.406,1.809-.28,1.471,5.467,3.007,11.224,6.584,15.746,1.352,1.709,3.184,3.077,4.12,5.086.022.047.04.094.06.14.258-.9.528-1.8.786-2.7q.532-1.842,1.027-3.7a1.331,1.331,0,0,1-.209-.708c-.228-15.982-16.278-24.916-21.711-38.8-3.466-8.858-2.3-18.622-3.133-27.942-1.654-4-5.241-6.383-8.01-9.623-3.132-3.664-3.952-8.209-4.732-12.827q-2.455-14.527-4.9-29.055a.9.9,0,0,1,.777-1.047l.018,0" transform="translate(-162.417 -44.635)" fill="#662227"/>
        <path id="Trazado_207168" data-name="Trazado 207168" d="M335.432,128.407a.628.628,0,0,0-.048-.515.618.618,0,0,0-.412-.176,10.821,10.821,0,0,0-8.756,2.665c-1.472,1.343-3.424,3.981-3.246,6.115.195,2.337,2.364,2.613,4.185,1.94a14.073,14.073,0,0,0,8.278-10.028" transform="translate(-247.456 -48.398)" fill="#2b7e4d"/>
        <path id="Trazado_207169" data-name="Trazado 207169" d="M291.321,131.884a.628.628,0,0,0-.048-.515.618.618,0,0,0-.412-.176,10.823,10.823,0,0,0-8.756,2.665c-1.472,1.343-3.424,3.981-3.246,6.115.195,2.337,2.364,2.613,4.185,1.94a14.073,14.073,0,0,0,8.278-10.028" transform="translate(-175.964 -49.717)" fill="#2b7e4d"/>
        <path id="Trazado_207170" data-name="Trazado 207170" d="M232.07,161.54a.625.625,0,0,0-.048-.515.619.619,0,0,0-.412-.176,10.821,10.821,0,0,0-8.756,2.665c-1.472,1.342-3.424,3.981-3.246,6.115.195,2.336,2.364,2.613,4.185,1.94a14.074,14.074,0,0,0,8.278-10.029" transform="translate(-79.935 -60.965)" fill="#2b7e4d"/>
        <path id="Trazado_207171" data-name="Trazado 207171" d="M296.221,96.609a.627.627,0,0,0-.5-.14.619.619,0,0,0-.313.32,10.821,10.821,0,0,0-.667,9.129c.722,1.857,2.48,4.628,4.534,5.231,2.251.66,3.29-1.264,3.317-3.2a14.073,14.073,0,0,0-6.373-11.335" transform="translate(-196.634 -36.583)" fill="#2b7e4d"/>
        <path id="Trazado_207172" data-name="Trazado 207172" d="M249.966,206.358a.474.474,0,0,0-.558.616,10.825,10.825,0,0,0,4.73,7.837c1.662,1.1,4.7,2.344,6.724,1.649,2.218-.761,1.955-2.932.855-4.532a14.072,14.072,0,0,0-11.751-5.569" transform="translate(-128.877 -78.263)" fill="#2b7e4d"/>
        <path id="Trazado_207173" data-name="Trazado 207173" d="M357.545,151.16a2.97,2.97,0,0,1-2.179,1.349,8.886,8.886,0,0,1-3.735-.346,26.72,26.72,0,0,1-8.256-3.782,2.006,2.006,0,0,1-.99-1.2c-.129-.808.708-1.444,1.5-1.664a9.583,9.583,0,0,1,5.1.472c1.821.512,10.128,2.255,8.562,5.168" transform="translate(-281.784 -55.12)" fill="#2b7e4d"/>
        <path id="Trazado_207174" data-name="Trazado 207174" d="M283.224,268.009a2.972,2.972,0,0,1-2.179,1.349,8.885,8.885,0,0,1-3.735-.346,26.721,26.721,0,0,1-8.256-3.782,2,2,0,0,1-.99-1.2c-.129-.808.708-1.444,1.5-1.664a9.583,9.583,0,0,1,5.1.472c1.821.511,10.128,2.255,8.562,5.168" transform="translate(-161.33 -99.439)" fill="#2b7e4d"/>
        <path id="Trazado_207175" data-name="Trazado 207175" d="M326.753,247.805a2.97,2.97,0,0,1-2.179,1.349,8.884,8.884,0,0,1-3.735-.346,26.721,26.721,0,0,1-8.256-3.782,2,2,0,0,1-.99-1.2c-.129-.808.708-1.444,1.5-1.664a9.583,9.583,0,0,1,5.1.472c1.821.512,10.128,2.255,8.562,5.168" transform="translate(-231.879 -91.776)" fill="#2b7e4d"/>
        <path id="Trazado_207176" data-name="Trazado 207176" d="M325.332,177.624a4.8,4.8,0,0,1,1.865-1.344,2.135,2.135,0,0,1,2.17.381,2.3,2.3,0,0,1,.562,1.073,5.049,5.049,0,0,1-.981,4.1,13.309,13.309,0,0,1-3.217,2.9c-.615.435-2.317,2.218-3.089,1.948-.788-.275-.762-1.74-.7-2.375a12.4,12.4,0,0,1,3.387-6.689" transform="translate(-241.392 -66.809)" fill="#2b7e4d"/>
        <path id="Trazado_207177" data-name="Trazado 207177" d="M261.757,255.731a4.8,4.8,0,0,1,1.864-1.345,2.135,2.135,0,0,1,2.17.381,2.285,2.285,0,0,1,.562,1.073,5.049,5.049,0,0,1-.981,4.1,13.3,13.3,0,0,1-3.217,2.9c-.615.436-2.316,2.218-3.089,1.948s-.761-1.74-.7-2.374a12.4,12.4,0,0,1,3.387-6.689" transform="translate(-138.355 -96.433)" fill="#2b7e4d"/>
        <path id="Trazado_207178" data-name="Trazado 207178" d="M308,192.373a4.8,4.8,0,0,1,1.864-1.344,2.135,2.135,0,0,1,2.17.381,2.286,2.286,0,0,1,.562,1.073,5.047,5.047,0,0,1-.981,4.1,13.3,13.3,0,0,1-3.217,2.9c-.615.436-2.316,2.218-3.089,1.948s-.761-1.74-.7-2.374A12.4,12.4,0,0,1,308,192.373" transform="translate(-213.3 -72.403)" fill="#2b7e4d"/>
        <path id="Trazado_207179" data-name="Trazado 207179" d="M231.914,152.94a4.8,4.8,0,0,1,1.542-1.7,2.134,2.134,0,0,1,2.2-.081,2.292,2.292,0,0,1,.775.932,5.048,5.048,0,0,1-.1,4.215,13.316,13.316,0,0,1-2.539,3.513c-.51.554-1.8,2.654-2.613,2.551-.828-.1-1.109-1.542-1.178-2.176a12.393,12.393,0,0,1,1.914-7.249" transform="translate(-91.112 -57.228)" fill="#2b7e4d"/>
        <path id="Trazado_207180" data-name="Trazado 207180" d="M232.4,266.244a4.8,4.8,0,0,1,1.864-1.344,2.135,2.135,0,0,1,2.17.381,2.287,2.287,0,0,1,.562,1.073,5.047,5.047,0,0,1-.981,4.1,13.318,13.318,0,0,1-3.217,2.9c-.615.435-2.316,2.218-3.089,1.948s-.761-1.74-.7-2.374a12.4,12.4,0,0,1,3.387-6.689" transform="translate(-90.778 -100.421)" fill="#2b7e4d"/>
        <path id="Trazado_207181" data-name="Trazado 207181" d="M305.11,231.539a4.8,4.8,0,0,1,1.864-1.344,2.136,2.136,0,0,1,2.171.381,2.292,2.292,0,0,1,.562,1.073,5.047,5.047,0,0,1-.981,4.1,13.317,13.317,0,0,1-3.217,2.9c-.615.435-2.316,2.218-3.088,1.948-.788-.275-.762-1.74-.7-2.374a12.4,12.4,0,0,1,3.387-6.689" transform="translate(-208.619 -87.258)" fill="#2b7e4d"/>
        <path id="Trazado_207182" data-name="Trazado 207182" d="M244.894,277.683a4.8,4.8,0,0,1,1.864-1.344,2.135,2.135,0,0,1,2.17.381,2.287,2.287,0,0,1,.562,1.073,5.049,5.049,0,0,1-.981,4.1,13.3,13.3,0,0,1-3.217,2.9c-.615.436-2.316,2.218-3.089,1.948s-.761-1.74-.7-2.374a12.4,12.4,0,0,1,3.387-6.689" transform="translate(-111.025 -104.759)" fill="#2b7e4d"/>
        <path id="Trazado_207183" data-name="Trazado 207183" d="M342.411,128.321a2.6,2.6,0,0,1-.183-2.318,2.032,2.032,0,0,1,1.579-.872,5.785,5.785,0,0,1,3.7,1.21c2.159,1.448,8.326,7.263,4.117,9.626-3.379,1.9-8.11-5.175-9.216-7.647" transform="translate(-276.887 -47.452)" fill="#2b7e4d"/>
        <path id="Trazado_207184" data-name="Trazado 207184" d="M239.232,155.145a2.6,2.6,0,0,1-.182-2.317,2.031,2.031,0,0,1,1.578-.873,5.785,5.785,0,0,1,3.7,1.21c2.159,1.448,8.326,7.264,4.117,9.626-3.379,1.9-8.109-5.175-9.216-7.647" transform="translate(-109.663 -57.626)" fill="#2b7e4d"/>
        <path id="Trazado_207185" data-name="Trazado 207185" d="M256.94,222.691a7.309,7.309,0,0,1-2.1,5.271,9,9,0,0,1-5.132,2.546,7.929,7.929,0,0,1,3.32-9.367c1.966-1.214,3.822-.946,3.915,1.551" transform="translate(-123.193 -83.609)" fill="#2b7e4d"/>
        <path id="Trazado_207186" data-name="Trazado 207186" d="M296.062,287.952a.627.627,0,0,0-.5-.141.62.62,0,0,0-.313.32,10.823,10.823,0,0,0-.677,9.128c.72,1.858,2.476,4.63,4.53,5.235,2.25.662,3.29-1.261,3.32-3.2a14.073,14.073,0,0,0-6.362-11.341" transform="translate(-196.362 -109.156)" fill="#2b7e4d"/>
        <path id="Trazado_207187" data-name="Trazado 207187" d="M307.275,312.116a7.306,7.306,0,0,1-4.765,3.082,9.007,9.007,0,0,1-5.659-.894,7.93,7.93,0,0,1,8.128-5.718c2.307.148,3.664,1.439,2.3,3.53" transform="translate(-203.61 -117.035)" fill="#2b7e4d"/>
        <path id="Trazado_207188" data-name="Trazado 207188" d="M241.941,317.028a.629.629,0,0,0,.451.254.619.619,0,0,0,.38-.238,10.82,10.82,0,0,0,2.8-8.716c-.264-1.974-1.322-5.082-3.177-6.151-2.032-1.171-3.495.454-3.978,2.335a14.074,14.074,0,0,0,3.528,12.516" transform="translate(-104.96 -114.46)" fill="#2b7e4d"/>
        <path id="Trazado_207189" data-name="Trazado 207189" d="M227.912,298.187a7.3,7.3,0,0,1,5.354-1.88,9,9,0,0,1,5.292,2.194,7.929,7.929,0,0,1-9.241,3.655c-2.207-.684-3.225-2.259-1.405-3.97" transform="translate(-90.971 -112.38)" fill="#2b7e4d"/>
      </g>
    </g>
  </g>
</svg>
