<svg id="Grupo_152771" data-name="Grupo 152771" xmlns="http://www.w3.org/2000/svg" xmlns:xlink="http://www.w3.org/1999/xlink" width="64" height="64" viewBox="0 0 64 64">
  <defs>
    <clipPath id="clip-path">
      <rect id="Rectángulo_43955" data-name="Rectángulo 43955" width="64" height="64" fill="none"/>
    </clipPath>
  </defs>
  <g id="Grupo_152771-2" data-name="Grupo 152771" clip-path="url(#clip-path)">
    <path id="Trazado_206769" data-name="Trazado 206769" d="M9.351,54.5a31.927,31.927,0,1,1,45.151,0,31.927,31.927,0,0,1-45.151,0" transform="translate(0 0)" fill="#869d69"/>
    <path id="Trazado_206770" data-name="Trazado 206770" d="M252.553,208.887a.532.532,0,0,0-.529-.006,1.218,1.218,0,0,0-.027-.163c-.067-.278-.129-.583-.186-.911h0v0q-.026-.152-.051-.311l0-.016h0q-.024-.156-.047-.318l0-.012c-.013-.093-.026-.188-.038-.283l-.012-.094c-.013-.1-.027-.211-.039-.319v-.006q-.021-.176-.04-.358l0-.016q-.019-.182-.037-.369v0c-.01-.1-.019-.2-.028-.3s-.015-.177-.023-.266c-.006-.071-.012-.141-.018-.213v-.006q-.016-.2-.03-.4V204.5c-.007-.1-.014-.206-.021-.31q-.007-.1-.013-.2t-.013-.213q-.006-.1-.012-.21c-.006-.106-.012-.211-.017-.318h0c0-.094-.009-.189-.014-.284q-.015-.327-.029-.659c0-.035,0-.071,0-.106q-.013-.35-.024-.7c-.03-1.005-.044-2.029-.046-3.035h0v0q0-.224,0-.446v-.016q0-.216,0-.43v-.026c0-.112,0-.224,0-.335l0-.212c0-.11,0-.221,0-.33,0,0,0-.007,0-.011s0,0,0,0q0-.212.006-.42c0-.006,0-.012,0-.017,0-.1,0-.191,0-.286,0-.187.007-.373.011-.556,0-.007,0-.013,0-.02q0-.2.009-.4s0-.006,0-.01c0-.051,0-.1,0-.151.006-.22.012-.437.019-.648v-.005q.012-.372.026-.724c0-.022,0-.043,0-.065q.007-.163.013-.321c0-.016,0-.031,0-.046q.006-.146.013-.288c0-.015,0-.03,0-.044q.007-.152.015-.3l0-.057c.005-.1.01-.2.015-.291a13.8,13.8,0,0,1,.257-2.516,2.636,2.636,0,0,0,.207-.519.29.29,0,0,0,.107.011c.58-.048.585-.434.648-.72,0-.065,0-.109,0-.126v-.046l-.007-.045a43.013,43.013,0,0,1-.005-13.029l.009-.045,0-.046c.073-.682.17-1.166-.265-1.262-.238-.042-.539-.112-.72.1a1.031,1.031,0,0,0-.271-.222l-.1-.025-.03-.008-.073-.019-.047-.012-.079-.02-.035-.009-.126-.032-.045-.011-.09-.023-.07-.018-.077-.02-.068-.017-.089-.023-.354-.09-.006,0-.137-.035-.051-.013-.119-.03-.027-.007-.3-.076-.01,0-.154-.039L249.26,173l-.8-.2c-2.61-.66-6.037-1.526-7.256-1.886-.192-.565-.84-.738-1.106-.074l-.018.049-.247,1.318c-.648,2.952-4.506,8.672-5.908,10.683-1.4-2.012-5.26-7.732-5.908-10.683l-.247-1.318-.018-.049c-.266-.664-.913-.491-1.105.074-1.824.538-8.586,2.21-10.167,2.626a1.032,1.032,0,0,0-.271.222c-.181-.213-.482-.144-.72-.1-.435.1-.338.58-.265,1.262l0,.046.009.045a43,43,0,0,1-.005,13.029l-.007.045v.046c0,.017,0,.061,0,.126.063.286.069.671.648.72a.29.29,0,0,0,.107-.011,2.633,2.633,0,0,0,.207.519,13.828,13.828,0,0,1,.257,2.516c.035.629.066,1.351.091,2.136h0q.013.391.023.8v.009q.005.2.01.407v.009q.009.415.016.846v.017q0,.209.006.421s0,.009,0,.014q.005.434.008.878v.023q0,.217,0,.436s0,.007,0,.01q0,.226,0,.454c0,1.005-.016,2.029-.046,3.034-.018.592-.041,1.178-.07,1.75v0c-.022.427-.047.846-.076,1.254v.01q-.014.2-.03.4v.009q-.032.4-.068.782v0q-.018.187-.037.369l0,.016q-.019.181-.04.356v.007q-.042.36-.09.7v.01q-.023.162-.048.319l0,.015q-.025.16-.052.313c-.057.328-.119.633-.186.911a1.225,1.225,0,0,0-.027.163.532.532,0,0,0-.529.006.63.63,0,0,0-.107.078,2.815,2.815,0,0,0,.138,1,3.757,3.757,0,0,0,2.31,2.232,22.208,22.208,0,0,0,6.169,1.358c.672.061,1.442.1,2.261.1a15.95,15.95,0,0,0,5.339-.812c.348-.1,1.807-.663,2.5-3.546l.018-.073.017.073c.7,2.884,2.155,3.451,2.5,3.546a15.95,15.95,0,0,0,5.339.812c.82,0,1.59-.044,2.261-.1a22.21,22.21,0,0,0,6.169-1.358,3.757,3.757,0,0,0,2.31-2.232,2.811,2.811,0,0,0,.138-1,.63.63,0,0,0-.107-.078" transform="translate(-198.524 -157.233)" fill="#6f8158"/>
    <path id="Trazado_206771" data-name="Trazado 206771" d="M219,173.1c-1.208-4.978-.677-18.606-.338-19.234a3.222,3.222,0,0,0,.338-1.353,43.173,43.173,0,0,1,0-13.242,1.382,1.382,0,0,0-.628-1.353c-1.641-.432-8.863-2.217-10.353-2.683-.231-.072-.33.2-.33.2l-.239,1.276c-.822,3.77-6.524,11.647-6.524,11.647s-5.7-7.877-6.524-11.647l-.239-1.276s-.1-.27-.33-.2c-1.49.466-8.712,2.251-10.353,2.683a1.382,1.382,0,0,0-.628,1.353,43.174,43.174,0,0,1,0,13.242,3.222,3.222,0,0,0,.338,1.353c.338.628.87,14.257-.338,19.234,0,0-.483,1.836,2.03,2.9s8.989,2.223,13.339.628c0,0,1.4-.29,2.078-3.093a19.034,19.034,0,0,0,.628-3.486,19.032,19.032,0,0,0,.628,3.486c.677,2.8,2.078,3.093,2.078,3.093,4.349,1.595,10.825.435,13.338-.628s2.03-2.9,2.03-2.9" transform="translate(-168.682 -124.768)" fill="#ffb61d"/>
    <path id="Trazado_206772" data-name="Trazado 206772" d="M448.431,199.831a1.156,1.156,0,0,0,.285.118c4.349,1.595,10.825.435,13.338-.628s2.03-2.9,2.03-2.9c-1.208-4.978-.677-18.606-.338-19.234a3.221,3.221,0,0,0,.338-1.353,43.171,43.171,0,0,1,0-13.242,1.382,1.382,0,0,0-.628-1.353c-.524-.138-1.618-.414-2.911-.741-.505,4.691-.58,13.729.592,30.849,0,0,1.129,9.729-12.7,8.484" transform="translate(-413.765 -148.091)" fill="#d9980f"/>
    <path id="Trazado_206773" data-name="Trazado 206773" d="M434.984,538.076a48.2,48.2,0,0,1-.518-6.311c-9.428,2.084-14.919,1.289-17.37.621v3.46a13.931,13.931,0,0,0,.515,3.1c2.716.64,8.247,1.22,17.373-.868" transform="translate(-384.852 -490.657)" fill="#f0f0f0"/>
    <path id="Trazado_206774" data-name="Trazado 206774" d="M599.553,538.076h0q-.013-.075-.026-.151l0-.022-.022-.134,0-.03-.02-.132,0-.03c-.007-.046-.014-.092-.02-.139l0-.023q-.011-.08-.022-.161v0q-.035-.257-.067-.528s0-.01,0-.014l-.018-.162,0-.028c-.006-.051-.011-.1-.017-.153l0-.031-.016-.157,0-.026q-.009-.087-.017-.174s0-.006,0-.009q-.037-.38-.068-.779v-.018c0-.059-.009-.119-.014-.179l0-.024q-.007-.089-.013-.179c0-.007,0-.014,0-.021q-.007-.1-.013-.195v0q-.028-.413-.051-.84h0q-.006-.1-.011-.21v-.009q-.005-.1-.01-.2v-.01c-.024-.5-.044-1.015-.059-1.533q-1.222.27-2.355.477.054.823.112,1.671a7.9,7.9,0,0,1-1.339,4.97c1.278-.208,2.643-.473,4.1-.807" transform="translate(-549.42 -490.657)" fill="#bfbfbf"/>
    <path id="Trazado_206775" data-name="Trazado 206775" d="M417.1,409.566v6.428c2.447.667,7.923,1.461,17.324-.611,0-2.449.063-4.784.156-6.462-9.5,2.115-15.019,1.315-17.48.645" transform="translate(-384.86 -377.309)" fill="#f0f0f0"/>
    <path id="Trazado_206776" data-name="Trazado 206776" d="M607.307,414.936c0-.013,0-.026,0-.039q0-.087,0-.175c0-.019,0-.037,0-.056q0-.083,0-.167v-.05q0-.087,0-.175v-.041q0-.219,0-.435a.026.026,0,0,1,0,0c0-.07,0-.14,0-.209v-.033q0-.089,0-.178c0-.015,0-.03,0-.045,0-.056,0-.113,0-.169v-.042c0-.062,0-.125,0-.187v-.018q.005-.318.012-.628c0-.008,0-.015,0-.023q0-.09,0-.179v-.03q0-.091,0-.182v-.017q.011-.407.023-.8v-.008q0-.092.006-.183v-.013c0-.062,0-.124.007-.185h0c.023-.636.049-1.225.078-1.749q-1.569.35-3,.6c.09,1.965.2,4.083.34,6.367q1.2-.217,2.5-.5h0q0-.224,0-.446" transform="translate(-557.739 -377.309)" fill="#bfbfbf"/>
    <path id="Trazado_206777" data-name="Trazado 206777" d="M638.1,185.7c0-.065,0-.109,0-.126v-.046l-.007-.045a43.006,43.006,0,0,1-.005-13.03l.009-.045,0-.046c.073-.682.17-1.166-.265-1.262-.292-.052-.677-.145-.822.29a5.891,5.891,0,0,0-.167.847c0,.008,0,.016,0,.025a43.691,43.691,0,0,0,0,13.348c0,.086.217.842.606.81.58-.048.585-.434.648-.72" transform="translate(-587.152 -157.829)" fill="#3b3b3b"/>
    <path id="Trazado_206778" data-name="Trazado 206778" d="M185.709,538.076a48.179,48.179,0,0,0,.518-6.311c9.428,2.084,14.919,1.289,17.37.621v3.46a13.934,13.934,0,0,1-.515,3.1c-2.716.64-8.247,1.22-17.373-.868" transform="translate(-171.353 -490.657)" fill="#f0f0f0"/>
    <path id="Trazado_206779" data-name="Trazado 206779" d="M208.473,409.566v6.428c-2.447.667-7.923,1.461-17.324-.611,0-2.449-.063-4.784-.156-6.462,9.5,2.115,15.019,1.315,17.48.645" transform="translate(-176.229 -377.309)" fill="#f0f0f0"/>
    <path id="Trazado_206780" data-name="Trazado 206780" d="M212.17,168.162a.63.63,0,0,0-.107-.078c-.513-.3-1.034.382-1.278.828a1.766,1.766,0,0,1-.081.161.147.147,0,0,1-.012.021,2.913,2.913,0,0,1-1.459,1.141c-2.284.966-8.607,2.183-12.877.617l-.021-.016-.057-.008c-.109-.039-1.078-.442-1.605-2.627a18.725,18.725,0,0,1-.611-3.344c0-.042,0-.074,0-.1v-21.39c.853-1.193,5.727-8.125,6.51-11.715l.166-.886-.007-.021c.242-1.015-.773-1.595-1.124-.719l-.018.049-.247,1.318c-.648,2.952-4.506,8.672-5.908,10.683-1.4-2.012-5.26-7.732-5.908-10.683l-.247-1.318-.018-.049c-.351-.876-1.365-.3-1.124.719l-.007.021.166.886c.783,3.591,5.657,10.522,6.51,11.715v21.39c0,.021,0,.053,0,.1a18.71,18.71,0,0,1-.611,3.344c-.527,2.184-1.5,2.588-1.605,2.627l-.057.008-.021.016c-4.27,1.566-10.594.349-12.877-.617a2.913,2.913,0,0,1-1.459-1.141.147.147,0,0,1-.012-.021,1.749,1.749,0,0,1-.081-.161c-.244-.447-.765-1.127-1.278-.828a.632.632,0,0,0-.107.078,2.813,2.813,0,0,0,.138,1,3.757,3.757,0,0,0,2.31,2.232,22.208,22.208,0,0,0,6.169,1.358c.672.061,1.442.1,2.261.1a15.948,15.948,0,0,0,5.339-.812c.348-.1,1.807-.663,2.5-3.546l.018-.073.018.073c.7,2.884,2.155,3.451,2.5,3.546a15.948,15.948,0,0,0,5.339.812c.82,0,1.59-.044,2.261-.1a22.209,22.209,0,0,0,6.169-1.358,3.757,3.757,0,0,0,2.31-2.232,2.813,2.813,0,0,0,.138-1" transform="translate(-161.188 -119.584)" fill="#3b3b3b"/>
    <path id="Trazado_206781" data-name="Trazado 206781" d="M174.423,185.7c0-.065,0-.109,0-.126v-.046l.007-.045a43.008,43.008,0,0,0,.005-13.03l-.009-.045,0-.046c-.073-.682-.17-1.166.265-1.262.292-.052.677-.145.822.29a5.91,5.91,0,0,1,.167.847c0,.008,0,.016,0,.025a43.693,43.693,0,0,1,0,13.348c0,.086-.217.842-.605.81-.58-.048-.585-.434-.648-.72" transform="translate(-160.877 -157.829)" fill="#3b3b3b"/>
  </g>
</svg>
