<svg id="Grupo_152775" data-name="Grupo 152775" xmlns="http://www.w3.org/2000/svg" xmlns:xlink="http://www.w3.org/1999/xlink" width="65" height="65" viewBox="0 0 65 65">
  <defs>
    <clipPath id="clip-path">
      <rect id="Rectángulo_43958" data-name="Rectángulo 43958" width="65" height="65" fill="none"/>
    </clipPath>
  </defs>
  <g id="Grupo_152772" data-name="Grupo 152772" clip-path="url(#clip-path)">
    <path id="Trazado_206782" data-name="Trazado 206782" d="M55.115,55.115a32.285,32.285,0,1,1,0-45.658,32.285,32.285,0,0,1,0,45.658" transform="translate(0 0)" fill="#869d69"/>
    <path id="Trazado_206783" data-name="Trazado 206783" d="M192.678,235.922c-.426-3.794-2.666-6.005-3.076-6.119v0h-1.069a19.82,19.82,0,0,0-5.843-14.1,20.29,20.29,0,0,0-1.81-1.606l.349-.732a20.757,20.757,0,0,0-24.769-.393l.4.687a20.215,20.215,0,0,0-2.389,2.043,19.821,19.821,0,0,0-5.843,14.1h-1.038v0c-.41.114-2.65,2.326-3.076,6.119-.613,5.452,2.668,7.465,3.076,7.556v.05h3.22a.443.443,0,0,0,.414.287h.741a.443.443,0,0,0,.443-.443V229.954a.443.443,0,0,0-.443-.443h-.741a.443.443,0,0,0-.414.287h-1.1a18.857,18.857,0,0,1,7.709-15.2l.4.687a18.04,18.04,0,0,1,22.225.551l.351-.736a18.845,18.845,0,0,1,7.056,14.7h-1.073a.443.443,0,0,0-.414-.287h-.741a.443.443,0,0,0-.443.443v13.418a.443.443,0,0,0,.443.443h.741a.443.443,0,0,0,.414-.287h3.22v-.05c.407-.092,3.688-2.1,3.076-7.556" transform="translate(-133.151 -192.716)" fill="#6f8158"/>
    <path id="Trazado_206784" data-name="Trazado 206784" d="M177.188,178.4a19.974,19.974,0,0,0-18.748,26.8H159.6a18.873,18.873,0,1,1,35.17,0h1.163a19.961,19.961,0,0,0-18.748-26.8" transform="translate(-144.945 -164.458)" fill="#3b3b3b"/>
    <path id="Trazado_206785" data-name="Trazado 206785" d="M257.384,172.166l1.362,2.319a18.039,18.039,0,0,1,22.225.551l1.182-2.477a20.757,20.757,0,0,0-24.769-.394" transform="translate(-237.264 -155.107)" fill="#3b3b3b"/>
    <path id="Trazado_206786" data-name="Trazado 206786" d="M671.381,433.557c.3-.022,2.67,2.208,3.11,6.124.635,5.655-2.919,7.61-3.11,7.559,0,0-1.818-4.354,0-13.682" transform="translate(-618.153 -399.665)" fill="#fcc64a"/>
    <rect id="Rectángulo_43956" data-name="Rectángulo 43956" width="4.708" height="13.73" transform="translate(48.554 33.892)" fill="#ffb61d"/>
    <path id="Trazado_206787" data-name="Trazado 206787" d="M620.894,444.19h-.741a.443.443,0,0,1-.443-.443V430.329a.443.443,0,0,1,.443-.443h.741a.443.443,0,0,1,.443.443v13.418a.443.443,0,0,1-.443.443" transform="translate(-571.266 -396.281)" fill="#3b3b3b"/>
    <path id="Trazado_206788" data-name="Trazado 206788" d="M106.829,433.557c-.3-.022-2.67,2.208-3.11,6.124-.635,5.655,2.919,7.61,3.11,7.559,0,0,1.818-4.354,0-13.682" transform="translate(-95.541 -399.665)" fill="#fcc64a"/>
    <rect id="Rectángulo_43957" data-name="Rectángulo 43957" width="4.708" height="13.73" transform="translate(11.254 33.892)" fill="#ffb61d"/>
    <path id="Trazado_206789" data-name="Trazado 206789" d="M185.227,444.19h.741a.443.443,0,0,0,.443-.443V430.329a.443.443,0,0,0-.443-.443h-.741a.443.443,0,0,0-.443.443v13.418a.443.443,0,0,0,.443.443" transform="translate(-170.339 -396.281)" fill="#3b3b3b"/>
  </g>
</svg>
