<svg xmlns="http://www.w3.org/2000/svg" xmlns:xlink="http://www.w3.org/1999/xlink" width="295" height="282.651" viewBox="0 0 295 282.651">
  <defs>
    <clipPath id="clip-path">
      <rect id="Rectángulo_44069" data-name="Rectángulo 44069" width="295" height="282.65" fill="none"/>
    </clipPath>
    <clipPath id="clip-path-2">
      <rect id="Rectángulo_44068" data-name="Rectángulo 44068" width="295" height="280.65" fill="none"/>
    </clipPath>
    <clipPath id="clip-path-3">
      <rect id="Rectángulo_44060" data-name="Rectángulo 44060" width="47.624" height="36.194" fill="none"/>
    </clipPath>
  </defs>
  <g id="Grupo_152997" data-name="Grupo 152997" transform="translate(0 0)">
    <g id="Grupo_152996" data-name="Grupo 152996" transform="translate(0 0)" clip-path="url(#clip-path)">
      <g id="Grupo_152995" data-name="Grupo 152995">
        <g id="Grupo_152994" data-name="Grupo 152994" clip-path="url(#clip-path-2)">
          <path id="Trazado_207895" data-name="Trazado 207895" d="M294.961,185.25c-1.027,17.462-30.686,31.351-81.806,25.08S109.2,219.279,46.132,213.01-.563,185.25,10.355,175.845a34.5,34.5,0,0,1,3.967-2.916c11.4-7.291,27.884-10.48,20.906-13.652-7.838-3.591-.334-15.239,30.339-21.053s73.2-3.3,77.713-4.027c61.011-9.862,90.323,13.433,111.8,18.809a.046.046,0,0,1,.042.018c21.46,5.378,40.854,14.782,39.841,32.226" transform="translate(0.001 55.81)" fill="#c17536"/>
          <path id="Trazado_207896" data-name="Trazado 207896" d="M294.961,178.384c-1.027,17.462-30.686,31.351-81.806,25.08s-103.96,8.949-167.023,2.679-46.695-27.76-35.777-37.165a34.5,34.5,0,0,1,3.967-2.916c-1.1,4.265-6.367,19.54,1.8,22.6,9.711,3.645,19.074-3.189,22.2-.457s3.121,9.57,12.139,9.57,14.066-3.664,15.884-4.119c1.8-.437,2.843,3.664,8.393,5.031s10.1-6.306,12.679-5.888,4.314,2.7,8.476,5.888,9.711-3.189,12.833-2.279a107.771,107.771,0,0,0,16.3,3.189c5.2.457,16.646-10.48,27.05-7.291s55.837,2.734,78.033,1.367,23.93-13.214,8.67-18.227-32.947-9.113-19.769-9.568,13.526,1.822,37.456,5.012,34.682-3.645,25.664-8.2-1.387-3.189-15.954-10.935c-3.356-1.787-7.241-3.718-11.055-5.6,21.46,5.378,40.854,14.782,39.841,32.226" transform="translate(0.001 62.675)" fill="#af5d20"/>
          <path id="Trazado_207897" data-name="Trazado 207897" d="M207.542,141.769a30.1,30.1,0,0,0-9.67,7.972,16.251,16.251,0,0,1-5.709,4.382,15.677,15.677,0,0,0-2.43,1.392,5.67,5.67,0,0,0-1.14,1.142,5.781,5.781,0,0,0-.864,1.716c-.259.822-.455,1.475-.662,2.011a7.645,7.645,0,0,1-1.352,2.313,28.652,28.652,0,0,1-3.864,3.674,24.094,24.094,0,0,1-2.768,2.034c-.486.3-.854.494-1.236.717a5.951,5.951,0,0,0-1.836,1.626,28.072,28.072,0,0,0-2.125,3.48,32.477,32.477,0,0,1-3.86,5.938,22.346,22.346,0,0,1-4.673,3.848,41.122,41.122,0,0,0-7.684,6.716,2.088,2.088,0,0,0-.34,2.26c.366.6,1.114.554,1.669-.1l.022-.025a38.042,38.042,0,0,1,6.959-6.055,25.565,25.565,0,0,0,5.339-4.44,36.637,36.637,0,0,0,4.4-6.713,28.98,28.98,0,0,1,1.63-2.746,2.878,2.878,0,0,1,.548-.616,15.014,15.014,0,0,1,1.453-.875,26.151,26.151,0,0,0,3.385-2.447,25.165,25.165,0,0,0,5.247-5.384,12.31,12.31,0,0,0,1.19-2.369c.292-.771.507-1.5.752-2.277a1.121,1.121,0,0,1,.17-.343,3.278,3.278,0,0,1,1-.777c1.633-.968,4.812-1.972,8.132-5.952a31.179,31.179,0,0,1,5.952-5.524,21.9,21.9,0,0,1,1.923-1.215c.228-.127.4-.217.519-.275l.127-.062.026-.012h0a2.162,2.162,0,0,0,1.083-2.044c-.065-.832-.654-1.267-1.317-.971" transform="translate(-126.097 60.533)" fill="#935324"/>
          <path id="Trazado_207898" data-name="Trazado 207898" d="M193.4,139.574a8.49,8.49,0,0,0-2.919,2.248c-1.274,1.428-2.349,3.108-3.541,4.694a19.11,19.11,0,0,1-4.1,4.255,46.525,46.525,0,0,0-5.619,4.386,20.121,20.121,0,0,0-3.909,5.65,30.7,30.7,0,0,1-3.635,5.836,15.89,15.89,0,0,1-5,4.091,16.442,16.442,0,0,0-5.9,5.867c-1.545,2.344-2.881,4.825-4.6,7.14a12.863,12.863,0,0,1-4.573,3.881,17.714,17.714,0,0,0-2.348,1.49,9.2,9.2,0,0,0-2.3,2.694,1.809,1.809,0,0,0,.08,2.168c.493.418,1.255.127,1.7-.65a5.213,5.213,0,0,1,1.343-1.559c.8-.638,1.9-1.148,3.22-1.973a15.629,15.629,0,0,0,4.382-4.107c1.945-2.629,3.346-5.236,4.734-7.327a12.832,12.832,0,0,1,4.633-4.675,19.225,19.225,0,0,0,6-4.924,35.148,35.148,0,0,0,4.172-6.668,15.8,15.8,0,0,1,3.1-4.528,44.271,44.271,0,0,1,5.219-4.047,27.378,27.378,0,0,0,6.112-6.719,32.93,32.93,0,0,1,2.095-2.737,5.361,5.361,0,0,1,1.84-1.45,2.144,2.144,0,0,0,1.109-2.023c-.05-.839-.631-1.292-1.294-1.012" transform="translate(-95.06 59.489)" fill="#935324"/>
          <path id="Trazado_207899" data-name="Trazado 207899" d="M180.938,137.523c-1.632.01-3.608.972-5.634,2.827a26.045,26.045,0,0,0-5.8,8.389,17.04,17.04,0,0,1-2.184,3.656,14.146,14.146,0,0,1-3.567,3.089,38.549,38.549,0,0,0-4.338,3,14.267,14.267,0,0,0-2.738,3.212,54.038,54.038,0,0,0-2.723,5.174,18.249,18.249,0,0,1-2.724,4.279,11.5,11.5,0,0,1-2.745,2.081c-1.674.975-3.668,1.831-5.568,2.914a17.785,17.785,0,0,0-2.757,1.893A11.033,11.033,0,0,0,137.8,180.8a69.109,69.109,0,0,0-3.531,8.089,15.684,15.684,0,0,1-1.646,3.062,5.392,5.392,0,0,1-2.1,1.8,2.167,2.167,0,0,0-1.067,2.056c.072.829.666,1.253,1.328.947a8.758,8.758,0,0,0,3.354-2.879,26.5,26.5,0,0,0,2.993-6.02,38.337,38.337,0,0,1,2.42-5.486,7.882,7.882,0,0,1,2.223-2.306,39.784,39.784,0,0,1,5.291-2.925,18.3,18.3,0,0,0,5.405-3.729,28.383,28.383,0,0,0,4.236-6.983,29.91,29.91,0,0,1,1.641-3.03,10.2,10.2,0,0,1,1.98-2.334c1.692-1.447,3.508-2.3,5.458-3.757a16.2,16.2,0,0,0,2.939-2.836,21.588,21.588,0,0,0,2.764-4.6,21.794,21.794,0,0,1,4.827-7.023,6.755,6.755,0,0,1,4.036-2.118c.646,0,1.3-.715,1.461-1.6S181.583,137.523,180.938,137.523Z" transform="translate(-61.7 58.549)" fill="#935324"/>
          <path id="Trazado_207900" data-name="Trazado 207900" d="M166.311,138.15a4.251,4.251,0,0,0-1.611.9,10.606,10.606,0,0,0-2.157,2.8c-.914,1.607-1.709,3.445-2.574,5.258a30.507,30.507,0,0,1-2.842,5.007,16.654,16.654,0,0,1-5.639,4.432,22.408,22.408,0,0,0-3.127,2.066,10.5,10.5,0,0,0-2.753,3.429c-1.247,2.492-2.611,5.949-4.155,9.163a41.576,41.576,0,0,1-2.395,4.409,12.238,12.238,0,0,1-2.426,2.91,33.432,33.432,0,0,1-5.283,3.1,10.375,10.375,0,0,0-2.542,1.933,9.956,9.956,0,0,0-2.061,3.455,35.409,35.409,0,0,1-3.479,6.5c-.642.983-1.235,1.83-1.664,2.425-.215.3-.389.535-.508.695l-.135.18-.042.055a2.026,2.026,0,0,0-.228,2.249c.4.553,1.16.44,1.69-.25.022-.028,1.164-1.518,2.538-3.624a39.47,39.47,0,0,0,3.956-7.456,5.393,5.393,0,0,1,1.141-1.933A10.4,10.4,0,0,1,133,183.9a24.16,24.16,0,0,0,4.475-2.733,16.065,16.065,0,0,0,3.251-3.843,58.369,58.369,0,0,0,3.849-7.458c1.126-2.52,2.126-4.919,2.939-6.535a6.445,6.445,0,0,1,1.725-2.1,37.421,37.421,0,0,1,4.324-2.719,16.909,16.909,0,0,0,5.065-4.441,51.362,51.362,0,0,0,4.619-8.59,21.527,21.527,0,0,1,1.679-3.058,4.308,4.308,0,0,1,.694-.794,1.575,1.575,0,0,1,.608-.344,2.053,2.053,0,0,0,1.245-1.9c.023-.865-.5-1.414-1.164-1.23" transform="translate(-35.158 58.831)" fill="#935324"/>
          <path id="Trazado_207901" data-name="Trazado 207901" d="M153.233,142.813a30.1,30.1,0,0,0-9.67,7.972,16.251,16.251,0,0,1-5.709,4.382,15.68,15.68,0,0,0-2.43,1.392,5.669,5.669,0,0,0-1.14,1.142,5.781,5.781,0,0,0-.864,1.716c-.259.822-.457,1.475-.662,2.011a7.646,7.646,0,0,1-1.352,2.313,28.652,28.652,0,0,1-3.864,3.674,24.085,24.085,0,0,1-2.768,2.034c-.486.3-.854.494-1.236.717a5.95,5.95,0,0,0-1.836,1.626,28.077,28.077,0,0,0-2.125,3.48,32.477,32.477,0,0,1-3.86,5.938,22.311,22.311,0,0,1-4.673,3.848,41.123,41.123,0,0,0-7.684,6.716,2.088,2.088,0,0,0-.34,2.26c.367.6,1.114.554,1.669-.1l.022-.025a38.043,38.043,0,0,1,6.959-6.055,25.565,25.565,0,0,0,5.339-4.44,36.638,36.638,0,0,0,4.4-6.713,28.986,28.986,0,0,1,1.63-2.746,2.879,2.879,0,0,1,.548-.616,15,15,0,0,1,1.453-.875,26.012,26.012,0,0,0,3.385-2.447,25.166,25.166,0,0,0,5.247-5.384,12.234,12.234,0,0,0,1.19-2.369c.292-.771.507-1.5.752-2.277a1.091,1.091,0,0,1,.172-.343,3.248,3.248,0,0,1,1-.777c1.633-.968,4.813-1.972,8.133-5.952a31.179,31.179,0,0,1,5.952-5.524,21.9,21.9,0,0,1,1.923-1.215c.228-.127.4-.217.519-.275l.127-.062.026-.012h0a2.162,2.162,0,0,0,1.083-2.044c-.065-.832-.654-1.267-1.317-.971" transform="translate(1.566 61.032)" fill="#935324"/>
          <path id="Trazado_207902" data-name="Trazado 207902" d="M102.84,146.322a30.1,30.1,0,0,0-9.67,7.972,16.251,16.251,0,0,1-5.709,4.382,15.678,15.678,0,0,0-2.43,1.392,5.67,5.67,0,0,0-1.14,1.142,5.782,5.782,0,0,0-.864,1.716c-.259.822-.455,1.475-.662,2.013a7.64,7.64,0,0,1-1.352,2.311,28.739,28.739,0,0,1-3.864,3.674,24.085,24.085,0,0,1-2.768,2.034c-.486.3-.854.494-1.236.717a5.988,5.988,0,0,0-1.837,1.626,28.391,28.391,0,0,0-2.123,3.481,32.477,32.477,0,0,1-3.86,5.938,22.322,22.322,0,0,1-4.675,3.849,41.14,41.14,0,0,0-7.683,6.716,2.089,2.089,0,0,0-.34,2.26c.366.6,1.114.554,1.669-.1l.022-.025a38.064,38.064,0,0,1,6.957-6.055,25.5,25.5,0,0,0,5.341-4.44,36.639,36.639,0,0,0,4.4-6.713,29.375,29.375,0,0,1,1.629-2.746,2.912,2.912,0,0,1,.55-.616,15.006,15.006,0,0,1,1.453-.875,26.006,26.006,0,0,0,3.385-2.447,25.131,25.131,0,0,0,5.247-5.384,12.311,12.311,0,0,0,1.19-2.369c.292-.771.507-1.5.752-2.277a1.12,1.12,0,0,1,.17-.343,3.278,3.278,0,0,1,1-.777c1.633-.968,4.812-1.972,8.132-5.95a31.145,31.145,0,0,1,5.952-5.526,22.251,22.251,0,0,1,1.923-1.215c.228-.127.4-.217.519-.275l.126-.062.027-.012h0a2.162,2.162,0,0,0,1.083-2.044C104.092,146.461,103.5,146.026,102.84,146.322Z" transform="translate(120.024 62.71)" fill="#935324"/>
          <path id="Trazado_207903" data-name="Trazado 207903" d="M88.194,146.952a30.115,30.115,0,0,0-9.67,7.972,16.239,16.239,0,0,1-5.709,4.382,15.68,15.68,0,0,0-2.43,1.392,5.7,5.7,0,0,0-1.14,1.142,5.782,5.782,0,0,0-.864,1.716c-.259.822-.455,1.475-.66,2.011a7.681,7.681,0,0,1-1.353,2.313,28.652,28.652,0,0,1-3.864,3.674,24.089,24.089,0,0,1-2.768,2.034c-.486.3-.854.494-1.236.717a5.952,5.952,0,0,0-1.836,1.626,28.192,28.192,0,0,0-2.125,3.48,32.476,32.476,0,0,1-3.86,5.938,22.31,22.31,0,0,1-4.673,3.849,41.122,41.122,0,0,0-7.684,6.716,2.088,2.088,0,0,0-.34,2.26c.367.6,1.114.554,1.669-.1l.022-.025A38.044,38.044,0,0,1,46.631,192a25.519,25.519,0,0,0,5.339-4.44,36.637,36.637,0,0,0,4.4-6.713A28.983,28.983,0,0,1,58,178.1a2.879,2.879,0,0,1,.548-.616A15,15,0,0,1,60,176.606a26.008,26.008,0,0,0,3.385-2.447,25.166,25.166,0,0,0,5.247-5.384,12.233,12.233,0,0,0,1.19-2.369c.292-.771.507-1.5.752-2.277a1.091,1.091,0,0,1,.172-.343,3.249,3.249,0,0,1,1-.777c1.633-.968,4.813-1.972,8.133-5.95a31.146,31.146,0,0,1,5.952-5.526,22.252,22.252,0,0,1,1.923-1.215c.228-.127.4-.217.519-.275l.127-.062.027-.012h0a2.162,2.162,0,0,0,1.083-2.044c-.065-.832-.654-1.267-1.317-.971" transform="translate(154.453 63.011)" fill="#935324"/>
          <path id="Trazado_207904" data-name="Trazado 207904" d="M73.7,148.1a30.1,30.1,0,0,0-9.67,7.972,16.251,16.251,0,0,1-5.709,4.382,15.679,15.679,0,0,0-2.43,1.392,5.669,5.669,0,0,0-1.14,1.142,5.782,5.782,0,0,0-.864,1.716c-.259.822-.457,1.475-.662,2.011a7.646,7.646,0,0,1-1.352,2.313,28.74,28.74,0,0,1-3.864,3.674,24.09,24.09,0,0,1-2.768,2.034c-.486.3-.854.494-1.236.717a5.951,5.951,0,0,0-1.836,1.626,28.079,28.079,0,0,0-2.125,3.48,32.476,32.476,0,0,1-3.86,5.938,22.287,22.287,0,0,1-4.675,3.848,41.139,41.139,0,0,0-7.683,6.716,2.088,2.088,0,0,0-.34,2.26c.366.6,1.114.554,1.669-.1l.022-.025a38.042,38.042,0,0,1,6.959-6.055,25.565,25.565,0,0,0,5.339-4.44,36.636,36.636,0,0,0,4.4-6.713,28.981,28.981,0,0,1,1.63-2.746,2.878,2.878,0,0,1,.548-.616,15,15,0,0,1,1.453-.875,26.158,26.158,0,0,0,3.385-2.447,25.132,25.132,0,0,0,5.247-5.384,12.312,12.312,0,0,0,1.19-2.369c.292-.771.507-1.5.752-2.277a1.091,1.091,0,0,1,.172-.343,3.249,3.249,0,0,1,1-.777c1.633-.968,4.813-1.972,8.132-5.952a31.18,31.18,0,0,1,5.952-5.524,22.258,22.258,0,0,1,1.923-1.215c.228-.127.4-.217.519-.275l.127-.062.026-.012h0a2.162,2.162,0,0,0,1.083-2.044C74.949,148.235,74.36,147.8,73.7,148.1Z" transform="translate(188.531 63.557)" fill="#935324"/>
          <path id="Trazado_207905" data-name="Trazado 207905" d="M139.094,140.618a8.49,8.49,0,0,0-2.919,2.248c-1.274,1.429-2.349,3.108-3.542,4.694a19.109,19.109,0,0,1-4.1,4.255,46.634,46.634,0,0,0-5.619,4.386,20.122,20.122,0,0,0-3.909,5.65,30.745,30.745,0,0,1-3.635,5.836,15.891,15.891,0,0,1-5,4.091,16.443,16.443,0,0,0-5.9,5.867c-1.545,2.344-2.881,4.825-4.6,7.14a12.863,12.863,0,0,1-4.573,3.881,17.861,17.861,0,0,0-2.347,1.49,9.2,9.2,0,0,0-2.3,2.694,1.809,1.809,0,0,0,.08,2.168c.493.418,1.255.127,1.7-.65a5.213,5.213,0,0,1,1.343-1.559c.8-.638,1.9-1.148,3.22-1.973a15.606,15.606,0,0,0,4.382-4.107c1.945-2.629,3.346-5.236,4.734-7.328a12.844,12.844,0,0,1,4.633-4.675,19.224,19.224,0,0,0,6-4.924,35.219,35.219,0,0,0,4.174-6.668,15.768,15.768,0,0,1,3.1-4.528,44.271,44.271,0,0,1,5.219-4.046,27.378,27.378,0,0,0,6.112-6.719,32.934,32.934,0,0,1,2.095-2.737,5.361,5.361,0,0,1,1.84-1.45,2.142,2.142,0,0,0,1.109-2.023c-.05-.839-.631-1.292-1.294-1.012" transform="translate(32.602 59.988)" fill="#935324"/>
          <path id="Trazado_207906" data-name="Trazado 207906" d="M126.63,138.568c-1.632.01-3.608.972-5.634,2.827a26.045,26.045,0,0,0-5.8,8.389,17.04,17.04,0,0,1-2.184,3.656,14.145,14.145,0,0,1-3.567,3.089,38.419,38.419,0,0,0-4.337,3,14.239,14.239,0,0,0-2.739,3.212,54.043,54.043,0,0,0-2.723,5.174,18.29,18.29,0,0,1-2.723,4.279,11.556,11.556,0,0,1-2.745,2.081c-1.675.975-3.668,1.831-5.569,2.914a17.786,17.786,0,0,0-2.757,1.893,11.033,11.033,0,0,0-2.362,2.764,69.11,69.11,0,0,0-3.531,8.089,15.683,15.683,0,0,1-1.646,3.062,5.408,5.408,0,0,1-2.1,1.8,2.163,2.163,0,0,0-1.067,2.054c.072.829.666,1.253,1.328.947a8.767,8.767,0,0,0,3.354-2.878,26.54,26.54,0,0,0,2.993-6.021,38.338,38.338,0,0,1,2.42-5.486,7.882,7.882,0,0,1,2.223-2.306,39.869,39.869,0,0,1,5.291-2.925,18.3,18.3,0,0,0,5.405-3.729,28.382,28.382,0,0,0,4.236-6.983,29.914,29.914,0,0,1,1.641-3.03,10.206,10.206,0,0,1,1.98-2.334c1.694-1.447,3.508-2.3,5.458-3.758a16.137,16.137,0,0,0,2.939-2.835,21.589,21.589,0,0,0,2.763-4.6,21.794,21.794,0,0,1,4.827-7.023,6.759,6.759,0,0,1,4.036-2.118c.646,0,1.3-.715,1.461-1.6s-.232-1.6-.878-1.6" transform="translate(65.961 59.048)" fill="#935324"/>
          <path id="Trazado_207907" data-name="Trazado 207907" d="M112,139.194a4.255,4.255,0,0,0-1.613.9,10.63,10.63,0,0,0-2.156,2.8c-.914,1.606-1.709,3.445-2.574,5.258a30.509,30.509,0,0,1-2.842,5.007,16.654,16.654,0,0,1-5.639,4.432,22.328,22.328,0,0,0-3.127,2.066A10.5,10.5,0,0,0,91.3,163.09c-1.247,2.492-2.611,5.949-4.155,9.163a41.57,41.57,0,0,1-2.395,4.409,12.239,12.239,0,0,1-2.426,2.91,33.434,33.434,0,0,1-5.283,3.1,10.375,10.375,0,0,0-2.542,1.933,9.956,9.956,0,0,0-2.061,3.455,35.41,35.41,0,0,1-3.479,6.5c-.642.983-1.235,1.83-1.664,2.425-.215.3-.389.535-.508.695l-.135.18-.042.055a2.025,2.025,0,0,0-.228,2.249c.4.553,1.16.44,1.69-.25.022-.028,1.164-1.518,2.538-3.624a39.47,39.47,0,0,0,3.956-7.456,5.392,5.392,0,0,1,1.141-1.933,10.4,10.4,0,0,1,2.986-1.966,24.159,24.159,0,0,0,4.475-2.733,16.065,16.065,0,0,0,3.251-3.843,58.267,58.267,0,0,0,3.849-7.458c1.126-2.52,2.126-4.919,2.939-6.535a6.429,6.429,0,0,1,1.725-2.1,37.414,37.414,0,0,1,4.324-2.719,16.909,16.909,0,0,0,5.065-4.441,51.362,51.362,0,0,0,4.619-8.59,21.391,21.391,0,0,1,1.679-3.058,4.307,4.307,0,0,1,.694-.794,1.575,1.575,0,0,1,.608-.344,2.053,2.053,0,0,0,1.245-1.9c.022-.865-.5-1.414-1.164-1.23" transform="translate(92.506 59.33)" fill="#935324"/>
          <path id="Trazado_207908" data-name="Trazado 207908" d="M150.913,158.537c1.21.817,26.336,20.009,14.717,28.194s-20.914-3.183-41.44-3.183S65.71,189.006,41.7,191.28,5.911,177.1,6.765,164.407s8.986-18.149,30.674-20.421,95.272,2.273,113.474,14.552" transform="translate(117.231 50.297)" fill="#af5d20"/>
          <path id="Trazado_207909" data-name="Trazado 207909" d="M29.138,132.545l1,22.227s11.486-4.347,13.369-3.185c1.907,1.163,15.857,20.926,19.484,21.065s7.115-2.465,6.394-9.021c-.72-6.533-5.37-14.949-5.952-22.507a1.391,1.391,0,0,0-.046-.326c-.674-7.394-5.092-12.6-8.532-12.463-1.652.07-7.464,1-13.137,2-6.371,1.07-12.579,2.208-12.579,2.208" transform="translate(186.163 45.006)" fill="#d38e20"/>
          <path id="Trazado_207910" data-name="Trazado 207910" d="M29.138,132.025l1,22.227s11.486-4.347,13.369-3.185c1.907,1.163,15.857,20.926,19.484,21.065s7.115-2.465,6.394-9.021c-.72-6.533-5.37-14.949-5.952-22.507a1.391,1.391,0,0,0-.046-.326c-5.975-1.488-13.788-.79-17.346-4.58a27.726,27.726,0,0,1-4.324-5.882c-6.371,1.07-12.579,2.208-12.579,2.208" transform="translate(186.163 45.526)" fill="#ba7817"/>
          <path id="Trazado_207911" data-name="Trazado 207911" d="M52.585,165.026a22.2,22.2,0,0,0,7.371,8.463c4.906,3.627,11.323,6.115,17.321,5.789,10.184-.605,79.634-17.159,79.634-17.159,3.208-11.043-4.348-24.412-4.348-24.412l-29.3,5.509c1.325-.326,22.786-5.719,28.714-12.486,6.092-6.975,8.138-22.088,8.138-22.088l-56.684,12.208s-2.046,1.394-5.347,3.7C84.532,134.1,50,159.167,52.585,165.026" transform="translate(64.04 38.1)" fill="#1c4454"/>
          <path id="Trazado_207912" data-name="Trazado 207912" d="M52.448,173.49c4.906,3.627,11.323,6.115,17.321,5.789,10.184-.6,79.634-17.159,79.634-17.159,3.208-11.043-4.348-24.412-4.348-24.412l-29.3,5.511c1.325-.327,22.786-5.72,28.716-12.486,6.092-6.976,8.137-22.089,8.137-22.089L95.927,120.851s-2.046,1.4-5.347,3.7c3.533,2.743,2.7,6.16-1.233,12.276-4.464,6.928-27.481,26.529-36.9,36.666" transform="translate(71.548 38.1)" fill="#153742"/>
          <path id="Trazado_207913" data-name="Trazado 207913" d="M11.926,142.444l1,22.227s11.486-4.347,13.369-3.185c1.907,1.163,15.857,20.926,19.484,21.065a6.264,6.264,0,0,0,3.255-.721c2.139-1.162,3.628-3.789,3.139-8.277-.72-6.556-5.37-14.974-5.951-22.53s-5.092-12.95-8.58-12.788c-3.487.14-25.716,4.209-25.716,4.209" transform="translate(226.626 48.477)" fill="#eda024"/>
          <path id="Trazado_207914" data-name="Trazado 207914" d="M14.278,141.35l1,22.227s11.486-4.347,13.369-3.185c1.907,1.163,15.857,20.926,19.484,21.065a6.264,6.264,0,0,0,3.255-.721c.466-5.347-2.022-13.392-5.673-20.879-5.045-10.276-7.556-4.742-19.181-9.393s-12.253-9.114-12.253-9.114" transform="translate(224.274 49.57)" fill="#d38e20"/>
          <path id="Trazado_207915" data-name="Trazado 207915" d="M37.172,181.586c3.185,7.207,12.625,13.3,22.716,12.788h.255c10.161-.559,88.05-20.624,88.05-20.624a23.617,23.617,0,0,0,.674-8.65,45.7,45.7,0,0,0-5.022-15.764l-41.549,7.51-1.767.326s22.088-14.508,28.2-21.483c6.092-6.975,8.138-22.088,8.138-22.088L81.93,122.3s-47.943,52.034-44.758,59.289" transform="translate(96.009 39.839)" fill="#25596e"/>
          <path id="Trazado_207916" data-name="Trazado 207916" d="M92.8,135.688c6.092-6.974,8.138-22.087,8.138-22.087l-54.942,8.7.792,1.279S69.243,129.97,74.1,135.386c4.673,5.233,1.953-1.255,1.767-1.719.373.116,9.091,3.442.558,11.416-8.719,8.137-24.995,17.228-29.063,19.553s16.647-6.974,18.2-7.346a2.254,2.254,0,0,0,.792-.442l-1.768.327s22.089-14.51,28.2-21.485" transform="translate(131.945 39.839)" fill="#1c4454"/>
          <path id="Trazado_207917" data-name="Trazado 207917" d="M37.021,181h.255c10.161-.558,88.05-20.624,88.05-20.624A23.642,23.642,0,0,0,126,151.73a32.733,32.733,0,0,1-8.6,2.836c-19.971,4.255-51.546,6.789-63.939,11.043C41.671,169.656,44.043,176.654,37.021,181" transform="translate(118.875 53.21)" fill="#1c4454"/>
          <path id="Trazado_207918" data-name="Trazado 207918" d="M93.813,92.174s40.758,6.581,43.13,3.674,6.882-15.718,6.882-15.718c-2.743-6.7-14.043-9.718-14.043-9.718l-1.86,5.952-.3.977-24.6,1.719-9.091.651Z" transform="translate(24.463 24.693)" fill="#ffb78f"/>
          <path id="Trazado_207919" data-name="Trazado 207919" d="M93.813,92.174s40.758,6.581,43.13,3.674,6.882-15.718,6.882-15.718c-2.743-6.7-14.043-9.718-14.043-9.718l-1.86,5.952c1.534,1.093,3.533,2.464,5.905,4.114,5.813,4.093-19.484,6.976-25.436,5.395-4.394-1.186-4.116-2.766-5.37-6.813l-9.091.651Z" transform="translate(24.463 24.693)" fill="#eda47e"/>
          <path id="Trazado_207920" data-name="Trazado 207920" d="M106.866,44.624c7.234,2.718,9.052,8.4,5.106,24.246s-6.894,23.348-6.894,23.348S93.3,91.011,84.588,82.664c0,0,5.268-44.43,22.278-38.04" transform="translate(66.735 15.429)" fill="#71af8f"/>
          <path id="Trazado_207921" data-name="Trazado 207921" d="M124.424,78.087a27.7,27.7,0,0,0,2.069,9.393,10.373,10.373,0,0,0,2.953,4.557c2.93,2.046,13.649.908,13.649.908l21.715,4.929A27.512,27.512,0,0,0,167.3,77.6l-3.743-.139-9.044-.371s-10.6-6-14-7.6c-3.394-1.582-5.58.674-4.022,2.348a10.377,10.377,0,0,0,4.418,2.419s-5.975.72-9.836-.3c-3.883-1-6.533.906-6.649,4.139" transform="translate(-41.257 24.179)" fill="#d69121"/>
          <path id="Trazado_207922" data-name="Trazado 207922" d="M124.417,85.27a10.373,10.373,0,0,0,2.953,4.557c2.93,2.046,13.649.906,13.649.906l21.715,4.93a27.512,27.512,0,0,0,2.488-20.275l-3.743-.139c.512,1.534,1.116,3.976.721,5.395-.582,2.115-8.231.371-10.184-1.953-1.93-2.326-.86-.582-1.744,1.953-.86,2.511-2.023-.792-3.767-1.372s-3.674,5.138-7.649,6.115c-3.651.883-10.812.558-14.439-.116" transform="translate(-39.181 26.389)" fill="#bc7f1d"/>
          <path id="Trazado_207923" data-name="Trazado 207923" d="M47.543,95.988c5.231,36.038-.581,52.1-.581,52.1,37.014,23.833,71.495-1.162,71.495-1.162v-.116c2.117-42.572-9.672-74.89-19.181-91.515C91.533,41.7,79.4,34.559,68.585,34.815a22.058,22.058,0,0,0-7.092,1.3C50.914,40,46.077,45.673,44.5,54.578c-1.186,6.7-.535,15.206.883,26.157.605,4.626,1.349,9.7,2.162,15.252" transform="translate(117.025 12.207)" fill="#79bc9c"/>
          <path id="Trazado_207924" data-name="Trazado 207924" d="M78.611,54.576c2.65,6.975,12.486,3.3,19.135-2.581,7.952-7.068,11.045-14.438,4.953-17.182a22.058,22.058,0,0,0-7.092,1.3c-10.579,3.883-15.414,9.556-17,18.461" transform="translate(82.911 12.209)" fill="#71af8f"/>
          <path id="Trazado_207925" data-name="Trazado 207925" d="M45.646,143.433c37.014,23.832,71.5-1.163,71.5-1.163v-.116a56.092,56.092,0,0,1-18.787,5.557c-20.74,2.512-39.921-6.975-19.763-8.137s33.527-4.86,6.394-5.441S53.6,122.716,61.549,121.926c7.929-.767,16.647-2.905,17.81-5.022,1.163-2.139,3.7-15.322,3.7-15.322s3.093,0,4.068-.954c.954-.977,1.349-10.858,2.512-24.412,1.162-13.579,1.86-24.088-4.464-27.9-5.6-3.394-21.113,33.318-33.9,31.3a13.382,13.382,0,0,1-7.209-3.535c.605,4.627,1.349,9.7,2.162,15.253,5.231,36.038-.581,52.1-.581,52.1" transform="translate(118.342 16.866)" fill="#71af8f"/>
          <path id="Trazado_207926" data-name="Trazado 207926" d="M138.572,60.1s12.5-5.812,8.816-19.956c0,0-14.144,3.971-8.816,19.956" transform="translate(-38.613 14.079)" fill="#306f54"/>
          <path id="Trazado_207927" data-name="Trazado 207927" d="M121.593,56s8.138-8.138,20.151.1c0,0-13.661,9.009-20.151-.1" transform="translate(-10.978 18.38)" fill="#306f54"/>
          <path id="Trazado_207928" data-name="Trazado 207928" d="M158,54.856s-23.1-.873-25.575-.145l-.29,2.469s13.368-1.162,21.434-1.235,7.483-1.307,4.432-1.09" transform="translate(-43.56 19.085)" fill="#c4b2a5"/>
          <path id="Trazado_207929" data-name="Trazado 207929" d="M137.949,76.415s11.819-1.259,11.14-16.759c0,0-13.66.193-11.14,16.759" transform="translate(-40.026 20.921)" fill="#306f54"/>
          <path id="Trazado_207930" data-name="Trazado 207930" d="M115,74.3s10.753-12.5,23.444-3.294c0,0-10.269,13.176-23.444,3.294" transform="translate(1.239 23.715)" fill="#306f54"/>
          <path id="Trazado_207931" data-name="Trazado 207931" d="M132.371,72.279s10.075,3.5,11.894,17.632c0,0-14.972-2.8-11.894-17.632" transform="translate(-27.494 25.348)" fill="#306f54"/>
          <path id="Trazado_207932" data-name="Trazado 207932" d="M160.558,72.19s-26.829-1.013-29.7-.169l-.338,2.869s15.523-1.351,24.889-1.434,8.69-1.518,5.146-1.266" transform="translate(-44.272 25.139)" fill="#c4b2a5"/>
          <path id="Trazado_207933" data-name="Trazado 207933" d="M115.677,100.682s10.789,8.576,21.792-1.044c0,0-9.88-10.873-21.792,1.044" transform="translate(1.287 33.351)" fill="#306f54"/>
          <path id="Trazado_207934" data-name="Trazado 207934" d="M133.406,102.911s10.145-1.081,9.563-14.386c0,0-11.725.166-9.563,14.386" transform="translate(-27.824 31.045)" fill="#306f54"/>
          <path id="Trazado_207935" data-name="Trazado 207935" d="M142.79,103.312s11.819-1.259,11.14-16.759c0,0-13.66.193-11.14,16.759" transform="translate(-51.405 30.353)" fill="#306f54"/>
          <path id="Trazado_207936" data-name="Trazado 207936" d="M128.1,99.248s10.075,3.5,11.894,17.632c0,0-14.972-2.8-11.894-17.632" transform="translate(-17.461 34.805)" fill="#306f54"/>
          <path id="Trazado_207937" data-name="Trazado 207937" d="M138.431,99.893s10.075,3.5,11.894,17.632c0,0-14.972-2.8-11.894-17.632" transform="translate(-41.739 35.032)" fill="#306f54"/>
          <path id="Trazado_207938" data-name="Trazado 207938" d="M164.593,98.872s-33.316-1.012-36.879-.169l-.419,2.869s19.277-1.351,30.906-1.434,10.792-1.518,6.391-1.266" transform="translate(-44.532 34.497)" fill="#c4b2a5"/>
          <path id="Trazado_207939" data-name="Trazado 207939" d="M166.979,58.986s-11.743-4.018-9.79-17.034c0,0,13.044,2.214,9.79,17.034" transform="translate(-84.518 14.712)" fill="#306f54"/>
          <path id="Trazado_207940" data-name="Trazado 207940" d="M160.694,62.734s4.413-11.023,16.753-8.522c0,0-2.751,12.355-16.753,8.522" transform="translate(-99.494 18.882)" fill="#306f54"/>
          <path id="Trazado_207941" data-name="Trazado 207941" d="M186.932,54.055s-6.5-9.5-19.823-3.616c0,0,11.766,11.371,19.823,3.616" transform="translate(-117.644 17.015)" fill="#306f54"/>
          <path id="Trazado_207942" data-name="Trazado 207942" d="M155.562,51.414s22.871,3.4,25.165,4.568l-.169,2.481s-12.926-3.605-20.84-5.162-7.115-2.664-4.156-1.887" transform="translate(-93.006 17.941)" fill="#c4b2a5"/>
          <path id="Trazado_207943" data-name="Trazado 207943" d="M171.393,80.251s-11.532-2.878-8.721-18.137c0,0,13.5,2.077,8.721,18.137" transform="translate(-96.541 21.783)" fill="#306f54"/>
          <path id="Trazado_207944" data-name="Trazado 207944" d="M177.93,78.444s-9.2-2.3-6.956-14.467c0,0,10.77,1.657,6.956,14.467" transform="translate(-114.204 22.436)" fill="#306f54"/>
          <path id="Trazado_207945" data-name="Trazado 207945" d="M199.251,76.415s-8.925-13.862-22.766-6.5c0,0,8.353,14.466,22.766,6.5" transform="translate(-142.627 23.763)" fill="#306f54"/>
          <path id="Trazado_207946" data-name="Trazado 207946" d="M179.288,75.053S171,76.7,168.026,87.587c0,0,12.055-.558,11.262-12.534" transform="translate(-111.277 26.32)" fill="#306f54"/>
          <path id="Trazado_207947" data-name="Trazado 207947" d="M174.444,76.551s-10.461,2.075-14.215,15.821c0,0,15.217-.705,14.215-15.821" transform="translate(-95.91 26.846)" fill="#306f54"/>
          <path id="Trazado_207948" data-name="Trazado 207948" d="M157.1,73.715s26.713,2.7,29.437,3.932l-.062,2.888s-15.188-3.479-24.453-4.856-8.4-2.7-4.922-1.964" transform="translate(-100.433 25.777)" fill="#c4b2a5"/>
          <path id="Trazado_207949" data-name="Trazado 207949" d="M203.31,103.362s-11.874,7-21.437-4.053c0,0,11.29-9.4,21.437,4.053" transform="translate(-153.964 33.707)" fill="#306f54"/>
          <path id="Trazado_207950" data-name="Trazado 207950" d="M182.892,106.864s-11.789-2.95-8.906-18.548c0,0,13.8,2.131,8.906,18.548" transform="translate(-123.331 30.972)" fill="#306f54"/>
          <path id="Trazado_207951" data-name="Trazado 207951" d="M173.088,108.114s-11.531-2.885-8.711-18.141c0,0,13.5,2.084,8.711,18.141" transform="translate(-100.538 31.553)" fill="#306f54"/>
          <path id="Trazado_207952" data-name="Trazado 207952" d="M186.155,102.681s-10.462,2.068-14.223,15.814c0,0,15.217-.7,14.223-15.814" transform="translate(-123.429 36.009)" fill="#306f54"/>
          <path id="Trazado_207953" data-name="Trazado 207953" d="M176.231,104.321s-10.462,2.068-14.223,15.814c0,0,15.217-.7,14.223-15.814" transform="translate(-100.101 36.584)" fill="#306f54"/>
          <path id="Trazado_207954" data-name="Trazado 207954" d="M160.024,100.745s33.135,3.613,36.547,4.942l.018,2.9s-18.906-4.009-30.411-5.7-10.477-3-6.154-2.14" transform="translate(-113.652 35.235)" fill="#c4b2a5"/>
          <path id="Trazado_207955" data-name="Trazado 207955" d="M149.9,50.11S162,41.1,153.285,26.666c0,0-12.3,9.494-3.39,23.444" transform="translate(-59.527 9.352)" fill="#306f54"/>
          <path id="Trazado_207956" data-name="Trazado 207956" d="M150.787,197.659s4.067-.871,6.39.29c2.231,1.116.987,3.544.883,3.764.22-.244,3.81-4.067,4.938-4.345a12.061,12.061,0,0,1,3.775.29s-.581-7.854-.29-14.535c.257-5.786,6.612-108.03,8.308-135.229.255-4.2.407-6.6.407-6.6-4.648,2.9-14.814,106.659-16.279,114.8-.766,4.322-3.02,15.813-4.972,25.606-1.7,8.634-3.161,15.953-3.161,15.953" transform="translate(-83.864 14.482)" fill="#c4b2a5"/>
          <path id="Trazado_207957" data-name="Trazado 207957" d="M151.088,195.945s4.067-.871,6.39.29c2.231,1.116.987,3.544.883,3.764.22-.244,3.81-4.067,4.938-4.345a12.061,12.061,0,0,1,3.775.29s-.581-7.854-.29-14.535c.257-5.786,6.612-108.03,8.308-135.229-1.383,5.077-2.592,10.491-2.673,14.081-.2,8.528-1.94,30.988-3.3,40.665s-2.126,14.918-2.323,25.375,0,17.812,0,17.812-1.929-16.266-1.929-16.847c-.023.674-.419,27.919-.977,38.341-.581,10.654-1.347,13.361-2.707,18.009S157.9,179.353,159.639,172s1.929-9.678.964-7.355c-.743,1.79-3.335,8.54-6.355,15.348-1.7,8.634-3.161,15.953-3.161,15.953" transform="translate(-84.165 16.196)" fill="#aa9c93"/>
          <path id="Trazado_207958" data-name="Trazado 207958" d="M71.882,92.226,74,106.176s46.71,0,48.827-3.7c2.138-3.673,4.858-18.785,4.858-18.785-4.278-6.976-17.439-8.324-17.439-8.324L109.2,82.763l-.118.744-25.575,6Z" transform="translate(70.225 26.431)" fill="#ffb78f"/>
          <path id="Trazado_207959" data-name="Trazado 207959" d="M71.882,92.226,74,106.176s46.71,0,48.827-3.7c2.138-3.673,4.858-18.785,4.858-18.785-4.278-6.976-17.439-8.324-17.439-8.324L109.2,82.763a30.584,30.584,0,0,0,12.368,6.347c8.232,1.861-3.185,12.417-20.04,11.532-15.394-.79-14.231-4.417-18.021-11.136Z" transform="translate(70.225 26.431)" fill="#eda47e"/>
          <path id="Trazado_207960" data-name="Trazado 207960" d="M83.8,43.866c8.57,1.73,11.625,7.75,10.075,26.157s-3.487,27.319-3.487,27.319-13.369.775-24.607-6.975c0,0-2.131-50.571,18.02-46.5" transform="translate(111.965 15.302)" fill="#89c6a7"/>
          <path id="Trazado_207961" data-name="Trazado 207961" d="M105.286,94.088c.442,3.651,4.51,12.95,8.138,14.694,3.65,1.744,15.415-1.464,15.415-1.464l25.134,1.6a31.559,31.559,0,0,0,1.4-15.555v-.023a27.145,27.145,0,0,0-2.256-7.533l-14.393,1.744s-12.926-4.79-17-5.952c-2-.581-3.533-.162-4.3.605a1.722,1.722,0,0,0,.232,2.743,11.646,11.646,0,0,0,5.37,1.883s-6.533,1.884-11.043,1.443c-3.6-.326-6,1.255-6.6,3.789a5.792,5.792,0,0,0-.093,2.023" transform="translate(-2.913 28.522)" fill="#eda024"/>
          <path id="Trazado_207962" data-name="Trazado 207962" d="M105.286,91.3c.442,3.651,4.51,12.95,8.138,14.694,3.65,1.744,15.415-1.464,15.415-1.464l25.134,1.6a31.559,31.559,0,0,0,1.4-15.555c-2.069,2.187-6.046,5.72-10.068,6.533-5.813,1.163-4.744-4.44-6.487-5.231-1.744-.767-1.837,5.72-3.185,6.79-1.372,1.07-.116-5.511-1.651-5.418-1.559.093-.3,2.907-3.883,4.929-3.581,2.046-12.6,3.4-18.507-1.441a28.842,28.842,0,0,1-6.208-7.464,5.792,5.792,0,0,0-.093,2.023" transform="translate(-2.913 31.309)" fill="#d38e20"/>
          <path id="Trazado_207963" data-name="Trazado 207963" d="M127.173,84.723a11.651,11.651,0,0,0,5.37,1.883c.86,0,4.65.093,4.163-.185a30.43,30.43,0,0,0-5.231-2.442c-1.279-.465-3-1.255-4.534-2a1.723,1.723,0,0,0,.232,2.743" transform="translate(-12.431 28.75)" fill="#d38e20"/>
          <path id="Trazado_207964" data-name="Trazado 207964" d="M80.847,34.443l3.465,8.789,2.069,5.3C96.843,49.7,99.168,42,99.168,42L93.82,29.421l-2.511-5.882Z" transform="translate(86.633 8.255)" fill="#ffb78f"/>
          <path id="Trazado_207965" data-name="Trazado 207965" d="M84.806,34.443l3.465,8.789c5.835-3.209,8.393-8.928,9.509-13.811l-2.511-5.882Z" transform="translate(82.674 8.255)" fill="#eda47e"/>
          <path id="Trazado_207966" data-name="Trazado 207966" d="M87.23,17.97c.07,3.567,1.139,7.564,2.138,11.48,2.719,10.654,4.066,23.051,15.5,20.728S117.077,33.9,117.077,33.9s1.255-19.274-7.517-25.932a11.493,11.493,0,0,0-8.377-2.161C89.914,6.921,87.091,11.812,87.23,17.97" transform="translate(60.047 2.011)" fill="#ffb78f"/>
          <path id="Trazado_207967" data-name="Trazado 207967" d="M92.841,17.97c3.219,1.5,9.213,2.219,18.334-4.613,2.742-2.045,3.926-3.858,4-5.391a11.493,11.493,0,0,0-8.377-2.161C95.525,6.921,92.7,11.812,92.841,17.97" transform="translate(54.436 2.011)" fill="#eda47e"/>
          <path id="Trazado_207968" data-name="Trazado 207968" d="M102.315,21.128s-1.243,6.966-1.225,9,5.43,1,5.43,1a17.841,17.841,0,0,1-4.118-1.158c-.85-.585-.086-8.839-.086-8.839" transform="translate(51.939 7.409)" fill="#2b2625"/>
          <path id="Trazado_207969" data-name="Trazado 207969" d="M103.349,18.729s-6.055-2.5-8.422.96Z" transform="translate(63.435 6.261)" fill="#2b2625"/>
          <path id="Trazado_207970" data-name="Trazado 207970" d="M99.12,20.564c1.865.095,2.191,4.879.33,5.045s-2.695-5.165-.33-5.045" transform="translate(62.383 7.211)" fill="#2b2625"/>
          <path id="Trazado_207971" data-name="Trazado 207971" d="M99.191,21.208c.636-.222.8,1.01.2,1.166s-.671-1-.2-1.166" transform="translate(61.683 7.428)" fill="#fff"/>
          <path id="Trazado_207972" data-name="Trazado 207972" d="M109.241,20.056a35.877,35.877,0,0,1-4.037-.031s1.71-2.254,4.037.031" transform="translate(43.657 6.674)" fill="#2b2625"/>
          <path id="Trazado_207973" data-name="Trazado 207973" d="M106.48,21.1c1.646.084,1.934,4.307.292,4.453s-2.38-4.56-.292-4.453" transform="translate(45.038 7.398)" fill="#2b2625"/>
          <path id="Trazado_207974" data-name="Trazado 207974" d="M106.542,21.668c.562-.2.709.891.174,1.029s-.593-.883-.174-1.029" transform="translate(44.419 7.591)" fill="#fff"/>
          <path id="Trazado_207975" data-name="Trazado 207975" d="M106.474,31.052s-5.816,2.668-10.957.96c0,0,5.442,8.632,10.957-.96" transform="translate(59.512 10.89)" fill="#fff"/>
          <path id="Trazado_207976" data-name="Trazado 207976" d="M86.538,11.542c1.441,3.093,4.627,5.882,10.649,6.556a34.427,34.427,0,0,0,16.67-2.905s-.394,6,6.581,7.742l2.534,10.858,4.65-3.3s2.115-13.183,1.744-18.787a8.658,8.658,0,0,0-.116-.859c-.023-.024,0-.024,0-.024-.906-4.7-5.905-4.348-5.905-4.348S122.577-2.456,107.859.66C93.119,3.752,89.839.08,87.119,2.195c-1.511,1.186-2.418,5.488-.581,9.347" transform="translate(50.088 0)" fill="#2b2625"/>
          <path id="Trazado_207977" data-name="Trazado 207977" d="M85.514,10.519c1.441,3.093,4.627,5.882,10.649,6.556a34.427,34.427,0,0,0,16.67-2.905s-.394,6,6.581,7.742l2.534,10.858,4.65-3.3s2.115-13.183,1.744-18.787a8.658,8.658,0,0,0-.116-.859,24.475,24.475,0,0,1-1.441,5.464,13.39,13.39,0,0,1-2.023,3.533,31.487,31.487,0,0,0-.79-6.975s-.814,4.65-1.976,6.626a68.791,68.791,0,0,0-.792-8.045,21.85,21.85,0,0,1-2.7,6.394,11.378,11.378,0,0,1-.534-6.347,17.684,17.684,0,0,1-8.58,2.37,23.2,23.2,0,0,1-8.859-1.719,33.261,33.261,0,0,0,9,.185s-10.533,0-17.02-5.3A8.981,8.981,0,0,0,96.93,9.961a23.421,23.421,0,0,1-9.486-7.045,13.019,13.019,0,0,0,5.231,8.743,13.185,13.185,0,0,1-7.068-5.3s.093,3.558,5.138,6.812a23.436,23.436,0,0,1-5.231-2.65" transform="translate(51.113 1.023)" fill="#1e1a1a"/>
          <path id="Trazado_207978" data-name="Trazado 207978" d="M84.718,18.7S90.144,12.7,91.5,20.447s-2.519,9.494-6.589,8.719S84.718,18.7,84.718,18.7" transform="translate(91.047 5.781)" fill="#ffb78f"/>
          <path id="Trazado_207979" data-name="Trazado 207979" d="M84.282,22.8S84.6,18.8,86.6,18.156s2.6,1.682,2.6,1.682-1.26,6.331-4.175,6.327c0,0,1.167-1.575.593-2.592s-1.344-.775-1.344-.775" transform="translate(91.953 6.327)" fill="#dd7957"/>
          <path id="Trazado_207980" data-name="Trazado 207980" d="M85.227,26.28S86.314,24.9,85.966,24s-1.676-.777-1.676-.777S84.03,18.8,86.6,17.885,89.4,19.953,89.4,19.953s-.693-2.118-2.474-1.544-1.71,4.14-1.71,4.14,3.259.8.009,3.731" transform="translate(91.76 6.211)" fill="#5d291b"/>
          <path id="Trazado_207981" data-name="Trazado 207981" d="M208.294,177.3c12.78.953,28.9,11.282,7.407,11.918s-26.723-2.065-26.723-2.065-14.378,5.561-33.4,1.271-21.641-9.218-19.9-11.284,21.494-3.178,38.05-3.5,34.565,3.655,34.565,3.655" transform="translate(-113.85 75.804)" fill="#af5d20"/>
          <path id="Trazado_207982" data-name="Trazado 207982" d="M165.777,175.008a26.939,26.939,0,0,0,4.871,1.9,28.575,28.575,0,0,0,3.209.708,32.747,32.747,0,0,0,4.487.425,38.7,38.7,0,0,0,5.169-.238c.263-.026.527-.061.8-.095a14.168,14.168,0,0,0,8.311-4.384c3.542-3.62,5.934-9.043,6.735-14.825,1.49-10.729-2.495-22.7-14.781-26.684a.035.035,0,0,0-.018-.008,29.266,29.266,0,0,0-6.845-1.278q-1.534-.1-3.193-.076a30.78,30.78,0,0,0-4.053.323,25.838,25.838,0,0,0-4.1.92,21.407,21.407,0,0,0-6.181,3.04,19.49,19.49,0,0,0-6.1,7.117c-.085.163-.17.326-.246.494v.009c-5.152,10.872-.783,26.207,11.928,32.652" transform="translate(-109.6 45.747)" fill="#306f54"/>
          <g id="Grupo_152972" data-name="Grupo 152972" transform="translate(42.133 187.6)" style="mix-blend-mode: multiply;isolation: isolate">
            <g id="Grupo_152971" data-name="Grupo 152971">
              <g id="Grupo_152970" data-name="Grupo 152970" clip-path="url(#clip-path-3)">
                <path id="Trazado_207986" data-name="Trazado 207986" d="M166,172.046a26.936,26.936,0,0,0,4.871,1.9,28.576,28.576,0,0,0,3.209.708,32.747,32.747,0,0,0,4.487.425,38.7,38.7,0,0,0,5.169-.238c.263-.026.527-.061.8-.095a14.168,14.168,0,0,0,8.311-4.384c3.542-3.62,5.934-9.043,6.735-14.825a43.736,43.736,0,0,1-8.873,2.223c-23.909,3.551-33.138-10.779-36.39-18.869-.085.163-.17.326-.246.494v.009c-5.152,10.872-.783,26.207,11.928,32.652" transform="translate(-151.953 -138.892)" fill="#59a780"/>
              </g>
            </g>
          </g>
        </g>
      </g>
    </g>
  </g>
</svg>
