<svg xmlns="http://www.w3.org/2000/svg" width="85" height="85" viewBox="0 0 85 85">
  <g id="Grupo_153680" data-name="Grupo 153680" transform="translate(-810 -2256)">
    <g id="Grupo_153346" data-name="Grupo 153346" transform="translate(0 11)">
      <circle id="Elipse_4989" data-name="Elipse 4989" cx="42.5" cy="42.5" r="42.5" transform="translate(810 2245)" fill="#e5efd4"/>
      <ellipse id="Elipse_4990" data-name="Elipse 4990" cx="20.5" cy="3" rx="20.5" ry="3" transform="translate(832 2318)" fill="#b38b2e"/>
      <g id="Grupo_153277" data-name="Grupo 153277" transform="translate(818.831 2252.67)">
        <g id="Layer_8" data-name="Layer 8" transform="translate(0 0)">
          <path id="Trazado_206451" data-name="Trazado 206451" d="M0,0H2.322V31.519H0Z" transform="translate(30.876 17.532) rotate(-5.682)" fill="#3f7c31"/>
          <path id="Trazado_206452" data-name="Trazado 206452" d="M0,0H20V2.321H0Z" transform="translate(32.97 47.278) rotate(-71.529)" fill="#447b3b"/>
          <path id="Trazado_206453" data-name="Trazado 206453" d="M0,0H2.321V20H0Z" transform="translate(25.17 34.434) rotate(-18.471)" fill="#3f7c31"/>
          <path id="Trazado_206454" data-name="Trazado 206454" d="M18.6,27.708l-.671-1.118A7.388,7.388,0,0,0,4.3,29.176L3,36.932l13.524-6.763" transform="translate(-3 1.381)" fill="#6db861"/>
          <path id="Trazado_206455" data-name="Trazado 206455" d="M18.557,27.166l-.464-.116a11.934,11.934,0,0,0-13.57,6.242L3,36.338l13.524-6.763Z" transform="translate(-3 1.975)" fill="#5ba04e"/>
          <path id="Trazado_206456" data-name="Trazado 206456" d="M20.483,65.381,17,41H51.83L48.347,65.381Z" transform="translate(-0.746 4.279)" fill="#77635b"/>
          <path id="Trazado_206457" data-name="Trazado 206457" d="M23,41l3.483,24.381h20.9L50.864,41Z" transform="translate(0.22 4.279)" fill="#8b736a"/>
          <path id="Trazado_206458" data-name="Trazado 206458" d="M25.8,27.161l-.058-.029A10.727,10.727,0,0,0,20.944,26a6.975,6.975,0,0,0-6.412,4.228,20.994,20.994,0,0,0-1.2,12.828l.853,3.842L27.5,41.906a8.114,8.114,0,0,0,5.265-7.6v-.161A6.966,6.966,0,0,0,25.8,27.161Z" transform="translate(-1.417 1.864)" fill="#6db861"/>
          <path id="Trazado_206459" data-name="Trazado 206459" d="M33.165,24.059H35.91a4.221,4.221,0,0,0,4.221-4.221,16.454,16.454,0,0,0-5.522-12.3A20.334,20.334,0,0,0,23.123,2.505L18.072,2,17.8,4.214a31.427,31.427,0,0,0,1.37,13.838,16.461,16.461,0,0,0,3.975,6.432,6.476,6.476,0,0,0,8.172.809Z" transform="translate(-0.657 -2)" fill="#6db861"/>
          <path id="Trazado_206460" data-name="Trazado 206460" d="M18.072,2,17.8,4.214a31.427,31.427,0,0,0,1.37,13.838,16.461,16.461,0,0,0,3.975,6.432,6.476,6.476,0,0,0,8.172.813l1.852-1.238A46.657,46.657,0,0,0,21.894,5.822Z" transform="translate(-0.657 -2)" fill="#5ba04e"/>
          <path id="Trazado_206461" data-name="Trazado 206461" d="M15.012,45.576l-.084.757,12.233-4.588a8.114,8.114,0,0,0,5.265-7.6v-.161A6.966,6.966,0,0,0,25.461,27l-1.376,1.2a27.051,27.051,0,0,0-9.073,17.372Z" transform="translate(-1.08 2.025)" fill="#5ba04e"/>
          <path id="Trazado_206462" data-name="Trazado 206462" d="M36.322,33.771l-.612-.612a5.838,5.838,0,0,1,1.23-9.2A22.5,22.5,0,0,1,48.1,21a22.018,22.018,0,0,1,15.569,6.449l1.678,1.678-1.866.622a19.794,19.794,0,0,0-8.64,5.746,15.353,15.353,0,0,1-11.553,5.242,6.966,6.966,0,0,1-6.966-6.966Z" transform="translate(1.991 1.059)" fill="#6db861"/>
          <path id="Trazado_206463" data-name="Trazado 206463" d="M36,32.915a6.966,6.966,0,0,0,6.966,6.966A15.353,15.353,0,0,0,54.519,34.64a19.8,19.8,0,0,1,8.64-5.746l1.866-.622-.714-.255A29.2,29.2,0,0,0,36,32.915Z" transform="translate(2.313 1.915)" fill="#5ba04e"/>
        </g>
        <g id="Layer_8-2" data-name="Layer 8" transform="translate(0 0)">
          <path id="Trazado_206451-2" data-name="Trazado 206451" d="M0,0H2.322V31.519H0Z" transform="translate(30.876 17.532) rotate(-5.682)" fill="#3f7c31"/>
          <path id="Trazado_206452-2" data-name="Trazado 206452" d="M0,0H20V2.321H0Z" transform="translate(32.97 47.278) rotate(-71.529)" fill="#447b3b"/>
          <path id="Trazado_206453-2" data-name="Trazado 206453" d="M0,0H2.321V20H0Z" transform="translate(25.17 34.434) rotate(-18.471)" fill="#3f7c31"/>
          <path id="Trazado_206454-2" data-name="Trazado 206454" d="M18.6,27.708l-.671-1.118A7.388,7.388,0,0,0,4.3,29.176L3,36.932l13.524-6.763" transform="translate(-3 1.381)" fill="#6db861"/>
          <path id="Trazado_206455-2" data-name="Trazado 206455" d="M18.557,27.166l-.464-.116a11.934,11.934,0,0,0-13.57,6.242L3,36.338l13.524-6.763Z" transform="translate(-3 1.975)" fill="#5ba04e"/>
          <path id="Trazado_206456-2" data-name="Trazado 206456" d="M20.483,65.381,17,41H51.83L48.347,65.381Z" transform="translate(-0.746 4.279)" fill="#77635b"/>
          <path id="Trazado_206457-2" data-name="Trazado 206457" d="M23,41l3.483,24.381h20.9L50.864,41Z" transform="translate(0.22 4.279)" fill="#8b736a"/>
          <path id="Trazado_206458-2" data-name="Trazado 206458" d="M25.8,27.161l-.058-.029A10.727,10.727,0,0,0,20.944,26a6.975,6.975,0,0,0-6.412,4.228,20.994,20.994,0,0,0-1.2,12.828l.853,3.842L27.5,41.906a8.114,8.114,0,0,0,5.265-7.6v-.161A6.966,6.966,0,0,0,25.8,27.161Z" transform="translate(-1.417 1.864)" fill="#6db861"/>
          <path id="Trazado_206459-2" data-name="Trazado 206459" d="M33.165,24.059H35.91a4.221,4.221,0,0,0,4.221-4.221,16.454,16.454,0,0,0-5.522-12.3A20.334,20.334,0,0,0,23.123,2.505L18.072,2,17.8,4.214a31.427,31.427,0,0,0,1.37,13.838,16.461,16.461,0,0,0,3.975,6.432,6.476,6.476,0,0,0,8.172.809Z" transform="translate(-0.657 -2)" fill="#6db861"/>
          <path id="Trazado_206460-2" data-name="Trazado 206460" d="M18.072,2,17.8,4.214a31.427,31.427,0,0,0,1.37,13.838,16.461,16.461,0,0,0,3.975,6.432,6.476,6.476,0,0,0,8.172.813l1.852-1.238A46.657,46.657,0,0,0,21.894,5.822Z" transform="translate(-0.657 -2)" fill="#5ba04e"/>
          <path id="Trazado_206461-2" data-name="Trazado 206461" d="M15.012,45.576l-.084.757,12.233-4.588a8.114,8.114,0,0,0,5.265-7.6v-.161A6.966,6.966,0,0,0,25.461,27l-1.376,1.2a27.051,27.051,0,0,0-9.073,17.372Z" transform="translate(-1.08 2.025)" fill="#5ba04e"/>
          <path id="Trazado_206462-2" data-name="Trazado 206462" d="M36.322,33.771l-.612-.612a5.838,5.838,0,0,1,1.23-9.2A22.5,22.5,0,0,1,48.1,21a22.018,22.018,0,0,1,15.569,6.449l1.678,1.678-1.866.622a19.794,19.794,0,0,0-8.64,5.746,15.353,15.353,0,0,1-11.553,5.242,6.966,6.966,0,0,1-6.966-6.966Z" transform="translate(1.991 1.059)" fill="#6db861"/>
          <path id="Trazado_206463-2" data-name="Trazado 206463" d="M36,32.915a6.966,6.966,0,0,0,6.966,6.966A15.353,15.353,0,0,0,54.519,34.64a19.8,19.8,0,0,1,8.64-5.746l1.866-.622-.714-.255A29.2,29.2,0,0,0,36,32.915Z" transform="translate(2.313 1.915)" fill="#5ba04e"/>
        </g>
      </g>
    </g>
  </g>
</svg>
