<svg xmlns="http://www.w3.org/2000/svg" xmlns:xlink="http://www.w3.org/1999/xlink" width="189" height="303" viewBox="0 0 189 303">
  <defs>
    <clipPath id="clip-path">
      <rect id="Rectángulo_41914" data-name="Rectángulo 41914" width="36.712" height="39.468" fill="none"/>
    </clipPath>
    <clipPath id="clip-path-2">
      <rect id="Rectángulo_41913" data-name="Rectángulo 41913" width="36.712" height="39.458" fill="none"/>
    </clipPath>
    <clipPath id="clip-path-3">
      <rect id="Rectángulo_41916" data-name="Rectángulo 41916" width="37.535" height="16.198" fill="none"/>
    </clipPath>
    <clipPath id="clip-path-4">
      <rect id="Rectángulo_41915" data-name="Rectángulo 41915" width="37.524" height="16.193" fill="none"/>
    </clipPath>
  </defs>
  <g id="Grupo_150799" data-name="Grupo 150799" transform="translate(-180 -11424.917)">
    <rect id="Rectángulo_42377" data-name="Rectángulo 42377" width="189" height="303" transform="translate(180 11424.917)" fill="none"/>
    <g id="Grupo_150798" data-name="Grupo 150798" transform="translate(200.843 11450.134)">
      <path id="Trazado_202755" data-name="Trazado 202755" d="M15.2,169.517c.293-5.883-1.259-19.405,10.272-18.538-2.853-14.212,9.5-22.62,23.3-22.255.142-9.723,5.095-21.07,15.02-24.628,5.35-1.918,12.541-4.223,17.88-1.916,3.826,1.653,5.242,5.9,7.827,7.381,2.351,1.349,1.712.058,4.876.206,9.152.428,14.026,2.851,17.433,10.847,8.977-3.537,22.995,2.443,26.184,11.939,5.455-2.263,11.563-.129,15.61,4.379,2.024,2.256,5.616,5.732,7.1,8.113,2.839,4.568,4.237,17.461-.837,20.184-3.865,2.074-11.3.982-15.568,1.155-11.671.471-23.245.244-34.945-.239-20.831-.861-41.946-1.441-62.665,0-8.606.593-22.3-.35-31.483,3.378" transform="translate(-15.196 84.139)" fill="#73b88d"/>
      <ellipse id="Elipse_4845" data-name="Elipse 4845" cx="76.332" cy="24.04" rx="76.332" ry="24.04" transform="translate(0 229.322)" fill="#a44a0d"/>
      <g id="Grupo_150796" data-name="Grupo 150796" transform="translate(28.921 0)">
        <path id="Trazado_202670" data-name="Trazado 202670" d="M210.524,179.66c0,3.709-17.586,6.717-39.281,6.717s-39.283-3.007-39.283-6.717,17.588-6.717,39.283-6.717,39.281,3.007,39.281,6.717" transform="translate(-126.485 89.059)" fill="#a44a0d"/>
        <path id="Trazado_202671" data-name="Trazado 202671" d="M193.348,97.643c.482,1.039-.843,1.684-.843,1.684-.363.26-1.071-.114-1.7-.582a13.123,13.123,0,0,1-1.248-1.062,3.534,3.534,0,0,1-1.383-2.018,1.624,1.624,0,0,1,.676-1.581c1.476-.853,3.515,1.778,3.515,1.778a2.987,2.987,0,0,0,.988,1.778" transform="translate(-92.409 41.132)" fill="#bf6859"/>
        <path id="Trazado_202672" data-name="Trazado 202672" d="M192,98.66a.952.952,0,0,1-.281,1.3,2.1,2.1,0,0,1-2.673-.063,4.838,4.838,0,0,1-.541-.5,11.868,11.868,0,0,1-.977-1.112,4.5,4.5,0,0,1-1.353-2.7,1.514,1.514,0,0,1,.77-1.383c1.237-.707,2.41,1.383,2.41,1.383h.01a3.534,3.534,0,0,0,1.383,2.018A13.121,13.121,0,0,0,192,98.662" transform="translate(-93.608 41.215)" fill="#bf6859"/>
        <path id="Trazado_202673" data-name="Trazado 202673" d="M188.077,97.711a11.9,11.9,0,0,0,.977,1.113c-1.82,1.82-3.608-1.851-3.608-1.851a2.4,2.4,0,0,1-.161-.925c.031-1.227,1.436-1.039,1.436-1.039a4.483,4.483,0,0,0,1.351,2.7" transform="translate(-94.147 41.788)" fill="#bf6859"/>
        <path id="Trazado_202674" data-name="Trazado 202674" d="M190.99,98.793a.513.513,0,0,1-.307-.1,13.841,13.841,0,0,1-1.3-1.107,4.05,4.05,0,0,1-1.533-2.31.52.52,0,0,1,1.028-.161,3.168,3.168,0,0,0,1.208,1.7,12.685,12.685,0,0,0,1.218,1.036.519.519,0,0,1-.308.94" transform="translate(-92.596 41.599)" fill="#94453b"/>
        <path id="Trazado_202675" data-name="Trazado 202675" d="M188.7,99.529a.515.515,0,0,1-.368-.161,12.166,12.166,0,0,1-1.025-1.166,4.981,4.981,0,0,1-1.457-3.007.52.52,0,0,1,1.039-.018,4.184,4.184,0,0,0,1.226,2.374,12.158,12.158,0,0,0,.951,1.083.521.521,0,0,1-.368.887" transform="translate(-93.802 41.603)" fill="#94453b"/>
        <path id="Trazado_202676" data-name="Trazado 202676" d="M183.716,189.711c-.125.482-.2.726-.2.726H171.567l.678-5.049,2.186-16.3,1.171-8.726a5.906,5.906,0,0,0-.271-2.731L161.3,117.136l-.2-.59c-2.525,22.829-6.733,67.706-7.264,73.306-.029.377-.048.58-.048.58H143.079a20.637,20.637,0,0,1-1.113-3.55c-2.651-11.473-2.321-36.467-2.071-41.471a7.949,7.949,0,0,0-.116-1.79,325.32,325.32,0,0,1-4.246-35.824c-.058-1.073-.125-2.119-.161-3.153,12.411-1.383,11.753-18.873,11.753-18.873v-.01c1.125.145,2.3.252,3.55.339a62.114,62.114,0,0,0,7,.048,61,61,0,0,0,6.374-.643v9.742l2.283.406,20.518,3.762c11.976,33.2-1.3,83.677-3.134,90.3" transform="translate(-124.416 36.031)" fill="#fbb800"/>
        <path id="Trazado_202677" data-name="Trazado 202677" d="M161.1,62.152l.8,4.752-2.36.467c0-.249-.342-1.892-.884-4.294-1.8-8.06-5.721-24.55-5.721-24.55v-.011a25.77,25.77,0,0,1,4.315.676Z" transform="translate(-113.763 7.534)" fill="#ed8a00"/>
        <path id="Trazado_202678" data-name="Trazado 202678" d="M147.22,63.591l1.092,6.489-2.361.458c0-.291-.482-2.527-1.186-5.645-1.928-8.514-5.512-23.605-5.512-23.605a26.613,26.613,0,0,1,3.515-.623,10.938,10.938,0,0,0,1.009,2.464Z" transform="translate(-122.062 8.837)" fill="#ed8a00"/>
        <path id="Trazado_202679" data-name="Trazado 202679" d="M161.633,66.57c-.014.058-.032.108-.048.161.014-.058.032-.108.048-.161" transform="translate(-108.52 24.547)" fill="#fbb800"/>
        <path id="Trazado_202680" data-name="Trazado 202680" d="M177.143,67.5A67.431,67.431,0,0,0,172.4,54.865h0c-.482-1.025-.794-1.635-.794-1.635h-.01l.8,4.75-2.36.464c0-.243-.339-1.886-.88-4.286-7.7,4.45-19.734,1.819-19.734,1.819l1.083,6.482-2.362.464c0-.291-.482-2.535-1.181-5.65l-1.7,9.4a48.217,48.217,0,0,0,18.719,22.781V77.791l2.148-.4h.011a6.732,6.732,0,0,1,.358-2.032,8.96,8.96,0,0,1-3.976.726s-12.1,1.161-10.554-13.173c0,0,11.567,3,19.289-.948a21.557,21.557,0,0,1-.4,7.632,14.165,14.165,0,0,1,6.3-2.109m-1.181,7.536c-.048.193-.1.4-.135.57l1.373-.252a4.306,4.306,0,0,1,.117-.512c-.194.609-1.356.193-1.356.193M161.028,98.3l-12.567-5.282a25.608,25.608,0,0,1-10.534-8.675,57.868,57.868,0,0,0-1.674,8.493c-.222,1.537-.435,3.3-.619,5.272h.008a52.017,52.017,0,0,0,28.246,2.786V99.5Z" transform="translate(-124.257 16.459)" fill="#fbb800"/>
        <path id="Trazado_202681" data-name="Trazado 202681" d="M164.018,83.965v4.159a61.975,61.975,0,0,1-13.372.593c-1.248-.084-2.434-.186-3.557-.333a51.145,51.145,0,0,1-11.666-2.641c.093-1.632.218-3.15.344-4.566h.01a52.075,52.075,0,0,0,28.242,2.787" transform="translate(-124.386 33.407)" fill="#ffd53c"/>
        <path id="Trazado_202682" data-name="Trazado 202682" d="M147.215,86.673s.655,17.49-11.751,18.873a201.732,201.732,0,0,1,.084-21.527,51.158,51.158,0,0,0,11.668,2.641Z" transform="translate(-124.511 35.13)" fill="#ffd53c"/>
        <path id="Trazado_202683" data-name="Trazado 202683" d="M135.426,107.528a13.246,13.246,0,0,0,3.589-.736,11.977,11.977,0,0,0,3.248-1.562,15.408,15.408,0,0,0,4.81-5.216l.829-1.6c.251-.546.426-1.125.652-1.687l.321-.845.233-.879c.149-.588.31-1.174.482-1.767.249-1.192.437-2.41.643-3.615.137-1.219.238-2.447.406-3.679.067,1.234.067,2.474.1,3.722-.1,1.237-.2,2.484-.363,3.724a22.062,22.062,0,0,1-2.41,7.134,14.418,14.418,0,0,1-5.3,5.382,12.353,12.353,0,0,1-7.25,1.615" transform="translate(-124.389 36.299)" fill="#b36504"/>
        <path id="Trazado_202684" data-name="Trazado 202684" d="M149.258,85.951a73.4,73.4,0,0,1,1.423,9.157,71.355,71.355,0,0,1,.385,9.263,82.957,82.957,0,0,1-1.809-18.426" transform="translate(-116 36.299)" fill="#b36504"/>
        <path id="Trazado_202685" data-name="Trazado 202685" d="M135.644,81.178a60.188,60.188,0,0,0,6.932,1.767,72.3,72.3,0,0,0,14.155,1.341c2.381.026,4.755-.178,7.157-.321-1.168.271-2.344.54-3.534.733-1.192.161-2.389.321-3.594.394a43.744,43.744,0,0,1-14.365-1.365q-1.749-.482-3.454-1.078a28.415,28.415,0,0,1-3.3-1.47" transform="translate(-124.253 33.407)" fill="#b36504"/>
        <path id="Trazado_202686" data-name="Trazado 202686" d="M135.426,84.02c1.169.321,2.337.607,3.52.837q1.766.388,3.534.672c2.368.381,4.752.67,7.138.848,2.379.247,4.781.288,7.178.305,1.2,0,2.41-.031,3.6-.09,1.2-.026,2.41-.122,3.618-.191-1.176.3-2.371.5-3.57.7q-1.8.241-3.623.381a44.565,44.565,0,0,1-7.292-.069,47.679,47.679,0,0,1-7.207-1.1,35.2,35.2,0,0,1-6.908-2.289" transform="translate(-124.389 35.131)" fill="#b36504"/>
        <path id="Trazado_202687" data-name="Trazado 202687" d="M167.409,156.925c-.948,1.732-1.928,3.637-2.766,5.462l1.171-8.726a5.907,5.907,0,0,0-.271-2.731l-14.026-40.494a52.5,52.5,0,0,1,.688-9.335c.628-3.947.668-4.75,4.5-4.517,2.186-.161,4.98,6.559,5.929,8.514.358.745,1.626,2.815.707,3.425-.522.339-2.583-1.015-3.221-1.083.59,4.895,3.317,10.442,4.819,15.313a122.032,122.032,0,0,1,4.575,17.181c.948,6.2.88,11.589-2.1,16.987" transform="translate(-114.629 42.728)" fill="#ed8a00"/>
        <path id="Trazado_202688" data-name="Trazado 202688" d="M151.581,110.257h-.059a.521.521,0,0,1-.458-.575c.768-6.877,1.285-10.985,1.587-12.559a.521.521,0,0,1,1.022.194c-.292,1.547-.8,5.623-1.574,12.481a.519.519,0,0,1-.516.463" transform="translate(-114.902 42.833)" fill="#b36504"/>
        <path id="Trazado_202689" data-name="Trazado 202689" d="M151.385,100.191a38.2,38.2,0,0,1,6.024-1.46l-.427.562c-.161-1.234-.273-2.472-.352-3.717a30.541,30.541,0,0,1,0-3.756,30.366,30.366,0,0,1,.858,3.658c.21,1.227.39,2.46.512,3.695v.013a.506.506,0,0,1-.429.549c-1.018.151-2.042.273-3.072.352a27.194,27.194,0,0,1-3.112.1" transform="translate(-114.706 39.861)" fill="#b36504"/>
        <path id="Trazado_202690" data-name="Trazado 202690" d="M170.053,152c-.125.482-.2.726-.2.726H157.9l.676-5.049a43.26,43.26,0,0,1,6,2.458c1.79.726,3.656,1.219,5.462,1.867Z" transform="translate(-110.753 73.74)" fill="#f6a300"/>
        <path id="Trazado_202691" data-name="Trazado 202691" d="M151.425,150.75c-.029.377-.127,1.414-.127,1.414H140.589a20.637,20.637,0,0,1-1.113-3.55c2.389.707,10.41,1.857,11.947,2.137" transform="translate(-121.927 74.303)" fill="#f6a300"/>
        <path id="Trazado_202692" data-name="Trazado 202692" d="M160.795,86.557a29.433,29.433,0,0,1-7.285.339,33.344,33.344,0,0,1-11.269-2.709c-2-.716-4.693-1.446-6.22-3.086a57.684,57.684,0,0,1,1.682-8.493,25.608,25.608,0,0,0,10.534,8.675Z" transform="translate(-124.023 28.209)" fill="#ed8a00"/>
        <path id="Trazado_202693" data-name="Trazado 202693" d="M165.139,58.672a21.519,21.519,0,0,1-.4,7.632,10.816,10.816,0,0,0-4.212,5.333c-.051.146-.1.281-.145.427a8.917,8.917,0,0,1-3.973.718s-12.1,1.163-10.554-13.165c0,0,11.567,3.006,19.289-.946" transform="translate(-118.144 19.758)" fill="#ffd53c"/>
        <path id="Trazado_202694" data-name="Trazado 202694" d="M146.376,60.34c1.446.225,2.892.419,4.337.564s2.892.243,4.337.275a42.283,42.283,0,0,0,4.328-.125,32.092,32.092,0,0,0,4.294-.713,16.872,16.872,0,0,1-4.223,1.267,24.31,24.31,0,0,1-4.415.3,29.883,29.883,0,0,1-4.394-.448,24.648,24.648,0,0,1-4.259-1.115" transform="translate(-117.743 20.77)" fill="#b36504"/>
        <path id="Trazado_202695" data-name="Trazado 202695" d="M173.759,65.6a10.356,10.356,0,0,0-6.182,2.35,16.162,16.162,0,0,0-2.922-.125c-.435.01-.9.039-1.393.1a67.539,67.539,0,0,0-4.741-12.633l7.711-1.838,3.87-.929s2.872,8.89,3.647,12.943Z" transform="translate(-110.378 16.029)" fill="#ef9986"/>
        <path id="Trazado_202696" data-name="Trazado 202696" d="M166.232,53.1c-.087.416-.135.813-.193,1.125-.532,2.622-.977,5.234-1.316,7.885a32.207,32.207,0,0,0-.067,5.369c-.435.01-.9.039-1.393.1a67.543,67.543,0,0,0-4.741-12.633Z" transform="translate(-110.377 16.38)" fill="#bf6859"/>
        <path id="Trazado_202697" data-name="Trazado 202697" d="M200.544,112.4a1.449,1.449,0,0,1-.726.59l-.909.01a1.054,1.054,0,0,1-.291-.106l-7.738-4.643a12.911,12.911,0,0,0,3.26,4.819,4.29,4.29,0,0,0,1.982.948.565.565,0,0,1,.52.607.554.554,0,0,1-.124.312,3.172,3.172,0,0,1-2.235,1.125,4.379,4.379,0,0,1-2.892-.755,3.165,3.165,0,0,1-3.88-.1h-.01c-2.3,1.161-4.337-.019-6.018-2.032a28.241,28.241,0,0,1-4.159-7.872c-.57-1.537-.9-2.67-.938-2.834v-.01l-.01-.01-7.39-3.105-2.872-1.21v-.01l-15.422-6.482a25.623,25.623,0,0,1-10.535-8.675c-6.819-9.317-8.032-21.6-8.174-23.313-.01-.106-.019-.173-.019-.193l12.77-3.957a33.21,33.21,0,0,0,.964,4.508,49.247,49.247,0,0,0,20.508,28.054,49.149,49.149,0,0,0,5.708,3.163,57.677,57.677,0,0,0,11.107,3.928s8.262-1.268,13.012,2.4a1.385,1.385,0,0,1,.435,1.645,1.371,1.371,0,0,1-1.579.784l-4.14-1.044a1.136,1.136,0,0,0-1.239,1.722,27.569,27.569,0,0,0,3.105,3.782,32.933,32.933,0,0,0,7.44,5.978,1.413,1.413,0,0,1,.532,1.925l-.029.048" transform="translate(-126.483 17.837)" fill="#ef9986"/>
        <path id="Trazado_202698" data-name="Trazado 202698" d="M170.635,95.278a.517.517,0,0,1-.291-.088,5.382,5.382,0,0,1-1.149-1.036,30.381,30.381,0,0,1-2.943-4.016.52.52,0,0,1,.9-.514,29.46,29.46,0,0,0,2.835,3.856,4.394,4.394,0,0,0,.935.842.519.519,0,0,1-.291.949" transform="translate(-105.725 38.378)" fill="#94453b"/>
        <path id="Trazado_202699" data-name="Trazado 202699" d="M167.993,95a.512.512,0,0,1-.3-.093,12.7,12.7,0,0,1-3.513-4.5.52.52,0,0,1,.945-.437,11.861,11.861,0,0,0,3.162,4.076.52.52,0,0,1-.3.948" transform="translate(-106.97 38.562)" fill="#94453b"/>
        <path id="Trazado_202700" data-name="Trazado 202700" d="M163.246,83.893a6.993,6.993,0,0,1-.63,1.655c-.077.175-.145.349-.2.522l-.01-.01-7.39-3.105c1.849-.077,3.685-.135,5.562-.31,1.446-.135,2.913-.435,2.672,1.248" transform="translate(-112.505 34.229)" fill="#bf6859"/>
        <path id="Trazado_202701" data-name="Trazado 202701" d="M145.7,60.02c-.161-.019-.31-.029-.464-.048-3.329-.3-6.54.145-9.877.125a11.457,11.457,0,0,1-3.374-.435c-.008-.106-.018-.174-.018-.193l12.77-3.957a33.185,33.185,0,0,0,.964,4.508" transform="translate(-126.483 17.841)" fill="#bf6859"/>
        <path id="Trazado_202702" data-name="Trazado 202702" d="M182.952,179.165c1.706,2.537-.4,4.087-2.631,4.959a14.421,14.421,0,0,1-7.39.728c-9.525-1.436-12.156-8.267-12.156-8.267-1.144-.655-2.548-1.57-3.764-2.392-1.56-1.06-2.808-1.955-2.808-1.955a2.85,2.85,0,0,1,.519-2.9,3.209,3.209,0,0,0,1.56,2.122c1.394.79,3.192,1.664,4.41,2.249a4.16,4.16,0,0,1,1.862,1.674,24.311,24.311,0,0,0,6.219,5.9,19.18,19.18,0,0,0,12.591.042,2.3,2.3,0,0,0,1.592-2.153" transform="translate(-113.112 86.872)" fill="#111212"/>
        <path id="Trazado_202703" data-name="Trazado 202703" d="M182.719,190.389a2.3,2.3,0,0,1-1.587,2.158,19.252,19.252,0,0,1-12.595-.039,24.309,24.309,0,0,1-6.22-5.9,4.158,4.158,0,0,0-1.857-1.674c-.145-.067-.291-.145-.455-.212-1.181-.57-2.731-1.335-3.957-2.032a3.2,3.2,0,0,1-1.557-2.119,3.039,3.039,0,0,1,.01-1.528,124.178,124.178,0,0,0,3.231-19.454c.243-2.8.387-5.746.387-8.765h16.065l-4.477,16.842a11.074,11.074,0,0,0,.643,7.459l4.392,9.528-.019.161a10.79,10.79,0,0,1,7.652,4.354,2.155,2.155,0,0,1,.339,1.219" transform="translate(-112.877 75.645)" fill="#242425"/>
        <path id="Trazado_202704" data-name="Trazado 202704" d="M168.119,172.763h-.077a14.027,14.027,0,0,0-2.217-.161.563.563,0,0,1-.537-.5.519.519,0,0,1,.5-.537h0a15.226,15.226,0,0,1,2.4.172.52.52,0,0,1-.074,1.035" transform="translate(-106.274 88.22)" fill="#040405"/>
        <path id="Trazado_202705" data-name="Trazado 202705" d="M160.795,180.2a2.369,2.369,0,0,1-.794,1.21c-1.181-.57-2.731-1.335-3.957-2.032a3.2,3.2,0,0,1-1.557-2.119,3.038,3.038,0,0,1,.01-1.528,124.181,124.181,0,0,0,3.231-19.454,28.255,28.255,0,0,1,1.847,4.207,12.438,12.438,0,0,1,.609,5.823c-.243,2.757-1.364,5.562-1.239,8.31.087,1.982,2.468,3.666,1.847,5.582" transform="translate(-112.88 78.954)" fill="#171717"/>
        <path id="Trazado_202706" data-name="Trazado 202706" d="M163.711,175.694c1.475,3.608-2.861,3.65-4.286,3.566a4.117,4.117,0,0,1-.779-.114,15.606,15.606,0,0,0-7.39-.271,24.831,24.831,0,0,1-6.265.8,2.722,2.722,0,0,1-2.527-3.525,6.322,6.322,0,0,1,.249-.7c1.606,3,6.656,1.351,6.656,1.351.655-.125,1.423-.239,2.214-.321a31.87,31.87,0,0,1,7.966.249,6.3,6.3,0,0,0,3.1-.249,1.735,1.735,0,0,0,.964-.843Z" transform="translate(-120.19 90.583)" fill="#111212"/>
        <path id="Trazado_202707" data-name="Trazado 202707" d="M166.086,190.581a1.721,1.721,0,0,1-.964.842,6.305,6.305,0,0,1-3.094.251,31.836,31.836,0,0,0-7.962-.251c-.794.077-1.566.193-2.215.321,0,0-5.049,1.655-6.656-1.354a3.623,3.623,0,0,1-.4-1.21s-.358-4.063-.938-10.506a11.82,11.82,0,0,0-.243-1.626l-5.34-26.225h16.976s.6,9.054,2,18.09c.948,6.076,2.249,12.15,3.974,15.44l-.067.281c.058.01.108.029.161.039a6.987,6.987,0,0,1,2.545,1.2,7.5,7.5,0,0,1,2.283,2.97,2,2,0,0,1-.067,1.741" transform="translate(-122.659 75.645)" fill="#242425"/>
        <path id="Trazado_202708" data-name="Trazado 202708" d="M155.463,177.842c-1.374.058-2.525-.678-4.092-.281-1.248.31-2.458.964-3.182-.493a8.06,8.06,0,0,1,.019-4.072,54.766,54.766,0,0,1,2-6.307c.349-1.229.851-2.9,1.181-4.6.948,6.076,2.249,12.15,3.976,15.44l-.067.281c.058.01.106.029.161.039" transform="translate(-116.797 82.473)" fill="#171717"/>
        <path id="Trazado_202709" data-name="Trazado 202709" d="M148.647,173.224a.52.52,0,0,1-.191-1,12.843,12.843,0,0,1,6.837-.585.521.521,0,0,1-.233,1.014,12.01,12.01,0,0,0-6.222.538.52.52,0,0,1-.191.037" transform="translate(-116.679 88.134)" fill="#040405"/>
        <path id="Trazado_202710" data-name="Trazado 202710" d="M163.425,28.89c.655-13.767-9.838-12.281-11.542-12.093a2.845,2.845,0,0,0-.416.084c-17.229,4.387-10.98,18.217-10.4,19.424a.4.4,0,0,1,.042.084,3.016,3.016,0,0,0-1.83.623C128.851,15.028,153.08,13.4,153.08,13.4c15.93-.964,10.627,16.99,10.627,16.99-.083-.447-.186-.895-.291-1.353a.629.629,0,0,1,.011-.145" transform="translate(-123.628 -7.724)" fill="#fbb800"/>
        <path id="Trazado_202711" data-name="Trazado 202711" d="M185.523,35.513a10.694,10.694,0,0,0-1.3,3.24c-.058.522-.106,1.054-.2,1.568l-.047.281a4.251,4.251,0,0,1-1.568,2.747c-1.422,1.073-3.173,1.092-4.595,2.023a.755.755,0,0,0-.161.116l-.2.145c-.9.745-1.446,1.847-2.4,2.525a5.27,5.27,0,0,1-6.792-1.537c.058-.174.108-.349.146-.512a32.173,32.173,0,0,0,.222-13.591s4.9-16.6-8.89-17.016c-.125-.01-.251-.01-.376-.01-.437,0-.892.01-1.366.039,0,0-.161.01-.426.039-.1.01-.2.019-.321.039-4.007.5-22.357,3.889-13.041,23.536a2.977,2.977,0,0,0,1.83,5.321,2.773,2.773,0,0,0,1.16-.243l1.125,8.241-.058.01a6.6,6.6,0,0,1-3.762.832c-.161-.019-.321-.039-.495-.067-.135-.019-.271-.048-.4-.077a4.166,4.166,0,0,1-1.953-1.035c-.765-.745-1.054-1.857-1.8-2.6-1.857-1.857-4.45.416-6.452-1.316a6.535,6.535,0,0,1-.9-.948,2.589,2.589,0,0,1-.183-.252,3.852,3.852,0,0,1-.794-2.109c-.011-1.4.715-2.776.231-4.177-.6-1.767-2.235-2.913-2.834-4.77a8.981,8.981,0,0,1,.6-6.617,8.745,8.745,0,0,1,1.945-2.641c.125-.135.251-.262.387-.387l.01-.01a8.764,8.764,0,0,0,3.173-4.623c.609-3.337,1.586-6.426,4.866-7.981,2.223-1.073,4.819-.368,6.848-1.828a8.088,8.088,0,0,1,7.274-1.606,11.335,11.335,0,0,1,4.615,2.109,10.883,10.883,0,0,1,5.011-2.506c1.905-.161,3.009,1.547,4.721,1.928a7.844,7.844,0,0,0,2.843-.161c.125-.019.26-.029.4-.039s.289-.01.426-.01a8.025,8.025,0,0,1,3.9,1.2,6.748,6.748,0,0,1,3.423,4.2,13.718,13.718,0,0,0,.851,3.579c.813,1.431,2.389,2.177,3.105,3.676a8.472,8.472,0,0,1,.435,3.88c.108,2.67,3.038,4.479,1.767,7.4" transform="translate(-128.553 -9.85)" fill="#272424"/>
        <path id="Trazado_202712" data-name="Trazado 202712" d="M150.82,15.551c1.706-.188,12.2-1.674,11.542,12.093a2.383,2.383,0,0,1-1.446-1.528c-.614-1.518-.482-2.6-2.027-3.431-1.206-.665-1.57-2.423-3.141-2.537-.686-.053-1.134.218-1.809-.053-.76-.312-.853-.769-1.353-1.341-.458-.532-.716-.482-1.3,0a8.048,8.048,0,0,1-1.976,1.528c-.686.3-1.362.145-2.037.416-.79.312-1.009,1.007-1.5,1.632-.874,1.092-2.249,1.02-2.818,2.443a14.1,14.1,0,0,1-1.4,3.766c-.76,1.03-1.3,1.518-1.165,2.848a9.908,9.908,0,0,1,.125,2.069c-.042.386-.482,1.435-.406,1.55l-.1.051c-.583-1.206-6.832-15.036,10.4-19.424a2.849,2.849,0,0,1,.416-.084" transform="translate(-122.564 -6.477)" fill="#272424"/>
        <path id="Trazado_202713" data-name="Trazado 202713" d="M151.615,12.551a8.9,8.9,0,0,1,2.824,1.7c-.1.01-.2.019-.321.039a8.455,8.455,0,0,0-2.57-1.508,5.3,5.3,0,0,0-6.317,1.285,2.292,2.292,0,0,1-1.838.977c-.137.029-.3.048-.482.077-2.631.445-4.2,1.905-5.4,5.049l-.087.243a3.865,3.865,0,0,1-1.372,2.088,8.353,8.353,0,0,0-1.712,8.019,5.573,5.573,0,0,0,.493.977,4.082,4.082,0,0,1,.628,1.48,1.44,1.44,0,0,1-.2.851,3.543,3.543,0,0,0-.161.378,8.929,8.929,0,0,0,1.539,7.711,6.731,6.731,0,0,0,.929.794,4.556,4.556,0,0,1,1.446,1.5,2.006,2.006,0,0,1-.029,1.19,3.064,3.064,0,0,0-.087.482,7.554,7.554,0,0,0,1.982,6.037c-.135-.019-.271-.048-.4-.077a7.8,7.8,0,0,1-1.828-5.987,3.345,3.345,0,0,1,.1-.5,1.835,1.835,0,0,0,.039-1.044,4.366,4.366,0,0,0-1.372-1.4,7.1,7.1,0,0,1-.964-.832,9.012,9.012,0,0,1-1.578-7.942,3.043,3.043,0,0,1,.161-.406,1.205,1.205,0,0,0,.183-.726,3.971,3.971,0,0,0-.59-1.374,5.31,5.31,0,0,1-.512-1.025,8.6,8.6,0,0,1,1.78-8.281,3.642,3.642,0,0,0,1.3-1.992l.1-.243a7.066,7.066,0,0,1,5.581-5.2c.183-.039.349-.058.495-.077a2.132,2.132,0,0,0,1.693-.9,5.574,5.574,0,0,1,6.569-1.364" transform="translate(-125.416 -8.536)" fill="#1a1616"/>
        <path id="Trazado_202714" data-name="Trazado 202714" d="M166.026,44.1l-.2.145a5.888,5.888,0,0,0-2.872-3.317.115.115,0,0,1-.067-.125c.077-.541.183-1.073.289-1.578a9.511,9.511,0,0,0,.243-4.063,8.211,8.211,0,0,0-1.78-3.647c-.1-.106-.2-.2-.3-.291a1.282,1.282,0,0,1-.533-.813,5.7,5.7,0,0,1,.6-2.341,8.933,8.933,0,0,0,.464-1.335,9.778,9.778,0,0,0-.387-5.243c-.493-1.3-1.645-4.354-3.374-4.575A.116.116,0,0,1,158,16.8a5.88,5.88,0,0,1,.039-.823,3.113,3.113,0,0,0-.2-1.767c-.842-1.6-2.843-1.819-4.508-1.838h-.1a8.027,8.027,0,0,0-5.118,1.741c-.125-.01-.252-.01-.376-.01a8.32,8.32,0,0,1,5.494-1.973h.106c1.722.019,3.812.262,4.712,1.973a3.28,3.28,0,0,1,.231,1.9c-.019.223-.039.464-.039.7,1.819.339,2.97,3.4,3.464,4.712a10,10,0,0,1,.4,5.378,8.852,8.852,0,0,1-.464,1.374,5.489,5.489,0,0,0-.59,2.225.988.988,0,0,0,.455.657,3.359,3.359,0,0,1,.321.321,8.534,8.534,0,0,1,1.828,3.753,9.652,9.652,0,0,1-.243,4.159c-.1.482-.193.964-.272,1.47a6.178,6.178,0,0,1,2.892,3.357" transform="translate(-116.92 -8.464)" fill="#1a1616"/>
        <path id="Trazado_202715" data-name="Trazado 202715" d="M167.761,39.666l-.048.281-.321-.321a2.653,2.653,0,0,1-.233-.233c-.482-.482-1.083-1.054-1.693-.794a.164.164,0,0,1-.1,0,.122.122,0,0,1-.058-.077,4.36,4.36,0,0,1-.125-1.674c.01-.2.019-.4.019-.59a6.609,6.609,0,0,0-2.1-4.866,3.185,3.185,0,0,0-.609-.445,1.115,1.115,0,0,1-.668-.964,5.206,5.206,0,0,1,.135-1.712,6.3,6.3,0,0,0,.161-1.054,9.658,9.658,0,0,0-.31-2.941,8.261,8.261,0,0,0-2.6-4.488q-.1-.087-.174-.145c-.339-.291-.358-.339-.3-.765.019-.135.048-.321.077-.59a8.8,8.8,0,0,0-1.2-4.914,6.208,6.208,0,0,0-2.249-2.437c.145-.01.291-.01.426-.01a6.486,6.486,0,0,1,2.027,2.336,9.131,9.131,0,0,1,1.229,5.059c-.029.271-.058.455-.077.6-.048.321-.048.321.212.541a2.067,2.067,0,0,1,.174.161,8.389,8.389,0,0,1,2.68,4.6,9.46,9.46,0,0,1,.321,3.009,7.379,7.379,0,0,1-.161,1.092,5.037,5.037,0,0,0-.145,1.626.907.907,0,0,0,.561.8,3.293,3.293,0,0,1,.643.482,6.812,6.812,0,0,1,2.177,5.039c0,.193-.01.4-.019.6a5.245,5.245,0,0,0,.067,1.47c.716-.2,1.354.426,1.828.9.087.077.161.161.233.222a2.21,2.21,0,0,1,.212.212" transform="translate(-112.291 -9.197)" fill="#1a1616"/>
        <path id="Trazado_202716" data-name="Trazado 202716" d="M133.991,36.421c-.019.482-.493.964-.909,1.383a4.414,4.414,0,0,0-.532.59,7.752,7.752,0,0,0-1.044,2.651,2.586,2.586,0,0,1-.183-.252,7.546,7.546,0,0,1,1.025-2.525,6.073,6.073,0,0,1,.561-.643c.387-.387.823-.832.842-1.219a1.631,1.631,0,0,0-.321-.7,2.315,2.315,0,0,1-.183-.31,11.614,11.614,0,0,1-.977-2.67,5.357,5.357,0,0,1,.106-2.5c.048-.262.106-.522.161-.8a1.573,1.573,0,0,0-.1-1,2.947,2.947,0,0,0-.445-.707,5.6,5.6,0,0,1-.387-.58,16.37,16.37,0,0,1-1.161-3.1,6.141,6.141,0,0,1,.029-3.57c.125-.135.252-.262.387-.387a6.045,6.045,0,0,0-.183,3.889,16.943,16.943,0,0,0,1.142,3.052,6.376,6.376,0,0,0,.368.541,3.055,3.055,0,0,1,.482.765,1.769,1.769,0,0,1,.106,1.125c-.048.281-.1.551-.161.813a5.179,5.179,0,0,0-.106,2.389,11.647,11.647,0,0,0,.964,2.622c.039.077.1.174.161.281a1.649,1.649,0,0,1,.368.842" transform="translate(-127.557 -3.64)" fill="#1a1616"/>
        <path id="Trazado_202717" data-name="Trazado 202717" d="M140.557,34.023a.507.507,0,0,0-.042-.084l.1-.053c-.072-.114.363-1.165.4-1.549a9.7,9.7,0,0,0-.125-2.069c-.135-1.332.406-1.82,1.165-2.85a14.015,14.015,0,0,0,1.4-3.764c.562-1.423,1.945-1.351,2.818-2.443.482-.623.707-1.321,1.5-1.632.676-.27,1.353-.114,2.039-.414a8.094,8.094,0,0,0,1.976-1.529c.582-.482.842-.53,1.3,0,.5.572.593,1.03,1.353,1.341.675.271,1.125,0,1.809.053,1.57.114,1.928,1.872,3.141,2.537,1.539.831,1.414,1.912,2.027,3.431a2.387,2.387,0,0,0,1.446,1.528.73.73,0,0,0-.01.145c.1.458.207.9.291,1.353a32.172,32.172,0,0,1-.218,13.591c-.042.161-.093.344-.146.509a7.473,7.473,0,0,1-3.337,4.252,7.124,7.124,0,0,1-1.685.707,11.358,11.358,0,0,1-8.444-1.508s5.022,7.841,11.064,5.793c2.476,8.86-4.94,11.073-4.94,11.073a9.754,9.754,0,0,1-10.657-5.115,10.937,10.937,0,0,1-1.009-2.464l-.946-6.893-1.125-8.236a2.876,2.876,0,0,1-1.153.239,2.979,2.979,0,0,1-1.83-5.324,3.016,3.016,0,0,1,1.83-.623m18.894-3.713a1.285,1.285,0,1,0-1.285,1.285,1.285,1.285,0,0,0,1.285-1.285m-10.366.6A1.285,1.285,0,1,0,147.8,32.2a1.285,1.285,0,0,0,1.285-1.285" transform="translate(-123.076 -5.358)" fill="#ef9986"/>
        <path id="Trazado_202718" data-name="Trazado 202718" d="M155.082,35.8l.874,4.877c-6.042,2.048-11.064-5.791-11.064-5.791a11.358,11.358,0,0,0,8.444,1.508,7.11,7.11,0,0,0,1.683-.707Z" transform="translate(-118.644 5.333)" fill="#bf6859"/>
        <path id="Trazado_202719" data-name="Trazado 202719" d="M150.881,24.58a1.285,1.285,0,1,1-1.285,1.285,1.285,1.285,0,0,1,1.285-1.285" transform="translate(-115.79 -0.917)" fill="#040405"/>
        <path id="Trazado_202720" data-name="Trazado 202720" d="M144.426,24.955a1.285,1.285,0,1,1-1.285,1.285,1.285,1.285,0,0,1,1.285-1.285" transform="translate(-119.705 -0.69)" fill="#040405"/>
        <path id="Trazado_202721" data-name="Trazado 202721" d="M144.876,31.344a10.31,10.31,0,0,0,4.819.983,7.087,7.087,0,0,0,2.326-.553,10.849,10.849,0,0,0,1.125-.529c.378-.2.726-.443,1.136-.643a5.935,5.935,0,0,1-1.889,1.9,5.558,5.558,0,0,1-2.623.869,5.952,5.952,0,0,1-2.72-.451,5.582,5.582,0,0,1-2.172-1.57" transform="translate(-118.653 2.735)" fill="#94453b"/>
        <path id="Trazado_202722" data-name="Trazado 202722" d="M148.621,23.73a1.539,1.539,0,0,1,.585-.541,4.012,4.012,0,0,1,.689-.321,4.688,4.688,0,0,1,1.5-.262A3.912,3.912,0,0,1,154.2,23.66c-1.039.026-1.9-.035-2.8-.016-.447,0-.893.011-1.356.016l-.708.011a3.455,3.455,0,0,0-.716.05" transform="translate(-116.382 -2.115)" fill="#d73c18"/>
        <path id="Trazado_202723" data-name="Trazado 202723" d="M146.708,31.226a17.691,17.691,0,0,1,2.765-.609l-.321.39a25.883,25.883,0,0,1-.339-2.792,17.4,17.4,0,0,1,.011-2.834,17.233,17.233,0,0,1,.686,2.749,25.479,25.479,0,0,1,.337,2.792v.035a.333.333,0,0,1-.31.353,17.518,17.518,0,0,1-2.829-.088" transform="translate(-117.542 -0.432)" fill="#bf6859"/>
        <path id="Trazado_202724" data-name="Trazado 202724" d="M141.339,25.2a3.705,3.705,0,0,1,1.239-1.211,5.04,5.04,0,0,1,1.618-.657,4.557,4.557,0,0,1,1.757-.04,3.569,3.569,0,0,1,1.606.67c-.591.069-1.115.069-1.634.141a12.318,12.318,0,0,0-1.51.244c-1,.2-1.963.52-3.075.851" transform="translate(-120.798 -1.739)" fill="#d73c18"/>
        <path id="Trazado_202725" data-name="Trazado 202725" d="M138.452,28.9a2.262,2.262,0,0,1,1.793.622,2.453,2.453,0,0,1,.792,1.727,8.015,8.015,0,0,0-1.125-1.372,5.788,5.788,0,0,0-1.465-.977" transform="translate(-122.552 1.697)" fill="#94453b"/>
        <path id="Trazado_202726" data-name="Trazado 202726" d="M146.247,28.128c.079.545-.753,1.125-1.862,1.285s-2.069-.149-2.148-.694.753-1.125,1.86-1.285,2.071.149,2.149.694" transform="translate(-120.257 0.788)" fill="#ec6f5c"/>
        <path id="Trazado_202727" data-name="Trazado 202727" d="M154.561,27.449c.045.548-.822,1.068-1.937,1.161s-2.056-.278-2.1-.827.821-1.068,1.937-1.161,2.056.278,2.1.827" transform="translate(-115.23 0.312)" fill="#ec6f5c"/>
        <path id="Trazado_202728" data-name="Trazado 202728" d="M213.095,90.363V100.3l-30.258-5.51V85.218Z" transform="translate(-95.631 35.856)" fill="#e8873f"/>
        <path id="Trazado_202729" data-name="Trazado 202729" d="M213.1,85.493v7.632l-30.259-5.141V80.664Z" transform="translate(-95.632 33.095)" fill="#b85815"/>
        <path id="Trazado_202730" data-name="Trazado 202730" d="M213.1,81.343V88.8l-30.259-4.835v-8.75Z" transform="translate(-95.632 29.789)" fill="#e8873f"/>
        <path id="Trazado_202731" data-name="Trazado 202731" d="M213.095,76.858v8.309l-30.258-6.135V68.911Z" transform="translate(-95.631 25.968)" fill="#b85815"/>
        <path id="Trazado_202732" data-name="Trazado 202732" d="M213.095,73.806v6.587l-30.258-7.939v-9.38l2.141.76,10.281,3.639,10.121,3.6h.011Z" transform="translate(-95.631 22.427)" fill="#e8873f"/>
        <path id="Trazado_202733" data-name="Trazado 202733" d="M231.054,96.691l-14.569.925a2.227,2.227,0,0,0-2.278-1.092,1.126,1.126,0,0,0-.665,1s-2.037-2.631-3.515-1.778a1.626,1.626,0,0,0-.675,1.581h-.011s-1.176-2.088-2.41-1.383a1.514,1.514,0,0,0-.769,1.383s-1.4-.188-1.436,1.039h-.011l-11.541.728-17.147-3.129-20.515-3.754-2.288-.416,15.3-.2.072-.063c1.684,2.018,3.722,3.192,6.021,2.039h.01a3.171,3.171,0,0,0,3.88.093,4.4,4.4,0,0,0,2.892.76,3.213,3.213,0,0,0,2.236-1.125.569.569,0,0,0-.4-.925,4.229,4.229,0,0,1-1.986-.946l4.771-.063a1.12,1.12,0,0,0,.416.074,1.59,1.59,0,0,0,.482-.084l13.87-.177Z" transform="translate(-113.59 39.472)" fill="#6c310d"/>
        <path id="Trazado_202734" data-name="Trazado 202734" d="M196.536,65.264a6.192,6.192,0,0,1-.872,3.374,5.521,5.521,0,0,1-.609.89c-.183.222-.387.455-.609.678l-10.281-3.637c.05-.482.088-.964.125-1.422,0-.048.01-.087.01-.135.087-1.152.145-2.235.183-3.25,0,0,3-4.034,7.216-3.052a6.2,6.2,0,0,1,4.267,3.9,8.307,8.307,0,0,1,.562,2.66" transform="translate(-94.826 19.689)" fill="#f48735"/>
        <path id="Trazado_202735" data-name="Trazado 202735" d="M188.637,66.564c-.039,1.015-.1,2.1-.183,3.25,0,.048-.01.087-.01.135-.039.464-.077.938-.125,1.422l-2.138-.755-8.619,1.578s-.223-2.389-.233-5.582c0-.964.01-1.992.058-3.052.01-.243.019-.493.039-.745.321-5.592,1.606-11.676,5.533-12.13,0,0,6.355-1.828,5.679,15.875" transform="translate(-98.972 14.88)" fill="#e85536"/>
        <path id="Trazado_202736" data-name="Trazado 202736" d="M190.8,85.217v9.576l-10.863.135-3.009.039a1.449,1.449,0,0,0,.726-.59,1.412,1.412,0,0,0-.455-1.944l-.048-.029a32.933,32.933,0,0,1-7.439-5.978l8.89-.512Z" transform="translate(-103.592 35.857)" fill="#c1722e"/>
        <path id="Trazado_202737" data-name="Trazado 202737" d="M192.043,80.659v7.317l-12.2.7-8.89.512a27.57,27.57,0,0,1-3.105-3.782,1.136,1.136,0,0,1,1.239-1.722l4.14,1.044a1.371,1.371,0,0,0,1.579-.784,1.385,1.385,0,0,0-.435-1.645l1.838-.173Z" transform="translate(-104.834 33.092)" fill="#a7560b"/>
        <path id="Trazado_202738" data-name="Trazado 202738" d="M198.612,75.214v8.755l-15.827,1.47-1.838.173c-4.75-3.666-13.012-2.4-13.012-2.4A57.624,57.624,0,0,1,156.83,79.3L172.2,77.8Z" transform="translate(-111.403 29.79)" fill="#c1722e"/>
        <path id="Trazado_202739" data-name="Trazado 202739" d="M200.765,68.91V79.031l-26.409,2.583-15.371,1.5a49.151,49.151,0,0,1-5.708-3.163v-4.44l12.53-1.741.135-.019c.271,2.138.964,5.272,2.631,4.876a19.107,19.107,0,0,0,.986-5.378h.019l5.843-.813Z" transform="translate(-113.557 25.967)" fill="#a7560b"/>
        <path id="Trazado_202740" data-name="Trazado 202740" d="M194.618,63.075v9.374L169.279,75.97l-5.843.813h-.019c.067-.871.116-1.847.116-2.941,0,0,4.363,3.337,4.885-4.217v-.01a1.182,1.182,0,0,0,.019-.183s3.976,3.163,6.452-2.67a.283.283,0,0,0,.039-.067l6.747-1.239,4.315-.8Z" transform="translate(-107.408 22.429)" fill="#c1722e"/>
        <path id="Trazado_202741" data-name="Trazado 202741" d="M183.336,71.087l-4.315.8c-.106-.087-.2-.183-.31-.271-.262-.233-.522-.464-.765-.688-.281-.252-.551-.5-.823-.745-1.6-1.48-2.932-2.843-4.043-4.092-7.806-8.726-4.819-12.092-4.188-12.652.019,0,.019-.01.039-.019s.019-.01.029-.029c.5-.5,5.833-4.286,13.611,8.183.174.281.349.58.532.88h.058c-.048,1.054-.058,2.088-.058,3.052.01,3.192.233,5.582.233,5.582" transform="translate(-104.747 15.993)" fill="#c22f15"/>
        <path id="Trazado_202742" data-name="Trazado 202742" d="M177.341,65.032l-6.758,1.237a3.749,3.749,0,0,1,1.737-1.82,4.376,4.376,0,0,1,3.941-.374c.344.313.707.643,1.081.964" transform="translate(-103.062 22.85)" fill="#3b7832"/>
        <path id="Trazado_202743" data-name="Trazado 202743" d="M173.638,91.3l.9-.011a1.542,1.542,0,0,1-.482.084,1.152,1.152,0,0,1-.416-.072" transform="translate(-101.21 39.537)" fill="#ef9986"/>
        <path id="Trazado_202744" data-name="Trazado 202744" d="M176.669,93.087l-4.77.067a12.9,12.9,0,0,1-3.26-4.819l7.738,4.643a1.054,1.054,0,0,0,.291.106" transform="translate(-104.241 37.746)" fill="#c1722e"/>
        <path id="Trazado_202745" data-name="Trazado 202745" d="M168.6,94.369l-.079.058-15.294.2V87.152l11.212-.643a28.246,28.246,0,0,0,4.161,7.872" transform="translate(-113.59 36.639)" fill="#c1722e"/>
        <path id="Trazado_202746" data-name="Trazado 202746" d="M165.786,73.019s.029.822.161,1.886l-.135.019-12.53,1.741V69.437l2.148-.4h.01a5.652,5.652,0,0,0,.291,2.08c.464,1.422,1.518,2.418,3.791-.4,0,0,3.714,3.855,5.611-3.473L166.5,67h.01a30.828,30.828,0,0,0-.717,6.016" transform="translate(-113.556 24.808)" fill="#c1722e"/>
        <path id="Trazado_202747" data-name="Trazado 202747" d="M164.433,89.214l-11.211.643V82.04l10.264,4.315s.321,1.19.948,2.853" transform="translate(-113.592 33.93)" fill="#a7560b"/>
        <path id="Trazado_202748" data-name="Trazado 202748" d="M176.355,68.164c-.011.021-.021.053-.031.072-2.485,5.833-6.456,2.662-6.456,2.662-.467,7.809-4.908,4.419-4.908,4.419,0,1.092-.042,2.069-.114,2.933a19.109,19.109,0,0,1-.988,5.386c-1.674.4-2.36-2.745-2.63-4.877-.135-1.072-.161-1.892-.161-1.892a31.133,31.133,0,0,1,.718-6.01c.03-.177.072-.353.114-.521l.011-.01a13.479,13.479,0,0,1,4.138-7.3,10.3,10.3,0,0,1,6.177-2.35,14.056,14.056,0,0,1,4.819.582l.135-.125a63.114,63.114,0,0,0,4.868,4.835,4.376,4.376,0,0,0-3.941.374,3.749,3.749,0,0,0-1.737,1.82" transform="translate(-108.833 20.963)" fill="#56a455"/>
        <path id="Trazado_202749" data-name="Trazado 202749" d="M165.641,62.154a17.707,17.707,0,0,1,4.315.031,13.482,13.482,0,0,0-4.14,7.3l-.011.011c-.188.614-1.351.2-1.351.2-.042.2-.093.4-.135.572-1.892,7.33-5.6,3.473-5.6,3.473-2.276,2.818-3.327,1.82-3.794.4a5.644,5.644,0,0,1-.292-2.08,6.806,6.806,0,0,1,.353-2.027c.042-.145.093-.281.146-.427a10.8,10.8,0,0,1,4.211-5.333,14.3,14.3,0,0,1,6.3-2.111" transform="translate(-112.743 21.799)" fill="#3b7832"/>
        <g id="Grupo_150164" data-name="Grupo 150164" transform="translate(39.633 91.8)" opacity="0.25">
          <g id="Grupo_150106" data-name="Grupo 150106">
            <g id="Grupo_150105" data-name="Grupo 150105" clip-path="url(#clip-path)">
              <g id="Grupo_150104" data-name="Grupo 150104" transform="translate(0 0.01)">
                <g id="Grupo_150103" data-name="Grupo 150103" clip-path="url(#clip-path-2)">
                  <path id="Trazado_202521" data-name="Trazado 202521" d="M163.488,95.484l-10.264-4.315v15.294l15.294-.2.077-.058a28.242,28.242,0,0,1-4.159-7.872c-.618-1.664-.948-2.853-.948-2.853m14.5,5.794a12.9,12.9,0,0,0,3.26,4.819l4.77-.067a1.056,1.056,0,0,1-.291-.106Zm8.938,4.741,3.009-.039c.039-2.843-13.679-36.857-15.149-38.555a1.1,1.1,0,0,0-.183-.183c-.522,7.55-4.885,4.217-4.885,4.217,0,1.092-.048,2.071-.116,2.941a19.108,19.108,0,0,1-.986,5.378c-1.674.4-2.36-2.731-2.631-4.876-.135-1.063-.161-1.886-.161-1.886A30.818,30.818,0,0,1,166.54,67h-.019l-1.364.252c-1.9,7.332-5.611,3.473-5.611,3.473-2.273,2.815-3.327,1.819-3.793.4a5.648,5.648,0,0,1-.291-2.08h-.01l-2.148.4V81.1a49.156,49.156,0,0,0,5.708,3.163,57.628,57.628,0,0,0,11.105,3.918s8.262-1.268,13.012,2.4a1.385,1.385,0,0,1,.435,1.645,1.371,1.371,0,0,1-1.579.784l-4.14-1.044a1.136,1.136,0,0,0-1.239,1.722,27.577,27.577,0,0,0,3.105,3.782,32.932,32.932,0,0,0,7.439,5.978,1.413,1.413,0,0,1,.532,1.925l-.029.048a1.449,1.449,0,0,1-.726.59" transform="translate(-153.224 -67.005)" fill="#4c1f20"/>
                </g>
              </g>
            </g>
          </g>
        </g>
        <g id="Grupo_150165" data-name="Grupo 150165" transform="translate(73.954 77.301)" opacity="0.34">
          <g id="Grupo_150111" data-name="Grupo 150111">
            <g id="Grupo_150110" data-name="Grupo 150110" clip-path="url(#clip-path-3)">
              <g id="Grupo_150109" data-name="Grupo 150109" transform="translate(0.011)">
                <g id="Grupo_150108" data-name="Grupo 150108" clip-path="url(#clip-path-4)">
                  <path id="Trazado_202522" data-name="Trazado 202522" d="M212.123,72.72a5.205,5.205,0,0,1-1.741,1.446h-.01l-10.121-3.6L189.97,66.93l-2.138-.755-8.619,1.578-4.315.8c-.106-.087-.2-.183-.31-.271a27.183,27.183,0,0,1,1.664-6.559,5.785,5.785,0,0,1,2.2-3.483,2.821,2.821,0,0,1,.561-.271,1.585,1.585,0,0,0,.067.406,14.64,14.64,0,0,0,2.292,3.724,8.431,8.431,0,0,0,5.2,2.922,15.022,15.022,0,0,0,3.534.349c.145-.01.281-.029.426-.048a7.7,7.7,0,0,1,5.727.977,22.406,22.406,0,0,1,2.167,1.767c.464.426.774,1.268,1.258,1.626.57.416.628.349,1.171.193.1-.029.214-.058.358-.1,1.015-.233,2.088-.349,3.115-.541a7.015,7.015,0,0,1,7.12,2.379,5.433,5.433,0,0,1,.667,1.092" transform="translate(-174.599 -57.968)" fill="#040405"/>
                </g>
              </g>
            </g>
          </g>
        </g>
        <path id="Trazado_202750" data-name="Trazado 202750" d="M167.094,38.55v-.01a15.567,15.567,0,0,0-1.857-.048c2.477,8.861-4.933,11.077-4.933,11.077a9.764,9.764,0,0,1-10.66-5.117l3.446,20.468s12.032,2.63,19.732-1.819c-1.8-8.068-5.727-24.552-5.727-24.552M149.547,61.5c-1.928-8.416-4.431-18.892-4.431-18.892-7.014,1.684-21.408,7.642-12.934,27.551L133.4,69.8l12.77-3.957s.019.161.067.482a44.136,44.136,0,0,0,2.689,9.306l1.7-9.4c-.321-1.422-.688-3.019-1.083-4.712m21.872-22.3,2.458,14.723c0,.01,0,.019.01.019l1.374,8.222h.01s.321.609.794,1.635h.01l4.5-1.073,7.081-1.693,1.258-.3c-1.606-15.091-11.028-19.967-17.49-21.527" transform="translate(-127.924 7.514)" fill="#e5efd4"/>
        <path id="Trazado_202751" data-name="Trazado 202751" d="M144.5,54.75a10.563,10.563,0,0,0,8.961-2.556c2.459-1.928,3.965-4.8,6.156-6.665.016,4.177-4.085,8.427-7.264,10.741-3.6,2.617-5.232.6-7.851-1.521" transform="translate(-118.879 11.788)" fill="#c0d59b"/>
        <path id="Trazado_202752" data-name="Trazado 202752" d="M163.846,56.9l-4.5,1.073h-.008c-.482-1.025-.794-1.635-.794-1.635h-.01l-1.372-8.222c.116.262.222.522.358.784a20.054,20.054,0,0,0,2.932,3.9c1.112,1.325,2.36,2.67,3.4,4.1" transform="translate(-111.2 13.354)" fill="#c0d59b"/>
        <path id="Trazado_202753" data-name="Trazado 202753" d="M144.344,57.526l-1.7,9.4a44.137,44.137,0,0,1-2.689-9.306,5.438,5.438,0,0,1,.707-.938,14.332,14.332,0,0,0,2.6-3.87c.4,1.693.765,3.288,1.083,4.712" transform="translate(-121.639 16.204)" fill="#c0d59b"/>
        <path id="Trazado_202754" data-name="Trazado 202754" d="M141.651,62.318a.521.521,0,0,1-.5-.392L137.05,45.8a.52.52,0,0,1,1.007-.255l4.1,16.127a.52.52,0,0,1-.376.631.482.482,0,0,1-.127.016" transform="translate(-123.409 11.558)" fill="#c0d59b"/>
      </g>
    </g>
  </g>
</svg>
