<svg xmlns="http://www.w3.org/2000/svg" width="85" height="85" viewBox="0 0 85 85">
  <g id="Grupo_153679" data-name="Grupo 153679" transform="translate(-810 -1998)">
    <g id="Grupo_153349" data-name="Grupo 153349" transform="translate(0 13)">
      <circle id="Elipse_4995" data-name="Elipse 4995" cx="42.5" cy="42.5" r="42.5" transform="translate(810 1985)" fill="#e8e8e8"/>
      <ellipse id="Elipse_4996" data-name="Elipse 4996" cx="23.5" cy="3" rx="23.5" ry="3" transform="translate(829 2058)" fill="#afafaf"/>
      <g id="Grupo_153344" data-name="Grupo 153344" transform="translate(-118.677 -149.941)">
        <g id="cientifico" transform="translate(947.839 2146.941)">
          <circle id="Elipse_4899" data-name="Elipse 4899" cx="9.734" cy="9.734" r="9.734" transform="translate(20.264 32.318) rotate(-45)" fill="#544f56"/>
          <path id="Trazado_206464" data-name="Trazado 206464" d="M318.726,176.589a9.771,9.771,0,0,0-1.918.19,9.735,9.735,0,0,1,0,19.088,9.734,9.734,0,1,0,1.918-19.278Z" transform="translate(-284.69 -154.006)" fill="#444145"/>
          <path id="Trazado_206465" data-name="Trazado 206465" d="M217.489,262.421a1.646,1.646,0,0,1-1.042-1.531v-7.641h-12.6v6.468l-1.279,1.172c0,.605.426,10.738.426,10.738h15.092v-8.972Z" transform="translate(-185.059 -220.863)" fill="#c38778"/>
          <path id="Trazado_206466" data-name="Trazado 206466" d="M220.151,357.185a12.1,12.1,0,0,1-14.6-.37l.891,17.853h12.68Z" transform="translate(-187.662 -311.184)" fill="#9ec8fc"/>
          <path id="Trazado_206467" data-name="Trazado 206467" d="M286.835,281.791l-.53-.209a1.646,1.646,0,0,1-1.042-1.531V275.22l-3.789,1.023v5.2a1.646,1.646,0,0,0,1.042,1.531l4.319,1.7Z" transform="translate(-253.875 -240.024)" fill="#ab6652"/>
          <path id="Trazado_206468" data-name="Trazado 206468" d="M84.44,314.085a1.646,1.646,0,0,1-1.036,1.392l-11.5,4.535a6.585,6.585,0,0,0-3.636,3.53,32.224,32.224,0,0,0-2.608,12.7,1.16,1.16,0,0,0,1.16,1.16H84.44V314.085Z" transform="translate(-65.659 -273.919)" fill="#fbfbfb"/>
          <path id="Trazado_206469" data-name="Trazado 206469" d="M327.779,325.9a6.584,6.584,0,0,0-3.636-3.53l-11.5-4.535a1.646,1.646,0,0,1-.969-1.047v22.972h17.554a1.16,1.16,0,0,0,1.16-1.16A32.219,32.219,0,0,0,327.779,325.9Z" transform="translate(-280.212 -276.273)" fill="#fbfbfb"/>
          <path id="Trazado_206470" data-name="Trazado 206470" d="M352.983,340.369a6.584,6.584,0,0,0-3.636-3.53l-8.774-3.46v2.792l4.937,1.947a6.584,6.584,0,0,1,3.636,3.53,32.223,32.223,0,0,1,2.607,12.581h2.678a1.16,1.16,0,0,0,1.16-1.16A32.22,32.22,0,0,0,352.983,340.369Z" transform="translate(-305.416 -290.745)" fill="#e7e7e7"/>
          <path id="Trazado_206471" data-name="Trazado 206471" d="M161.174,314.2a1.4,1.4,0,0,1,.082,1.459l-.952,1.771a1.4,1.4,0,0,0-.059,1.2l4.107,9.827h2.113V303.829l-3.659,2.063a1.4,1.4,0,0,0-.554.571L159.872,311a1.4,1.4,0,0,0,.089,1.446Z" transform="translate(-147.684 -264.974)" fill="#e3e0e4"/>
          <path id="Trazado_206472" data-name="Trazado 206472" d="M317.667,312.449a1.4,1.4,0,0,0,.089-1.446l-2.38-4.541a1.4,1.4,0,0,0-.554-.571l-3.718-2.063.059,24.631h2.113l4.107-9.827a1.4,1.4,0,0,0-.058-1.2l-.952-1.771a1.4,1.4,0,0,1,.082-1.459Z" transform="translate(-279.716 -264.974)" fill="#e3e0e4"/>
          <path id="Trazado_206473" data-name="Trazado 206473" d="M181.024,8.542c-1.252-6.749-7.917-5.273-7.917-5.273S171.157,0,164.585,0s-16.537,6.415-10.6,21.027l25.215.828s3.076-6.565,1.823-13.314Z" transform="translate(-141.106)" fill="#544f56"/>
          <path id="Trazado_206474" data-name="Trazado 206474" d="M327.875,29.9c-1.023-5.515-5.66-5.537-7.322-5.361,1.518.681,2.966,2.1,3.485,4.981,1.153,6.392-1.363,12.623-1.769,13.57l3.782.124S329.127,36.653,327.875,29.9Z" transform="translate(-287.956 -21.362)" fill="#444145"/>
          <g id="Grupo_152659" data-name="Grupo 152659" transform="translate(8.818 4.916)">
            <circle id="Elipse_4900" data-name="Elipse 4900" cx="3.647" cy="3.647" r="3.647" transform="translate(25.63 14.434)" fill="#c38778"/>
            <circle id="Elipse_4901" data-name="Elipse 4901" cx="3.647" cy="3.647" r="3.647" transform="translate(0 13.152)" fill="#c38778"/>
            <path id="Trazado_206475" data-name="Trazado 206475" d="M186.8,40.27a17.814,17.814,0,0,0-5.954-1.681,16.472,16.472,0,0,0-4.425,0,17.817,17.817,0,0,0-5.954,1.681,3.117,3.117,0,0,0-1.332,1.524c-1.567,3.831-7.616,20.7,3.973,28.046a10.349,10.349,0,0,0,7.8,1.347c1.137-.255.961-1.344,1.976-1.987.189-.12,1.652.4,1.832.272,10.839-7.524,4.96-23.91,3.419-27.679A3.116,3.116,0,0,0,186.8,40.27Z" transform="translate(-162.123 -38.44)" fill="#c38778"/>
          </g>
          <path id="Trazado_206476" data-name="Trazado 206476" d="M260.6,41.8a3.116,3.116,0,0,0-1.332-1.524,17.817,17.817,0,0,0-5.954-1.681,16.469,16.469,0,0,0-4.061-.043c.121.014.243.027.364.043a17.817,17.817,0,0,1,5.954,1.681,3.117,3.117,0,0,1,1.332,1.524c1.567,3.831,7.616,20.7-3.973,28.046a10.286,10.286,0,0,1-3.678,1.432,10.344,10.344,0,0,0,7.375-1.432C268.218,62.506,262.169,45.634,260.6,41.8Z" transform="translate(-225.776 -33.533)" fill="#b46e5a"/>
          <path id="Trazado_206477" data-name="Trazado 206477" d="M191.137,52.027a30.487,30.487,0,0,0-2.1-10.945,3.255,3.255,0,0,0-1.373-1.607,18.6,18.6,0,0,0-6.2-1.824,17.2,17.2,0,0,0-4.62-.051,18.6,18.6,0,0,0-6.237,1.686,3.254,3.254,0,0,0-1.409,1.576c-.657,1.558-2.746,5.411-2.8,9.909,0,0,11.895-1.243,17.553-6.49C183.96,44.281,186,51.97,191.137,52.027Z" transform="translate(-153.523 -32.677)" fill="#544f56"/>
          <path id="Trazado_206478" data-name="Trazado 206478" d="M372.923,459.674h1.919a19.7,19.7,0,0,0-.535-4.657.959.959,0,1,0-1.863.457A17.718,17.718,0,0,1,372.923,459.674Z" transform="translate(-333.187 -396.19)" fill="#e3e0e4"/>
          <path id="Trazado_206481" data-name="Trazado 206481" d="M341.971,93.107a5.522,5.522,0,0,0,2.391.594c.652-3.3-.723-6.309-1.358-8.469A26.148,26.148,0,0,1,341.971,93.107Z" transform="translate(-306.635 -74.333)" fill="#444145"/>
        </g>
        <g id="hoja_2_" data-name="hoja (2)" transform="translate(940.486 2186.446)">
          <path id="Trazado_206388" data-name="Trazado 206388" d="M37.925,23.98,35.2,18.35A10.017,10.017,0,0,1,37.818,6.286a60.433,60.433,0,0,0,6.1-5.76L44.4,0l1.116,1.474a19.179,19.179,0,0,1,3.048,5.713Z" transform="translate(-34.202 0)" fill="#00aa95"/>
          <path id="Trazado_206389" data-name="Trazado 206389" d="M130.337,113.047l-.363-1.813c-1.792,4.225-6.39,6.47-9.025,9.385A71.414,71.414,0,0,0,113.707,130h2.728C128.563,130,132.092,121.819,130.337,113.047Z" transform="translate(-109.983 -106.024)" fill="#00cc76"/>
          <path id="Trazado_206390" data-name="Trazado 206390" d="M129.973,111.234l-.661.265c-1.629.652-3.289,1.217-4.97,1.712h0q-1.5.444-3.029.817a10.017,10.017,0,0,0-7.607,9.722V130S125.046,122.848,129.973,111.234Z" transform="translate(-109.982 -106.024)" fill="#a5e887"/>
        </g>
      </g>
    </g>
  </g>
</svg>
