<svg xmlns="http://www.w3.org/2000/svg" width="163.661" height="105.886" viewBox="0 0 163.661 105.886">
  <g id="Grupo_153702" data-name="Grupo 153702" transform="translate(-370 -11849.73)">
    <g id="bosque" transform="translate(380.765 11787.573)">
      <g id="Grupo_149822" data-name="Grupo 149822" transform="translate(49.753 111.172)">
        <g id="Grupo_149821" data-name="Grupo 149821" transform="translate(0 0)">
          <g id="Grupo_149819" data-name="Grupo 149819" transform="translate(18.078 31.967)">
            <path id="Trazado_198217" data-name="Trazado 198217" d="M245.927,388.28a2.089,2.089,0,0,1-2.089-2.089V366.831a2.089,2.089,0,1,1,4.177,0v19.361A2.089,2.089,0,0,1,245.927,388.28Z" transform="translate(-243.838 -364.742)" fill="#855b51"/>
          </g>
          <g id="Grupo_149820" data-name="Grupo 149820" transform="translate(39.713 21.9)">
            <path id="Trazado_198218" data-name="Trazado 198218" d="M323.7,362.967a2.088,2.088,0,0,1-2.089-2.089V330.641a2.089,2.089,0,0,1,4.177,0v30.237A2.089,2.089,0,0,1,323.7,362.967Z" transform="translate(-321.61 -328.552)" fill="#a18278"/>
          </g>
          <circle id="Elipse_4804" data-name="Elipse 4804" cx="18.699" cy="18.699" r="18.699" fill="#0f7a4f"/>
          <path id="Trazado_198219" data-name="Trazado 198219" d="M234.533,270.5a18.7,18.7,0,0,1-30.352,14.624,18.7,18.7,0,0,0,16.944-32.563A18.706,18.706,0,0,1,234.533,270.5Z" transform="translate(-197.135 -251.8)" fill="#0c6842"/>
        </g>
      </g>
      <g id="Grupo_149823" data-name="Grupo 149823" transform="translate(78.597 66.497)">
        <circle id="Elipse_4805" data-name="Elipse 4805" cx="18.699" cy="18.699" r="18.699" transform="translate(0 0)" fill="#158f5e"/>
        <path id="Trazado_198220" data-name="Trazado 198220" d="M357.2,107.934a18.712,18.712,0,0,1-23.036,18.193,18.7,18.7,0,0,0,0-36.385A18.712,18.712,0,0,1,357.2,107.934Z" transform="translate(-319.805 -89.234)" fill="#0f7a4f"/>
      </g>
      <g id="Grupo_149824" data-name="Grupo 149824" transform="translate(103.091 91.966)">
        <circle id="Elipse_4806" data-name="Elipse 4806" cx="18.699" cy="18.699" r="18.699" fill="#158f5e"/>
        <path id="Trazado_198221" data-name="Trazado 198221" d="M443.756,199.491a18.709,18.709,0,0,1-23.611,18.045,18.7,18.7,0,0,0,2.448-36.583,18.968,18.968,0,0,1,2.465-.161A18.7,18.7,0,0,1,443.756,199.491Z" transform="translate(-406.359 -180.791)" fill="#0f7a4f"/>
      </g>
      <g id="Grupo_149826" data-name="Grupo 149826" transform="translate(95.191 82.768)">
        <g id="Grupo_149825" data-name="Grupo 149825" transform="translate(0 0)">
          <path id="Trazado_198222" data-name="Trazado 198222" d="M355.1,366.156a2.088,2.088,0,0,1-2.089-2.089V336.18a2.089,2.089,0,1,1,4.177,0v27.888A2.088,2.088,0,0,1,355.1,366.156Z" transform="translate(-350 -282.246)" fill="#5e685d"/>
          <path id="Trazado_198223" data-name="Trazado 198223" d="M356.785,208.839a14.6,14.6,0,0,1-14.6-14.6V162.319a14.6,14.6,0,1,1,29.193,0v31.924A14.6,14.6,0,0,1,356.785,208.839Z" transform="translate(-342.188 -147.722)" fill="#d2f0a2"/>
          <path id="Trazado_198224" data-name="Trazado 198224" d="M399.95,162.318v31.923a14.606,14.606,0,0,1-18.184,14.153,14.6,14.6,0,0,0,11.013-14.153V162.318a14.6,14.6,0,0,0-11.013-14.151,14.6,14.6,0,0,1,18.184,14.151Z" transform="translate(-370.756 -147.722)" fill="#bcea73"/>
        </g>
        <g id="Grupo_152714" data-name="Grupo 152714" transform="translate(-65 0)">
          <path id="Trazado_198222-2" data-name="Trazado 198222" d="M355.1,366.156a2.088,2.088,0,0,1-2.089-2.089V336.18a2.089,2.089,0,1,1,4.177,0v27.888A2.088,2.088,0,0,1,355.1,366.156Z" transform="translate(-350 -282.246)" fill="#5e685d"/>
          <path id="Trazado_198223-2" data-name="Trazado 198223" d="M356.785,208.839a14.6,14.6,0,0,1-14.6-14.6V162.319a14.6,14.6,0,1,1,29.193,0v31.924A14.6,14.6,0,0,1,356.785,208.839Z" transform="translate(-342.188 -147.722)" fill="#d2f0a2"/>
          <path id="Trazado_198224-2" data-name="Trazado 198224" d="M399.95,162.318v31.923a14.606,14.606,0,0,1-18.184,14.153,14.6,14.6,0,0,0,11.013-14.153V162.318a14.6,14.6,0,0,0-11.013-14.151,14.6,14.6,0,0,1,18.184,14.151Z" transform="translate(-370.756 -147.722)" fill="#bcea73"/>
        </g>
        <path id="Trazado_198225" data-name="Trazado 198225" d="M380.626,254.483a2.089,2.089,0,0,0-2.954,0l-1.06,1.06V250.98h0v-8.165a2.089,2.089,0,1,0-4.177,0v3.123l-2.106-2.106a2.088,2.088,0,1,0-2.954,2.953l5.06,5.06v43.7a2.089,2.089,0,1,0,4.177,0V261.45l4.014-4.014A2.089,2.089,0,0,0,380.626,254.483Z" transform="translate(-359.927 -214.853)" fill="#942e19"/>
        <path id="Trazado_206618" data-name="Trazado 206618" d="M380.626,254.483a2.089,2.089,0,0,0-2.954,0l-1.06,1.06V250.98h0v-8.165a2.089,2.089,0,1,0-4.177,0v3.123l-2.106-2.106a2.088,2.088,0,1,0-2.954,2.953l5.06,5.06v43.7a2.089,2.089,0,1,0,4.177,0V261.45l4.014-4.014A2.089,2.089,0,0,0,380.626,254.483Z" transform="translate(-425.927 -214.853)" fill="#942e19"/>
      </g>
      <g id="Grupo_149831" data-name="Grupo 149831" transform="translate(67.859 62.157)">
        <path id="Trazado_198232" data-name="Trazado 198232" d="M273.372,128.293c0,25.684-6.59,25.226-14.718,25.226s-14.718.458-14.718-25.226,8.306-54.661,14.718-54.661S273.372,102.61,273.372,128.293Z" transform="translate(-243.935 -73.632)" fill="#a3e440"/>
        <path id="Trazado_198233" data-name="Trazado 198233" d="M273.372,128.293c0,25.684-6.59,25.226-14.718,25.226s-14.718.458-14.718-25.226,8.306-54.661,14.718-54.661S273.372,102.61,273.372,128.293Z" transform="translate(-243.935 -73.632)" fill="#a3e440"/>
        <path id="Trazado_198234" data-name="Trazado 198234" d="M301.619,128.3c0,25.685-6.588,25.226-14.717,25.226-1.324,0-2.61.013-3.832-.08,6.269-.466,10.885-3.653,10.885-25.146,0-20.75-5.423-43.647-10.885-51.68,1.3-1.911,2.6-2.98,3.832-2.98C293.314,73.635,301.619,102.613,301.619,128.3Z" transform="translate(-272.183 -73.634)" fill="#99d53b"/>
        <path id="Trazado_198235" data-name="Trazado 198235" d="M283.33,239.187a2.089,2.089,0,0,0-2.954,0l-3.822,3.822V225.6a2.089,2.089,0,0,0-4.177,0v4.366l-2.97-2.97a2.089,2.089,0,0,0-2.954,2.954l5.924,5.924v48.375a2.089,2.089,0,0,0,4.177,0V248.916l6.775-6.775A2.089,2.089,0,0,0,283.33,239.187Z" transform="translate(-259.747 -181.819)" fill="#724d44"/>
      </g>
      <g id="Grupo_149834" data-name="Grupo 149834" transform="translate(118.291 121)">
        <path id="Trazado_198243" data-name="Trazado 198243" d="M446.441,307.587c0,10.536-4.749,10.349-10.608,10.349s-10.608.188-10.608-10.349,5.986-22.424,10.608-22.424S446.441,297.051,446.441,307.587Z" transform="translate(-425.226 -285.162)" fill="#a3e440"/>
        <path id="Trazado_198244" data-name="Trazado 198244" d="M446.441,307.587c0,10.536-4.749,10.349-10.608,10.349s-10.608.188-10.608-10.349,5.986-22.424,10.608-22.424S446.441,297.051,446.441,307.587Z" transform="translate(-425.226 -285.162)" fill="#a3e440"/>
        <path id="Trazado_198245" data-name="Trazado 198245" d="M464.745,307.585c0,10.535-4.751,10.348-10.61,10.348-1.246,0-2.442.008-3.552-.081,4.112-.325,7.052-1.975,7.052-10.267,0-7.942-3.4-16.649-7.052-20.46a5.287,5.287,0,0,1,3.552-1.967C458.759,285.158,464.745,297.047,464.745,307.585Z" transform="translate(-443.529 -285.158)" fill="#99d53b"/>
        <path id="Trazado_198246" data-name="Trazado 198246" d="M463.458,339.268a2.088,2.088,0,0,0-2.953,0l-.477.477v-5.961a2.089,2.089,0,0,0-4.177,0v11h0v17.55a2.089,2.089,0,0,0,4.177,0V345.653l3.431-3.431A2.089,2.089,0,0,0,463.458,339.268Z" transform="translate(-447.331 -318.75)" fill="#a18278"/>
      </g>
    </g>
    <g id="Grupo_80149" data-name="Grupo 80149" transform="translate(-467 10910.864)">
      <g id="heno" transform="translate(886 991.543)">
        <g id="Grupo_80131" data-name="Grupo 80131" transform="translate(47.758 12.61)">
          <path id="Trazado_190763" data-name="Trazado 190763" d="M368.1,187.528a.983.983,0,0,1-.618-1.747l4.36-3.523a.983.983,0,1,1,1.235,1.529l-4.36,3.523A.979.979,0,0,1,368.1,187.528Z" transform="translate(-367.117 -182.04)" fill="#fec165"/>
        </g>
        <path id="Trazado_190764" data-name="Trazado 190764" d="M203.034,85.107h13.2a12.258,12.258,0,1,1,0,24.516l-5.5,2.132-7.7-2.132Z" transform="translate(-176.621 -85.107)" fill="#fee45a"/>
        <g id="Grupo_80132" data-name="Grupo 80132" transform="translate(11.372 9.921)">
          <path id="Trazado_190765" data-name="Trazado 190765" d="M92,167.718a.981.981,0,0,1-.76-.359l-3.6-4.384a.983.983,0,0,1,1.519-1.248l3.6,4.384A.983.983,0,0,1,92,167.718Z" transform="translate(-87.414 -161.369)" fill="#fec165"/>
        </g>
        <path id="Trazado_190766" data-name="Trazado 190766" d="M132.671,105.816c-4.787,4.787-11.531,4.731-16.318-.056s-5.473-12.139-.686-16.926c.192-.192.282-.491.484-.668.145-.127.406-.39.406-.39a12.26,12.26,0,0,1,17.63,16.692s-1.022.855-1.515,1.348Z" transform="translate(-97.779 -85.109)" fill="#ffd15b"/>
        <path id="Trazado_190767" data-name="Trazado 190767" d="M131.062,122.308a12.258,12.258,0,1,1-17.63-16.692,12.26,12.26,0,0,0,17.63,16.692Z" transform="translate(-94.655 -102.948)" fill="#fec165"/>
        <g id="Grupo_80136" data-name="Grupo 80136" transform="translate(21.446 6.004)">
          <g id="Grupo_80133" data-name="Grupo 80133" transform="translate(8.197 5.704)">
            <path id="Trazado_190768" data-name="Trazado 190768" d="M229.4,180.8a.983.983,0,0,1-.971-.838l-.554-3.735a.983.983,0,1,1,1.944-.289l.554,3.735a.983.983,0,0,1-.828,1.116A1,1,0,0,1,229.4,180.8Z" transform="translate(-227.864 -175.104)" fill="#fec165"/>
          </g>
          <g id="Grupo_80134" data-name="Grupo 80134" transform="translate(0.098 0)">
            <path id="Trazado_190769" data-name="Trazado 190769" d="M166.591,137.535l-.066,0a.983.983,0,0,1-.916-1.045l.285-4.312a.983.983,0,1,1,1.961.13l-.285,4.312A.982.982,0,0,1,166.591,137.535Z" transform="translate(-165.607 -131.257)" fill="#fec165"/>
          </g>
          <g id="Grupo_80135" data-name="Grupo 80135" transform="translate(0 9.471)">
            <path id="Trazado_190770" data-name="Trazado 190770" d="M165.834,206.756a.983.983,0,0,1-.218-1.941l3.211-.733a.983.983,0,1,1,.437,1.916l-3.211.733A.984.984,0,0,1,165.834,206.756Z" transform="translate(-164.852 -204.057)" fill="#fec165"/>
          </g>
        </g>
        <path id="Trazado_190771" data-name="Trazado 190771" d="M164.308,148.017a5.24,5.24,0,1,1,7.411,0A5.246,5.246,0,0,1,164.308,148.017Z" transform="translate(-141.6 -132.053)" fill="#fec165"/>
        <g id="Grupo_80137" data-name="Grupo 80137" transform="translate(0.229 41.83)">
          <path id="Trazado_190772" data-name="Trazado 190772" d="M8.683,410a.99.99,0,0,1-.223-.026L2.521,408.6a.983.983,0,1,1,.445-1.914L8.9,408.061A.983.983,0,0,1,8.683,410Z" transform="translate(-1.761 -406.656)" fill="#fec165"/>
        </g>
        <path id="Trazado_190773" data-name="Trazado 190773" d="M5.008,280.254a.983.983,0,1,0-1.965.033l.053,3.168-1.392-1.5a.983.983,0,0,0-1.442,1.336L3.145,286.4l.013.8a.983.983,0,0,0,.982.966h.017a.983.983,0,0,0,.966-1Z" transform="translate(0 -254.027)" fill="#fec165"/>
        <path id="Trazado_190774" data-name="Trazado 190774" d="M454.774,261.019a.983.983,0,0,0-1.363.269l-.457.682-.65-2.48a.983.983,0,1,0-1.9.5l1.2,4.589a.993.993,0,0,0,1.767.3l1.671-2.493a.982.982,0,0,0-.269-1.363Z" transform="translate(-391.782 -236.167)" fill="#fec165"/>
        <g id="Grupo_80138" data-name="Grupo 80138" transform="translate(58.547 41.03)">
          <path id="Trazado_190775" data-name="Trazado 190775" d="M451.037,405.341a.983.983,0,0,1-.42-1.872l6.093-2.871a.983.983,0,1,1,.838,1.778l-6.093,2.871A.98.98,0,0,1,451.037,405.341Z" transform="translate(-450.054 -400.504)" fill="#fec165"/>
        </g>
        <path id="Trazado_190776" data-name="Trazado 190776" d="M112.03,273.564h24.221l2.542,12.258L136.54,298.08H112.03Z" transform="translate(-97.456 -249.048)" fill="#fee45a"/>
        <path id="Trazado_190777" data-name="Trazado 190777" d="M41.668,294.272c-4.787,4.787-11.531,4.731-16.318-.056s-5.473-12.139-.686-16.926c.192-.192.282-.491.484-.668.145-.127.406-.39.406-.39a12.26,12.26,0,0,1,17.63,16.692s-1.022.855-1.515,1.348Z" transform="translate(-18.615 -249.049)" fill="#ffd15b"/>
        <path id="Trazado_190778" data-name="Trazado 190778" d="M40.058,310.764a12.258,12.258,0,1,1-17.63-16.692,12.26,12.26,0,0,0,17.63,16.692Z" transform="translate(-15.49 -266.888)" fill="#fec165"/>
        <path id="Trazado_190779" data-name="Trazado 190779" d="M300.487,273.564h13.2a12.258,12.258,0,1,1,0,24.516h-13.2Z" transform="translate(-261.397 -249.048)" fill="#fee45a"/>
        <path id="Trazado_190780" data-name="Trazado 190780" d="M230.125,294.272c-4.787,4.787-11.531,4.731-16.318-.056s-5.473-12.139-.686-16.926c.192-.192.282-.491.484-.668.145-.127.406-.39.406-.39a12.26,12.26,0,0,1,17.63,16.692S230.618,293.779,230.125,294.272Z" transform="translate(-182.555 -249.049)" fill="#ffd15b"/>
        <path id="Trazado_190781" data-name="Trazado 190781" d="M228.515,310.764a12.258,12.258,0,1,1-17.63-16.692,12.26,12.26,0,0,0,17.63,16.692Z" transform="translate(-179.43 -266.888)" fill="#fec165"/>
        <g id="Grupo_80142" data-name="Grupo 80142" transform="translate(32.87 31.552)">
          <g id="Grupo_80139" data-name="Grupo 80139" transform="translate(0.767 8.284)">
            <path id="Trazado_190782" data-name="Trazado 190782" d="M259.55,394.087a.983.983,0,0,1-.143-1.955l5.362-.8a.983.983,0,0,1,.288,1.944l-5.362.8A1,1,0,0,1,259.55,394.087Z" transform="translate(-258.568 -391.326)" fill="#fec165"/>
          </g>
          <g id="Grupo_80140" data-name="Grupo 80140" transform="translate(5.237 0.252)">
            <path id="Trazado_190783" data-name="Trazado 190783" d="M299.537,331.893l-.061,0-5.62-.342a.983.983,0,1,1,.12-1.962l5.62.342a.983.983,0,0,1-.059,1.963Z" transform="translate(-292.934 -329.586)" fill="#fec165"/>
          </g>
          <g id="Grupo_80141" data-name="Grupo 80141">
            <path id="Trazado_190784" data-name="Trazado 190784" d="M255.19,334.488a.983.983,0,0,1-.937-.688l-1.533-4.874a.983.983,0,1,1,1.875-.59l1.534,4.874a.983.983,0,0,1-.938,1.278Z" transform="translate(-252.674 -327.648)" fill="#fec165"/>
          </g>
        </g>
        <g id="Grupo_80146" data-name="Grupo 80146" transform="translate(6.769 32.359)">
          <g id="Grupo_80143" data-name="Grupo 80143" transform="translate(0 1.708)">
            <path id="Trazado_190785" data-name="Trazado 190785" d="M56.365,352.783a.98.98,0,0,1-.74-.336l-3.346-3.831a.983.983,0,1,1,1.48-1.293l3.346,3.832a.983.983,0,0,1-.74,1.629Z" transform="translate(-52.036 -346.986)" fill="#fec165"/>
          </g>
          <g id="Grupo_80144" data-name="Grupo 80144" transform="translate(10.546)">
            <path id="Trazado_190786" data-name="Trazado 190786" d="M134.084,336.43a.983.983,0,0,1-.193-1.946l3.029-.61a.983.983,0,0,1,.388,1.927l-3.029.61A.992.992,0,0,1,134.084,336.43Z" transform="translate(-133.102 -333.855)" fill="#fec165"/>
          </g>
          <g id="Grupo_80145" data-name="Grupo 80145" transform="translate(7.248 6.62)">
            <path id="Trazado_190787" data-name="Trazado 190787" d="M108.733,390.032a.983.983,0,0,1-.831-1.506l2.088-3.322a.983.983,0,1,1,1.664,1.046l-2.088,3.322A.982.982,0,0,1,108.733,390.032Z" transform="translate(-107.751 -384.745)" fill="#fec165"/>
          </g>
        </g>
        <g id="Grupo_80147" data-name="Grupo 80147" transform="translate(9.337 31.537)">
          <path id="Trazado_190788" data-name="Trazado 190788" d="M73.3,336.474a5.24,5.24,0,1,1,7.411,0A5.246,5.246,0,0,1,73.3,336.474Z" transform="translate(-71.772 -327.531)" fill="#fec165"/>
          <path id="Trazado_190789" data-name="Trazado 190789" d="M261.762,336.474a5.24,5.24,0,1,1,7.411,0A5.246,5.246,0,0,1,261.762,336.474Z" transform="translate(-235.713 -327.531)" fill="#fec165"/>
        </g>
      </g>
    </g>
    <g id="Grupo_149839" data-name="Grupo 149839" transform="translate(370 11951.439)">
      <g id="Grupo_149835" data-name="Grupo 149835">
        <path id="Trazado_198248" data-name="Trazado 198248" d="M161.261,443.427H2.4a2.109,2.109,0,1,1,0-4.177H161.261a2.109,2.109,0,1,1,0,4.177Z" transform="translate(0 -439.25)" fill="#855b51"/>
      </g>
    </g>
    <g id="dieta" transform="translate(383.518 11860.085)">
      <path id="Trazado_190694" data-name="Trazado 190694" d="M238.215,137.008a3.338,3.338,0,0,1,.048.563.109.109,0,0,0,.1.109,3.3,3.3,0,0,1,2.913,2.482.109.109,0,0,0,.075.078.107.107,0,0,0,.031,0,.109.109,0,0,0,.075-.029,3.463,3.463,0,0,1,2.053-.925.109.109,0,0,0,.1-.105,6.005,6.005,0,0,1,1.756-4.061c.023-.023.046-.044.069-.066a7.535,7.535,0,0,0-2.115-4.169.59.59,0,0,0-.835,0l-4.8,4.812A3.305,3.305,0,0,1,238.215,137.008Z" transform="translate(-211.687 -78.062)" fill="#ef5050"/>
      <g id="Grupo_80120" data-name="Grupo 80120" transform="translate(28.529 54.966)">
        <path id="Trazado_190695" data-name="Trazado 190695" d="M261.9,201.184a.109.109,0,0,0,.075.078.107.107,0,0,0,.031,0,.109.109,0,0,0,.075-.029,3.5,3.5,0,0,1,.927-.623.817.817,0,0,0-.2-.343l-.8-.8a.82.82,0,0,0-1.16,0l-.007.007A3.3,3.3,0,0,1,261.9,201.184Z" transform="translate(-260.841 -194.051)" fill="#c0272d"/>
        <path id="Trazado_190696" data-name="Trazado 190696" d="M270.275,181.52h-1.126a.82.82,0,0,1,0-1.641h1.126a.82.82,0,0,1,0,1.641Z" transform="translate(-267.51 -176.815)" fill="#c0272d"/>
        <path id="Trazado_190697" data-name="Trazado 190697" d="M267.7,154.3a.82.82,0,0,1-.581-1.4l.8-.8a.82.82,0,0,1,1.161,1.159l-.8.8A.818.818,0,0,1,267.7,154.3Z" transform="translate(-266.216 -151.862)" fill="#c0272d"/>
      </g>
      <path id="Trazado_190698" data-name="Trazado 190698" d="M299.318,154.433a.194.194,0,0,0-.109-.109,6.119,6.119,0,0,0-8.375,5.607c.114-.011.229-.017.345-.017a3.511,3.511,0,0,1,3.438,2.836,6.129,6.129,0,0,0,4.7-8.316Z" transform="translate(-259.024 -98.701)" fill="#89c947"/>
      <path id="Trazado_190699" data-name="Trazado 190699" d="M308.906,182.92a.82.82,0,0,0-1.16,0l-2.838,2.844a3.514,3.514,0,0,1,1.388.931l2.611-2.617A.82.82,0,0,0,308.906,182.92Z" transform="translate(-271.559 -124.343)" fill="#d5e962"/>
      <g id="Grupo_80121" data-name="Grupo 80121" transform="translate(10.96 59.895)">
        <path id="Trazado_190700" data-name="Trazado 190700" d="M355.747,202.16a3,3,0,0,1,.043.506.109.109,0,0,0,.1.109,2.951,2.951,0,0,1,1.258.409.109.109,0,0,0,.138-.022c.093-.107.173-.193.252-.272a5.479,5.479,0,0,1,2.329-1.391,3.613,3.613,0,1,0-7-1.8A2.966,2.966,0,0,1,355.747,202.16Z" transform="translate(-325.235 -196.929)" fill="#ffc502"/>
        <path id="Trazado_190701" data-name="Trazado 190701" d="M105.959,257.259a5.638,5.638,0,0,1-.687-2.094,3.3,3.3,0,0,1-2.435-1.816,3.6,3.6,0,0,0-2.6,3.909h5.726Z" transform="translate(-100.206 -247.179)" fill="#ffc502"/>
      </g>
      <path id="Trazado_190702" data-name="Trazado 190702" d="M393.27,239.7a2.951,2.951,0,0,1-.242,1.78h4.642a5.635,5.635,0,0,0,.648-5.347.18.18,0,0,0-.1-.1,5.6,5.6,0,0,0-6.047,1.25c-.116.116-.224.238-.328.362A2.973,2.973,0,0,1,393.27,239.7Z" transform="translate(-348.985 -171.509)" fill="#89c947"/>
      <path id="Trazado_190703" data-name="Trazado 190703" d="M402.678,264.489h1.014l1.618-1.622a.82.82,0,0,0-1.161-1.159l-1.2,1.2A2.947,2.947,0,0,1,402.678,264.489Z" transform="translate(-358.635 -194.514)" fill="#d5e962"/>
      <path id="Trazado_190704" data-name="Trazado 190704" d="M136.8,168.261a3.414,3.414,0,0,0-3.029-2.654,3.42,3.42,0,0,0-6.272-1.877,3.42,3.42,0,0,0-5.273,3.887,3.415,3.415,0,0,0,.883,6.474,5.512,5.512,0,0,1,.336-2.826.07.07,0,0,1,.016-.024.072.072,0,0,1,.024-.016,5.494,5.494,0,0,1,5.929,1.226c.075.076.147.154.218.233a7.536,7.536,0,0,1-.088-1.15.482.482,0,0,1,.481-.482h5.727c0-.076-.009-.153-.009-.23A3.614,3.614,0,0,1,136.8,168.261Z" transform="translate(-107.088 -106.099)" fill="#368c0e"/>
      <g id="Grupo_80122" data-name="Grupo 80122" transform="translate(16.915 59.088)">
        <path id="Trazado_190705" data-name="Trazado 190705" d="M155.473,192.946h-.014a.82.82,0,0,1-.806-.834,2.609,2.609,0,0,1,2.605-2.56h.042a2.611,2.611,0,0,1,1.88.847.82.82,0,0,1-1.211,1.107.951.951,0,0,0-.695-.313.965.965,0,0,0-.981.947A.82.82,0,0,1,155.473,192.946Z" transform="translate(-154.652 -189.552)" fill="#89c947"/>
        <path id="Trazado_190706" data-name="Trazado 190706" d="M196.879,211.794a.821.821,0,0,1-.769-1.106,2.389,2.389,0,0,1,4.439-.106.82.82,0,0,1-1.51.642.739.739,0,0,0-.428-.408.751.751,0,0,0-.963.443A.821.821,0,0,1,196.879,211.794Z" transform="translate(-191.529 -206.988)" fill="#89c947"/>
      </g>
      <path id="Trazado_190707" data-name="Trazado 190707" d="M324.647,223.6h-.03c0,.008,0,.015,0,.023h1.1a.591.591,0,0,1,.59.591,7.532,7.532,0,0,1-1.428,4.417h8.279a3.079,3.079,0,0,0-2.536-4.343,3.089,3.089,0,0,0-5.665-1.695,3.1,3.1,0,0,0-.469-.288,3.506,3.506,0,0,1,.168,1.074C324.654,223.451,324.652,223.524,324.647,223.6Z" transform="translate(-288.995 -158.656)" fill="#368c0e"/>
      <path id="Trazado_190708" data-name="Trazado 190708" d="M268.176,211.814c.005-.076.009-.153.009-.23a3.613,3.613,0,1,0-7.226,0c0,.077,0,.154.009.23Z" transform="translate(-232.417 -146.861)" fill="#f7931e"/>
      <path id="Trazado_190709" data-name="Trazado 190709" d="M151.554,241.832a5.6,5.6,0,0,0-6.047-1.25.184.184,0,0,0-.061.04.179.179,0,0,0-.04.061,5.636,5.636,0,0,0,.332,4.85h7.446a7.548,7.548,0,0,1-1.445-3.5Q151.649,241.928,151.554,241.832Z" transform="translate(-129.149 -175.557)" fill="#89c947"/>
      <path id="Trazado_190710" data-name="Trazado 190710" d="M172.114,268.536h2.318l-2.278-2.283a.82.82,0,0,0-1.161,1.159Z" transform="translate(-152.076 -198.561)" fill="#d5e962"/>
      <path id="Trazado_190711" data-name="Trazado 190711" d="M217.909,247.306a7.539,7.539,0,0,0,1.517-4.54.591.591,0,0,0-.59-.591H204.91a.591.591,0,0,0-.59.591,7.538,7.538,0,0,0,1.517,4.54Z" transform="translate(-181.973 -177.33)" fill="#ef5050"/>
      <g id="Grupo_80123" data-name="Grupo 80123" transform="translate(24.199 66.122)">
        <path id="Trazado_190712" data-name="Trazado 190712" d="M267.791,277.791v-.567a.82.82,0,1,0-1.641,0v.567Z" transform="translate(-261.239 -273.938)" fill="#c0272d"/>
        <path id="Trazado_190713" data-name="Trazado 190713" d="M287.592,271.683h1.276a.82.82,0,0,0-.054-1.1l-.8-.8a.82.82,0,0,0-1.161,1.159Z" transform="translate(-279.466 -267.83)" fill="#c0272d"/>
        <path id="Trazado_190714" data-name="Trazado 190714" d="M238.681,271.684l.736-.738a.82.82,0,0,0-1.161-1.159l-.8.8a.82.82,0,0,0-.054,1.1Z" transform="translate(-235.473 -267.831)" fill="#c0272d"/>
        <path id="Trazado_190715" data-name="Trazado 190715" d="M223.2,255.506H222.07a.82.82,0,0,1,0-1.641H223.2a.82.82,0,0,1,0,1.641Z" transform="translate(-221.25 -253.865)" fill="#c0272d"/>
        <path id="Trazado_190716" data-name="Trazado 190716" d="M302.154,255.506h-1.126a.82.82,0,0,1,0-1.641h1.126a.82.82,0,0,1,0,1.641Z" transform="translate(-291.571 -253.865)" fill="#c0272d"/>
      </g>
      <path id="Trazado_190717" data-name="Trazado 190717" d="M86.96,294.495a.112.112,0,0,0,.03,0,.109.109,0,0,0,.109-.109V293a.711.711,0,0,1,1.422,0v1.388a.109.109,0,0,0,.109.109.106.106,0,0,0,.03,0,7.371,7.371,0,0,1,1.963-.248c1.991,0,3.329.645,3.329,1.248a.493.493,0,0,1-.071.242.109.109,0,0,0,.053.155,7.577,7.577,0,0,1,4.715,5.817.109.109,0,0,0,.108.094.111.111,0,0,0,.039-.007l17.268-6.56a2.926,2.926,0,0,1,3.918,2.192l.15.812a.109.109,0,0,0,.163.074l5.806-3.427a20.341,20.341,0,0,0,.752-5.514.566.566,0,0,0-.566-.567h-39.5a.566.566,0,0,0-.566.567,20.392,20.392,0,0,0,.64,5.094Z" transform="translate(-76.791 -218.864)" fill="#e6e9ed"/>
      <path id="Trazado_190718" data-name="Trazado 190718" d="M86.96,294.5a.109.109,0,0,0,.1-.018.109.109,0,0,0,.043-.087V293a.711.711,0,0,1,1.422,0v1.388a.109.109,0,0,0,.109.109.106.106,0,0,0,.03,0,7.118,7.118,0,0,1,1.659-.242,20.425,20.425,0,0,1-.584-4.878.566.566,0,0,1,.566-.567H86.787a.566.566,0,0,0-.566.567,20.392,20.392,0,0,0,.64,5.094Z" transform="translate(-76.791 -218.864)" opacity="0.1"/>
      <path id="Trazado_190719" data-name="Trazado 190719" d="M94.072,322.352a3.8,3.8,0,0,1,.821-.326v-1.558a.82.82,0,0,0-1.641,0v1.558A3.792,3.792,0,0,1,94.072,322.352Z" transform="translate(-83.053 -246.331)" fill="#89c947"/>
      <path id="Trazado_190720" data-name="Trazado 190720" d="M19.4,366.625H16.436a2.921,2.921,0,0,1-2.875-2.384l-.029-.157a2.91,2.91,0,0,1,1.834-3.248l6.619-2.514a7.651,7.651,0,0,0-4.9-6.057,3.292,3.292,0,0,1-2.285.939.109.109,0,0,0-.056.194,2.41,2.41,0,0,1,1,1.342.415.415,0,0,1-.1.328,1.054,1.054,0,0,1-.793.241h0a6.008,6.008,0,0,1-2.671-.826,6.738,6.738,0,0,1-1.088-.741.109.109,0,0,0-.141,0,6.724,6.724,0,0,1-1.088.74,6.007,6.007,0,0,1-2.671.826,1.054,1.054,0,0,1-.793-.241.415.415,0,0,1-.1-.328,2.412,2.412,0,0,1,1-1.342.109.109,0,0,0-.056-.194,3.29,3.29,0,0,1-2.285-.94A7.558,7.558,0,0,0,0,359.193c0,4.166,3.673,7.543,8.2,7.543H19.578C19.7,366.736,19.606,366.692,19.4,366.625Z" transform="translate(0 -275.381)" fill="#ef5050"/>
      <path id="Trazado_190721" data-name="Trazado 190721" d="M3.549,359.194a7.351,7.351,0,0,1,3.3-6.046,2.879,2.879,0,0,1-1.891-.881A7.558,7.558,0,0,0,0,359.194c0,4.166,3.673,7.542,8.2,7.542h3.549C7.222,366.737,3.549,363.36,3.549,359.194Z" transform="translate(0 -275.382)" opacity="0.1"/>
      <path id="Trazado_190722" data-name="Trazado 190722" d="M56.1,338.9c0-.75-1.539-1.358-3.438-1.358a6.1,6.1,0,0,0-2.813.578,6.1,6.1,0,0,0-2.813-.578c-1.9,0-3.438.608-3.438,1.358,0,.615,1.038,1.135,2.459,1.3-.87.7-1.268,1.427-.914,1.827.47.53,2.081.278,3.6-.562a6.857,6.857,0,0,0,1.106-.753,6.881,6.881,0,0,0,1.106.753c1.518.84,3.13,1.092,3.6.562.354-.4-.044-1.132-.914-1.827C55.06,340.031,56.1,339.512,56.1,338.9Z" transform="translate(-38.827 -262.265)" fill="#368c0e"/>
      <path id="Trazado_190723" data-name="Trazado 190723" d="M408.777,342.8l-.22-1.188a.758.758,0,0,0-.883-.606l-8.5,1.562,5.428-3.629a.752.752,0,0,0,.238-1l-.614-1.088a.76.76,0,0,0-1.048-.279l-7.062,4.169,1.336,7.212,8.1,1.456a.758.758,0,0,0,.885-.632l.183-1.228a.746.746,0,0,0,0-.248.757.757,0,0,0-.576-.6l-6.371-1.461,8.5-1.562A.755.755,0,0,0,408.777,342.8Z" transform="translate(-352.79 -261.316)" fill="#89c947"/>
      <path id="Trazado_190724" data-name="Trazado 190724" d="M122.348,357.65a3.03,3.03,0,0,0,2.984,2.473l25.59-.01a3.025,3.025,0,0,0,2.982-3.569l-1.71-9.23a3.035,3.035,0,0,0-4.064-2.275l-23.909,9.083a3.02,3.02,0,0,0-1.9,3.371Z" transform="translate(-108.896 -268.768)" fill="#f7931e"/>
      <g id="Grupo_80124" data-name="Grupo 80124" transform="translate(13.373 76.073)" opacity="0.1">
        <path id="Trazado_190725" data-name="Trazado 190725" d="M122.348,357.651a3.006,3.006,0,0,0,.192.629,3.159,3.159,0,0,1,1.634-1.405l24.969-9.486a3.165,3.165,0,0,1,3.163.53l-.112-.6a3.035,3.035,0,0,0-4.064-2.275l-23.909,9.083a3.019,3.019,0,0,0-1.9,3.371Z" transform="translate(-122.269 -344.842)"/>
      </g>
      <g id="Grupo_80125" data-name="Grupo 80125" transform="translate(18.764 78.801)">
        <path id="Trazado_190726" data-name="Trazado 190726" d="M357.6,443.963a.82.82,0,1,0-1.611.308l.675,3.53h1.67Z" transform="translate(-335.8 -435.256)" fill="#ffc502"/>
        <path id="Trazado_190727" data-name="Trazado 190727" d="M316.938,452.839a.82.82,0,1,0-1.612.3l.483,2.563h1.669Z" transform="translate(-299.589 -443.159)" fill="#ffc502"/>
        <path id="Trazado_190728" data-name="Trazado 190728" d="M284.463,373.282a.82.82,0,0,0,1.591-.4l-.781-3.1-1.544.587Z" transform="translate(-271.461 -369.78)" fill="#ffc502"/>
        <path id="Trazado_190729" data-name="Trazado 190729" d="M238.158,446.25a.82.82,0,1,0-1.615.291l.594,3.294H238.8Z" transform="translate(-229.425 -437.285)" fill="#ffc502"/>
        <path id="Trazado_190730" data-name="Trazado 190730" d="M172.019,415.138a.82.82,0,0,0,1.606-.337l-.512-2.437-1.552.59Z" transform="translate(-171.561 -407.706)" fill="#ffc502"/>
      </g>
    </g>
  </g>
</svg>
