<svg xmlns="http://www.w3.org/2000/svg" width="154" height="154" viewBox="0 0 154 154">
  <g id="Grupo_153669" data-name="Grupo 153669" transform="translate(6810 8609)">
    <g id="Grupo_153668" data-name="Grupo 153668" transform="translate(-7870.376 -12100.919)">
      <g id="globo" transform="translate(1065.376 3509.617)">
        <g id="Grupo_152217" data-name="Grupo 152217" transform="translate(0 71.64)">
          <g id="Grupo_152215" data-name="Grupo 152215" transform="translate(0 18.229)">
            <path id="Trazado_205708" data-name="Trazado 205708" d="M110.192,430.882,23.251,434.9l-8.518-4.191V420.257L30.04,415.4l80.152,3.953a.688.688,0,0,0-.034.114,15.616,15.616,0,0,0,.034,11.417Z" transform="translate(-11.321 -408.823)" fill="#faf7f7"/>
            <path id="Trazado_205709" data-name="Trazado 205709" d="M110.192,419.352a1.243,1.243,0,0,0-.049.153,15.541,15.541,0,0,0-1.047,5.483H14.733v-4.73L30.04,415.4Z" transform="translate(-11.321 -408.824)" fill="#d8ecfe"/>
            <path id="Trazado_205710" data-name="Trazado 205710" d="M6.821,402.826v.954a5.289,5.289,0,0,0,5.289,5.289H98.869a3.41,3.41,0,1,1,0,6.82H10.842A10.842,10.842,0,0,1,0,405.047v-3.489a10.842,10.842,0,0,1,10.842-10.842l15.724-3.707L40.9,390.717H58.234l18.9-3.283,14.531,3.283h7.2a3.41,3.41,0,1,1,0,6.821H12.109a5.289,5.289,0,0,0-5.289,5.289Z" transform="translate(0 -387.01)" fill="#869d69"/>
          </g>
          <g id="Grupo_152216" data-name="Grupo 152216" transform="translate(0)">
            <path id="Trazado_205711" data-name="Trazado 205711" d="M12.823,332.595,49.8,336.1l7.422-3.652v-9.111L43.886,319.1l-31.063,3.444a.578.578,0,0,1,.03.1A13.61,13.61,0,0,1,12.823,332.595Z" transform="translate(-9.853 -316.602)" fill="#faf7f7"/>
            <path id="Trazado_205712" data-name="Trazado 205712" d="M12.823,322.545a1.1,1.1,0,0,1,.042.133,13.544,13.544,0,0,1,.912,4.777H57.225v-4.122L43.887,319.1Z" transform="translate(-9.853 -316.6)" fill="#d8ecfe"/>
            <path id="Trazado_205713" data-name="Trazado 205713" d="M44.4,318.859v.831a4.609,4.609,0,0,1-4.609,4.609H2.972a2.972,2.972,0,0,0,0,5.943H40.9a9.447,9.447,0,0,0,9.447-9.447v-3.04a9.447,9.447,0,0,0-9.447-9.447H2.972a2.972,2.972,0,1,0,0,5.943H39.793a4.609,4.609,0,0,1,4.608,4.609Z" transform="translate(0 -308.307)" fill="#ffc846"/>
          </g>
        </g>
      </g>
      <g id="principio" transform="translate(1106.296 3501.919)">
        <g id="Grupo_152244" data-name="Grupo 152244" transform="translate(11.881 8)">
          <g id="Grupo_152243" data-name="Grupo 152243" transform="translate(0 0)">
            <g id="Grupo_152237" data-name="Grupo 152237" transform="translate(0 0)">
              <path id="Trazado_205745" data-name="Trazado 205745" d="M65.407,8H15.766a3.885,3.885,0,0,0-3.885,3.885v85.48a3.885,3.885,0,0,0,3.885,3.885H81.21A3.885,3.885,0,0,0,85.1,97.367V27.682Z" transform="translate(-11.881 -8.001)" fill="#f1f2f2"/>
            </g>
            <g id="Grupo_152238" data-name="Grupo 152238" transform="translate(1.554 4.371)">
              <path id="Trazado_205746" data-name="Trazado 205746" d="M16.658,46.254a.777.777,0,0,1-.777-.777V23.33a.777.777,0,0,1,1.554,0V45.477A.777.777,0,0,1,16.658,46.254Zm0-25.256a.777.777,0,0,1-.777-.777v-.194a.777.777,0,0,1,1.554,0v.194A.777.777,0,0,1,16.658,21Z" transform="translate(-15.881 -19.25)" fill="#fff"/>
            </g>
            <g id="Grupo_152239" data-name="Grupo 152239" transform="translate(0 19.681)">
              <path id="Trazado_205747" data-name="Trazado 205747" d="M85.095,58.653H81.209v65.8a3.885,3.885,0,0,1-3.885,3.885H11.881a3.885,3.885,0,0,0,3.885,3.885H81.21a3.885,3.885,0,0,0,3.885-3.885Z" transform="translate(-11.881 -58.653)" fill="#e6e7e8"/>
            </g>
            <g id="Grupo_152240" data-name="Grupo 152240" transform="translate(0.346 19.681)">
              <path id="Trazado_205748" data-name="Trazado 205748" d="M85.639,58.653H83.7V126.4a3.885,3.885,0,0,1-3.885,3.885H14.368a3.867,3.867,0,0,1-1.6-.346,3.883,3.883,0,0,0,3.54,2.289H81.754a3.885,3.885,0,0,0,3.885-3.885Z" transform="translate(-12.771 -58.653)" fill="#d1d3d4"/>
            </g>
            <g id="Grupo_152241" data-name="Grupo 152241" transform="translate(53.526)">
              <path id="Trazado_205749" data-name="Trazado 205749" d="M149.641,23.8V8l19.687,19.681-15.8,0A3.885,3.885,0,0,1,149.641,23.8Z" transform="translate(-149.641 -8)" fill="#939598"/>
            </g>
            <g id="Grupo_152242" data-name="Grupo 152242" transform="translate(53.872 17.395)">
              <path id="Trazado_205750" data-name="Trazado 205750" d="M167.929,53.112l-15.8,0a3.862,3.862,0,0,1-1.6-.346,3.884,3.884,0,0,0,3.54,2.289l15.8,0Z" transform="translate(-150.531 -52.769)" fill="#808285"/>
            </g>
          </g>
        </g>
        <g id="Grupo_152249" data-name="Grupo 152249" transform="translate(20.901 60.195)">
          <g id="Grupo_152245" data-name="Grupo 152245" transform="translate(0 7.771)">
            <path id="Trazado_205751" data-name="Trazado 205751" d="M62.228,163.887H35.873a.777.777,0,1,1,0-1.554H62.229a.777.777,0,1,1,0,1.554Z" transform="translate(-35.096 -162.333)" fill="#414042"/>
          </g>
          <g id="Grupo_152246" data-name="Grupo 152246" transform="translate(0)">
            <path id="Trazado_205752" data-name="Trazado 205752" d="M62.228,143.887H35.873a.777.777,0,0,1,0-1.554H62.229a.777.777,0,1,1,0,1.554Z" transform="translate(-35.096 -142.333)" fill="#414042"/>
          </g>
          <g id="Grupo_152247" data-name="Grupo 152247" transform="translate(0 15.542)">
            <path id="Trazado_205753" data-name="Trazado 205753" d="M62.228,183.887H35.873a.777.777,0,1,1,0-1.554H62.229a.777.777,0,1,1,0,1.554Z" transform="translate(-35.096 -182.333)" fill="#414042"/>
          </g>
          <g id="Grupo_152248" data-name="Grupo 152248" transform="translate(0 23.313)">
            <path id="Trazado_205754" data-name="Trazado 205754" d="M62.228,203.887H35.873a.777.777,0,1,1,0-1.554H62.229a.777.777,0,1,1,0,1.554Z" transform="translate(-35.096 -202.333)" fill="#414042"/>
          </g>
        </g>
        <g id="Grupo_152281" data-name="Grupo 152281" transform="translate(52.373 40.115)">
          <g id="Grupo_152266" data-name="Grupo 152266" transform="translate(0 50.856)">
            <path id="Trazado_205764" data-name="Trazado 205764" d="M155.987,231.822H118.039a1.943,1.943,0,0,1-1.943-1.943v-4.452a3.885,3.885,0,0,1,3.885-3.885h34.063a3.885,3.885,0,0,1,3.885,3.885v4.452A1.943,1.943,0,0,1,155.987,231.822Z" transform="translate(-116.096 -221.542)" fill="#58595b"/>
          </g>
          <g id="Grupo_152267" data-name="Grupo 152267" transform="translate(0 51.202)">
            <path id="Trazado_205765" data-name="Trazado 205765" d="M155.64,222.432a3.866,3.866,0,0,1,.346,1.6v4.452a1.943,1.943,0,0,1-1.943,1.943H116.095a1.943,1.943,0,0,0,1.943,1.943h37.948a1.943,1.943,0,0,0,1.943-1.943v-4.452a3.882,3.882,0,0,0-2.289-3.54Z" transform="translate(-116.095 -222.432)" fill="#414042"/>
          </g>
          <g id="Grupo_152268" data-name="Grupo 152268" transform="translate(6.019 45.058)">
            <path id="Trazado_205766" data-name="Trazado 205766" d="M157.5,206.62H135.472a3.885,3.885,0,0,0-3.885,3.885v1.912h29.8v-1.912A3.886,3.886,0,0,0,157.5,206.62Z" transform="translate(-131.587 -206.62)" fill="#939598"/>
          </g>
          <g id="Grupo_152269" data-name="Grupo 152269" transform="translate(6.019 45.404)">
            <path id="Trazado_205767" data-name="Trazado 205767" d="M159.094,207.511a3.866,3.866,0,0,1,.346,1.6,1.912,1.912,0,0,1-1.912,1.912H131.589l0,0v1.941h29.8v-1.912A3.883,3.883,0,0,0,159.094,207.511Z" transform="translate(-131.587 -207.511)" fill="#808285"/>
          </g>
          <g id="Grupo_152280" data-name="Grupo 152280" transform="translate(1.652 0)">
            <g id="Grupo_152270" data-name="Grupo 152270" transform="translate(6.653 6.667)">
              <path id="Trazado_205768" data-name="Trazado 205768" d="M0,0H19.462V15.831H0Z" transform="translate(0 13.76) rotate(-45)" fill="#8c3f0a"/>
            </g>
            <g id="Grupo_152271" data-name="Grupo 152271" transform="translate(15.903 15.918)">
              <path id="Trazado_205769" data-name="Trazado 205769" d="M0,0H19.462V2.747H0Z" transform="translate(0 13.76) rotate(-45)" fill="#7c3108"/>
            </g>
            <g id="Grupo_152272" data-name="Grupo 152272" transform="translate(22.952 22.967)">
              <path id="Trazado_205770" data-name="Trazado 205770" d="M0,0H5.016V3.565H0Z" transform="translate(0 3.546) rotate(-45)" fill="#ffc91d"/>
            </g>
            <g id="Grupo_152273" data-name="Grupo 152273" transform="translate(24.695 24.712)">
              <path id="Trazado_205771" data-name="Trazado 205771" d="M0,0H5.016V1.1H0Z" transform="translate(0 3.546) rotate(-45)" fill="#ffa91a"/>
            </g>
            <g id="Grupo_152274" data-name="Grupo 152274" transform="translate(25.487 25.487)">
              <path id="Trazado_205772" data-name="Trazado 205772" d="M185.942,159.8l15.524,17.682a4.042,4.042,0,1,0,5.7-5.7l-17.682-15.524Z" transform="translate(-185.942 -156.249)" fill="#8c3f0a"/>
            </g>
            <g id="Grupo_152275" data-name="Grupo 152275" transform="translate(39.981 39.981)">
              <path id="Trazado_205773" data-name="Trazado 205773" d="M229.981,194.583l-1.173-1.03a4.04,4.04,0,0,1-5.562,5.562l1.03,1.173a4.042,4.042,0,1,0,5.7-5.7Z" transform="translate(-223.246 -193.553)" fill="#7c3108"/>
            </g>
            <g id="Grupo_152276" data-name="Grupo 152276" transform="translate(0 18.728)">
              <path id="Trazado_205774" data-name="Trazado 205774" d="M138.876,157.382a3.511,3.511,0,0,1-4.966,0l-12.535-12.535a3.511,3.511,0,1,1,4.966-4.966l12.535,12.535A3.511,3.511,0,0,1,138.876,157.382Z" transform="translate(-120.347 -138.853)" fill="#f79219"/>
            </g>
            <g id="Grupo_152277" data-name="Grupo 152277" transform="translate(11.62 30.348)">
              <path id="Trazado_205775" data-name="Trazado 205775" d="M157.162,170.7l-1.943-1.943a3.511,3.511,0,0,1-4.966,4.966l1.943,1.943a3.511,3.511,0,1,0,4.966-4.966Z" transform="translate(-150.254 -168.76)" fill="#ef7816"/>
            </g>
            <g id="Grupo_152278" data-name="Grupo 152278" transform="translate(18.728)">
              <path id="Trazado_205776" data-name="Trazado 205776" d="M187.075,109.183a3.511,3.511,0,0,1-4.966,0L169.575,96.648a3.511,3.511,0,0,1,4.966-4.966l12.535,12.535A3.511,3.511,0,0,1,187.075,109.183Z" transform="translate(-168.546 -90.654)" fill="#f79219"/>
            </g>
            <g id="Grupo_152279" data-name="Grupo 152279" transform="translate(30.348 11.62)">
              <path id="Trazado_205777" data-name="Trazado 205777" d="M205.361,122.5l-1.943-1.943a3.511,3.511,0,1,1-4.966,4.966l1.943,1.943a3.511,3.511,0,0,0,4.966-4.966Z" transform="translate(-198.453 -120.561)" fill="#ef7816"/>
            </g>
          </g>
        </g>
      </g>
      <g id="Grupo_152282" data-name="Grupo 152282" transform="translate(332.919 612.475)">
        <path id="Trazado_205707" data-name="Trazado 205707" d="M16.889,0A12.337,12.337,0,0,0,4.565,12.324c0,6.324,9.887,17.524,11.014,18.781a1.76,1.76,0,0,0,2.62,0c1.127-1.257,11.014-12.457,11.014-18.781A12.337,12.337,0,0,0,16.889,0Z" transform="translate(792.305 2907.661)" fill="#942e19"/>
        <ellipse id="Elipse_4861" data-name="Elipse 4861" cx="5.52" cy="5.52" rx="5.52" ry="5.52" transform="translate(803.133 2913.751)" fill="#fafafa"/>
      </g>
    </g>
    <rect id="Rectángulo_44838" data-name="Rectángulo 44838" width="154" height="154" transform="translate(-6810 -8609)" fill="none"/>
  </g>
</svg>
