<svg xmlns="http://www.w3.org/2000/svg" xmlns:xlink="http://www.w3.org/1999/xlink" width="357.5" height="235.229" viewBox="0 0 357.5 235.229">
  <defs>
    <clipPath id="clip-path">
      <rect id="Rectángulo_43633" data-name="Rectángulo 43633" width="334.193" height="218.995" fill="none"/>
    </clipPath>
    <clipPath id="clip-path-3">
      <rect id="Rectángulo_43629" data-name="Rectángulo 43629" width="334.193" height="75.218" fill="none"/>
    </clipPath>
    <clipPath id="clip-path-4">
      <path id="Trazado_206162" data-name="Trazado 206162" d="M89.753,173.228q21.769-2.308,41.454-4.392l35.889,4.392,35.89-4.392q19.71,2.086,41.455,4.392l89.753,70.827-95.535-18.917L167.1,244.054,95.533,225.137,0,244.054Z" transform="translate(0 -168.836)" fill="none"/>
    </clipPath>
    <linearGradient id="linear-gradient" y1="1" x2="0.003" y2="1" gradientUnits="objectBoundingBox">
      <stop offset="0" stop-color="#fcfcfc"/>
      <stop offset="1" stop-color="silver"/>
    </linearGradient>
    <clipPath id="clip-path-5">
      <path id="Trazado_206172" data-name="Trazado 206172" d="M153.7,0a45.354,45.354,0,0,0-39.408,67.823c13.269,23.267,32.141,56.331,37.765,66.185a1.891,1.891,0,0,0,3.286,0c5.626-9.855,24.5-42.918,37.781-66.183A45.375,45.375,0,0,0,153.7,0Z" transform="translate(-108.334)" fill="none"/>
    </clipPath>
    <radialGradient id="radial-gradient" cx="0.612" cy="0.237" r="0.52" gradientTransform="matrix(1.487, 0, 0, -1, 0.496, 3.245)" gradientUnits="objectBoundingBox">
      <stop offset="0" stop-color="#ff5f00"/>
      <stop offset="0.328" stop-color="#ff6300"/>
      <stop offset="0.674" stop-color="#ff6f00"/>
      <stop offset="1" stop-color="#ff8300"/>
    </radialGradient>
    <clipPath id="clip-path-7">
      <rect id="Rectángulo_43623" data-name="Rectángulo 43623" width="190" height="111.559" fill="none"/>
    </clipPath>
    <clipPath id="clip-path-9">
      <rect id="Rectángulo_43587" data-name="Rectángulo 43587" width="75.098" height="42.281" fill="none"/>
    </clipPath>
  </defs>
  <g id="Grupo_153673" data-name="Grupo 153673" transform="translate(6469.5 1812)">
    <g id="Grupo_152567" data-name="Grupo 152567" transform="translate(-6469.5 -1812)">
      <g id="Grupo_152566" data-name="Grupo 152566" clip-path="url(#clip-path)">
        <g id="Grupo_152561" data-name="Grupo 152561">
          <g id="Grupo_152560" data-name="Grupo 152560" clip-path="url(#clip-path)">
            <g id="Grupo_152559" data-name="Grupo 152559" transform="translate(0 143.777)" style="mix-blend-mode: multiply;isolation: isolate">
              <g id="Grupo_152558" data-name="Grupo 152558">
                <g id="Grupo_152557" data-name="Grupo 152557" clip-path="url(#clip-path-3)">
                  <g id="Grupo_152556" data-name="Grupo 152556" transform="translate(0 0)">
                    <g id="Grupo_152555" data-name="Grupo 152555" clip-path="url(#clip-path-4)">
                      <rect id="Rectángulo_43628" data-name="Rectángulo 43628" width="334.193" height="75.218" transform="translate(0)" fill="url(#linear-gradient)"/>
                    </g>
                  </g>
                </g>
              </g>
            </g>
            <path id="Trazado_206163" data-name="Trazado 206163" d="M95.533,201.257c2.844-7.842,5.472-15.081,7.909-21.789,2.26-6.231,4.371-12.034,6.336-17.452,3.567-9.826,6.713-18.5,9.514-26.213,2.506-6.905,4.762-13.124,6.807-18.75,1.856-5.116,3.553-9.791,5.108-14.077q-19.708,3.642-41.453,7.666c-3.626,4.993-7.605,10.475-12,16.527-4.872,6.71-10.3,14.194-16.4,22.593L50.665,164.485q-6.085,8.387-13.09,18.032c-5.045,6.948-10.495,14.458-16.408,22.6C14.735,213.982,7.706,223.663,0,234.279q27.127-9.375,51.458-17.786,23.143-8,44.075-15.236" transform="translate(0 -15.284)" fill="#ceae95"/>
            <path id="Trazado_206164" data-name="Trazado 206164" d="M267.781,201.257c-2.845-7.842-5.472-15.081-7.909-21.789-2.26-6.231-4.369-12.034-6.335-17.452-3.568-9.826-6.713-18.5-9.515-26.213-2.5-6.905-4.761-13.124-6.8-18.75-1.857-5.116-3.554-9.791-5.109-14.077q-17.063,3.643-35.89,7.666V234.279q20.323-9.373,38.547-17.786,17.334-8,33.015-15.236" transform="translate(-29.123 -15.284)" fill="#ceae95"/>
            <path id="Trazado_206165" data-name="Trazado 206165" d="M34.4,203.444c-.479.718-.958,1.443-1.449,2.166.256-.081.51-.163.768-.243.481-.726.967-1.445,1.436-2.162-.251.08-.5.162-.755.238m13.135-7.052c-.418.666-.834,1.34-1.258,2.017.243-.075.479-.153.722-.227q.626-1.014,1.249-2.011l-.714.221m-8.245.594c.446-.666.881-1.329,1.32-1.987-.242.072-.479.146-.719.219-.439.661-.88,1.323-1.329,1.993q.363-.114.728-.225M49.47,194.2c.4-.648.8-1.292,1.2-1.93-.232.07-.466.141-.7.213-.4.64-.8,1.283-1.2,1.934q.353-.107.7-.217M37.2,199.246c-.453.686-.921,1.378-1.385,2.074l.744-.232c.467-.695.922-1.387,1.377-2.072-.244.077-.49.153-.737.23m26.444-3.1q2.412-4.452,4.668-8.638-6.425,1.972-13.041,4-2.621,4.372-5.4,9.028,6.99-2.228,13.778-4.386M60.2,187.271c.068-.117.139-.232.2-.348q-1.616.489-3.247.979c-.071.118-.142.234-.211.353q1.632-.5,3.256-.984m30.615.41q.842-2.018,1.659-3.979L85.2,185.978q-.912,2.011-1.845,4.082,3.762-1.2,7.462-2.378m-27.2-1.727c-.065.114-.131.228-.2.343,1.065-.324,2.13-.642,3.189-.963.06-.114.128-.226.19-.34l-3.183.96m-23.351,7,1.415-.426c-.163.246-.326.493-.494.74.238-.072.475-.142.71-.215.245-.371.494-.739.737-1.108q-1.056.321-2.12.638c-.082.123-.17.246-.249.37m-11.96,20.551c.3-.454.606-.907.9-1.358l-.8.261c-.2.3-.4.6-.6.905-.536.176-1.071.352-1.611.527-.1.152-.207.3-.307.459.807-.266,1.612-.528,2.415-.794m11.261-4.346c-.231.366-.456.731-.686,1.1.26-.084.517-.169.776-.255q.342-.548.68-1.094c-.255.085-.51.17-.77.251m30.563-22.419c.155-.289.307-.577.459-.863-.218.066-.434.134-.652.2-.153.287-.306.577-.463.866.22-.068.437-.135.657-.2M22.174,215.518c.1-.156.21-.31.318-.464l-3.751,1.227c-.113.157-.217.314-.329.469,1.258-.41,2.512-.824,3.762-1.232M1.458,232.82q4.122-1.419,8.173-2.812,3.566-5.106,6.926-9.91-3.837,1.27-7.731,2.568Q5.25,227.588,1.458,232.82m59.716-78.005c-.723,1.019-1.444,2.055-2.187,3.1l57.9-14.645q.465-1.286.923-2.543L68.027,153.111q.913-1.366,1.8-2.7l-6.707,1.643q-.959,1.363-1.946,2.76m8.776,29.23c-.06.113-.119.226-.182.338.43-.13.858-.261,1.288-.389-.12.224-.242.449-.362.674l.646-.2c.176-.34.359-.674.536-1.009-.642.192-1.282.387-1.927.581M31.471,207.828c-.5.749-1,1.506-1.512,2.265q.393-.129.788-.253c.508-.76,1-1.512,1.5-2.261l-.777.249m-1.839-7.468c.684-.969,1.353-1.931,2.023-2.881q-2.9.879-5.832,1.776-5.209,7.174-10.956,15.093c1.457-.473,2.912-.937,4.358-1.406q1.7-2.4,3.358-4.73c-1.092.346-2.192.692-3.291,1.043q2.713-3.763,5.3-7.343,2.529-.78,5.037-1.552m12.708,4.36c-.456.727-.906,1.46-1.37,2.2l.76-.247c.455-.735.906-1.465,1.36-2.189-.25.08-.5.162-.75.24M14.605,218c.113-.158.224-.317.339-.475q-1.56.511-3.128,1.027c-.115.158-.234.318-.348.477q1.571-.517,3.137-1.029m65.608-21.329q-1.024,2.256-2.074,4.583,4.024-1.346,7.974-2.671.949-2.265,1.866-4.46-3.849,1.265-7.766,2.548m-35.224,3.8c-.431.7-.872,1.395-1.311,2.1.25-.077.495-.158.743-.235l1.3-2.1c-.244.077-.486.155-.732.232m56.235-84.011q.528-.893,1.041-1.766l-4.242.83c-.369.592-.738,1.189-1.116,1.793l4.317-.857m-6.481-4.852-1.127,1.667q3.045-.577,6.05-1.151c.343-.549.681-1.094,1.022-1.632q-2.951.552-5.946,1.116m33.863-1.619.389-.077q.986-2.716,1.906-5.253c-.122.023-.244.048-.367.069-.106.294-.216.588-.323.883l-3.461.654c.12-.3.238-.6.357-.9l-5.225.979c-.255.574-.513,1.155-.776,1.741q1.676-.318,3.337-.635-.42,1.015-.856,2.058l-1.888.365q-.276.64-.557,1.288l3.816-.748c.089-.222.175-.443.263-.663q1.875-.368,3.737-.729c-.117.318-.232.639-.353.961m-37.739,2.039q-.774.144-1.552.29.549-.759,1.089-1.506c-.146.027-.292.053-.436.081-.673.925-1.353,1.866-2.05,2.824l2.021-.382c.313-.438.622-.875.927-1.306m.8,12.468.666-1.058q-6.649,1.382-13.506,2.8c-.267.366-.533.737-.8,1.108l13.644-2.854m7.088-15.228c-.089.138-.177.275-.27.414.93-.17,1.854-.345,2.777-.515.085-.137.171-.273.258-.41q-1.378.257-2.765.512m20.071,7.069,4.117-.843c.12-.3.242-.6.362-.905l-4.081.829c-.129.3-.265.611-.4.92m-39.688,9.478q23.419-4.809,44.491-9.131a2.335,2.335,0,0,0,1.441-.717v0c.094-.249-.386-.336-1.071-.2l-10.671,2.173c-.1.022-.169.009-.153-.029q1.184-2.482,2.3-4.822c.114-.237-.351-.32-1.036-.186a2.541,2.541,0,0,0-1.46.678q-1.174,2.362-2.417,4.862a.169.169,0,0,1-.081.06.647.647,0,0,1-.144.047l-30.425,6.2q-.384.53-.774,1.067m-3.919,7.247,3.021-4.222c-.51.108-1.022.215-1.534.324q-1.506,2.076-3.083,4.247l1.6-.348m-7.18,12.023q-.867,1.238-1.767,2.5l6.472-1.546q.825-1.239,1.635-2.451l46.352-10.906q.4-1.1.789-2.173L69.88,142.474l-1.841,2.61m35.518-17.278q-1.044,2.027-2.14,4.145,10.941-2.474,21.33-4.821l1.394-3.841-10.433,2.29q.993-2.248,1.942-4.39,5.075-1.076,10.026-2.128c.3-.827.6-1.644.888-2.448q-6.917,1.441-14.075,2.93-1.608,3.38-3.351,7.039-2.772.609-5.582,1.225M80.992,161.261l2.6-4.728q-6.72,1.758-13.652,3.567-.568.913-1.151,1.841-6.439,1.7-13.068,3.449-1.795,2.594-3.676,5.3l15-4.063q.611-.985,1.2-1.951l12.749-3.418m-12.4,9.465c-1.309-.226-2.579.789-3.9,1.151a12.635,12.635,0,0,0-5.739,3.16c-.88.96.083.975.712,1.422.366.274.016,1.059.753,1.321,1.322.47.364,2.085,4.212.852,4.3-1.381,5.809-1.374,5.838.014.016.68.865.747,1.6.775,2.351.092,8.039-1.282,7.081-2.763-.375-.573.563-1.233,1.109-2.034.37-.543.064-.995.371-1.5.255-.412.947-1.267.925-1.7-.037-.736-1.825-.318-3.448-.361-1.969-.05-3.153.831-4.168.732-1.344-.128-1.35-1.128-2.944-.777-1.38.307-1.673-.164-2.4-.294m-38.213,25.21c.089-.128.184-.255.273-.382q-1.363.411-2.737.822c-.092.129-.189.257-.28.387l2.745-.826m63.3-28.136q-.736,1.626-1.486,3.3l6.606-1.919q.68-1.631,1.34-3.222L93.673,167.8M37.005,193.937c.087-.124.169-.25.258-.373q-1.641.49-3.289.99c-.091.124-.177.252-.266.378,1.1-.334,2.2-.663,3.3-.995m58.009-16q.755-1.81,1.489-3.572l-6.845,2.043q-.814,1.8-1.65,3.659l7.007-2.13M60.052,152.1l58.8-14.246q.437-1.2.861-2.371L62.156,149.206c-.691.953-1.4,1.918-2.1,2.9m67.69-39.713q-.567,1.552-1.159,3.167l.393-.081q.586-1.612,1.148-3.164l-.381.077m-21.358,38.937L89.277,155.82q-.722,1.4-1.459,2.828l17.462-4.66c.374-.9.737-1.784,1.1-2.661M92.4,196.7a4.974,4.974,0,0,0,2.819-2.105c3.164-8.344,6.059-15.986,8.721-23.011a.322.322,0,0,1,.122-.129.839.839,0,0,1,.216-.1c.905-.269,1.81-.533,2.708-.8q.368-1,.722-1.99l-2.675.78c-.153.043-.25.018-.221-.06,3.065-8.083,5.842-15.41,8.369-22.085l2.517-.646q.488-1.355.97-2.676L54.675,159.51q-1.194,1.638-2.413,3.325L86,154.175q-2.069,3.817-4.289,7.9c-.271.5.378.674,1.452.385a4.429,4.429,0,0,0,2.4-1.426q2.105-4.03,4.067-7.794l20.2-5.186c-2.505,6.265-5.242,13.1-8.237,20.592C98.3,176.89,94.659,186,90.607,196.13c-.294.741.509,1,1.793.568m9.807-35.438q.613-1.48,1.214-2.924-3.036.833-6.119,1.675L95.957,163q3.149-.876,6.249-1.739M51.842,190.377q.222-.36.446-.716.682-.208,1.364-.411c.072-.12.149-.238.218-.357l-2.043.616c-.226.358-.446.717-.674,1.078.232-.069.46-.14.688-.209" transform="translate(-0.216 -15.534)" fill="#937b69"/>
            <path id="Trazado_206166" data-name="Trazado 206166" d="M183.746,234.279V110.642q-18.849-4.028-35.89-7.666c-1.555,4.286-3.252,8.959-5.108,14.077-2.044,5.626-4.3,11.845-6.807,18.75-2.8,7.714-5.947,16.388-9.514,26.213-1.965,5.419-4.076,11.221-6.335,17.452-2.436,6.707-5.064,13.947-7.91,21.789q15.7,7.245,33.017,15.236,18.251,8.424,38.546,17.786" transform="translate(-16.651 -15.284)" fill="#ffffe1"/>
            <path id="Trazado_206167" data-name="Trazado 206167" d="M153.574,110.008c-.1-.023-.2-.046-.3-.067-.058.2-.115.394-.175.592.1.023.2.046.3.067.058-.2.113-.4.172-.592m-1.357-4.47q-2.077-.45-4.128-.9-.921,2.538-1.907,5.253,2.152.492,4.328.993c.2-.62.393-1.231.585-1.837l-2.877-.647c.208-.6.415-1.19.619-1.777q1.41.313,2.832.626c.183-.578.367-1.149.547-1.714m3.3,34.512q.5-2.353.982-4.6-9.128-2.542-17.795-4.955c-.261.716-.523,1.44-.789,2.173q6.548,1.859,13.351,3.79-.272,1.09-.554,2.2l4.805,1.389m-.944-33.465c-.1-.02-.192-.043-.29-.063-.054.184-.107.369-.163.555l.29.063c.054-.186.107-.371.163-.555m-.617,1.053c-.058.187-.112.376-.169.565.1.022.193.045.292.066.057-.19.112-.379.168-.568-.1-.02-.2-.043-.291-.063m-.043,1.2c-.1-.02-.2-.043-.3-.066-.057.192-.113.385-.172.579l.3.067c.055-.2.111-.387.169-.581m-13.329,57.576q1.991-7.338,3.749-13.839-5.376-1.737-10.586-3.422-.795,2.267-1.621,4.628l5.624,1.883q-1.307,4.223-2.711,8.775,2.751.978,5.545,1.976m1.7,28.007q-1.945,8.772-4.15,18.694,3.717,1.708,7.508,3.463c1.3-7.084,2.508-13.711,3.646-19.922q1.6-8.754,3.021-16.5c1.743-9.515,3.306-18.053,4.715-25.755.005-.032.032-.055.078-.063a.3.3,0,0,1,.158.014l18.4,5.914c.123.038.226.128.221.2-.46,8.345-.972,17.632-1.546,28.032q-.469,8.52-1,18.162c-.38,6.877-.785,14.239-1.221,22.138q4.292,1.984,8.689,4.01.123-7.607.236-14.565c1.148.5,2.3,1.006,3.461,1.509v-3.332c-1.138-.492-2.28-.975-3.409-1.461.123-7.535.237-14.549.342-21.1,1.018.4,2.037.792,3.067,1.186v-2.618c-1.012-.387-2.021-.768-3.024-1.151.1-6.486.2-12.535.294-18.193.086-5.3.167-10.282.242-14.966q1.238.388,2.488.777v-1.724l-2.461-.76q.055-3.29.1-6.4c0-.029.023-.05.066-.06a.332.332,0,0,1,.156.013q1.063.317,2.136.633V147.76l-2.1-.608c-.119-.034-.212-.108-.211-.167.157-9.714.294-18.188.414-25.646,0-.016.014-.028.037-.035.621-.186,1.239-.374,1.856-.558v-2.962q-1.7.5-3.419,1a.282.282,0,0,1-.144-.006.328.328,0,0,1-.136-.065c-3.307-2.991-5.148-5.033-6.07-6.7l-.005-.018c0-.022.03-.034.077-.035a.407.407,0,0,1,.186.045c.343.192.706.382,1.08.566a41.688,41.688,0,0,0,8.431,3.034v-1.661c-4.771-1.22-8.793-3.294-10.212-5.257l-4.385-.938c-.111,2.816.668,5.18,8.2,12.033a.057.057,0,0,1,.025.043c-.21,3.785-.433,7.829-.671,12.156-.257,4.641-.531,9.632-.828,15.016,0,.028-.028.049-.066.057a.33.33,0,0,1-.152-.013L136.9,135.47q-.425,1.17-.862,2.371l40.214,12.022c.118.034.21.113.207.174q-.187,3.37-.383,6.953c0,.032-.029.055-.072.066a.351.351,0,0,1-.161-.014l-41.99-13.182q-.482,1.322-.97,2.677,9,2.882,18.5,5.929c.114.036.2.117.183.181-1.6,7.213-3.37,15.162-5.324,23.969L124.9,168.546q-.356.987-.723,1.99,10.445,4,21.582,8.269-1.634,7.369-3.47,15.619m-9.441,7.895q.614-2.352,1.209-4.631-3.016-1.3-5.975-2.576-.662,2.217-1.333,4.507,3.024,1.335,6.1,2.7m20.7-53.03q.574-2.682,1.118-5.235l-4.937-1.471c-.2.8-.4,1.6-.607,2.415L135,140.712q-.459,1.256-.923,2.543l19.471,6.034m1.191-43.253c.051-.181.1-.364.158-.543-.1-.02-.19-.042-.287-.061-.052.18-.106.36-.158.542.1.021.191.04.287.062m-17.416,82.92q1.4-5.5,2.705-10.589-6.119-2.35-12.029-4.61-1.607,4.821-3.342,10.021l12.666,5.178m-14.389,3.863q.7-2.133,1.374-4.2l-5.574-2.343q-.729,2.019-1.478,4.1,2.817,1.212,5.678,2.448m17.654-26.4q-2.8-.994-5.545-1.976l-2.691-.959q-.654,1.994-1.329,4.055,4.162,1.524,8.425,3.087.58-2.14,1.14-4.208m14.466-61.463c.035-.116.067-.232.1-.347l-.283-.061c-.037.115-.067.232-.1.348.094.02.189.039.283.06m5.289,7.239q-.294,1.311-.6,2.663l-4.026-.939c-.29,1.1-.581,2.215-.882,3.357q2.06.5,4.143,1c-.91,4.069-1.891,8.441-2.945,13.147l9.647,2.608c1.966.531,3.657.215,3.765-.7.742-6.356,1.414-12.116,2.026-17.359.038-.324-.25-.709-.8-1.066a6.606,6.606,0,0,0-2.1-.839l-8.237-1.873m-7.418-1.062c-.059.2-.119.4-.178.605.1.024.2.046.3.069.06-.2.118-.4.176-.605l-.3-.069M148.6,129.455q.585-2.037,1.145-3.987l-8.414-2.2q-.682,1.88-1.394,3.841l8.663,2.342M166.9,163.667c-.837,7.58-1.758,15.919-2.776,25.135q-.826,7.47-1.745,15.794-.976,8.827-2.072,18.754,3.058,1.417,6.177,2.85c.6-7.4,1.163-14.324,1.69-20.815q.742-9.146,1.4-17.244c.807-9.943,1.532-18.864,2.185-26.915q-2.407,1.207-4.859,2.441m-6.783-6.2C158.9,165.13,157.554,173.6,156.056,183q-1.221,7.662-2.586,16.252-1.459,9.14-3.106,19.5,2.934,1.353,5.918,2.732,1.272-9.778,2.4-18.451,1.067-8.207,2.022-15.56c1.18-9.087,2.249-17.316,3.222-24.8q-1.942-2.665-3.8-5.211m-7.992-42.523-.311-.073-.192.649c.1.024.208.049.313.075.063-.218.128-.434.19-.651m-.383,1.307-.313-.074c-.066.22-.132.442-.2.664l.317.075c.066-.221.128-.443.193-.665m-3.118.288c.352-1.094.692-2.169,1.03-3.222l-4.346-1.022q-.562,1.552-1.147,3.164l4.463,1.081m2.63,1.386c.032-.112.066-.223.1-.336l-.318-.077c-.032.111-.065.223-.1.335.106.026.213.053.319.077m1.43-4.887c.06-.206.12-.413.181-.619l-.3-.071c-.061.205-.121.413-.183.619l.306.071m-.37,1.265.186-.635c-.1-.024-.205-.047-.308-.072-.062.211-.123.422-.187.634l.31.073m3.136,7.9q.323-1.311.636-2.584-6.277-1.539-12.337-3.024c-.294.8-.588,1.621-.889,2.448l12.59,3.159" transform="translate(-17.403 -15.517)" fill="#937b69"/>
            <path id="Trazado_206168" data-name="Trazado 206168" d="M218.922,112.9a.34.34,0,0,1,.107-.043q7.87-1.777,15.4-3.483-1.207-3.331-2.32-6.394l-22.941,4.9q-1.442,1.079-2.926,2.187a20.13,20.13,0,0,1-2.611,1.391q-.083-1.2-.162-2.361-1.088.235-2.183.466.065,1.365.134,2.778-.907.319-1.88.6c-1.114.319-2.229.578-3.319.781v1.661c1.367-.27,2.746-.605,4.111-1a.153.153,0,0,1,.1,0c.02.007.019.024-.005.041l-4.2,3.14v2.962l4.624-3.545q8.008-1.814,15.682-3.548c.086-.019.161-.008.167.026q.277,1.479.564,3.014c.049.254.6.342,1.219.2l.058-.014a1.108,1.108,0,0,0,.133-.026l3.746-.876c.612-.143,1.061-.462,1-.71s-.6-.333-1.2-.193l-2.642.612c-.089.02-.166.008-.172-.027-.175-.835-.344-1.658-.514-2.468,0-.017.01-.037.037-.055m-12.055,25c-.542-6.813-1.032-12.968-1.477-18.553L199.6,120.71c.165,5.721.348,12.031.552,19.029q3.384-.929,6.71-1.839m38.046,73.909q1.958-.909,3.9-1.8c-2.206-8.637-4.234-16.577-6.106-23.9a.18.18,0,0,1,.043-.151.408.408,0,0,1,.161-.122q8.634-3.432,16.84-6.7-.4-1.111-.8-2.206-9.043,3.549-18.6,7.293a2.16,2.16,0,0,0-1.476,1.643l-.029.012c.01.063.019.125.029.187q1.226,5.227,2.547,10.867a.222.222,0,0,1-.046.171.39.39,0,0,1-.174.136q-21.114,8.889-44.986,18.947v3.332Q220.5,209.131,241.852,200c.145-.063.287-.024.311.084q1.325,5.64,2.751,11.729m-31.908-78.023q.178,1.385.364,2.808l28.134-7.738q-.461-1.265-.907-2.493l-27.591,7.424m20.72-18.993c.143.421.284.846.43,1.273q1.249-.3,2.487-.6-.754-2.076-1.47-4.049-1.213.284-2.435.568c.135.4.273.8.41,1.209l1.275-.3.56,1.6-1.258.3m-7.209,6.383,5.494-1.373q-1.362-4.408-2.594-8.391l-5.121,1.181q1.053,4.076,2.221,8.583m-14.393,3.536q.078.6.157,1.2l4.538-1.145c-.067-.4-.134-.79-.2-1.18q-2.233.556-4.492,1.122m51.451,65.835c.225.618.45,1.245.677,1.873.094-.04.187-.081.279-.123-.227-.628-.456-1.25-.679-1.869-.093.038-.184.079-.277.119m1.368,3.784c.233.646.47,1.3.705,1.951.095-.042.187-.085.283-.126-.24-.654-.474-1.3-.707-1.948-.095.04-.187.083-.281.123m-4.913-13.6c.119.324.235.652.356.979.086-.036.173-.073.263-.106-.117-.328-.236-.657-.355-.98-.088.035-.176.07-.264.107m-54.036,6.234q17.749-6.633,33.856-12.658c-2.358-9.2-4.476-17.456-6.384-24.906q-13.914,4.379-28.993,9.127c.452,8.443.955,17.862,1.521,28.437m60.373,11.306q.364,1.009.732,2.032c.1-.045.192-.088.289-.131q-.37-1.024-.736-2.029l-.285.129m-4.105-11.363q.323.894.651,1.8c.091-.041.181-.08.273-.118q-.327-.907-.653-1.8c-.09.038-.181.075-.271.114m-1.264-3.5q.31.86.626,1.731c.09-.037.178-.076.269-.112-.211-.581-.419-1.158-.628-1.73-.092.033-.178.073-.267.111m-11.124,5.956q2.422,8.355,5.148,17.774,3.913-1.8,7.723-3.563-3.039-9.114-5.73-17.183-3.537,1.466-7.14,2.972m-.611-19.69c.148.46.294.921.445,1.386.15-.057.3-.114.447-.168-.152-.463-.3-.925-.446-1.382-.149.054-.3.111-.445.163m-3.3-10.3c.13.4.259.811.391,1.218.141-.05.281-.1.422-.147-.13-.408-.263-.812-.393-1.214-.14.047-.279.1-.42.144m-1.5-4.685c.123.379.243.761.366,1.145.136-.048.273-.093.411-.14-.124-.382-.246-.763-.37-1.142-.136.045-.272.093-.408.137m-2.926,22.956a8.909,8.909,0,0,0,3.29-2.149v0c.789-.3,1.582-.6,2.367-.9-.029-.1-.059-.2-.09-.3l-1.859.708a3.533,3.533,0,0,0,.819-3.057h0c-1.971-6.622-3.792-12.742-5.482-18.414-1.569-5.273-3.03-10.187-4.4-14.775l8.061-2.341q-.427-1.178-.845-2.329l-31.574,8.992q-.607-5.406-1.155-10.28c0-.024.014-.05.048-.077a.392.392,0,0,1,.13-.06l29.243-7.689q-.194-.531-.384-1.057-13.914,3.625-29,7.552c-.1.027-.189.01-.193-.036-.473-4.211-.917-8.154-1.332-11.851-.03-.267-.582-.359-1.233-.205s-1.164.5-1.139.769c.635,6.965,1.351,14.819,2.166,23.746l-12.764,3.634v2.842q19.646-5.707,37.35-10.848.74,2.682,1.523,5.508a.092.092,0,0,1-.036.091.316.316,0,0,1-.13.072l-38.707,11.747v1.724l1.819-.558c.127-.039.228-.016.231.053.061,4.657.128,9.606.2,14.874.075,5.618.154,11.621.24,18.053a.244.244,0,0,1-.079.158.508.508,0,0,1-.2.128l-2.207.826v2.618q24.108-9.129,45.318-17.164m-.548-2.176-38.126,14.24c-.154.058-.278.022-.281-.074-.216-6.335-.42-12.25-.611-17.789-.177-5.2-.345-10.077-.5-14.676a.153.153,0,0,1,.066-.107.426.426,0,0,1,.159-.084q17.611-5.406,33.637-10.325c.108-.034.209-.014.224.044,2.172,7.844,4.593,16.6,7.316,26.44a1.485,1.485,0,0,1-.38,1.289,3.553,3.553,0,0,1-1.5,1.041m5.761-13.643q.2.625.4,1.258l.429-.152c-.135-.421-.272-.84-.405-1.254-.141.049-.282.1-.425.149m.811,2.533c.135.431.275.863.416,1.3.145-.052.289-.106.435-.157q-.213-.651-.419-1.3c-.145.05-.289.1-.432.154m1.883,9.047c.031.1.063.2.094.3.451-.175.908-.343,1.36-.516-.1-.3-.2-.594-.288-.89-.151.056-.3.112-.45.17.062.2.126.4.189.594-.3.114-.6.228-.905.343m-1.045-6.43c.144.444.285.89.429,1.34q.22-.083.442-.163c-.146-.448-.291-.893-.433-1.336-.146.053-.29.107-.439.16M245.2,157q.189.588.378,1.179l.417-.143c-.129-.4-.256-.786-.382-1.178-.138.049-.276.1-.414.141m-3.972-12.4c.053.172.109.343.164.516l.385-.12c-.055-.172-.108-.343-.165-.515-.129.039-.257.079-.384.119m.486,1.52c.11.337.217.677.326,1.017l.39-.123c-.11-.341-.218-.68-.328-1.016l-.388.122m-6.7,48.2q-.724-3.537-1.411-6.9-6.418,2.553-13.089,5.2.174,1.34.349,2.705l-12.649,5.1q.236,3.867.484,7.94,7.4-3.109,14.506-6.092-.2-1.468-.4-2.9,6.212-2.568,12.207-5.047m7.359-46.154c.11.348.224.7.336,1.047l.4-.127-.338-1.046c-.13.043-.261.083-.393.125m.675,2.111c.114.358.232.715.345,1.077l.4-.131c-.115-.359-.231-.719-.347-1.076-.133.043-.267.085-.4.129m.7,2.172c.119.369.237.739.356,1.111.135-.044.271-.09.406-.134-.118-.373-.242-.742-.359-1.11l-.4.132" transform="translate(-29.123 -15.284)" fill="#937b69"/>
            <path id="Trazado_206169" data-name="Trazado 206169" d="M369.572,234.279,348.4,205.121c-5.913-8.145-11.362-15.655-16.406-22.6q-7.017-9.668-13.093-18.032l-10.686-14.724c-6.1-8.4-11.53-15.884-16.4-22.593-4.391-6.051-8.372-11.535-12-16.527q-21.771-4.029-41.455-7.666c1.555,4.286,3.252,8.959,5.109,14.077,2.044,5.626,4.3,11.845,6.8,18.75,2.8,7.714,5.947,16.388,9.515,26.213,1.966,5.419,4.075,11.221,6.335,17.452,2.436,6.707,5.063,13.947,7.909,21.789Q295,208.5,318.113,216.493q24.366,8.424,51.458,17.786" transform="translate(-35.379 -15.284)" fill="#ffffe1"/>
            <path id="Trazado_206170" data-name="Trazado 206170" d="M308.876,194.211c-.065-.127-.135-.252-.209-.376-1.208-.382-2.414-.755-3.613-1.133.069.123.135.247.2.37q1.8.567,3.619,1.139m7.372,2.316c-.074-.13-.152-.257-.227-.386l-3.7-1.16c.074.126.146.254.219.381l3.707,1.165M251.523,129.72c-.333-.854-.664-1.7-.986-2.528l-3.684-.829q.446,1.229.906,2.493l3.764.863M328.079,181.8q4.572,6.476,9.622,13.612,2.327.7,4.68,1.413-5.274-7.259-10.036-13.826l-1.167-.333q-2.734-3.786-5.31-7.366-3.151-.866-6.259-1.724-3.831-5.541-7.34-10.619l6.129,1.6q-1.457-2.016-2.869-3.967l-28.373-7.257q1,1.773,2.044,3.6,6.857,1.787,13.93,3.636,3.178,4.936,6.631,10.308,3.011.832,6.062,1.669,2.33,3.466,4.794,7.129l7.461,2.122M274.7,113.168q-1.34-2.026-2.622-3.958-2.7-.494-5.356-.99,1.17,1.892,2.395,3.881,2.773.531,5.583,1.066m4.993,2.125c.743.145,1.209.058,1.033-.191q-1.792-2.543-3.48-4.937l-2.551-.471q1.62,2.372,3.345,4.891a3.281,3.281,0,0,0,1.653.707M250.5,136.419l50.723,12.38c2.021.493,4.631,1.1,7.558,1.743q-1.047-1.447-2.074-2.856c-2.981-.646-5.55-1.227-7.345-1.659L262.621,137.2,258.1,127.191a.617.617,0,0,0-.087-.123,2.987,2.987,0,0,0-1.648-.831q-5.265-1.173-10.4-2.318c.128.351.255.7.384,1.057l8.884,2a.39.39,0,0,1,.238.124q1.92,4.453,4.032,9.358-4.983-1.194-9.846-2.364.418,1.15.845,2.329m46.4,1.2,2.995.674q-2.613-3.606-5.052-6.96l-2.817-.607q2.354,3.325,4.874,6.893m-33.269-8.574c-.066-.135-.135-.271-.2-.406-.14-.03-.279-.061-.417-.093.063.135.132.27.2.4l.42.095m30.75,6.8q-2.118-3.036-4.11-5.892c-.014-.023-.007-.037.025-.044a.386.386,0,0,1,.141.009l4.011.867q-.42-.585-.842-1.159-3.64-.782-7.221-1.548a.543.543,0,0,1-.268-.127l-7-10.367a3.3,3.3,0,0,0-1.679-.737c-.751-.147-1.224-.06-1.057.2l.484.739c.013.018,0,.031-.026.037a.472.472,0,0,1-.127-.009q-2.822-.565-5.609-1.122c-.743-.148-1.225-.062-1.075.192a.27.27,0,0,0,.03.087q1.192,1.989,2.441,4.074a3.2,3.2,0,0,0,1.71.793c.091.019,1.821.366,5.928,1.221a.484.484,0,0,1,.253.116q1.349,2.062,2.762,4.22c.033.052-.106.058-.208.05q-9.16-.719-18.178-1.424c-.382-.032-.951.032-.8.325q.756,1.509,1.542,3.067a1.539,1.539,0,0,0,.65.508,4.981,4.981,0,0,0,1.139.407l25.884,5.845c.79.178,1.322.112,1.259-.155a.275.275,0,0,0-.053-.17M279.464,122.04l-4.271-.881a.481.481,0,0,1-.246-.114q-.97-1.567-1.908-3.08c-.013-.018,0-.032.028-.036a.339.339,0,0,1,.126.009l4.139.833a.481.481,0,0,1,.241.108q1.008,1.537,2.048,3.131c.013.02,0,.034-.026.039a.354.354,0,0,1-.131-.009m11.049,12.477q-11.346-2.545-22.118-4.955a.455.455,0,0,1-.255-.129c-.359-.69-.719-1.373-1.072-2.047-.016-.032.021-.049.094-.045l17.81,1.409c.022,0,.046.007.072.011l.238.052.118.029.075.013,1.426.308a.535.535,0,0,1,.272.129q1.709,2.524,3.511,5.188c.014.025.007.04-.025.049a.445.445,0,0,1-.146-.01m-26.86-4.472q.637,1.3,1.288,2.647l32.4,7.423c-.7-1-1.382-1.988-2.063-2.958q-16.4-3.689-31.62-7.112M268,118.12q-1.207-2.105-2.359-4.105-1.617-.314-3.22-.63,1.082,1.981,2.224,4.057,1.67.34,3.354.679m-5.513,8.582c-.1-.211-.206-.422-.312-.634l-.408-.089c.1.21.206.422.309.634.135.029.272.06.41.089m-.618-1.26c-.063-.128-.126-.255-.187-.382l-.4-.088c.062.127.122.254.185.382.135.031.272.059.406.089m1.247,2.549c-.1-.217-.209-.432-.316-.646l-.413-.092c.1.215.21.431.315.647l.414.091M332.8,200.256c5.6,8.431,11.7,17.616,18.38,27.665,2.039.707,4.1,1.412,6.16,2.13-7.011-10.231-13.412-19.574-19.286-28.141-.04-.055-.035-.095.01-.112a.435.435,0,0,1,.226.026l10,3.141c-.705-.978-1.412-1.944-2.106-2.9l-9.831-3.05a1.146,1.146,0,0,1-.5-.311q-4.812-7.017-9.179-13.393a3.692,3.692,0,0,0-1.017-.886q-5.227-3.371-10.193-6.581a.691.691,0,0,1-.093-.072q-9.617-9.17-17.965-17.139a4.579,4.579,0,0,0-1.243-.778,5.958,5.958,0,0,0-1.52-.467c-.769-.112-1.145.082-.914.476a1.385,1.385,0,0,0,.212.257l17.809,17.3a4.1,4.1,0,0,0,.64.5q4.753,3.105,9.734,6.362a.42.42,0,0,1,.141.126q4.031,6.061,8.435,12.7c.035.052.028.087-.018.1a.4.4,0,0,1-.218-.022L270.71,178.637a.611.611,0,0,1-.359-.25q-3.492-8.966-6.535-16.779-2.861-7.347-5.387-13.834a3.209,3.209,0,0,0-1.953-1.177c-.913-.235-1.532-.095-1.381.314q2.366,6.416,5.031,13.654,2.848,7.724,6.094,16.54a.059.059,0,0,1-.046.083.351.351,0,0,1-.191-.02c-.261-.078-.518-.161-.777-.24q.4,1.095.8,2.206l66.288,20.8a1.124,1.124,0,0,1,.5.315m-73.278-88.847q3.671.738,7.413,1.492a2.7,2.7,0,0,0,.863.057c.2-.032.275-.118.2-.232q-1.491-2.477-2.9-4.8-13.8-2.556-26.736-4.945,1.114,3.064,2.32,6.394,7.133,1.408,14.522,2.872a2.251,2.251,0,0,0,.9.036l3.282-.875a.336.336,0,0,1,.133.007m87.044,96.123q8.152,11.505,17.626,24.886c1.788.615,3.577,1.239,5.384,1.861-6.6-9.088-12.7-17.485-18.345-25.271q-2.344-.741-4.665-1.476m-85.345-89.094-1.587-.325c-.393-.779-.776-1.551-1.158-2.309l2.494.5c-.165-.318-.326-.635-.5-.95q-3.974-.8-7.876-1.575.8,1.738,1.624,3.553l4.246.873q.266.542.534,1.087l2.977.617c-.257-.5-.508-.985-.758-1.473m25.555,7.184q.807,1.159,1.63,2.349l4.725,1q-4.02-5.54-7.594-10.459l-4.276-.841c.471.674.942,1.358,1.421,2.05l2.531.507q2.046,2.878,4.24,5.951-1.341-.281-2.677-.557m-17.947.169c-.375-.683-.739-1.359-1.106-2.028l-7.908-1.678c.319.649.635,1.306.958,1.971q3.989.861,8.056,1.736M244.1,111.947c-.089-.23-.177-.459-.266-.686-.657-.132-1.315-.261-1.971-.39.083.225.169.452.251.681-.229-.048-.459-.091-.688-.138q.715,1.975,1.47,4.049l.715.147c.093.252.186.5.28.759q1.037.213,2.081.432l-.295-.763q1.873.384,3.763.777c-.181-.433-.363-.864-.539-1.291l-1.575-.322q-.331-.819-.655-1.621l1.514.306q-.258-.617-.51-1.225l-3.577-.714m78.549,87.227c-.245-.4-.485-.791-.728-1.183-.72-.226-1.437-.452-2.155-.675.077.13.154.259.235.387.48.15.957.3,1.438.453q.243.391.484.789l.726.229m1.265,2.051c-.247-.077-.489-.155-.735-.233.422.693.851,1.388,1.282,2.09.249.078.494.16.743.239q-.653-1.055-1.29-2.1m-55.5-16.108q-.315-.871-.63-1.731l-.262-.083q.314.858.628,1.73c.089.027.178.055.264.084m5.522,15.156q-.373-1.022-.74-2.032c-.1-.032-.193-.062-.286-.1q.364,1.008.736,2.03c.1.032.193.065.29.1m-5.805-18.863c-.042-.11-.083-.218-.122-.325q-.731-.231-1.458-.458c.119.324.238.652.355.98.087.026.173.054.261.082-.082-.22-.157-.438-.238-.657.4.126.8.253,1.2.378m33.978,27.514c.394.81.789,1.626,1.192,2.447q5.946,2.053,12.046,4.164c-.457-.854-.905-1.7-1.357-2.543q-6.016-2.062-11.881-4.068m34.5,12.91q-.774-1.258-1.54-2.5-.406-.142-.817-.278.758,1.238,1.529,2.494c.273.1.552.19.828.284m-55.522-36.353q-.075-.171-.148-.342-1.652-.517-3.29-1.033c.047.113.095.225.141.34q1.64.517,3.3,1.036m20.6,6.469c-.067-.122-.128-.244-.194-.366l-3.528-1.107c.06.122.124.241.185.364q1.76.552,3.537,1.11m-7.026-2.206c-.059-.12-.12-.238-.177-.358q-1.728-.543-3.445-1.08c.055.117.114.235.17.353,1.144.362,2.3.72,3.451,1.085m-6.862-2.155c-.054-.116-.11-.232-.163-.349-1.128-.354-2.249-.708-3.37-1.058.052.115.1.232.156.346l3.376,1.061m-13.262-4.166c-.045-.111-.092-.223-.135-.334l-3.214-1.008c.041.111.086.221.128.33,1.07.338,2.146.67,3.221,1.013m-2.063,12.83c-.236-.655-.478-1.3-.711-1.95-.095-.03-.187-.063-.279-.094q.35.966.707,1.948c.1.031.189.062.284.1m10.964-17.325q-4.113-8.882-7.705-16.637-3.377-7.3-6.365-13.746l-8.16-2.083q2.589,6.274,5.5,13.333,3.1,7.524,6.635,16.087l10.095,3.046m48.66,35.575-.794-.265q.724,1.18,1.46,2.383c.267.091.539.18.806.271-.495-.8-.983-1.6-1.471-2.389m-31.082-64.644q1.492,2.2,3.042,4.5,4.537,1.133,9.165,2.293-1.716-2.366-3.365-4.637l-8.842-2.157m-44.192-10.529c.5,1.252,1.011,2.527,1.535,3.827q9.057,2.269,18.512,4.64-1.077-2.082-2.114-4.085l-17.932-4.382m14.243,53.061q-.346-.941-.682-1.873c-.09-.03-.182-.06-.274-.088.223.619.452,1.242.679,1.869.09.032.185.062.278.092m6.124-48.192q1.073,2.017,2.192,4.112l19.95,5q-1.456-2.244-2.858-4.4L277.187,144.2m53.466,67.967q-.706-1.15-1.407-2.283c-.259-.084-.515-.17-.774-.255q.695,1.133,1.4,2.281c.262.084.524.171.783.258m-46.412-7.381,11.287,3.9q-.543-1.2-1.084-2.382l-11.138-3.812q.462,1.136.935,2.292m-14.53-16.1c-.216-.6-.437-1.205-.656-1.8q-.135-.042-.268-.087.326.893.653,1.8c.09.029.181.058.271.089m58.158,18.965q-.676-1.1-1.346-2.187c-.253-.08-.5-.162-.753-.244.442.722.89,1.45,1.335,2.183q.383.123.764.249" transform="translate(-35.379 -15.284)" fill="#937b69"/>
            <path id="Trazado_206171" data-name="Trazado 206171" d="M0,234.279l95.533-33.022L167.1,234.279l71.562-33.022,95.535,33.022L244.44,110.642q-21.771-4.029-41.455-7.666-17.063,3.643-35.89,7.666-18.849-4.028-35.889-7.666-19.711,3.642-41.454,7.666Zm10.555-8.638,83.23-114.066q20.378-3.752,38.847-7.147c10.821,2.3,34.463,7.324,34.463,7.324l34.464-7.324q18.492,3.4,38.847,7.147l83.231,114.066-87.956-30.248L167.1,226.88,98.509,195.393Z" transform="translate(0 -15.284)" fill="#f8e5bd"/>
          </g>
        </g>
        <g id="Grupo_152563" data-name="Grupo 152563" transform="translate(92.255)">
          <g id="Grupo_152562" data-name="Grupo 152562" clip-path="url(#clip-path-5)">
            <rect id="Rectángulo_43631" data-name="Rectángulo 43631" width="90.73" height="134.961" fill="url(#radial-gradient)"/>
          </g>
        </g>
        <g id="Grupo_152565" data-name="Grupo 152565">
          <g id="Grupo_152564" data-name="Grupo 152564" clip-path="url(#clip-path)">
            <path id="Trazado_206173" data-name="Trazado 206173" d="M199.064,45.366a45.365,45.365,0,1,0-84.774,22.457c13.269,23.266,32.141,56.33,37.766,66.184a1.89,1.89,0,0,0,3.285,0c5.626-9.855,24.5-42.918,37.781-66.182a45.245,45.245,0,0,0,5.941-22.457" transform="translate(-16.079 0)" fill="#ff8300"/>
            <path id="Trazado_206174" data-name="Trazado 206174" d="M153.77,139.856c-.206-.228-25.563-43.643-39.759-66.909a43.468,43.468,0,0,1-5.2-12.556,45.066,45.066,0,0,0,5.555,16.4c12.086,21.2,37.261,65.3,37.762,66.183a1.887,1.887,0,0,0,1.638.951h.01a1.887,1.887,0,0,0,1.638-.951c.5-.881,25.676-44.987,37.762-66.183-6.634,10.45-39.2,62.839-39.405,63.067" transform="translate(-16.15 -8.963)" fill="#ff5f00"/>
            <path id="Trazado_206175" data-name="Trazado 206175" d="M181.618,20.178a37.552,37.552,0,1,1-53.105,0,37.591,37.591,0,0,1,53.105,0" transform="translate(-17.444 -1.365)" fill="#ff5f00"/>
            <path id="Trazado_206176" data-name="Trazado 206176" d="M180.361,22.252a35.2,35.2,0,1,1-49.776,0,35.233,35.233,0,0,1,49.776,0" transform="translate(-17.854 -1.775)" fill="#ff8300"/>
            <path id="Trazado_206177" data-name="Trazado 206177" d="M200.06,45.034a43.288,43.288,0,0,0-75.065-29.4A43.287,43.287,0,0,1,186.167,76.8,43.182,43.182,0,0,0,200.06,45.034" transform="translate(-18.552 -0.258)" fill="#ffb566"/>
            <path id="Trazado_206178" data-name="Trazado 206178" d="M155.644,81.516a34.2,34.2,0,1,1,34.2-34.2,34.244,34.244,0,0,1-34.2,34.2" transform="translate(-18.025 -1.946)" fill="#fff"/>
          </g>
        </g>
      </g>
    </g>
    <g id="Grupo_152554" data-name="Grupo 152554" transform="translate(-6302 -1688.33)">
      <g id="Grupo_152551" data-name="Grupo 152551" clip-path="url(#clip-path-7)">
        <rect id="Rectángulo_43579" data-name="Rectángulo 43579" width="105.955" height="2.66" transform="translate(42.023 39.406)" fill="#34b1e7"/>
        <rect id="Rectángulo_43580" data-name="Rectángulo 43580" width="105.955" height="2.659" transform="translate(42.023 53.903)" fill="#34b1e7"/>
        <rect id="Rectángulo_43581" data-name="Rectángulo 43581" width="102.793" height="11.838" transform="translate(43.604 42.066)" fill="#cfd1d6"/>
        <rect id="Rectángulo_43582" data-name="Rectángulo 43582" width="101.463" height="50.237" transform="translate(44.269 56.563)" fill="#e8eaed"/>
        <rect id="Rectángulo_43583" data-name="Rectángulo 43583" width="20.587" height="50.237" transform="translate(49.467 56.563)" fill="#324752"/>
        <rect id="Rectángulo_43584" data-name="Rectángulo 43584" width="20.587" height="50.237" transform="translate(72.96 56.563)" fill="#324752"/>
        <rect id="Rectángulo_43585" data-name="Rectángulo 43585" width="20.587" height="50.237" transform="translate(96.453 56.563)" fill="#324752"/>
        <rect id="Rectángulo_43586" data-name="Rectángulo 43586" width="20.588" height="50.237" transform="translate(119.946 56.563)" fill="#324752"/>
        <g id="Grupo_152550" data-name="Grupo 152550">
          <g id="Grupo_152549" data-name="Grupo 152549" clip-path="url(#clip-path-7)">
            <g id="Grupo_152548" data-name="Grupo 152548" transform="translate(56.373 60.841)" style="mix-blend-mode: soft-light;isolation: isolate">
              <g id="Grupo_152547" data-name="Grupo 152547">
                <g id="Grupo_152546" data-name="Grupo 152546" clip-path="url(#clip-path-9)">
                  <line id="Línea_141" data-name="Línea 141" y1="21.353" x2="26.483" transform="translate(0.397 4.093)" fill="none" stroke="#fff" stroke-miterlimit="10" stroke-width="2.056"/>
                  <line id="Línea_142" data-name="Línea 142" y1="21.354" x2="26.485" transform="translate(12.143 0.928)" fill="none" stroke="#fff" stroke-miterlimit="10" stroke-width="2.056"/>
                  <line id="Línea_143" data-name="Línea 143" y1="21.353" x2="26.485" transform="translate(26.838 18.744)" fill="none" stroke="#fff" stroke-miterlimit="10" stroke-width="2.056"/>
                  <line id="Línea_144" data-name="Línea 144" y1="21.353" x2="26.484" transform="translate(42.892 11.605)" fill="none" stroke="#fff" stroke-miterlimit="10" stroke-width="2.056"/>
                  <line id="Línea_145" data-name="Línea 145" y1="14.277" x2="17.708" transform="translate(56.994 22.282)" fill="none" stroke="#fff" stroke-miterlimit="10" stroke-width="2.056"/>
                  <line id="Línea_146" data-name="Línea 146" y1="14.278" x2="17.708" transform="translate(41.519 0.492)" fill="none" stroke="#fff" stroke-miterlimit="10" stroke-width="2.056"/>
                  <line id="Línea_147" data-name="Línea 147" y1="13.054" x2="16.19" transform="translate(0.397 28.734)" fill="none" stroke="#fff" stroke-miterlimit="10" stroke-width="2.056"/>
                </g>
              </g>
            </g>
            <path id="Trazado_206142" data-name="Trazado 206142" d="M279.975,156.061a1.592,1.592,0,0,0,1.591-1.591V138.829h-.795V154.47a.8.8,0,0,1-1.591,0v-4.457c0-.077,0-.157.006-.237a1.632,1.632,0,0,0-.307-1.252,1.347,1.347,0,0,0-1.019-.351l-1.68.017.007.8,1.676-.017a.664.664,0,0,1,.443.108c.1.107.093.407.084.671,0,.089-.007.178-.007.264v4.457a1.593,1.593,0,0,0,1.591,1.591" transform="translate(-106.379 -53.474)" fill="#49494c"/>
            <path id="Trazado_206143" data-name="Trazado 206143" d="M272.61,124.423c1.374.269,1.622.333,2.309.49l2.467,1.742.513-.74-2.589-1.827-.069-.021c-.034-.01-.811-.1-2.582-.258Z" transform="translate(-105.004 -47.689)" fill="#333132"/>
            <path id="Trazado_206144" data-name="Trazado 206144" d="M278.583,130.742h0l.05,2.537a.628.628,0,0,0,.63.625l1.723,0a.618.618,0,0,0,.159-.024l.009.6,1.808,0-.087-5.869h-.008l0-.006-2.922-1.854-.617.882.66.517a.738.738,0,0,0-.126.134l-.8,1.093a1.855,1.855,0,0,0-.444.924.618.618,0,0,0-.041.219l0,.226Zm.5-.229a.126.126,0,0,1,.125-.125l1.773-.342a.125.125,0,0,1,.111.069l.017,1.151,0,2.009a.125.125,0,0,1-.125.125l-1.725,0a.125.125,0,0,1-.125-.125Z" transform="translate(-107.303 -48.82)" fill="#db352d"/>
            <path id="Trazado_206145" data-name="Trazado 206145" d="M282.583,139.267l.015.48,2.087,0-.014-.48Z" transform="translate(-108.846 -53.642)" fill="#333132"/>
            <path id="Trazado_206146" data-name="Trazado 206146" d="M244.96,148.195V116.652a1.591,1.591,0,0,1,1.59-1.591h17.074a1.591,1.591,0,0,1,1.591,1.591v31.543Z" transform="translate(-94.354 -44.319)" fill="#db352d"/>
            <rect id="Rectángulo_43588" data-name="Rectángulo 43588" width="23.859" height="2.883" transform="translate(148.804 103.875)" fill="#242018"/>
            <rect id="Rectángulo_43589" data-name="Rectángulo 43589" width="17.585" height="9.852" transform="translate(151.941 73.779)" fill="#fff"/>
            <rect id="Rectángulo_43590" data-name="Rectángulo 43590" width="17.585" height="0.751" transform="translate(151.941 73.778)" fill="#b6b8bf"/>
            <path id="Rectángulo_43591" data-name="Rectángulo 43591" d="M.277,0H2.191a.278.278,0,0,1,.278.278v2.75a.277.277,0,0,1-.277.277H.277A.277.277,0,0,1,0,3.028V.277A.277.277,0,0,1,.277,0Z" transform="translate(166.026 75.759)" fill="#242018"/>
            <path id="Rectángulo_43592" data-name="Rectángulo 43592" d="M.278,0H2.191a.278.278,0,0,1,.278.278v2.75a.277.277,0,0,1-.277.277H.278A.278.278,0,0,1,0,3.027V.278A.278.278,0,0,1,.278,0Z" transform="translate(162.838 75.759)" fill="#242018"/>
            <rect id="Rectángulo_43593" data-name="Rectángulo 43593" width="2.468" height="3.305" rx="0.277" transform="translate(159.651 75.759)" fill="#242018"/>
            <path id="Rectángulo_43594" data-name="Rectángulo 43594" d="M.277,0H2.191a.277.277,0,0,1,.277.277V3.028a.277.277,0,0,1-.277.277H.276A.276.276,0,0,1,0,3.029V.277A.277.277,0,0,1,.277,0Z" transform="translate(156.465 75.759)" fill="#242018"/>
            <path id="Rectángulo_43595" data-name="Rectángulo 43595" d="M.277,0H2.191a.277.277,0,0,1,.277.277V3.028a.277.277,0,0,1-.277.277H.275A.275.275,0,0,1,0,3.03V.277A.277.277,0,0,1,.277,0Z" transform="translate(153.278 75.759)" fill="#242018"/>
            <rect id="Rectángulo_43596" data-name="Rectángulo 43596" width="10.235" height="0.928" transform="translate(158.259 80.185)" fill="#9f9fa6"/>
            <rect id="Rectángulo_43597" data-name="Rectángulo 43597" width="7.76" height="0.928" transform="translate(160.734 81.687)" fill="#9f9fa6"/>
            <path id="Trazado_206147" data-name="Trazado 206147" d="M249.814,93.346a7.552,7.552,0,1,0,7.552-7.552,7.552,7.552,0,0,0-7.552,7.552" transform="translate(-96.224 -33.046)" fill="#db352d"/>
            <path id="Trazado_206148" data-name="Trazado 206148" d="M253.8,98.015a5.871,5.871,0,1,1,9.246,0Z" transform="translate(-97.277 -34.099)" fill="#fff"/>
            <rect id="Rectángulo_43598" data-name="Rectángulo 43598" width="9.515" height="3.126" transform="translate(156.385 66.609)" fill="#dee0e4"/>
            <rect id="Rectángulo_43599" data-name="Rectángulo 43599" width="13.036" height="0.878" transform="translate(154.625 69.869)" fill="#7a787d"/>
            <rect id="Rectángulo_43600" data-name="Rectángulo 43600" width="10.978" height="0.878" transform="translate(155.654 68.991)" fill="#9f9fa6"/>
            <rect id="Rectángulo_43601" data-name="Rectángulo 43601" width="10.978" height="1.354" transform="translate(155.654 65.463)" fill="#9f9fa6"/>
            <path id="Trazado_206149" data-name="Trazado 206149" d="M25.687,156.061A1.592,1.592,0,0,1,24.1,154.47V138.829h.8V154.47a.8.8,0,0,0,1.591,0v-4.457c0-.077,0-.157-.006-.237a1.632,1.632,0,0,1,.307-1.252,1.346,1.346,0,0,1,1.019-.351l1.68.017-.008.8-1.676-.017a.664.664,0,0,0-.443.108c-.1.107-.093.407-.084.671,0,.089.006.178.006.264v4.457a1.592,1.592,0,0,1-1.591,1.591" transform="translate(-9.281 -53.474)" fill="#49494c"/>
            <path id="Trazado_206150" data-name="Trazado 206150" d="M33.112,124.423c-1.374.269-1.623.333-2.309.49l-2.467,1.742-.513-.74,2.589-1.827.069-.021c.034-.01.811-.1,2.582-.258Z" transform="translate(-10.717 -47.689)" fill="#333132"/>
            <path id="Trazado_206151" data-name="Trazado 206151" d="M27.706,130.74l0-.226a.618.618,0,0,0-.041-.219,1.852,1.852,0,0,0-.443-.923l-.8-1.093a.694.694,0,0,0-.126-.133l.66-.518-.617-.881L23.419,128.6l0,.006h-.007l-.089,5.869,1.808.006.009-.6a.642.642,0,0,0,.159.023l1.724,0a.629.629,0,0,0,.628-.626l.05-2.537Zm-.553,2.538a.125.125,0,0,1-.125.125l-1.725,0a.126.126,0,0,1-.125-.126l0-2.008.017-1.152a.124.124,0,0,1,.111-.069l1.774.342a.125.125,0,0,1,.125.125Z" transform="translate(-8.985 -48.82)" fill="#db352d"/>
            <path id="Trazado_206152" data-name="Trazado 206152" d="M25.135,139.267l-.015.48-2.087,0,.015-.48Z" transform="translate(-8.872 -53.642)" fill="#333132"/>
            <path id="Trazado_206153" data-name="Trazado 206153" d="M51.385,148.195V116.652a1.591,1.591,0,0,0-1.591-1.591H32.721a1.591,1.591,0,0,0-1.591,1.591v31.543Z" transform="translate(-11.991 -44.319)" fill="#db352d"/>
            <rect id="Rectángulo_43602" data-name="Rectángulo 43602" width="23.86" height="2.883" transform="translate(17.337 103.875)" fill="#242018"/>
            <rect id="Rectángulo_43603" data-name="Rectángulo 43603" width="17.584" height="9.852" transform="translate(20.475 73.779)" fill="#fff"/>
            <rect id="Rectángulo_43604" data-name="Rectángulo 43604" width="17.584" height="0.751" transform="translate(20.475 73.778)" fill="#b6b8bf"/>
            <rect id="Rectángulo_43605" data-name="Rectángulo 43605" width="2.468" height="3.305" rx="0.277" transform="translate(21.507 75.759)" fill="#242018"/>
            <path id="Rectángulo_43606" data-name="Rectángulo 43606" d="M.277,0H2.19a.278.278,0,0,1,.278.278v2.75a.277.277,0,0,1-.277.277H.276A.276.276,0,0,1,0,3.029V.277A.277.277,0,0,1,.277,0Z" transform="translate(24.693 75.759)" fill="#242018"/>
            <path id="Rectángulo_43607" data-name="Rectángulo 43607" d="M.277,0H2.19a.278.278,0,0,1,.278.278v2.75a.277.277,0,0,1-.277.277H.276A.276.276,0,0,1,0,3.029V.277A.277.277,0,0,1,.277,0Z" transform="translate(27.88 75.759)" fill="#242018"/>
            <path id="Rectángulo_43608" data-name="Rectángulo 43608" d="M.277,0H2.191a.277.277,0,0,1,.277.277V3.028a.277.277,0,0,1-.277.277H.276A.276.276,0,0,1,0,3.029V.277A.277.277,0,0,1,.277,0Z" transform="translate(31.068 75.759)" fill="#242018"/>
            <rect id="Rectángulo_43609" data-name="Rectángulo 43609" width="2.468" height="3.305" rx="0.277" transform="translate(34.254 75.759)" fill="#242018"/>
            <rect id="Rectángulo_43610" data-name="Rectángulo 43610" width="10.234" height="0.928" transform="translate(21.508 80.185)" fill="#9f9fa6"/>
            <rect id="Rectángulo_43611" data-name="Rectángulo 43611" width="7.76" height="0.928" transform="translate(21.508 81.687)" fill="#9f9fa6"/>
            <path id="Trazado_206154" data-name="Trazado 206154" d="M49.758,93.346a7.552,7.552,0,1,1-7.552-7.552,7.552,7.552,0,0,1,7.552,7.552" transform="translate(-13.348 -33.046)" fill="#db352d"/>
            <path id="Trazado_206155" data-name="Trazado 206155" d="M47.882,98.015a5.87,5.87,0,1,0-9.246,0Z" transform="translate(-14.402 -34.099)" fill="#fff"/>
            <rect id="Rectángulo_43612" data-name="Rectángulo 43612" width="9.514" height="3.126" transform="translate(24.101 66.609)" fill="#dee0e4"/>
            <rect id="Rectángulo_43613" data-name="Rectángulo 43613" width="13.036" height="0.878" transform="translate(22.339 69.869)" fill="#7a787d"/>
            <rect id="Rectángulo_43614" data-name="Rectángulo 43614" width="10.978" height="0.878" transform="translate(23.369 68.991)" fill="#9f9fa6"/>
            <rect id="Rectángulo_43615" data-name="Rectángulo 43615" width="10.978" height="1.354" transform="translate(23.369 65.463)" fill="#9f9fa6"/>
            <rect id="Rectángulo_43616" data-name="Rectángulo 43616" width="6.325" height="91.755" transform="translate(55.451 15.067)" fill="#0c2228"/>
            <rect id="Rectángulo_43617" data-name="Rectángulo 43617" width="6.325" height="91.755" transform="translate(128.226 15.067)" fill="#0c2228"/>
            <rect id="Rectángulo_43618" data-name="Rectángulo 43618" width="158.562" height="15.067" transform="translate(15.719)" fill="#34b1e7"/>
            <path id="Trazado_206156" data-name="Trazado 206156" d="M40.122,12.03a2.828,2.828,0,0,1-.754-.1,2.572,2.572,0,0,1-.71-.32,2.672,2.672,0,0,1-.911-.982,2.726,2.726,0,0,1-.325-1.318h1.833a.8.8,0,0,0,.141.5,1.022,1.022,0,0,0,.25.243.822.822,0,0,0,.422.142.975.975,0,0,0,.445-.087.728.728,0,0,0,.243-.163.9.9,0,0,0,.141-.19.524.524,0,0,0,.06-.179.958.958,0,0,0,0-.282.579.579,0,0,0-.06-.184.726.726,0,0,0-.141-.19.933.933,0,0,0-.243-.168,2.38,2.38,0,0,0-.255-.1c-.091-.03-.187-.061-.288-.1-.181-.058-.37-.124-.564-.195a3.211,3.211,0,0,1-.585-.293,2.293,2.293,0,0,1-.64-.6,2.362,2.362,0,0,1-.45-1.621,2.24,2.24,0,0,1,.244-.84,2.388,2.388,0,0,1,.488-.639,2.318,2.318,0,0,1,1.421-.619,2.552,2.552,0,0,1,.835.076,2.443,2.443,0,0,1,.745.309,2.355,2.355,0,0,1,.577.51,2.2,2.2,0,0,1,.372.666,2.3,2.3,0,0,1,.13.77H40.718a.377.377,0,0,0-.157-.347,1.081,1.081,0,0,0-.276-.13.821.821,0,0,1-.1-.017.545.545,0,0,0-.184,0,.621.621,0,0,0-.212.076.42.42,0,0,0-.173.189.489.489,0,0,0-.033.364.521.521,0,0,0,.217.3,2.378,2.378,0,0,0,.337.157c.123.047.253.092.39.136s.248.076.374.119.253.094.383.152A2.547,2.547,0,0,1,42.8,9.438a2.515,2.515,0,0,1-.4,1.388,2.559,2.559,0,0,1-1.116.954,2.59,2.59,0,0,1-.573.19,2.955,2.955,0,0,1-.585.06" transform="translate(-14.414 -1.443)" fill="#0c2228"/>
            <path id="Trazado_206157" data-name="Trazado 206157" d="M51.811,3.971V5.8H50.282v6.16H48.449V5.8H46.931V3.971Z" transform="translate(-18.077 -1.529)" fill="#0c2228"/>
            <path id="Trazado_206158" data-name="Trazado 206158" d="M60.359,11.983l-.314-.965H57.54l-.325.965H55.273l2.711-7.959H59.72l2.57,7.959Zm-2.191-2.8h1.291L58.83,7.255Z" transform="translate(-21.29 -1.55)" fill="#0c2228"/>
            <path id="Trazado_206159" data-name="Trazado 206159" d="M71.937,3.971V5.8H70.408v6.16H68.575V5.8H67.056V3.971Z" transform="translate(-25.829 -1.529)" fill="#0c2228"/>
            <rect id="Rectángulo_43619" data-name="Rectángulo 43619" width="1.833" height="7.972" transform="translate(46.89 2.462)" fill="#0c2228"/>
            <path id="Trazado_206160" data-name="Trazado 206160" d="M84.1,4.005a3.865,3.865,0,0,1,1.549.315,4.109,4.109,0,0,1,1.267.852,4,4,0,0,1,.856,1.263,3.987,3.987,0,0,1,0,3.1A4,4,0,0,1,86.92,10.8a4.109,4.109,0,0,1-1.267.852,3.974,3.974,0,0,1-3.1,0,3.986,3.986,0,0,1-2.113-2.115,3.994,3.994,0,0,1,0-3.1A3.986,3.986,0,0,1,82.555,4.32,3.865,3.865,0,0,1,84.1,4.005m.006,6.129a2.093,2.093,0,0,0,.835-.168,2.162,2.162,0,0,0,1.144-1.145,2.162,2.162,0,0,0,0-1.67,2.162,2.162,0,0,0-1.144-1.143,2.146,2.146,0,0,0-1.67,0,2.151,2.151,0,0,0-.684.46,2.185,2.185,0,0,0-.461.682,2.162,2.162,0,0,0,0,1.67,2.161,2.161,0,0,0,1.145,1.145,2.091,2.091,0,0,0,.835.168" transform="translate(-30.864 -1.543)" fill="#0c2228"/>
            <path id="Trazado_206161" data-name="Trazado 206161" d="M98.563,4.024H100.4v7.96H98.411l-2.6-4.641v4.641H93.975V4.045h2l2.592,4.632Z" transform="translate(-36.198 -1.55)" fill="#0c2228"/>
            <rect id="Rectángulo_43620" data-name="Rectángulo 43620" width="158.562" height="1.421" transform="translate(15.719 12.459)" fill="#fff"/>
            <rect id="Rectángulo_43621" data-name="Rectángulo 43621" width="190" height="4.738" transform="translate(0 106.822)" fill="#34b1e7"/>
          </g>
        </g>
      </g>
    </g>
    <g id="gasolinera" transform="translate(-6362.969 -1786.759)">
      <g id="Grupo_152568" data-name="Grupo 152568" transform="translate(16)">
        <path id="Trazado_206179" data-name="Trazado 206179" d="M49.576,9.006l.032-.032-7.931-7.91L39.42,3.321l4.492,4.492A5.315,5.315,0,0,0,45.808,18.1a5.259,5.259,0,0,0,2.129-.447V33a2.129,2.129,0,1,1-4.258,0V23.42a4.257,4.257,0,0,0-4.258-4.258H37.291V4.258A4.257,4.257,0,0,0,33.033,0H20.258A4.257,4.257,0,0,0,16,4.258V38.324H37.291V22.356h3.194V33A5.323,5.323,0,1,0,51.13,33V12.775A5.345,5.345,0,0,0,49.576,9.006ZM33.033,14.9H20.258V4.258H33.033Zm12.775,0a2.129,2.129,0,1,1,2.129-2.129A2.135,2.135,0,0,1,45.808,14.9Z" transform="translate(-16)" fill="#942e19"/>
      </g>
    </g>
  </g>
</svg>
