<svg xmlns="http://www.w3.org/2000/svg" width="85" height="85" viewBox="0 0 85 85">
  <g id="Grupo_153681" data-name="Grupo 153681" transform="translate(-285 -2256)">
    <g id="Grupo_153345" data-name="Grupo 153345" transform="translate(0 11)">
      <circle id="Elipse_4993" data-name="Elipse 4993" cx="42.5" cy="42.5" r="42.5" transform="translate(285 2245)" fill="#fff7e3"/>
      <ellipse id="Elipse_4994" data-name="Elipse 4994" cx="20.5" cy="3" rx="20.5" ry="3" transform="translate(307 2318)" fill="#c4b695"/>
      <g id="Grupo_153347" data-name="Grupo 153347" transform="translate(-1440.03 11985.061)">
        <g id="bonsai" transform="translate(1739 -9729.058)">
          <path id="Trazado_208651" data-name="Trazado 208651" d="M247.931,322.107l2.124-4.711a1.925,1.925,0,0,1,1.755-1.134h2.66a1.926,1.926,0,0,0,1.239-.451L258,313.887a3.261,3.261,0,0,1,3.013-.634h0a3.261,3.261,0,0,1,1.86,1.418l.269.436a1.926,1.926,0,0,0,1,.805l.9.317a1.926,1.926,0,0,1,1.164,1.14h0a1.926,1.926,0,0,0,.725.919l.4.269a1.925,1.925,0,0,1,.834,1.37l.074.629-.354,1.55h-19.95Z" transform="translate(-218.941 -272.743)" fill="#c6c5ca"/>
          <path id="Trazado_208652" data-name="Trazado 208652" d="M348.834,318.56l-.4-.269a1.926,1.926,0,0,1-.725-.919,1.925,1.925,0,0,0-1.164-1.14l-.9-.317a1.925,1.925,0,0,1-1-.805l-.269-.436a3.261,3.261,0,0,0-1.86-1.417h0a3.254,3.254,0,0,0-1.012-.129v8.983h7.882l.354-1.55-.074-.629A1.924,1.924,0,0,0,348.834,318.56Z" transform="translate(-300.448 -272.745)" fill="#bbbbbc"/>
          <path id="Trazado_208653" data-name="Trazado 208653" d="M116.908,180.567c5.678-7.365,7.516-11.237,9.222-16.242H121.4c-1.174,3.79-3.946,7.275-7.508,10.56-4.464-2.041-6.138-7.418-6.8-10.56h-4.577c.655,5.112,3.945,9.531,7.479,14.393C98.8,188.844,99.12,200.785,99.12,200.785h19.65S110.338,189.091,116.908,180.567Z" transform="translate(-89.319 -143.134)" fill="#d18754"/>
          <path id="Trazado_208654" data-name="Trazado 208654" d="M162.335,180.567c5.678-7.365,7.516-11.237,9.222-16.242h-1.865c-1.706,5.005-5.791,8.878-11.469,16.242-6.571,8.523-6.952,20.218-6.952,20.218H164.2S155.764,189.091,162.335,180.567Z" transform="translate(-134.746 -143.134)" fill="#bc7646"/>
          <path id="Trazado_208655" data-name="Trazado 208655" d="M90.246,10.353a8.438,8.438,0,0,0-6.268-4.009A9.782,9.782,0,0,0,73.413,2.7a9.806,9.806,0,0,0-5.559.064A9.656,9.656,0,0,0,52.694,4.88a8.923,8.923,0,0,0-10.119,8.854s0,.008,0,.012c-.123-.007-.247-.012-.373-.012a6.2,6.2,0,1,0,4.3,10.681,2.863,2.863,0,0,1,3.926,0c1.375,1.284,3.136,2.594,4.684,2.594a6.55,6.55,0,0,0,4.458-1.743,2.433,2.433,0,0,1,2.834-.35,9.942,9.942,0,0,0,12.941-3.042c.244.018.489.031.738.031a9.813,9.813,0,0,0,2.152-.24c.44.394.154.453,2.2,1.087a8.02,8.02,0,1,0,9.817-12.4Z" transform="translate(-34.339)" fill="#66ad66"/>
          <path id="Trazado_208656" data-name="Trazado 208656" d="M94.4,33.17c0-.092,0-.183,0-.275,0-.006,0-.012,0-.018q-.01-.3-.043-.6h0a8.022,8.022,0,0,0-4.105-6.157,8.438,8.438,0,0,0-6.268-4.009A9.782,9.782,0,0,0,73.415,18.47a9.789,9.789,0,0,0-2.667-.371c-.2,0-.407.008-.609.02a9.775,9.775,0,0,1,7.269,3.989,8.438,8.438,0,0,1,6.268,4.009,8.017,8.017,0,0,1,4.144,7.4,7.92,7.92,0,0,1-.175,1.333,4.2,4.2,0,0,1-7.179,1.97l-.035-.038c-2.043-.634-1.757-.693-2.2-1.087a9.814,9.814,0,0,1-2.152.24c-.248,0-.494-.012-.738-.031A9.942,9.942,0,0,1,62.4,38.951a2.433,2.433,0,0,0-2.834.35,6.55,6.55,0,0,1-4.458,1.743c-1.548,0-3.309-1.31-4.685-2.594a2.87,2.87,0,0,0-3.935.006,6.2,6.2,0,0,1-10.429-3.622,6.292,6.292,0,0,0-.046,1.312A6.2,6.2,0,0,0,46.5,40.18a2.859,2.859,0,0,1,3.922,0c1.376,1.285,3.139,2.6,4.689,2.6a6.55,6.55,0,0,0,4.458-1.743,2.433,2.433,0,0,1,2.834-.35,9.942,9.942,0,0,0,12.941-3.042c.244.018.489.031.738.031a9.814,9.814,0,0,0,2.152-.24c.44.394.154.453,2.2,1.087a8.045,8.045,0,0,0,2.661,1.937h0a7.946,7.946,0,0,0,.844.324l.151.051c.055.018.224.059.28.074l.019.005c.135.034.27.065.408.093l.047.01c.128.025.258.046.388.065l.074.012c.122.017.246.029.37.04l.1.01c.121.009.243.014.365.017l.108,0q.236,0,.476-.006a8.046,8.046,0,0,0,7.673-7.635q.007-.156.008-.312C94.4,33.2,94.4,33.184,94.4,33.17Z" transform="translate(-34.341 -15.765)" fill="#61a361"/>
          <g id="Grupo_153271" data-name="Grupo 153271" transform="translate(9.792 59.659)">
            <path id="Trazado_208657" data-name="Trazado 208657" d="M102.8,468.995h-2.6a.688.688,0,0,1-.686-.635l-.448-5.732h4.866l-.448,5.732A.688.688,0,0,1,102.8,468.995Z" transform="translate(-99.066 -462.628)" fill="#f2a559"/>
            <path id="Trazado_208658" data-name="Trazado 208658" d="M348.562,468.995h-2.6a.688.688,0,0,1-.686-.635l-.448-5.732H349.7l-.448,5.732A.688.688,0,0,1,348.562,468.995Z" transform="translate(-313.136 -462.628)" fill="#f2a559"/>
          </g>
          <path id="Trazado_208659" data-name="Trazado 208659" d="M89.945,399.72H50.568a2,2,0,0,1-1.965-1.611L45,387.069h50.5l-3.6,11.04A2,2,0,0,1,89.945,399.72Z" transform="translate(-42.184 -337.154)" fill="#fec37d"/>
          <path id="Trazado_208660" data-name="Trazado 208660" d="M348.232,387.068l-3.6,11.04a2,2,0,0,1-1.965,1.611h6.554a2,2,0,0,0,1.965-1.611l3.6-11.04Z" transform="translate(-301.462 -337.153)" fill="#f9ae5d"/>
          <path id="Trazado_208661" data-name="Trazado 208661" d="M78.266,371.252H24.141a1.01,1.01,0,0,1-1.01-1.01V368.25a1.01,1.01,0,0,1,1.01-1.01H78.266a1.01,1.01,0,0,1,1.01,1.01v1.993A1.01,1.01,0,0,1,78.266,371.252Z" transform="translate(-23.131 -319.882)" fill="#f2a559"/>
          <path id="Trazado_208662" data-name="Trazado 208662" d="M411.218,367.24h-5.841v4.012h5.841a1.01,1.01,0,0,0,1.01-1.01V368.25A1.01,1.01,0,0,0,411.218,367.24Z" transform="translate(-356.083 -319.882)" fill="#ea8f3d"/>
        </g>
        <path id="Trazado_208663" data-name="Trazado 208663" d="M1768.776-9695.145l-2.136,6.766,5.127,15.809,13.744-6.2-7.05-12.319Z" transform="translate(-1.957 -2.401)" fill="#942e19"/>
        <path id="Trazado_208664" data-name="Trazado 208664" d="M1769.6-9685.322l7.5-2.85" transform="translate(-2.166 -2.895)" fill="none" stroke="#e8e8e8" stroke-width="1"/>
        <path id="Trazado_208665" data-name="Trazado 208665" d="M1769.6-9685.322l7.5-2.85" transform="translate(-1.237 -0.046)" fill="none" stroke="#e8e8e8" stroke-width="1"/>
        <path id="Trazado_208666" data-name="Trazado 208666" d="M1769.6-9685.322l7.5-2.85" transform="translate(-0.308 1.874)" fill="none" stroke="#e8e8e8" stroke-width="1"/>
        <path id="Trazado_208667" data-name="Trazado 208667" d="M1769.6-9685.322l7.5-2.85" transform="translate(0.621 3.733)" fill="none" stroke="#e8e8e8" stroke-width="1"/>
      </g>
    </g>
  </g>
</svg>
