<svg xmlns="http://www.w3.org/2000/svg" width="85" height="85" viewBox="0 0 85 85">
  <g id="Grupo_153678" data-name="Grupo 153678" transform="translate(-285 -2004)">
    <g id="Grupo_153348" data-name="Grupo 153348" transform="translate(0 18)">
      <circle id="Elipse_4991" data-name="Elipse 4991" cx="42.5" cy="42.5" r="42.5" transform="translate(285 1986)" fill="#f0ddd8"/>
      <ellipse id="Elipse_4992" data-name="Elipse 4992" cx="20.5" cy="3" rx="20.5" ry="3" transform="translate(307 2059)" fill="#d2c1bd"/>
      <g id="Frog" transform="translate(295.228 2006.932)">
        <path id="Trazado_206445" data-name="Trazado 206445" d="M68.782,135.506c9.145-5.742,20.585.333,23.484.967,1.164.255,17.091-2.938,22.99,7.143.493.842,1.377,4.1-3.792,4.669L97.126,152.4c-.564.112-6.622,1.314-2.395,2.554,4.477,1.313,17,2.646,17.776,7.547,2.232.5,1.633,2.5-.757,2.5-1.468,0-2.632-.92-1.967-1.816-.155-3-4.57-1.7-3.015-.431a5.189,5.189,0,0,1,1.856,3.215c2.232.5,1.633,2.5-.757,2.5-1.468,0-2.632-.92-1.967-1.816-.15-2.882-4.674-2.747-3.389-.968a5.156,5.156,0,0,1,.916,2.219c2.232.5,1.633,2.5-.757,2.5-1.468,0-2.632-.92-1.967-1.816-.061-1.178-.5-2.135-1.654-2.265-1.334-.151-11.4-3.29-13.086-8.533l-12.784,2.3a7.466,7.466,0,0,1-2.16,1.66l-.088.043c1.209,0,8.971,1.406,9.628,5.581,2.192.495,1.6,2.456-.744,2.456-1.441,0-2.585-.9-1.932-1.784-.153-2.941-4.477-2.187-2.95-.944a5.1,5.1,0,0,1,1.822,3.158c2.192.495,1.6,2.456-.744,2.456-1.441,0-2.585-.9-1.932-1.784-.147-2.831-4.124-2.7-2.863-.951a5.063,5.063,0,0,1,.9,2.179c2.192.495,1.6,2.456-.744,2.456-1.441,0-2.585-.9-1.932-1.784a2.365,2.365,0,0,0-2.09-2.225c-1.069-.121-7.745-2.291-11.2-5.75-8.11-8.11-4.536-16.233-2.344-19.674a3.136,3.136,0,0,1,4.521-.83,14.579,14.579,0,0,1,2.223,2.111,52.256,52.256,0,0,1,8.237-10.963Z" transform="translate(-51.097 -131.482)" fill="#a8d95c"/>
        <path id="Trazado_206446" data-name="Trazado 206446" d="M77.618,233.844c13.576,3.039,14.325-4.113,14.325-4.113H85.152C80.184,229.732,78.583,232.67,77.618,233.844Z" transform="translate(-31.576 -212.93)" fill="#90c050"/>
        <ellipse id="Elipse_4891" data-name="Elipse 4891" cx="4.948" cy="4.948" rx="4.948" ry="4.948" transform="translate(46.569 0.001)" fill="#f2f2ff"/>
        <path id="Trazado_206447" data-name="Trazado 206447" d="M116.724,150.3c0,1.223,5.383,1.222,5.383,0S116.724,149.073,116.724,150.3Z" transform="translate(-67.898 -145.233)" fill="#404343"/>
        <path id="Trazado_206448" data-name="Trazado 206448" d="M238.964,265s4.28,2.39,10.63.165a5.054,5.054,0,0,0,.177,4.867,14.645,14.645,0,0,1-13.262,1.224A13.525,13.525,0,0,0,238.964,265Z" transform="translate(-214.43 -242.642)" fill="#fff"/>
        <g id="Grupo_152657" data-name="Grupo 152657" transform="translate(4.34 4.023)">
          <path id="Trazado_206449" data-name="Trazado 206449" d="M346.279,276.348a.63.63,0,0,0-.577-1.12c-3.019,1.517-8.981,1.008-14.131-6.538a.63.63,0,0,0-1.041.71C337.341,279.381,344.743,277.141,346.279,276.348Z" transform="translate(-330.411 -249.539)" fill="#90c050"/>
          <path id="Trazado_206450" data-name="Trazado 206450" d="M352.731,165.765a37.365,37.365,0,0,0-4.119-6.2c2.168-5.557,5.065-8.971,8.237-10.963-6.08,6.047-4.119,17.165-4.119,17.165Z" transform="translate(-343.503 -148.6)" fill="#90c050"/>
          <ellipse id="Elipse_4892" data-name="Elipse 4892" cx="1.66" cy="1.66" rx="1.66" ry="1.66" transform="translate(23.194 1.017)" fill="#90c050"/>
          <ellipse id="Elipse_4893" data-name="Elipse 4893" cx="1.66" cy="1.66" rx="1.66" ry="1.66" transform="translate(21.385 6.975)" fill="#90c050"/>
          <ellipse id="Elipse_4894" data-name="Elipse 4894" cx="1.66" cy="1.66" rx="1.66" ry="1.66" transform="translate(16.447 2.036)" fill="#90c050"/>
        </g>
      </g>
    </g>
  </g>
</svg>
