<svg xmlns="http://www.w3.org/2000/svg" width="164" height="110.308" viewBox="0 0 164 110.308">
  <g id="Grupo_153704" data-name="Grupo 153704" transform="translate(-1069 -11845.309)">
    <g id="bosque" transform="translate(1100.606 11845.309)">
      <g id="Grupo_149822" data-name="Grupo 149822" transform="translate(46.845 53.437)">
        <g id="Grupo_149821" data-name="Grupo 149821" transform="translate(0 0)">
          <g id="Grupo_149819" data-name="Grupo 149819" transform="translate(21.635 31.967)">
            <path id="Trazado_198217" data-name="Trazado 198217" d="M245.927,388.28a2.089,2.089,0,0,0,2.089-2.089V366.831a2.089,2.089,0,1,0-4.177,0v19.361A2.089,2.089,0,0,0,245.927,388.28Z" transform="translate(-243.838 -364.742)" fill="#855b51"/>
          </g>
          <g id="Grupo_149820" data-name="Grupo 149820" transform="translate(0 21.9)">
            <path id="Trazado_198218" data-name="Trazado 198218" d="M323.7,362.967a2.088,2.088,0,0,0,2.089-2.089V330.641a2.089,2.089,0,0,0-4.177,0v30.237A2.089,2.089,0,0,0,323.7,362.967Z" transform="translate(-321.61 -328.552)" fill="#a18278"/>
          </g>
          <circle id="Elipse_4804" data-name="Elipse 4804" cx="18.699" cy="18.699" r="18.699" transform="translate(6.493)" fill="#0f7a4f"/>
          <path id="Trazado_198219" data-name="Trazado 198219" d="M204.181,270.5a18.7,18.7,0,0,0,30.352,14.624,18.7,18.7,0,0,1-16.944-32.563A18.706,18.706,0,0,0,204.181,270.5Z" transform="translate(-197.689 -251.8)" fill="#0c6842"/>
        </g>
      </g>
      <g id="Grupo_149823" data-name="Grupo 149823" transform="translate(24.493 8.762)">
        <circle id="Elipse_4805" data-name="Elipse 4805" cx="18.699" cy="18.699" r="18.699" transform="translate(0.001 0)" fill="#158f5e"/>
        <path id="Trazado_198220" data-name="Trazado 198220" d="M334.168,107.934A18.712,18.712,0,0,0,357.2,126.127a18.7,18.7,0,0,1,0-36.385,18.712,18.712,0,0,0-23.036,18.193Z" transform="translate(-334.168 -89.234)" fill="#0f7a4f"/>
      </g>
      <g id="Grupo_149824" data-name="Grupo 149824" transform="translate(0 34.231)">
        <circle id="Elipse_4806" data-name="Elipse 4806" cx="18.699" cy="18.699" r="18.699" fill="#158f5e"/>
        <path id="Trazado_198221" data-name="Trazado 198221" d="M420.145,199.491a18.709,18.709,0,0,0,23.611,18.045,18.7,18.7,0,0,1-2.448-36.583,18.968,18.968,0,0,0-2.465-.161A18.7,18.7,0,0,0,420.145,199.491Z" transform="translate(-420.145 -180.791)" fill="#0f7a4f"/>
      </g>
      <g id="Grupo_149826" data-name="Grupo 149826" transform="translate(16.104 25.033)">
        <g id="Grupo_149825" data-name="Grupo 149825" transform="translate(0 0)">
          <path id="Trazado_198222" data-name="Trazado 198222" d="M355.1,366.156a2.088,2.088,0,0,0,2.089-2.089V336.18a2.089,2.089,0,1,0-4.177,0v27.888A2.088,2.088,0,0,0,355.1,366.156Z" transform="translate(-331.003 -282.246)" fill="#5e685d"/>
          <path id="Trazado_198223" data-name="Trazado 198223" d="M356.785,208.839a14.6,14.6,0,0,0,14.6-14.6V162.319a14.6,14.6,0,1,0-29.193,0v31.924A14.6,14.6,0,0,0,356.785,208.839Z" transform="translate(-342.187 -147.722)" fill="#d2f0a2"/>
          <path id="Trazado_198224" data-name="Trazado 198224" d="M381.766,162.318v31.923a14.606,14.606,0,0,0,18.184,14.153,14.6,14.6,0,0,1-11.013-14.153V162.318a14.6,14.6,0,0,1,11.013-14.151,14.6,14.6,0,0,0-18.184,14.151Z" transform="translate(-381.766 -147.722)" fill="#bcea73"/>
        </g>
        <path id="Trazado_198225" data-name="Trazado 198225" d="M367.375,254.483a2.089,2.089,0,0,1,2.954,0l1.06,1.06V250.98h0v-8.165a2.089,2.089,0,1,1,4.177,0v3.123l2.106-2.106a2.088,2.088,0,1,1,2.954,2.953l-5.06,5.06v43.7a2.089,2.089,0,1,1-4.177,0V261.45l-4.014-4.014A2.089,2.089,0,0,1,367.375,254.483Z" transform="translate(-358.879 -214.853)" fill="#942e19"/>
      </g>
      <g id="Grupo_149828" data-name="Grupo 149828" transform="translate(90.454)">
        <g id="Grupo_149827" data-name="Grupo 149827" transform="translate(0 0)">
          <path id="Trazado_198226" data-name="Trazado 198226" d="M89.519,107.361a14.6,14.6,0,0,0,14.6-14.6V72.332a14.6,14.6,0,0,0-29.193,0V92.765A14.6,14.6,0,0,0,89.519,107.361Z" transform="translate(-74.922 -57.735)" fill="#d2f0a2"/>
          <path id="Trazado_198227" data-name="Trazado 198227" d="M113.075,72.332V92.767a14.606,14.606,0,0,0,18.579,14.045,14.6,14.6,0,0,1-10.612-14.045V72.333a14.608,14.608,0,0,1,10.612-14.045,14.6,14.6,0,0,0-18.579,14.045Z" transform="translate(-113.075 -57.736)" fill="#bcea73"/>
        </g>
        <path id="Trazado_198228" data-name="Trazado 198228" d="M100.109,123.189a2.089,2.089,0,0,1,2.953,0l1.06,1.06v-4.563h0v-8.165a2.089,2.089,0,0,1,4.177,0v3.123l2.106-2.107a2.089,2.089,0,0,1,2.953,2.954l-5.06,5.06v8.74h0v73.421a2.089,2.089,0,0,1-4.177,0V130.157l-4.014-4.014a2.089,2.089,0,0,1,0-2.954Z" transform="translate(-91.614 -95.051)" fill="#a18278"/>
      </g>
      <g id="Grupo_149830" data-name="Grupo 149830" transform="translate(62.425 32.184)">
        <circle id="Elipse_4807" data-name="Elipse 4807" cx="22.162" cy="22.162" r="22.162" transform="translate(0.001 0)" fill="#1ca56f"/>
        <path id="Trazado_198229" data-name="Trazado 198229" d="M165.773,195.592a22.166,22.166,0,0,0,31.948,19.887A22.166,22.166,0,0,1,191.98,173.8a22.187,22.187,0,0,0-26.207,21.792Z" transform="translate(-165.773 -173.431)" fill="#158f5e"/>
        <path id="Trazado_198230" data-name="Trazado 198230" d="M194.053,208.737a2.088,2.088,0,0,1,2.953,0l1.448,1.448v-2.411a2.089,2.089,0,0,1,4.177,0v22.1a2.089,2.089,0,1,1-4.177,0V216.092l-4.4-4.4A2.088,2.088,0,0,1,194.053,208.737Z" transform="translate(-178.38 -196.712)" fill="#724d44"/>
        <g id="Grupo_149829" data-name="Grupo 149829" transform="translate(20.074 53.558)">
          <path id="Trazado_198231" data-name="Trazado 198231" d="M195.53,389.965a2.089,2.089,0,0,0,2.089-2.089V368.045a2.089,2.089,0,0,0-4.177,0v19.832A2.088,2.088,0,0,0,195.53,389.965Z" transform="translate(-193.441 -365.956)" fill="#5e685d"/>
        </g>
      </g>
      <g id="Grupo_149831" data-name="Grupo 149831" transform="translate(43.194 4.422)">
        <path id="Trazado_198232" data-name="Trazado 198232" d="M243.935,128.293c0,25.684,6.59,25.226,14.718,25.226s14.718.458,14.718-25.226-8.306-54.661-14.718-54.661S243.935,102.61,243.935,128.293Z" transform="translate(-243.935 -73.632)" fill="#a3e440"/>
        <path id="Trazado_198233" data-name="Trazado 198233" d="M243.935,128.293c0,25.684,6.59,25.226,14.718,25.226s14.718.458,14.718-25.226-8.306-54.661-14.718-54.661S243.935,102.61,243.935,128.293Z" transform="translate(-243.935 -73.632)" fill="#a3e440"/>
        <path id="Trazado_198234" data-name="Trazado 198234" d="M283.07,128.3c0,25.685,6.588,25.226,14.717,25.226,1.324,0,2.61.013,3.832-.08-6.269-.466-10.885-3.653-10.885-25.146,0-20.75,5.423-43.647,10.885-51.68-1.3-1.911-2.6-2.98-3.832-2.98C291.375,73.635,283.07,102.613,283.07,128.3Z" transform="translate(-283.069 -73.634)" fill="#99d53b"/>
        <path id="Trazado_198235" data-name="Trazado 198235" d="M266.453,239.187a2.089,2.089,0,0,1,2.954,0l3.822,3.822V225.6a2.089,2.089,0,0,1,4.177,0v4.366l2.97-2.97a2.089,2.089,0,0,1,2.954,2.954l-5.924,5.924v48.375a2.089,2.089,0,1,1-4.177,0V248.916l-6.775-6.775A2.089,2.089,0,0,1,266.453,239.187Z" transform="translate(-260.598 -181.819)" fill="#724d44"/>
      </g>
      <g id="Grupo_149833" data-name="Grupo 149833" transform="translate(79.429 47.454)">
        <path id="Trazado_198239" data-name="Trazado 198239" d="M113.678,259.439c0,14.62,6.59,14.359,14.718,14.359s14.718.261,14.718-14.359-8.306-31.114-14.718-31.114S113.678,244.819,113.678,259.439Z" transform="translate(-113.678 -228.324)" fill="#a3e440"/>
        <path id="Trazado_198240" data-name="Trazado 198240" d="M113.678,259.439c0,14.62,6.59,14.359,14.718,14.359s14.718.261,14.718-14.359-8.306-31.114-14.718-31.114S113.678,244.819,113.678,259.439Z" transform="translate(-113.678 -228.324)" fill="#a3e440"/>
        <path id="Trazado_198241" data-name="Trazado 198241" d="M150.934,259.434c0,14.621,6.587,14.359,14.718,14.359,1.516,0,2.977.008,4.353-.072-6-.348-10.365-2.392-10.365-14.287,0-11.436,5.082-24.018,10.365-28.958a6.718,6.718,0,0,0-4.353-2.156C159.237,228.32,150.934,244.816,150.934,259.434Z" transform="translate(-150.933 -228.32)" fill="#99d53b"/>
        <path id="Trazado_198242" data-name="Trazado 198242" d="M159.691,304.29a2.089,2.089,0,0,1,2.953,0l3.822,3.822V297.887a2.089,2.089,0,0,1,4.177,0v15.266h0v23.273a2.089,2.089,0,0,1-4.177,0V314.019l-6.775-6.775A2.089,2.089,0,0,1,159.691,304.29Z" transform="translate(-153.836 -277.027)" fill="#942e19"/>
      </g>
      <g id="Grupo_149834" data-name="Grupo 149834" transform="translate(0.982 63.265)">
        <path id="Trazado_198243" data-name="Trazado 198243" d="M425.226,307.587c0,10.536,4.749,10.349,10.608,10.349s10.608.188,10.608-10.349-5.986-22.424-10.608-22.424S425.226,297.051,425.226,307.587Z" transform="translate(-425.225 -285.162)" fill="#a3e440"/>
        <path id="Trazado_198244" data-name="Trazado 198244" d="M425.226,307.587c0,10.536,4.749,10.349,10.608,10.349s10.608.188,10.608-10.349-5.986-22.424-10.608-22.424S425.226,297.051,425.226,307.587Z" transform="translate(-425.225 -285.162)" fill="#a3e440"/>
        <path id="Trazado_198245" data-name="Trazado 198245" d="M450.583,307.585c0,10.535,4.751,10.348,10.61,10.348,1.246,0,2.442.008,3.552-.081-4.112-.325-7.052-1.975-7.052-10.267,0-7.942,3.4-16.649,7.052-20.46a5.287,5.287,0,0,0-3.552-1.967C456.569,285.158,450.583,297.047,450.583,307.585Z" transform="translate(-450.583 -285.158)" fill="#99d53b"/>
        <path id="Trazado_198246" data-name="Trazado 198246" d="M456.462,339.268a2.088,2.088,0,0,1,2.953,0l.477.477v-5.961a2.089,2.089,0,0,1,4.177,0v11h0v17.55a2.089,2.089,0,0,1-4.177,0V345.653l-3.431-3.431A2.089,2.089,0,0,1,456.462,339.268Z" transform="translate(-451.373 -318.75)" fill="#a18278"/>
      </g>
    </g>
    <g id="discapacitado" transform="translate(1088 11916.789)">
      <path id="Trazado_206619" data-name="Trazado 206619" d="M5.228,326.883,3.8,331.944.719,334.216a1.767,1.767,0,0,0,2.1,2.845l3.39-2.5,2.237-5.411-1.222-2.726Zm0,0" transform="translate(0 -304.334)" fill="#3aaf80"/>
      <path id="Trazado_206620" data-name="Trazado 206620" d="M70.946,166.632v5.422H63.613v-5.422a3.666,3.666,0,1,1,7.333,0Zm0,0" transform="translate(-59.308 -151.936)" fill="#5c5e70"/>
      <path id="Trazado_206621" data-name="Trazado 206621" d="M70.514,23.785a4.3,4.3,0,1,1-6.92,3.416V24.142l2.783-2.181Zm0,0" transform="translate(-59.291 -20.475)" fill="#ffc48f"/>
      <path id="Trazado_206622" data-name="Trazado 206622" d="M68.857,31.4a4.308,4.308,0,0,1-5.263-4.2V24.142l2.783-2.181,1.23.542-2.091,1.639V27.2a4.305,4.305,0,0,0,3.342,4.2Zm0,0" transform="translate(-59.29 -20.475)" fill="#e59a5c"/>
      <path id="Trazado_206623" data-name="Trazado 206623" d="M63.594,3.671V6.729a2.193,2.193,0,0,0,2.193-2.193V3.429H71.4q.118,0,.234-.008A1.712,1.712,0,0,0,71.487,0H67.26A3.667,3.667,0,0,0,63.594,3.67Zm0,0" transform="translate(-59.29 -0.004)" fill="#f78e39"/>
      <path id="Trazado_206624" data-name="Trazado 206624" d="M69.647,0a3.667,3.667,0,0,0-3.659,3.426h-.2V4.532a2.193,2.193,0,0,1-2.193,2.193V3.667A3.667,3.667,0,0,1,67.261,0Zm0,0" transform="translate(-59.29)" fill="#e27727"/>
      <path id="Trazado_206625" data-name="Trazado 206625" d="M130.671,68.3a.53.53,0,0,1-.53-.53v-1a.53.53,0,1,1,1.06,0v1A.53.53,0,0,1,130.671,68.3Zm0,0" transform="translate(-121.334 -61.759)" fill="#3b3d4c"/>
      <path id="Trazado_206626" data-name="Trazado 206626" d="M156.6,68.3a.53.53,0,0,1-.53-.53v-1a.53.53,0,1,1,1.06,0v1A.53.53,0,0,1,156.6,68.3Zm0,0" transform="translate(-145.504 -61.759)" fill="#3b3d4c"/>
      <path id="Trazado_206627" data-name="Trazado 206627" d="M332.837,324.953l3.462.6a1.571,1.571,0,0,1,1.191.968l2.058,5.2a1.57,1.57,0,1,1-2.92,1.156l-1.733-4.378h-3.7" transform="translate(-308.782 -302.961)" fill="#34abe0"/>
      <path id="Trazado_206628" data-name="Trazado 206628" d="M389.44,382.67a1.526,1.526,0,0,1-.395.052,1.57,1.57,0,0,1-1.46-.992l-1.733-4.378a1.167,1.167,0,0,1,1.085.738l1.442,3.64a1.568,1.568,0,0,0,1.062.941Zm0,0" transform="translate(-359.739 -351.813)" fill="#1895b7"/>
      <path id="Trazado_206629" data-name="Trazado 206629" d="M365.235,449.931h-6.487a.53.53,0,0,1,0-1.06h6.487a.53.53,0,0,1,0,1.06Zm0,0" transform="translate(-333.976 -418.493)" fill="#3b3d4c"/>
      <path id="Trazado_206630" data-name="Trazado 206630" d="M232.668,226.978v-2.442a4.344,4.344,0,1,1,8.689,0v4.9" transform="translate(-216.922 -205.29)" fill="#f75772"/>
      <path id="Trazado_206631" data-name="Trazado 206631" d="M238,220.3a4.741,4.741,0,0,0-3.768,4.231v2.6l-1.569-.154v-2.442A4.35,4.35,0,0,1,238,220.3Zm0,0" transform="translate(-216.922 -205.29)" fill="#e0244c"/>
      <path id="Trazado_206632" data-name="Trazado 206632" d="M240.209,81.016a4.3,4.3,0,1,1-6.92,3.416V81.373l2.783-2.181Zm0,0" transform="translate(-217.501 -73.832)" fill="#ffc48f"/>
      <path id="Trazado_206633" data-name="Trazado 206633" d="M238.553,88.627a4.308,4.308,0,0,1-5.263-4.2V81.372l2.783-2.181,1.23.542-2.091,1.639v3.059A4.305,4.305,0,0,0,238.553,88.627Zm0,0" transform="translate(-217.502 -73.832)" fill="#e59a5c"/>
      <path id="Trazado_206634" data-name="Trazado 206634" d="M192.455,307.593a7.159,7.159,0,1,1-7.159-7.159A7.159,7.159,0,0,1,192.455,307.593Zm0,0" transform="translate(-166.082 -280.102)" fill="#3b3d4c"/>
      <path id="Trazado_206635" data-name="Trazado 206635" d="M215.645,332.6a5.344,5.344,0,1,1-5.344-5.344A5.344,5.344,0,0,1,215.645,332.6Zm0,0" transform="translate(-191.087 -305.107)" fill="#e6e6e6"/>
      <path id="Trazado_206636" data-name="Trazado 206636" d="M272.725,394.15a.876.876,0,1,1-.876-.876A.876.876,0,0,1,272.725,394.15Zm0,0" transform="translate(-252.634 -366.658)" fill="#5c5e70"/>
      <path id="Trazado_206637" data-name="Trazado 206637" d="M233.289,60.9V63.96a2.193,2.193,0,0,0,2.193-2.193V60.66h3.843a3.425,3.425,0,0,0,3.426-3.426h-5.8a3.667,3.667,0,0,0-3.667,3.667Zm0,0" transform="translate(-217.501 -53.361)" fill="#5c5e70"/>
      <g id="Grupo_152715" data-name="Grupo 152715" transform="translate(15.788 3.873)">
        <path id="Trazado_206638" data-name="Trazado 206638" d="M239.342,57.234a3.667,3.667,0,0,0-3.659,3.426h-.2v1.107a2.194,2.194,0,0,1-2.193,2.193V60.9a3.667,3.667,0,0,1,3.667-3.667Zm0,0" transform="translate(-233.289 -57.234)" fill="#3b3d4c"/>
        <path id="Trazado_206639" data-name="Trazado 206639" d="M300.366,125.539a.53.53,0,0,1-.53-.53v-1a.53.53,0,0,1,1.06,0v1A.53.53,0,0,1,300.366,125.539Zm0,0" transform="translate(-295.332 -118.993)" fill="#3b3d4c"/>
        <path id="Trazado_206640" data-name="Trazado 206640" d="M326.292,125.539a.53.53,0,0,1-.53-.53v-1a.53.53,0,1,1,1.06,0v1A.53.53,0,0,1,326.292,125.539Zm0,0" transform="translate(-319.504 -118.993)" fill="#3b3d4c"/>
      </g>
      <path id="Trazado_206641" data-name="Trazado 206641" d="M235.808,284.387v3.234l1.639,1.639a1.57,1.57,0,0,1-2.221,2.221l-2.1-2.1a1.57,1.57,0,0,1-.46-1.11v-3.885" transform="translate(-216.922 -265.141)" fill="#ffc48f"/>
      <path id="Trazado_206642" data-name="Trazado 206642" d="M237.121,291.731a1.572,1.572,0,0,1-1.895-.25l-2.1-2.1a1.57,1.57,0,0,1-.46-1.11v-3.885h1.569v3.885a1.569,1.569,0,0,0,.46,1.11l2.1,2.1a1.545,1.545,0,0,0,.326.25Zm0,0" transform="translate(-216.922 -265.14)" fill="#e59a5c"/>
      <path id="Trazado_206643" data-name="Trazado 206643" d="M388.559,458.575a1.871,1.871,0,1,1-1.871-1.871A1.871,1.871,0,0,1,388.559,458.575Zm0,0" transform="translate(-358.774 -425.796)" fill="#5c5e70"/>
      <path id="Trazado_206644" data-name="Trazado 206644" d="M405.178,477.626a.53.53,0,1,1,.519-.426A.534.534,0,0,1,405.178,477.626Zm0,0" transform="translate(-377.264 -444.317)" fill="#3b3d4c"/>
      <path id="Trazado_206645" data-name="Trazado 206645" d="M70.946,297.254a3.67,3.67,0,0,1-1.9,3.213v9.548a1.767,1.767,0,1,1-3.534,0v-9.548a3.666,3.666,0,0,1-1.9-3.214Zm0,0" transform="translate(-59.309 -277.137)" fill="#4bc999"/>
      <path id="Trazado_206646" data-name="Trazado 206646" d="M67.908,163.019a3.668,3.668,0,0,0-3.039,3.613v5.422H63.613v-5.422a3.67,3.67,0,0,1,4.3-3.613Zm0,0" transform="translate(-59.308 -151.936)" fill="#3b3d4c"/>
      <path id="Trazado_206647" data-name="Trazado 206647" d="M67.908,311.667a1.767,1.767,0,0,1-2.4-1.652v-9.548a3.666,3.666,0,0,1-1.9-3.214h1.256a3.666,3.666,0,0,0,1.9,3.214v9.548A1.766,1.766,0,0,0,67.908,311.667Zm0,0" transform="translate(-59.308 -277.137)" fill="#3aaf80"/>
      <path id="Trazado_206648" data-name="Trazado 206648" d="M96.724,247.32l-1.455-1.94.544-.408.912,1.216" transform="translate(-88.822 -228.394)" fill="#3b3d4c"/>
      <path id="Trazado_206649" data-name="Trazado 206649" d="M111.57,237.641l.825,1.1,2.815-.412a1.767,1.767,0,0,1,.512,3.5l-3.854.564a1.747,1.747,0,0,1-.256.019,1.767,1.767,0,0,1-1.413-.707l-1.455-1.94" transform="translate(-101.384 -221.558)" fill="#ffc48f"/>
      <path id="Trazado_206650" data-name="Trazado 206650" d="M115.722,265.418l-3.855.564a1.859,1.859,0,0,1-.256.018,1.767,1.767,0,0,1-1.414-.707l-1.455-1.94.544-.408.912,1.216a1.768,1.768,0,0,0,1.414.707,1.74,1.74,0,0,0,.256-.019l3.855-.564a1.768,1.768,0,0,0,1.418-1.182,1.786,1.786,0,0,1,.074.31A1.767,1.767,0,0,1,115.722,265.418Zm0,0" transform="translate(-101.383 -245.151)" fill="#e59a5c"/>
    </g>
    <g id="casa" transform="translate(1152 11871)">
      <rect id="Rectángulo_43885" data-name="Rectángulo 43885" width="9.281" height="16.2" transform="translate(60.581 11.644)" fill="#f05540"/>
      <rect id="Rectángulo_43886" data-name="Rectángulo 43886" width="16.369" height="8.775" transform="translate(57.037 3.375)" fill="#f3705a"/>
      <path id="Trazado_206651" data-name="Trazado 206651" d="M44.8,100.275v37.294h66.15V100.275L77.875,67.2h0C65.05,80.194,57.794,87.45,44.8,100.275Z" transform="translate(-37.713 -56.569)" fill="#ffd15c"/>
      <path id="Trazado_206652" data-name="Trazado 206652" d="M111.119,100.275,78.044,67.2C71.462,73.612,66.4,78.675,61.337,83.737L44.8,100.275v7.594L77.875,74.794l33.075,33.075v1.012h0v-8.606h.169Z" transform="translate(-37.713 -56.569)" fill="#f7b64c"/>
      <path id="Trazado_206653" data-name="Trazado 206653" d="M110.579,354.865H90.667V335.29a9.974,9.974,0,0,1,9.956-9.956h0a9.974,9.974,0,0,1,9.956,9.956Z" transform="translate(-76.323 -273.865)" fill="#415a6b"/>
      <rect id="Rectángulo_43887" data-name="Rectángulo 43887" width="25.988" height="22.781" transform="translate(40.163 51.469)" fill="#344a5e"/>
      <g id="Grupo_152716" data-name="Grupo 152716" transform="translate(42.862 54.169)">
        <rect id="Rectángulo_43888" data-name="Rectángulo 43888" width="8.944" height="17.381" fill="#8ad7f8"/>
        <rect id="Rectángulo_43889" data-name="Rectángulo 43889" width="8.944" height="17.381" transform="translate(11.644)" fill="#8ad7f8"/>
      </g>
      <path id="Trazado_206654" data-name="Trazado 206654" d="M79.481,36.787,44.213,1.519a5.505,5.505,0,0,0-7.594,0L1.519,36.787a5.505,5.505,0,0,0,0,7.594,5.505,5.505,0,0,0,7.594,0L40.5,12.994,71.888,44.381a5.37,5.37,0,0,0,7.594-7.594Z" transform="translate(0 0)" fill="#f3705a"/>
    </g>
    <g id="Grupo_152713" data-name="Grupo 152713" transform="translate(1069 11951.439)">
      <g id="Grupo_149835" data-name="Grupo 149835">
        <path id="Trazado_198248" data-name="Trazado 198248" d="M161.261,443.427H2.4a2.109,2.109,0,1,1,0-4.177H161.261a2.109,2.109,0,1,1,0,4.177Z" transform="translate(0 -439.25)" fill="#855b51"/>
      </g>
    </g>
  </g>
</svg>
