<svg xmlns="http://www.w3.org/2000/svg" width="65.301" height="65.301" viewBox="0 0 65.301 65.301">
  <g id="Grupo_152776" data-name="Grupo 152776" transform="translate(0.389 0.389)">
    <g id="Grupo_152778" data-name="Grupo 152778" transform="translate(0.266 0.266)">
      <path id="Trazado_206797" data-name="Trazado 206797" d="M32.65,65.3A32.65,32.65,0,1,1,65.3,32.65,32.65,32.65,0,0,1,32.65,65.3" transform="translate(-0.655 -0.655)" fill="#869d69"/>
      <path id="Trazado_206798" data-name="Trazado 206798" d="M304.221,174.529a20.728,20.728,0,0,1,1.15-4.579l6.709-15.079a2.22,2.22,0,0,0,.226-1.1,2.3,2.3,0,0,0-4.354-.848h0l-2.12,4.63c-.025.017-.05.032-.074.046a.53.53,0,0,1-.838-.207l-.8-15.147h0l0-.034h0a2.457,2.457,0,0,0-4.851.255h0l0,.035h0l.694,13.206a.486.486,0,1,1-.971.051l-.7-13.241-.217-4.124h0l0-.034h0a2.225,2.225,0,0,0-4.435.233h0l0,.035h0l.015.289.9,17.077a.492.492,0,0,1-.971.051l-.9-17.077h0s0-.008,0-.012a2.083,2.083,0,1,0-4.159.219s0,.008,0,.012h0l.428,8.134.47,8.943a.492.492,0,0,1-.971.051q-.234-4.454-.468-8.908h0l0-.034h0a2.117,2.117,0,0,0-4.227.222h0l1.126,21.421a20.86,20.86,0,0,0,2.787,9.447l-.791.042a.731.731,0,0,0-.692.769l.179,3.4.151,2.874.052,1h0l.016.3a.429.429,0,0,0,.451.406l.3-.016,9.5-.5,8.337-.438a.429.429,0,0,0,.406-.451l-.219-4.175-.179-3.4a.731.731,0,0,0-.769-.692l-.369.019a20.706,20.706,0,0,1,.176-3.068" transform="translate(-261.979 -126.263)" fill="#6f8158"/>
      <path id="Trazado_206799" data-name="Trazado 206799" d="M247.181,211.518a2.117,2.117,0,1,1-2.226-2,2.117,2.117,0,0,1,2.226,2" transform="translate(-224.398 -193.604)" fill="#3b3b3b"/>
      <path id="Trazado_206800" data-name="Trazado 206800" d="M307.437,104.615a2.083,2.083,0,1,1-2.191-2.005,2.1,2.1,0,0,1,2.191,2.005" transform="translate(-279.954 -95.15)" fill="#3b3b3b"/>
      <path id="Trazado_206801" data-name="Trazado 206801" d="M372.422,97.592a2.224,2.224,0,1,1-2.329-2,2.171,2.171,0,0,1,2.329,2" transform="translate(-339.546 -88.689)" fill="#3b3b3b"/>
      <path id="Trazado_206802" data-name="Trazado 206802" d="M444,146.452a2.453,2.453,0,1,1-2.537-1.987A2.29,2.29,0,0,1,444,146.452" transform="translate(-405.085 -133.696)" fill="#3b3b3b"/>
      <path id="Trazado_206803" data-name="Trazado 206803" d="M271.291,136.966l-4.134-1.938-2.12,4.63c-.671.452-.912-.161-.912-.161l-.8-15.182-4.853.255.7,13.241a.486.486,0,0,1-.971.051q-.348-6.62-.7-13.241l-.219-4.159-4.437.233.017.324.9,17.077a.492.492,0,0,1-.971.051l-.9-17.077-4.159.219.428,8.134.47,8.943a.492.492,0,0,1-.971.051l-.47-8.943-4.229.222,1.126,21.421c.613,7.684,3.838,10.851,3.838,10.851l15.372-1.156a20.7,20.7,0,0,1,1.278-8.757l6.714-15.09" transform="translate(-224.411 -111.595)" fill="#ffb61d"/>
      <path id="Trazado_206804" data-name="Trazado 206804" d="M292.373,625.3l-17.534.922a.731.731,0,0,1-.769-.692l-.382-7.274a.731.731,0,0,1,.692-.769l17.534-.922a.731.731,0,0,1,.769.692l.382,7.274a.731.731,0,0,1-.692.769" transform="translate(-252.706 -568.473)" fill="#3b3b3b"/>
      <path id="Trazado_206805" data-name="Trazado 206805" d="M294.77,672.974a.429.429,0,0,0,.406-.451l-.219-4.175-18.995,1,.219,4.175a.429.429,0,0,0,.451.406Z" transform="translate(-254.801 -616.166)" fill="#333"/>
      <path id="Trazado_206806" data-name="Trazado 206806" d="M461.178,290.559a2.3,2.3,0,0,0-4.4-.739l-2.07,4.52c-.025.017-.05.032-.074.046-.732,1.252-2.9,4.983-3.36,6.043a22.509,22.509,0,0,0-2.343,8.326c-.079,1.5.169,5.026.326,7.018l3.713-.279a20.7,20.7,0,0,1,1.278-8.756l6.709-15.079a2.219,2.219,0,0,0,.226-1.1" transform="translate(-414.077 -266.276)" fill="#3b3b3b"/>
    </g>
  </g>
</svg>
