<svg xmlns="http://www.w3.org/2000/svg" xmlns:xlink="http://www.w3.org/1999/xlink" width="64" height="64" viewBox="0 0 64 64">
  <defs>
    <clipPath id="clip-path">
      <rect id="Rectángulo_43959" data-name="Rectángulo 43959" width="64" height="64" fill="none"/>
    </clipPath>
  </defs>
  <g id="Grupo_152774" data-name="Grupo 152774" transform="translate(-0.004 -0.004)">
    <g id="Grupo_152774-2" data-name="Grupo 152774" transform="translate(0.004 0.004)" clip-path="url(#clip-path)">
      <path id="Trazado_206790" data-name="Trazado 206790" d="M64.007,32A32,32,0,1,1,32,0a32,32,0,0,1,32,32" transform="translate(-0.007 -0.007)" fill="#869d69"/>
      <path id="Trazado_206791" data-name="Trazado 206791" d="M171.919,243.649h-.166q0-.1-.008-.192c0-.079-.008-.157-.013-.236q-.009-.149-.019-.3-.009-.126-.019-.251c0-.036-.005-.072-.008-.108h0a22.629,22.629,0,0,0-10.244-17.034h0l-.043-.027-.175-.112-.24-.15-.175-.107q-.18-.109-.362-.214l-.166-.095-.272-.152-.183-.1-.265-.14-.143-.075v-1.181a22.684,22.684,0,0,0-20.573,0v1.181l-.143.075-.265.14-.183.1-.272.152-.168.1q-.182.105-.361.213l-.175.107-.239.15-.176.112-.043.027h0a22.629,22.629,0,0,0-10.244,17.034h0c0,.036-.005.072-.008.108q-.01.125-.019.25-.01.148-.019.3c0,.079-.009.157-.013.236q0,.1-.008.192h-.166a2.805,2.805,0,1,0,0,5.611h45.576a2.805,2.805,0,1,0,0-5.611" transform="translate(-113.971 -203.617)" fill="#6f8158"/>
      <path id="Trazado_206792" data-name="Trazado 206792" d="M143.486,195.157a22.64,22.64,0,0,0-22.64,22.64,22.878,22.878,0,0,0,.143,2.559h44.994a22.878,22.878,0,0,0,.143-2.559,22.64,22.64,0,0,0-22.64-22.64" transform="translate(-111.488 -180.041)" fill="#ffb61d"/>
      <path id="Trazado_206793" data-name="Trazado 206793" d="M266.461,195.157a22.534,22.534,0,0,0-12.311,3.637l2.319,19h20.278l2.024-19a22.534,22.534,0,0,0-12.311-3.637" transform="translate(-234.463 -180.041)" fill="#e39d0b"/>
      <path id="Trazado_206794" data-name="Trazado 206794" d="M280.27,182.38v22.733h20.573V182.38a22.684,22.684,0,0,0-20.573,0" transform="translate(-258.559 -165.979)" fill="#fcc64a"/>
      <path id="Trazado_206795" data-name="Trazado 206795" d="M120.846,463.891a22.879,22.879,0,0,0,.143,2.559h44.994a22.879,22.879,0,0,0,.143-2.559q0-.995-.085-1.969H120.931q-.084.973-.085,1.969" transform="translate(-111.488 -426.134)" fill="#e39d0b"/>
      <path id="Trazado_206796" data-name="Trazado 206796" d="M131.119,475.895H85.542a2.805,2.805,0,1,0,0,5.611h45.576a2.805,2.805,0,1,0,0-5.611" transform="translate(-76.332 -439.025)" fill="#ffb61d"/>
    </g>
  </g>
</svg>
